<svg width="80" height="80" viewBox="0 0 80 80" fill="none" xmlns="http://www.w3.org/2000/svg">
<rect width="80" height="80" fill="#F8DEE2"/>
<g clip-path="url(#clip0_2393_15356)">
<path d="M46.875 27.6452C50.2868 23.2466 53.6925 18.8481 57.1043 14.4495C57.7467 13.6218 58.7163 12.6973 59.6799 13.1021C60.3768 13.3982 60.6252 14.2501 60.7828 14.9933C62.4008 22.6907 63.1159 30.5755 62.9159 38.4421C58.3709 34.0738 53.2502 30.3097 46.875 27.6452Z" fill="#FEFEFE"/>
<path d="M48.1604 27.7001C50.3298 25.0719 53.2023 21.779 55.693 18.4378C56.099 17.9 56.8262 17.5496 57.4868 17.6825C58.42 17.8698 58.7351 19.0359 58.8624 19.9845C59.5472 25.0779 60.232 30.2196 59.729 35.3311C56.7293 32.0745 52.9841 29.5248 48.1543 27.7001H48.1604Z" fill="#FFB9C0"/>
<path d="M34.277 27.0117C30.3865 23.036 26.4959 19.0604 22.6054 15.0848C21.8721 14.3356 20.7995 13.526 19.8905 14.0456C19.2299 14.4202 19.0784 15.2963 19.0118 16.0515C18.2846 23.8819 18.4785 31.8029 19.5754 39.591C23.5871 34.7272 28.2473 30.3952 34.277 27.0056V27.0117Z" fill="#FEFEFE"/>
<path d="M30.9127 27.6461C28.5251 25.2233 25.3072 22.0271 22.5317 18.9215C22.0833 18.42 20.9864 17.2418 20.3319 17.411C19.6168 17.5983 19.9441 20.3957 19.9319 21.3564C19.841 26.8606 19.6653 30.6248 20.1622 36.0444C22.865 32.534 26.2647 29.8937 30.9127 27.6461Z" fill="#FFB9C0"/>
<path d="M39.1848 24.3832C36.476 24.3832 27.6707 26.2864 25.2104 27.4344C20.4229 29.6639 15.284 32.2075 13.26 35.6696C12.5752 36.8357 11.6722 38.4307 12.7327 39.6573C13.6114 40.6784 13.9569 40.6361 15.3083 40.8596C12.9873 40.5454 10.6238 42.5393 10.4845 44.9138C10.3511 47.2883 12.4782 49.5419 14.8174 49.5057C12.6115 50.7503 11.7147 53.7411 12.454 56.1941C13.1994 58.6411 15.3083 60.496 17.6777 61.366C20.0472 62.2361 22.344 62.0548 24.8407 61.7044C24.4529 62.5201 24.7922 64.1635 25.4831 65.1C26.1739 66.0365 26.9435 66.5621 28.0101 66.9911C29.8099 67.7222 31.0947 68.1391 33.0218 67.9518C34.9489 67.7645 37.9122 66.6951 38.6879 64.8885C40.8998 67.1119 43.2996 68.0847 46.1175 67.9095C48.9354 67.7343 51.7715 65.6317 52.0321 62.7678C53.8259 64.3266 56.2438 65.2027 58.577 64.8643C60.9101 64.526 63.0856 62.8947 63.8492 60.6229C64.6067 58.3511 63.7583 55.5597 61.7403 54.3272C63.0614 56.3512 66.4065 56.0672 67.8791 54.158C69.3517 52.2427 69.1881 49.4271 68.1033 47.2581C67.0186 45.089 65.1885 43.4274 63.3947 41.8203C64.1522 42.9683 66.0126 42.9139 66.9459 41.9049C67.8791 40.8959 67.964 39.3008 67.4791 38.0078C66.9943 36.7148 66.0369 35.6696 65.0551 34.7149C55.8499 25.7547 46.0751 24.3711 39.1909 24.3711L39.1848 24.3832Z" fill="#FEFEFE"/>
<path d="M29.2095 40.5706C27.44 44.1172 30.9306 48.5218 34.1424 49.4402C37.0876 50.28 41.3478 50.1048 43.8688 48.3708C46.3958 46.6367 47.723 43.0297 46.311 40.2987C45.4323 38.6009 43.6748 37.4892 41.8265 36.9998C39.9843 36.5165 38.039 36.589 36.1422 36.7521C34.7423 36.8729 33.3061 37.0542 32.0577 37.7067C30.8094 38.3592 29.7125 39.5556 29.2095 40.5706Z" fill="#D4D4D4"/>
<path d="M37.4582 42.2559C37.5612 42.3767 37.3249 45.5246 37.3613 45.8085" stroke="black" stroke-linecap="round" stroke-linejoin="round"/>
<path d="M42.264 42.7038C39.7552 48.2685 33.3921 46.0269 32.5801 42.4863" stroke="black" stroke-linecap="round" stroke-linejoin="round"/>
<path d="M37.0161 42.4013C37.2464 42.5523 37.5131 42.5644 37.7676 42.4134C38.5311 41.9542 39.4523 40.9814 39.6583 39.8878C39.7189 39.5736 39.7492 39.2292 39.5735 38.9392C39.3795 38.619 38.9675 38.4619 38.5857 38.4317C38.2039 38.4015 37.8282 38.468 37.4464 38.468C36.7677 38.468 35.9556 38.2988 35.5254 38.7761C35.2951 39.0299 35.2708 39.4165 35.3617 39.7549C35.4587 40.0932 35.695 40.3772 35.8587 40.6974C36.3253 41.6279 36.8101 42.2683 37.0101 42.4013H37.0161Z" fill="#C4574E"/>
<path d="M36.7731 42.1407C37.0095 42.467 36.9307 41.3915 36.9246 41.0894C36.9186 40.6665 36.9913 40.4489 36.8761 40.171C36.761 39.8931 36.5489 39.7481 36.258 39.8085C36.0944 39.8387 35.9429 39.9595 35.8823 40.1166C35.8338 40.2435 35.8459 40.4127 35.9611 40.4791C36.058 40.5335 36.1914 40.4973 36.2944 40.5517C36.4216 40.6181 36.4822 40.9021 36.5125 41.0411C36.6156 41.4519 36.6156 41.76 36.7792 42.1407H36.7731Z" fill="#A83E34"/>
<path d="M38.809 40.7094C38.9969 40.6973 39.1908 40.6369 39.318 40.4979C39.4453 40.359 39.4938 40.1475 39.3968 39.9783C39.2817 39.7729 38.9908 39.7246 38.7726 39.8092C38.5545 39.8937 38.403 40.0871 38.2878 40.2865C37.9909 40.788 37.8515 41.3801 37.8757 41.9661C37.8757 42.0447 37.9 42.1414 37.9727 42.1655C38.0333 42.1836 38.0939 42.1474 38.1303 42.093C38.1606 42.0386 38.1666 41.9782 38.1727 41.9178C38.2393 41.4284 38.4999 40.9632 38.809 40.7094Z" fill="#A83E34"/>
<path d="M47.584 43.3077C54.9106 41.5676 62.4674 40.5767 70.0001 40.3652C62.7886 41.3682 54.8136 42.4135 47.584 43.3077Z" fill="#C4C4C4"/>
<path d="M48.2988 45.555C53.6498 45.0717 59.1099 45.3194 64.4004 46.274C59.2069 46.1471 53.4802 45.8873 48.2988 45.555Z" fill="#C4C4C4"/>
<path d="M48.209 47.9355C54.2872 48.6968 60.3472 49.869 66.2618 51.4399C60.1836 50.6786 54.1236 49.5065 48.209 47.9355Z" fill="#C4C4C4"/>
<path d="M26.0829 43.2456C19.2714 40.6536 11.7691 37.7475 5 35.0527C12.266 37.0526 19.3805 39.8138 26.0829 43.2456Z" fill="#C4C4C4"/>
<path d="M24.8597 45.2567C19.745 44.3444 14.1213 43.2387 9.04297 42.127C14.4122 42.4593 19.7753 43.5166 24.8597 45.2567Z" fill="#C4C4C4"/>
<path d="M24.3856 47.5898C18.2649 47.7046 12.1019 47.4086 6.01758 46.6956C12.1382 46.5808 18.3013 46.8829 24.3856 47.5898Z" fill="#C4C4C4"/>
<path d="M25.7428 37.1441C25.9428 35.8572 26.7851 34.9207 27.6275 35.0536C28.4638 35.1865 28.9789 36.3405 28.7789 37.6214C28.5789 38.9084 27.7366 39.8449 26.8942 39.7119C26.0519 39.579 25.5428 38.431 25.7489 37.1441H25.7428Z" fill="black"/>
<path d="M47.4618 36.7574C47.6617 35.4704 48.5041 34.5339 49.3464 34.6669C50.1827 34.7998 50.6978 35.9478 50.4918 37.2347C50.2857 38.5216 49.4494 39.4581 48.6071 39.3252C47.7648 39.1923 47.2557 38.0443 47.4618 36.7574Z" fill="black"/>
</g>
<defs>
<clipPath id="clip0_2393_15356">
<rect width="65" height="55" fill="white" transform="translate(5 13)"/>
</clipPath>
</defs>
</svg>
