<svg width="80" height="80" viewBox="0 0 80 80" fill="none" xmlns="http://www.w3.org/2000/svg">
<rect width="80" height="80" fill="#FBEED1"/>
<g clip-path="url(#clip0_2393_15441)">
<path d="M32.0188 29.8872C28.5223 25.6386 25.0257 21.3969 21.5292 17.1483C20.8727 16.3487 19.8915 15.4656 18.9724 15.9106C18.3021 16.2374 18.1017 17.0927 17.9774 17.8437C16.7197 25.583 16.3466 33.4753 16.8648 41.3119C21.1077 36.7712 25.931 32.8077 32.0257 29.8872H32.0188Z" fill="#FFBF75"/>
<path d="M30.7746 29.9977C28.5564 27.4667 25.6265 24.3028 23.0697 21.0763C22.6551 20.5548 21.9296 20.235 21.2938 20.3949C20.3886 20.6174 20.1329 21.7926 20.05 22.7452C19.5939 27.8491 19.1378 33.0086 19.8358 38.0847C22.6206 34.7192 26.1586 32.0143 30.7815 29.9977H30.7746Z" fill="#FFB9C0"/>
<path d="M46.1914 28.6574C49.8123 24.534 53.4333 20.4105 57.0542 16.287C57.7383 15.5082 58.7472 14.6599 59.6524 15.1397C60.3089 15.4874 60.4885 16.3496 60.5922 17.1076C61.6149 24.8886 61.76 32.7878 61.0068 40.6036C56.9022 35.9169 52.1963 31.7935 46.1914 28.6644V28.6574Z" fill="#FFBF75"/>
<path d="M49.4941 29.151C51.7192 26.6338 54.7182 23.317 57.2888 20.1045C57.7034 19.5829 58.7261 18.3661 59.3619 18.5051C60.0667 18.6581 59.8594 21.4673 59.9147 22.42C60.2325 27.9063 60.5573 31.6543 60.2947 37.0711C57.5238 33.6847 54.1101 31.1884 49.4941 29.1441V29.151Z" fill="#FFB9C0"/>
<path d="M45.7831 27.6773C53.6124 29.4226 59.8592 31.6825 63.1968 36.6613C66.8039 42.0363 68.6005 48.8856 65.3389 55.0812C53.8888 76.8389 26.0754 65.1569 21.7703 62.3616C16.2491 58.7736 11.7022 44.4701 20.7131 35.5C25.8957 30.3335 37.1178 25.7511 45.7831 27.6842V27.6773Z" fill="#FFBF75"/>
<mask id="mask0_2393_15441" style="mask-type:luminance" maskUnits="userSpaceOnUse" x="15" y="27" width="53" height="41">
<path d="M45.7831 27.6773C53.6124 29.4226 59.8592 31.6825 63.1968 36.6613C66.8039 42.0363 68.6005 48.8856 65.3389 55.0812C53.8888 76.8389 26.0754 65.1569 21.7703 62.3616C16.2491 58.7736 11.7022 44.4701 20.7131 35.5C25.8957 30.3335 37.1178 25.7511 45.7831 27.6842V27.6773Z" fill="white"/>
</mask>
<g mask="url(#mask0_2393_15441)">
<path d="M14.4531 43.1016C17.8667 43.6439 21.2735 44.1863 24.6871 44.7356C25.2744 44.826 25.9931 45.0555 26.0691 45.6535C26.1451 46.3072 25.3781 46.6896 24.7562 46.8704C22.1994 47.6005 19.6496 48.3376 17.0928 49.0677C16.5124 49.2346 15.7937 49.3667 15.3791 48.9217C15.1096 48.6296 15.075 48.1916 15.0681 47.7883C15.0474 46.3002 15.158 44.8121 14.46 43.1016H14.4531Z" fill="#FF8D67"/>
<path d="M14.9307 52.8427C18.1785 51.0765 21.8202 50.0682 25.5033 49.9153C25.9317 49.8944 26.374 49.8944 26.754 50.0891C27.1341 50.2838 27.4174 50.7427 27.2792 51.153C27.1617 51.4937 26.8093 51.6815 26.4845 51.8345C23.4924 53.2738 20.5003 54.7063 17.5082 56.1457C17.1835 56.2986 16.8241 56.4655 16.4717 56.3751C15.9465 56.243 15.7047 55.6172 15.6287 55.0748C15.5527 54.5324 15.5319 53.9275 14.9238 52.8427H14.9307Z" fill="#FF8D67"/>
<path d="M15.2755 59.8802C18.6822 57.4743 22.5933 55.8055 26.6773 55.0406C27.1333 54.9571 27.617 54.8806 28.0593 55.0128C28.5084 55.1449 28.9092 55.5482 28.8954 56.021C28.8816 56.5982 28.3011 56.9737 27.7967 57.2379C24.9497 58.7399 22.1027 60.2418 19.2488 61.7438C18.4749 62.1541 17.6595 62.5713 16.7888 62.5643C15.9181 62.5643 14.9783 61.9733 15.2686 59.8802H15.2755Z" fill="#FF8D67"/>
<path d="M67.3234 36.3496C64.6492 38.9433 61.5949 41.1267 58.2918 42.8164C57.967 42.9833 57.6146 43.171 57.4833 43.5187C57.2967 44.0055 57.6837 44.5687 58.1743 44.7495C58.665 44.9303 59.197 44.8329 59.7084 44.7356C62.1891 44.2628 64.663 43.7969 67.1437 43.324C67.7587 43.2058 68.4152 43.0667 68.8367 42.6009C69.5623 41.8012 69.2099 40.487 68.588 39.6039C67.973 38.7138 67.1161 37.9489 67.3234 36.3566V36.3496Z" fill="#FF8D67"/>
<path d="M70.2048 44.3253C66.4733 45.2084 62.7349 46.0915 59.0035 46.9746C58.6718 47.0511 58.3332 47.1345 58.0706 47.3501C57.808 47.5657 57.6422 47.9481 57.7804 48.2541C57.9324 48.5948 58.347 48.7061 58.7132 48.7686C61.1387 49.2137 63.5711 49.5961 66.0104 49.909C66.9087 50.0272 67.883 50.1246 68.6708 49.6726C69.4516 49.2276 69.887 48.3097 69.9906 47.4057C70.0943 46.5018 69.9215 45.5909 70.2048 44.3184V44.3253Z" fill="#FF8D67"/>
<path d="M69.2581 52.0377C65.5127 52.0795 63.3499 51.8152 60.2887 51.85C59.5907 51.857 58.6371 51.5649 58.4229 52.2394C58.2294 52.8444 61.2699 54.1029 61.6983 54.3324C63.0665 55.0556 64.0271 55.6397 65.9826 56.3629C66.3903 56.5158 66.8464 56.6619 67.2403 56.488C67.6411 56.3072 67.8415 55.8622 68.0004 55.445C68.4357 54.3463 68.8711 53.2477 69.265 52.0377H69.2581Z" fill="#FF8D67"/>
<path d="M32.918 28.1368C33.7956 30.202 34.6939 32.3158 36.1588 33.9986C36.3109 34.1724 36.5043 34.3602 36.7324 34.3463C36.9328 34.3324 37.0986 34.1585 37.1677 33.9638C37.2368 33.7691 37.2299 33.5536 37.2161 33.345C37.1263 31.5927 36.8913 29.8473 36.5113 28.1368C36.4629 27.9142 36.4007 27.6848 36.2348 27.5388C35.9861 27.3162 35.6129 27.3788 35.2951 27.4553C34.5695 27.6291 33.8439 27.803 32.918 28.1368Z" fill="#FF8D67"/>
<path d="M37.6788 26.0511C38.4458 28.7908 39.2128 31.5235 39.9799 34.2632C40.1181 34.75 40.3599 35.3341 40.8575 35.3688C41.1961 35.3966 41.5001 35.1185 41.6314 34.7986C41.7627 34.4788 41.7558 34.1241 41.7489 33.7765C41.7005 31.8017 41.659 29.8338 41.6107 27.859C41.5968 27.3722 41.583 26.8577 41.3343 26.4405C41.0509 25.9607 40.512 25.6895 39.9661 25.5991C39.4201 25.5156 38.8673 25.5991 37.6719 26.0441L37.6788 26.0511Z" fill="#FF8D67"/>
<path d="M43.0284 26.0518C43.2633 28.4368 43.5052 30.8219 43.7401 33.2139C43.7609 33.3947 43.7816 33.5825 43.8783 33.7354C43.982 33.8884 44.1893 34.0066 44.3897 33.9649C44.6592 33.9093 44.7767 33.6381 44.8458 33.4086C45.4677 31.4269 46.0965 29.4451 46.7184 27.4564C46.829 27.1087 46.9188 26.6984 46.6424 26.4481C46.4697 26.2951 46.214 26.2534 45.9652 26.2186C45.2466 26.1213 44.5279 26.017 43.0215 26.0518H43.0284Z" fill="#FF8D67"/>
</g>
<path d="M51.679 41.9732C53.5448 45.436 50.3315 49.9697 47.2427 51.0197C44.4164 51.9793 40.2634 51.9793 37.7343 50.3522C35.2052 48.7251 33.7679 45.1857 35.0255 42.4043C35.8133 40.6728 37.4786 39.4907 39.2476 38.9345C41.0235 38.3782 42.9169 38.3643 44.7689 38.4477C46.1371 38.5103 47.5398 38.6285 48.7767 39.2335C50.0137 39.8384 51.1331 40.9858 51.6652 41.9732H51.679Z" fill="#FFD8B2"/>
<path d="M43.7256 43.9902C43.6288 44.1154 43.9881 47.2445 43.9674 47.5226" stroke="black" stroke-linecap="round" stroke-linejoin="round"/>
<path d="M39.0742 44.6306C41.7415 50.0752 47.8432 47.5789 48.4859 44.0117" stroke="black" stroke-linecap="round" stroke-linejoin="round"/>
<path d="M44.1609 44.1151C43.9398 44.275 43.6841 44.2959 43.4284 44.1568C42.6614 43.7327 41.7285 42.7939 41.4867 41.7161C41.4176 41.4032 41.3692 41.0625 41.5281 40.7704C41.7078 40.4436 42.0948 40.2698 42.4679 40.2211C42.8411 40.1724 43.1589 40.2211 43.5252 40.2072C44.1816 40.1794 45.0178 39.9708 45.4531 40.4367C45.6881 40.68 45.7295 41.0625 45.6535 41.4032C45.5775 41.7439 45.3564 42.036 45.2113 42.3628C44.7966 43.3085 44.3544 43.9691 44.1609 44.1082V44.1151Z" fill="#C4574E"/>
<path d="M44.3385 43.795C44.1242 44.1287 44.1035 43.1344 44.1035 42.8284C44.1035 42.3486 44.1035 42.1678 44.2072 41.8827C44.3108 41.5977 44.5043 41.4516 44.7945 41.4933C44.9604 41.5212 45.1055 41.6324 45.1746 41.7854C45.2299 41.9106 45.223 42.0775 45.1124 42.147C45.0157 42.2096 44.8844 42.1748 44.7945 42.2304C44.6771 42.3069 44.6287 42.5851 44.601 42.7311C44.5181 43.1483 44.4836 43.4056 44.3385 43.788V43.795Z" fill="#9D3C33"/>
<path d="M42.3492 42.5007C42.1626 42.5007 41.976 42.4451 41.8447 42.3129C41.7134 42.1808 41.6651 41.9653 41.748 41.7984C41.8516 41.5898 42.135 41.5272 42.3492 41.6037C42.5634 41.6802 42.7154 41.8679 42.8398 42.0557C43.1507 42.5424 43.3097 43.1265 43.3097 43.7106C43.3097 43.7871 43.2959 43.8844 43.2199 43.9123C43.1646 43.9331 43.0955 43.8983 43.0678 43.8497C43.0333 43.801 43.0264 43.7384 43.0195 43.6758C42.9365 43.1891 42.6601 42.7371 42.3492 42.4937V42.5007Z" fill="#9D3C33"/>
<path d="M33.9191 45.4564C26.85 44.921 19.0484 44.2117 12 43.4468C19.3386 43.2869 26.7394 43.9614 33.9191 45.4564Z" fill="#FEFEFE"/>
<path d="M33.3183 47.7228C28.1011 48.3555 22.9323 48.8145 17.6875 49.1065C22.7941 47.8688 28.0804 47.4029 33.3183 47.7228Z" fill="#FEFEFE"/>
<path d="M33.5035 50.0938C27.8302 51.9573 21.9773 53.3828 16.0898 54.3285C21.7631 52.458 27.616 51.0394 33.5035 50.0938Z" fill="#FEFEFE"/>
<path d="M54.8301 44.5112C61.1736 40.7563 67.987 37.7106 75.0009 35.4785C68.5537 38.4964 61.374 41.7089 54.8301 44.5112Z" fill="#FEFEFE"/>
<path d="M56.1016 46.4652C60.9663 44.4557 66.1213 43.1762 71.3523 42.6895C66.2871 44.1219 61.2427 45.3666 56.1016 46.4652Z" fill="#FEFEFE"/>
<path d="M56.6621 48.773C62.5358 47.7578 68.5269 47.2015 74.4903 47.125C68.6167 48.1402 62.6256 48.6965 56.6621 48.773Z" fill="#FEFEFE"/>
<path d="M54.9121 38.4132C54.6633 37.1407 53.8065 36.2437 52.998 36.4106C52.1895 36.5775 51.7334 37.7457 51.9891 39.0182C52.2379 40.2907 53.0947 41.1877 53.9032 41.0208C54.7117 40.8539 55.1678 39.6857 54.9121 38.4132Z" fill="black"/>
<path d="M33.7676 38.9132C33.5188 37.6407 32.6619 36.7437 31.8534 36.9106C31.045 37.0775 30.5889 38.2457 30.8446 39.5182C31.0933 40.7907 31.9502 41.6877 32.7587 41.5208C33.5672 41.3539 34.0232 40.1857 33.7676 38.9132Z" fill="black"/>
</g>
<defs>
<clipPath id="clip0_2393_15441">
<rect width="63" height="53" fill="white" transform="translate(12 15)"/>
</clipPath>
</defs>
</svg>
