<svg width="80" height="80" viewBox="0 0 80 80" fill="none" xmlns="http://www.w3.org/2000/svg">
<rect width="80" height="80" fill="#DDCFF2"/>
<g clip-path="url(#clip0_2393_15281)">
<path d="M56.9295 10.0107C62.9795 9.62067 66.9295 20.0207 66.0795 25.0707C65.5595 28.1507 61.2595 32.1207 61.1595 32.6707C61.0795 33.1207 64.1895 37.9507 64.6295 39.0807C65.4095 41.0707 66.4095 45.0007 66.5995 47.1107C69.3395 77.4507 12.8195 86.6607 16.1195 50.1107C16.2495 48.6407 17.6495 44.3707 17.5095 43.6607C17.3095 42.6507 14.5395 41.6607 13.6795 40.5307C9.33951 34.8407 14.2395 19.6807 19.0895 15.0807C26.4395 8.12067 28.2095 23.8107 30.0695 28.1307C32.8195 27.9607 36.7095 29.1907 39.2295 28.7307C39.6195 28.6607 45.1195 26.5807 45.3895 26.3907C46.4795 25.6207 49.6595 17.5107 50.9795 15.4807C52.1495 13.6707 54.6695 10.1607 56.9295 10.0107Z" fill="#F9E5C8"/>
<path d="M54.9393 47.0204C57.4493 49.1604 59.8293 53.3404 60.0593 56.6704C60.4393 62.1804 56.1793 65.8704 51.1293 62.5704C48.6393 60.9404 49.0593 58.7004 44.8893 59.3704C39.5593 60.2304 38.4793 71.6104 32.4393 67.7504C28.5793 65.2804 28.3793 59.6904 29.7393 55.7204C32.9293 46.4304 40.9193 42.5004 50.3293 44.8704C51.6393 45.2004 53.9293 46.1504 54.9393 47.0104V47.0204Z" fill="#EFD2AC"/>
<path d="M19.4593 19.4493C23.8093 18.1393 27.4193 27.8093 27.1493 31.0993C26.8193 35.0893 19.0793 40.1093 16.0793 37.1293C13.4393 34.4993 15.3293 20.6993 19.4593 19.4493Z" fill="#EFD2AC"/>
<path d="M56.9398 13.9497C60.2398 13.6397 63.1598 22.1197 62.5098 24.9897C61.2398 30.5497 50.8998 31.7097 50.1298 27.5797C49.5098 24.2597 53.2798 14.2897 56.9498 13.9497H56.9398Z" fill="#EFD2AC"/>
<path d="M31.03 43.4292C32.3 44.1992 31.51 48.5792 28.61 47.1192C26.23 45.9192 28.23 41.7192 31.03 43.4292Z" fill="#251A11"/>
<path d="M54.9794 43.7303C54.2894 44.4403 52.9794 44.2203 52.1694 43.7803C51.1594 37.0503 58.2794 40.3203 54.9794 43.7303Z" fill="#251D11"/>
<path d="M46.0195 46.9596C48.9095 46.8396 49.7895 49.1296 48.5395 51.5296C44.2195 59.8196 30.0295 47.6396 46.0195 46.9596Z" fill="#080403"/>
</g>
<defs>
<clipPath id="clip0_2393_15281">
<rect width="54.7" height="63.9" fill="white" transform="translate(12 10)"/>
</clipPath>
</defs>
</svg>
