<svg width="340" height="176" viewBox="0 0 340 176" fill="none" xmlns="http://www.w3.org/2000/svg">
<g clip-path="url(#clip0_3381_14081)">
<rect width="340" height="176" fill="#D4DDFF"/>
<path d="M198.219 33.4602C125.997 28.5218 120.73 58.863 111.169 76.1521C107.58 82.632 101.434 87.432 95.1634 90.8935C86.9726 95.4165 77.2478 98.1765 67.1082 99.1734C1.86141 105.589 12.5027 170.536 37.0366 176H297.233C361.322 86.0289 270.451 38.3986 198.219 33.4602Z" fill="#AAB8EF"/>
<path d="M73.378 47.9253C35.762 48.0914 25.7092 75.3127 46.1139 90.6172C74.3331 111.783 151.823 47.5745 73.378 47.9253Z" fill="#AAB8EF"/>
<path d="M102.096 46H63.6758V90.29V126.27H102.096H140.526V90.29V46H102.096Z" fill="#5774CD"/>
<path d="M100.266 47.5898H65.5156V87.1798H100.266V47.5898Z" fill="#333F78"/>
<path d="M138.687 47.5898H103.938V87.1798H138.687V47.5898Z" fill="#333F78"/>
<path d="M100.266 91.5898H65.5156V123.74H100.266V91.5898Z" fill="#333F78"/>
<path d="M138.687 91.5898H103.938V123.74H138.687V91.5898Z" fill="#333F78"/>
<path d="M91.7964 52.0195C91.7964 52.0195 90.4364 53.2895 90.3464 53.5895C90.2464 53.8895 90.2964 57.2595 90.0264 57.5395C89.7564 57.8195 89.2564 58.1095 88.9864 58.0795C88.7164 58.0495 85.8164 56.6495 85.8164 56.6495L89.3264 61.1495C89.3264 61.1495 91.7664 60.4095 91.9964 59.9795C92.2264 59.5495 91.3364 54.3595 91.3364 54.3595C91.3364 54.3595 91.7364 53.3295 92.0064 52.8795C92.2764 52.4295 91.7964 52.0195 91.7964 52.0195Z" fill="#A0ABC0"/>
<path d="M95.4472 55.5195C95.4472 55.5195 93.6572 56.0195 93.4372 56.2395C93.2172 56.4595 91.6972 59.4695 91.3272 59.5895C90.9572 59.7095 90.3872 59.7395 90.1572 59.5895C89.9372 59.4395 87.8672 56.8095 87.8672 56.8095L89.0372 62.4695C89.0372 62.4695 91.5472 62.9395 91.9472 62.6695C92.3472 62.3995 93.9572 57.3795 93.9572 57.3795C93.9572 57.3795 94.7872 56.6495 95.2372 56.3795C95.6872 56.1095 95.4472 55.5195 95.4472 55.5195Z" fill="#717D96"/>
<path d="M86.6072 54.4702C86.6072 54.4702 89.1472 59.0902 89.4372 60.0902C89.7372 61.0802 90.7772 65.0102 89.7372 67.6402C88.6972 70.2702 84.5672 77.1802 84.5672 77.1802L84.7372 77.8202C85.1872 79.4802 85.2472 81.2102 84.9172 82.9002V82.9502C84.6072 84.4902 84.9172 84.5402 84.9172 84.5402L85.9572 85.8302C85.9572 85.8302 88.8372 85.7802 89.2872 87.1702H85.0572L82.0772 83.7402L81.9572 83.3802C81.4772 81.9202 80.5872 80.6402 79.3872 79.6902C79.2272 79.5602 79.0572 79.4302 78.8972 79.3002C77.9872 78.5802 77.2672 77.6602 76.7872 76.6102C76.7872 76.6102 76.7872 76.5902 76.7772 76.5802C75.9472 74.7602 75.5572 72.7602 75.6272 70.7602L76.0072 65.8702C76.0672 64.3102 75.6472 62.5502 75.1472 61.0802L74.6172 59.5302C76.4772 61.8102 77.4972 64.6702 77.4772 67.6102V70.2302C77.4572 72.1502 77.8772 74.0402 78.6972 75.7802C78.6972 75.7802 78.8972 71.3602 79.6372 69.0702C80.3872 66.7802 81.8772 62.1602 81.5772 59.3802C81.2772 56.6002 80.3372 55.1602 81.5272 53.4202C82.7172 51.6802 83.8672 50.7402 84.6072 50.9802C85.3572 51.2302 85.9472 51.5802 85.9472 51.5802L89.2772 49.9902C89.2772 49.9902 89.6272 51.5802 89.4272 51.8802C89.2272 52.1802 86.5972 54.4602 86.5972 54.4602L86.6072 54.4702Z" fill="#717D96"/>
<path d="M81.1187 54.4698C81.1187 54.4698 82.2787 53.5798 83.0287 54.2498C83.7787 54.9198 85.3787 55.3798 85.5687 56.5898C85.7587 57.7898 87.4287 59.6998 87.5087 60.8898C87.5787 62.0798 84.9087 64.5998 83.2587 63.1298C81.6087 61.6598 81.8387 59.9698 81.3587 59.1498C80.8787 58.3198 80.6387 55.5298 81.1287 54.4798L81.1187 54.4698Z" fill="#A0ABC0"/>
<path d="M93.8157 119.359C93.6557 118.919 93.4657 118.479 93.2257 118.079C93.0057 117.709 92.7057 117.379 92.2857 117.209C91.7957 117.019 91.3057 116.859 90.8157 116.669C90.1657 116.429 89.5457 116.179 89.3857 115.369C89.3057 114.929 89.1657 114.539 89.3157 114.069C89.5057 113.489 89.6457 112.869 89.6957 112.259C89.7757 111.399 89.5857 110.539 89.4657 109.689C89.4257 109.409 89.4357 109.079 89.5557 108.849C89.7157 108.519 89.9957 108.249 90.2557 107.969C90.5757 107.639 90.6757 107.229 90.7357 106.799C90.7557 106.699 90.7157 106.579 90.6757 106.479C90.5057 106.029 90.1157 105.929 89.6957 105.889C89.4557 105.869 89.2257 105.829 89.0957 105.579C89.0557 105.509 88.9357 105.449 88.8457 105.429C88.6057 105.379 88.3657 105.329 88.1257 105.329C87.8757 105.329 87.8357 105.189 87.7857 105.009C87.7257 104.789 87.6557 104.569 87.5957 104.359C87.5357 104.359 87.5357 104.359 87.4757 104.359C87.3857 104.679 87.2757 104.999 87.2257 105.329C87.1857 105.589 87.0357 105.769 86.7557 105.559C86.3957 105.299 86.0557 104.989 85.6957 104.719C85.4357 104.519 85.3257 104.569 85.2257 104.889C85.0957 105.309 85.2557 105.709 85.3257 106.119C85.4457 106.819 85.7457 107.509 85.6357 108.219C85.5257 108.909 85.4857 109.599 85.5057 110.289C85.5057 110.529 85.4157 110.629 85.2057 110.729C84.2357 111.179 83.2657 111.619 82.3057 112.109C81.4057 112.569 80.6057 113.189 79.8657 113.879C79.2457 114.459 78.7257 115.119 78.3357 115.879C77.9557 116.609 77.6957 117.389 77.5657 118.199C77.4957 118.649 77.4357 119.109 77.4157 119.569C77.3857 120.189 77.4157 120.799 77.4157 121.419C77.4157 121.429 77.4157 121.449 77.4157 121.459C77.4157 121.759 77.5057 123.729 79.6257 123.729C81.4357 123.729 83.2457 123.729 85.0557 123.729C86.0057 123.729 84.9357 122.749 84.9357 122.749C84.9357 122.749 84.8557 122.689 84.8157 122.649C84.7157 122.559 84.6157 122.439 84.4957 122.399C84.3257 122.339 84.1457 122.339 83.9657 122.329C83.7457 122.309 83.7057 122.259 83.7857 122.039C83.9757 121.509 84.1757 120.979 84.3357 120.439C84.3857 120.269 84.3357 120.049 84.2657 119.879C84.2057 119.699 84.1957 119.559 84.3057 119.399C84.4357 119.209 84.5357 118.979 84.6857 118.799C84.7657 118.699 84.9157 118.629 85.0457 118.619C85.1057 118.619 85.2157 118.779 85.2457 118.889C85.3557 119.439 85.4157 119.999 85.5557 120.529C85.6957 121.039 85.9157 121.529 86.1057 122.019C86.1557 122.149 86.2157 122.279 86.2857 122.419C86.4657 122.789 86.7257 123.109 87.0557 123.359C87.3657 123.599 87.7457 123.729 88.1457 123.729H88.2457C88.4957 123.729 88.7457 123.729 89.0057 123.729C89.3557 123.729 89.4557 123.559 89.2857 123.239C89.1657 123.019 88.3357 122.789 88.2157 122.569C87.9057 122.009 87.5957 121.459 87.3257 120.879C87.1057 120.399 86.9557 119.879 86.8757 119.359C86.7957 118.799 87.0757 118.289 87.2757 117.779C87.4457 117.349 87.5757 117.309 87.9957 117.499C88.6057 117.789 89.2557 117.999 89.9157 118.119C90.5557 118.239 91.1957 118.369 91.8257 118.509C92.1557 118.579 92.3357 118.809 92.4057 119.139C92.4857 119.479 92.5857 119.819 92.6957 120.149C92.7757 120.389 92.9957 120.439 93.2157 120.409C93.7157 120.339 93.9857 119.859 93.7957 119.349L93.8157 119.359Z" fill="#717D96"/>
<path d="M120.655 122.11L121.495 122.42L119.175 122.56C118.505 122.56 117.875 122.88 117.485 123.43C117.415 123.53 117.375 123.65 117.375 123.78V124.22L124.175 123.44C124.175 123.44 125.005 119.52 124.865 119.32C124.715 119.12 121.135 114.9 121.135 114.9C121.135 114.9 118.135 117.5 119.175 120.31C119.455 121.06 119.985 121.68 120.665 122.11H120.655Z" fill="#A0ABC0"/>
<path d="M111.567 95.7409L112.997 97.5309C112.997 97.5309 113.547 98.3109 113.547 98.7709C113.547 99.2309 113.087 101.111 113.087 101.111C113.087 101.111 112.797 101.891 112.827 102.481C112.857 103.071 112.277 104.531 112.277 105.441C112.277 106.351 111.337 107.361 111.557 109.351C111.787 111.341 113.547 114.491 113.547 114.491L113.877 122.591C113.877 122.591 112.417 123.211 112.287 123.401C112.157 123.601 112.357 124.251 112.357 124.251H114.567L114.667 124.081C115.157 123.251 115.467 122.321 115.587 121.361L116.297 115.301C116.297 115.301 116.967 116.331 118.317 117.111C119.667 117.891 122.287 117.891 122.287 117.891C122.287 117.891 120.917 120.321 123.267 122.061L123.697 122.561L120.437 122.711C120.127 122.721 119.837 122.831 119.587 123.021C119.137 123.361 118.867 123.891 118.857 124.451L126.217 123.991L126.287 123.121C126.297 122.961 126.257 122.811 126.167 122.681L125.977 122.221C125.977 122.221 127.257 121.361 127.317 120.321C127.317 120.321 127.817 120.211 128.267 120.431C128.727 120.651 129.637 122.081 132.147 121.781C134.667 121.481 136.857 119.961 137.077 118.311C137.077 118.311 136.037 119.921 133.887 120.261C131.737 120.611 129.117 118.521 129.117 118.521C129.117 118.521 128.317 115.851 127.377 114.251C126.447 112.641 119.437 105.091 119.437 105.091L119.457 98.9709C119.467 97.8409 119.157 96.7309 118.537 95.7709L118.387 95.5409L116.847 94.6209C116.697 94.5309 116.517 94.4909 116.337 94.5009L115.247 94.6009L112.877 92.6309C112.877 92.6309 111.467 93.6309 111.567 95.7309V95.7409Z" fill="#717D96"/>
<path d="M118.386 95.5503C118.386 95.5503 117.776 95.3303 117.146 95.8103C116.516 96.2903 116.426 98.2203 116.016 99.0603C115.606 99.9103 115.456 100.99 116.476 101.47C117.496 101.95 118.516 101.32 119.056 101.58C119.596 101.84 120.076 101.36 119.966 100.67C119.856 99.9803 119.946 96.1103 118.386 95.5503Z" fill="#A0ABC0"/>
<path d="M111.846 59.1091L112.356 56.7891L115.446 58.7091L113.676 60.1291C113.676 60.1291 113.116 58.6791 111.836 59.1091H111.846Z" fill="#E37B60"/>
<path d="M132.435 68.0293C132.435 68.0293 134.585 69.5793 135.675 73.8493C136.765 78.1193 136.915 80.4793 137.715 80.5393C138.515 80.5993 139.505 79.7993 139.505 79.7993C139.505 79.7993 139.095 81.3793 137.475 82.1493C135.855 82.9193 134.955 81.8993 134.955 81.8993L134.755 80.7693L134.305 82.0093C134.305 82.0093 132.845 81.4293 132.975 79.5993C133.105 77.7693 133.555 77.0193 133.555 77.0193C133.555 77.0193 132.365 78.7193 132.315 79.4393C132.315 79.4393 130.885 78.7693 131.205 77.3693C131.525 75.9693 132.395 74.7093 132.395 74.7093L130.555 76.7293C130.555 76.7293 130.075 75.3893 131.195 73.4693L129.935 75.0593C129.935 75.0593 130.465 72.8293 131.675 71.0693C132.885 69.3093 128.695 69.0093 128.695 69.0093L132.445 68.0293H132.435Z" fill="#717D96"/>
<path d="M125.485 74.6895C125.485 74.6895 125.355 79.0894 128.295 80.6994C129.005 81.0894 130.155 82.5195 129.935 83.2995C129.715 84.0495 127.965 85.5795 127.965 85.5795C127.965 85.5795 126.745 85.6695 126.195 87.0495C126.105 87.2695 126.505 87.2195 126.505 87.2195H129.615L132.295 82.6495L132.115 79.7794L130.375 75.3195L127.035 74.7794L125.505 74.6895H125.485Z" fill="#717D96"/>
<path d="M110.286 71.9492C110.286 71.9492 106.296 77.9392 105.426 79.2292C104.816 80.1392 104.816 81.2692 104.816 81.2692C104.816 81.2692 104.986 83.0892 105.346 83.4492C105.406 83.5092 105.496 83.5492 105.606 83.5792C106.516 83.8092 107.336 82.9492 107.076 82.0392C106.956 81.6192 106.856 81.2392 106.856 81.0792C106.856 80.6592 107.046 80.6292 107.046 80.6292L111.446 78.0892L112.886 73.8792L110.266 71.9492H110.286Z" fill="#717D96"/>
<path d="M113.376 73.2691L114.096 78.9591L113.756 85.4391C113.756 85.4391 112.356 85.7791 111.936 86.4991C111.516 87.2191 111.596 87.3291 111.596 87.3291H114.936C114.936 87.3291 117.666 80.8391 117.666 80.1191C117.666 79.3991 118.386 75.3791 118.386 74.8491C118.386 74.3191 117.926 71.9391 116.336 71.7491C114.746 71.5591 113.376 73.2691 113.376 73.2691Z" fill="#717D96"/>
<path d="M108.747 58.1989L109.607 57.0389C109.607 57.0389 112.437 56.2289 113.657 57.4389C114.047 57.8289 114.477 58.3889 114.657 59.1289C114.747 59.5189 114.767 60.2989 114.757 61.0089C114.757 61.7989 114.907 62.3189 115.227 63.0289C115.787 63.8789 118.096 65.6689 119.016 65.8889L118.367 65.8089C118.367 65.8089 119.607 66.4689 120.637 66.6389C124.627 67.2689 130.637 67.3789 131.977 67.7589C133.567 68.2089 134.537 72.9189 134.097 75.2889C133.657 77.6589 136.906 76.7089 137.686 78.2389C138.426 79.6889 135.587 86.3389 135.587 86.3389C135.587 86.3389 134.846 87.2389 134.716 87.3689H131.507C131.507 87.3689 131.606 85.2989 133.216 84.7689C134.826 84.2389 134.597 80.8089 134.597 80.8089C134.597 80.8089 130.007 81.4389 127.727 78.4589C125.977 76.1589 126.137 75.5489 126.307 75.3789C125.467 75.8489 119.597 79.0189 116.647 78.4589C113.457 77.8489 112.727 76.4589 112.727 76.4589L112.666 77.3289C112.666 77.3289 110.526 76.5489 110.736 74.8089C110.736 74.8089 110.416 75.0389 110.416 75.5289C110.416 75.5289 109.486 74.3389 109.486 70.5389C109.486 68.4189 109.567 63.0689 109.567 63.0689C109.567 63.0689 105.757 62.3689 105.257 61.8789C105.007 61.6289 104.696 60.2189 104.556 59.4989C104.506 59.2689 104.657 59.0489 104.887 59.0089L108.766 58.2189L108.747 58.1989Z" fill="#717D96"/>
<path d="M115.445 58.7091C115.445 58.7091 114.675 60.3791 113.875 60.6291C113.075 60.8791 112.355 56.7991 112.355 56.7991C112.355 56.7991 113.475 56.3691 114.425 57.3291C114.805 57.7091 115.445 58.7191 115.445 58.7191V58.7091Z" fill="#717D96"/>
<path d="M113.007 74.0391C113.957 75.1391 113.087 74.1291 113.737 74.8891C113.867 73.5491 113.447 71.8791 113.097 70.5591C113.687 71.1991 114.477 72.4591 114.857 72.9991C114.187 71.8391 114.357 69.5991 114.487 68.2891C114.487 68.2891 115.267 69.2091 115.577 69.5791C115.637 68.9791 115.737 67.6691 115.537 67.0891C115.327 66.4991 114.727 65.7991 114.267 65.3691C114.777 65.7891 115.407 66.4391 115.647 67.0491C115.987 67.8791 115.737 69.9491 115.737 70.0991C114.607 68.8191 115.377 69.6891 114.667 68.8891C114.597 69.9991 114.487 72.2991 114.997 73.2191C114.387 72.8391 113.817 72.0091 113.467 71.3691C114.377 73.7191 113.787 75.0991 113.787 75.1391C113.787 75.1391 113.737 75.0791 113.017 74.1391C112.977 74.2791 112.897 74.5891 112.887 74.7391C112.887 74.6791 112.957 74.2091 112.997 74.0391H113.007Z" fill="#717D96"/>
<path d="M140.526 89.3301H63.6758V89.6201H140.526V89.3301Z" fill="#ECFAFB"/>
<path d="M140.526 89.33H102.246V46H101.956V89.33H63.6758V89.62H101.956V126.13H102.246V89.62H140.526V89.33Z" fill="#ECFAFB"/>
<path d="M136.247 91.5898H135.567H131.407H130.737H126.577H125.907H121.737H121.067H116.907H116.237H112.077H111.397H107.237H106.567H103.867V123.74H104.187V91.9099H106.567V123.74H107.237V91.9099H111.397V123.74H112.077V91.9099H116.237V123.74H116.907V91.9099H121.067V123.74H121.737V91.9099H125.907V123.74H126.577V91.9099H130.737V123.74H131.407V91.9099H135.567V123.74H136.247V91.9099H138.617V123.74H138.937V91.5898H136.247Z" fill="#ECFAFB"/>
<path d="M65.3555 47.4297V87.3397H100.425V47.4297H65.3555ZM73.6455 47.7497H77.8055V87.0197H73.6455V47.7497ZM72.9755 87.0097H68.8155V47.7397H72.9755V87.0097ZM78.4855 47.7497H82.6455V87.0197H78.4855V47.7497ZM83.3155 47.7497H87.4755V87.0197H83.3155V47.7497ZM88.1455 47.7497H92.3055V87.0197H88.1455V47.7497ZM92.9855 47.7497H97.1455V87.0197H92.9855V47.7497ZM65.6755 47.7497H68.1455V87.0197H65.6755V47.7497ZM100.105 87.0097H97.8155V47.7397H100.105V87.0097Z" fill="#ECFAFB"/>
<path d="M103.867 47.4297V87.3397H138.937V47.4297H103.867ZM112.077 47.7497H116.237V87.0197H112.077V47.7497ZM111.397 87.0097H107.237V47.7397H111.397V87.0097ZM116.907 47.7497H121.067V87.0197H116.907V47.7497ZM121.737 47.7497H125.897V87.0197H121.737V47.7497ZM126.577 47.7497H130.737V87.0197H126.577V47.7497ZM131.407 47.7497H135.567V87.0197H131.407V47.7497ZM104.187 47.7497H106.567V87.0197H104.187V47.7497ZM138.617 87.0097H136.237V47.7397H138.617V87.0097Z" fill="#ECFAFB"/>
<path d="M138.937 123.74H103.867V124.06H138.937V123.74Z" fill="#ECFAFB"/>
<path d="M100.586 123.74H65.5156V124.06H100.586V123.74Z" fill="#ECFAFB"/>
<path d="M81.2759 123.66C81.1259 123.71 80.9759 123.76 80.8159 123.8C80.5959 123.87 80.3959 123.96 80.3459 124.21C80.2359 124.79 80.2159 125.36 80.4359 125.92C80.5659 126.24 80.6659 126.57 80.8159 126.89C81.0459 127.38 81.2759 127.87 81.5559 128.32C81.9259 128.92 82.4659 129.36 83.1459 129.58C84.3759 129.96 85.5059 129.68 86.5359 128.97C86.9859 128.66 87.4059 128.3 87.8259 127.94C87.9559 127.83 88.0459 127.83 88.1759 127.91C88.3059 127.99 88.4059 128.1 88.3359 128.25C88.2159 128.5 88.0959 128.78 87.9059 128.97C86.9759 129.93 85.8559 130.53 84.5159 130.71C83.1659 130.89 82.0159 130.46 81.0359 129.54C80.3259 128.88 79.8959 128.02 79.5959 127.13C79.0859 125.61 78.5859 124.1 78.0859 122.58L81.2859 123.66H81.2759Z" fill="#717D96"/>
<path d="M97.8156 91.5898H97.1456H92.9856H92.3056H88.1456H87.4756H83.3156H82.6456H78.4856H77.8056H73.6456H72.9756H68.8156H68.1456H65.5156V123.74H65.8356V91.9099H68.1456V123.74H68.8156V91.9099H72.9756V123.74H73.6456V91.9099H77.8056V123.74H78.4856V91.9099H82.6456V123.74H83.3156V91.9099H87.4756V123.74H88.1456V91.9099H92.3056V123.74H92.9856V91.9099H97.1456V123.74H97.8156V91.9099H100.266V123.74H100.586V91.5898H97.8156Z" fill="#ECFAFB"/>
<path d="M99.1149 156.845C61.1149 156.405 30.5549 125.125 31.0049 87.1149C31.4449 49.1149 62.7249 18.5549 100.735 19.0049C138.735 19.4449 169.295 50.7249 168.845 88.7349C168.405 126.735 137.125 157.295 99.1149 156.845ZM100.605 29.2549C68.2549 28.8749 41.6249 54.8849 41.2549 87.2349C40.8749 119.585 66.8849 146.215 99.2349 146.585C131.585 146.965 158.215 120.955 158.585 88.6049C158.965 56.2549 132.955 29.6249 100.605 29.2549Z" fill="#E1564F"/>
<path d="M143.548 38.795L48.4414 126.834L55.4044 134.356L150.511 46.3169L143.548 38.795Z" fill="#E1564F"/>
<path d="M206.041 37.8841C202.181 38.4906 192.741 18.6401 193.866 16.3573C195.002 14.0745 208.28 14.8685 209.559 17.2726C210.827 19.6768 207.805 37.6084 206.041 37.8841Z" fill="#62433D"/>
<path d="M281.984 155.874L277.672 167.311C282.326 169.968 294.038 168.369 297.622 154.275C297.622 154.275 289.88 159.878 281.973 155.874H281.984Z" fill="#F1A66B"/>
<path d="M161.587 176.001H274.029C274.029 176.001 291.2 149.523 275.805 140.171C265.869 134.138 254.521 138.395 244.948 130.235C235.376 122.074 220.113 107.175 217.632 96.5328C215.15 85.8907 157.33 134.491 161.587 175.99V176.001Z" fill="#F1A66B"/>
<path d="M229.621 115.433C233.415 118.289 238.466 122.171 240.528 123.77C240.528 123.77 236.425 123.307 234.727 122.899C233.029 122.502 229.621 115.422 229.621 115.422V115.433Z" fill="#F1A66B"/>
<path d="M224.418 109.566C228.212 112.422 233.262 116.304 235.325 117.903C235.325 117.903 231.222 117.44 229.524 117.032C227.826 116.624 224.418 109.555 224.418 109.555V109.566Z" fill="#F1A66B"/>
<path d="M233.934 121.232C238.058 123.57 243.572 126.791 245.822 128.114C245.822 128.114 241.697 128.18 239.955 127.993C238.212 127.816 233.934 121.232 233.934 121.232Z" fill="#F1A66B"/>
<path d="M240.395 126.693C244.707 128.678 250.474 131.402 252.834 132.527C252.834 132.527 248.732 132.946 246.978 132.913C245.236 132.88 240.395 126.693 240.395 126.693Z" fill="#F1A66B"/>
<path d="M246.594 132.482C251.512 133.144 257.07 133.949 259.066 134.247C259.066 134.247 255.923 135.824 254.435 136.364C252.869 136.938 246.594 132.482 246.594 132.482Z" fill="#F1A66B"/>
<path d="M254.617 135.107C259.359 135.273 265.733 135.56 268.336 135.692C268.336 135.692 264.708 137.655 263.087 138.306C261.466 138.956 254.617 135.107 254.617 135.107Z" fill="#F1A66B"/>
<path d="M216.924 136.387C214.509 137.567 184.314 172.25 180.785 176H200.184C200.184 176 209.149 170.75 212.27 166.052C218.247 157.054 220.607 145.154 222.383 141.559C225.085 136.078 219.35 135.207 216.935 136.376L216.924 136.387Z" fill="#F5C485"/>
<path d="M212.253 166.053C218.186 157.109 223.083 142.574 223.424 139.806C224.174 133.741 218.98 134.458 216.565 135.638C214.547 136.619 194.895 160.296 185.918 170.144C196.979 166.009 209.584 166.351 212.253 166.053Z" fill="#F3B675"/>
<path d="M159.085 146.887C157.618 147.737 151.365 174.303 149.832 176.001H167.499C167.499 176.001 170.388 154.938 169.66 150.99C168.933 147.042 160.54 146.038 159.074 146.887H159.085Z" fill="#F5C485"/>
<path d="M169.673 150.987C168.945 147.028 160.552 146.035 159.086 146.885C158.259 147.359 155.943 155.906 153.781 163.636C157.652 165.743 161.545 170.055 164.236 175.701C164.28 175.8 164.324 175.911 164.368 176.01H167.511C167.511 176.01 170.401 154.946 169.673 150.998V150.987Z" fill="#F3B675"/>
<path d="M214.621 79.8672C224.734 82.1721 242.996 102.023 245.125 111.088C245.831 114.098 227.469 112.389 222.506 109.191C218.878 104.879 214.621 79.8672 214.621 79.8672Z" fill="#F5C485"/>
<path d="M215.042 82.2383C223.28 84.1131 238.168 100.291 239.9 107.68C240.473 110.139 225.508 108.739 221.461 106.136C218.505 102.618 215.031 82.2383 215.031 82.2383H215.042Z" fill="#BD4C44"/>
<path d="M214.523 83.8496C222.541 86.1876 235.907 99.5756 236.988 105.079C237.352 106.909 222.618 104.097 218.824 101.748C216.2 98.8698 214.523 83.8496 214.523 83.8496Z" fill="#D1665A"/>
<path d="M168.328 172.097C156.263 164.289 128.605 121.368 139.236 92.9928C149.878 64.6176 183.58 19.2151 187.473 17.0867C191.377 14.9583 205.559 17.4396 205.559 20.6377C205.559 23.8359 206.617 49.3658 208.04 55.0453C209.463 60.7247 222.343 100.205 222.586 110.649C222.785 119.372 190.66 166.782 168.317 172.108L168.328 172.097Z" fill="#F5C485"/>
<path d="M205.635 23.2385C205.591 22.0033 205.569 21.088 205.569 20.6248C205.569 20.4925 205.536 20.3491 205.48 20.2168C205.525 21.1873 205.58 22.1908 205.624 23.2275L205.635 23.2385Z" fill="#F3B675"/>
<path d="M221.692 104.083C217.545 117.174 188.564 157.977 167.919 162.896C158.611 156.875 140.029 129.955 136.897 104.932C135.662 132.139 157.85 165.322 168.316 172.093C190.659 166.778 222.795 119.368 222.585 110.634C222.552 109.046 222.221 106.785 221.681 104.072L221.692 104.083Z" fill="#F3B675"/>
<path d="M205.589 78.3006C201.773 61.6372 202.799 45.8781 206.152 34.5523C205.788 27.9685 205.578 22.0685 205.578 20.6459C205.578 17.4588 191.385 14.9664 187.492 17.0948C183.588 19.2232 149.897 64.6258 139.255 93.001C128.613 121.376 156.283 164.297 168.347 172.105C173.95 170.771 180.169 166.79 186.345 161.43C201.112 132.592 208.886 92.615 205.611 78.3006H205.589Z" fill="#FFF8ED"/>
<path d="M167.573 167.52C160.35 163.075 147.568 145.188 140.18 127.135C146.576 147.823 160.637 168.148 168.334 173.122C173.937 171.787 180.156 166.781 186.332 161.421C189.056 157.583 190.622 152.621 192.221 148.485C185.196 157.782 173.473 166.185 167.584 167.52H167.573Z" fill="#E9CEAC"/>
<path d="M186.148 23.5137C183.358 25.7744 178.031 29.3696 180.027 31.498C182.023 33.6264 186.148 30.704 183.887 29.1049C182.652 28.2337 186.148 23.5137 186.148 23.5137Z" fill="#62433D"/>
<path d="M240.133 175.999H273.074C273.074 175.999 288.546 148.528 275.345 142.926C262.145 137.324 240.133 175.999 240.133 175.999Z" fill="#F3B675"/>
<path d="M245.602 175.998H226.391C226.391 175.998 227.857 170.793 232.655 169.734C237.452 168.664 247.454 170.671 247.454 170.671L245.59 176.009L245.602 175.998Z" fill="#F3B675"/>
<path d="M188.916 176H175.406C175.406 176 175.605 170.828 191.695 169.361L188.916 176Z" fill="#F5C485"/>
<path d="M154.642 176H141.133C141.133 176 141.331 170.828 157.421 169.361L154.642 176Z" fill="#F5C485"/>
<path d="M228.084 47.728C228.876 47.344 229.704 47.068 230.568 46.9C231.432 46.732 232.284 46.696 233.124 46.792C233.988 46.888 234.816 47.116 235.608 47.476C236.424 47.836 237.168 48.34 237.84 48.988C238.392 49.54 238.872 50.212 239.28 51.004C239.688 51.772 239.988 52.528 240.18 53.272C240.588 54.592 240.648 55.924 240.36 57.268C240.072 58.612 239.58 59.86 238.884 61.012C238.548 61.54 238.128 62.02 237.624 62.452C237.144 62.86 236.628 63.196 236.076 63.46C235.356 63.796 234.576 64.024 233.736 64.144C232.896 64.288 232.08 64.324 231.288 64.252C229.848 64.18 228.576 63.82 227.472 63.172C226.392 62.524 225.516 61.696 224.844 60.688C224.196 59.68 223.764 58.54 223.548 57.268C223.356 55.972 223.44 54.652 223.8 53.308C224.184 51.868 224.736 50.704 225.456 49.816C226.2 48.904 227.076 48.208 228.084 47.728ZM229.164 52.552C228.804 52.888 228.528 53.308 228.336 53.812C228.144 54.316 228.024 54.844 227.976 55.396C227.928 55.924 227.964 56.464 228.084 57.016C228.228 57.544 228.444 58.024 228.732 58.456C228.972 58.816 229.404 59.116 230.028 59.356C230.652 59.596 231.3 59.74 231.972 59.788C232.74 59.836 233.412 59.632 233.988 59.176C234.564 58.696 234.996 58.108 235.284 57.412C235.596 56.716 235.74 55.96 235.716 55.144C235.692 54.328 235.476 53.584 235.068 52.912C234.78 52.432 234.372 52.084 233.844 51.868C233.34 51.628 232.8 51.508 232.224 51.508C231.672 51.484 231.12 51.568 230.568 51.76C230.016 51.928 229.548 52.192 229.164 52.552ZM264.397 47.8C264.613 48.112 264.685 48.604 264.613 49.276C264.565 49.924 264.445 50.632 264.253 51.4C264.061 52.144 263.833 52.888 263.569 53.632C263.305 54.352 263.089 54.952 262.921 55.432C262.513 56.536 262.153 57.568 261.841 58.528C261.529 59.488 261.157 60.544 260.725 61.696C260.581 62.032 260.437 62.368 260.293 62.704C260.173 63.04 260.017 63.34 259.825 63.604C259.657 63.868 259.441 64.084 259.177 64.252C258.937 64.42 258.637 64.504 258.277 64.504C257.869 64.504 257.509 64.36 257.197 64.072C256.909 63.784 256.657 63.424 256.441 62.992C256.249 62.56 256.081 62.104 255.937 61.624C255.793 61.144 255.673 60.724 255.577 60.364C255.265 59.308 254.989 58.348 254.749 57.484C254.509 56.596 254.293 55.804 254.101 55.108C253.885 55.804 253.669 56.56 253.453 57.376C253.237 58.192 252.961 59.116 252.625 60.148C252.529 60.508 252.409 60.952 252.265 61.48C252.121 61.984 251.941 62.464 251.725 62.92C251.533 63.376 251.281 63.76 250.969 64.072C250.681 64.408 250.333 64.552 249.925 64.504C249.349 64.48 248.845 64.252 248.413 63.82C248.005 63.364 247.645 62.824 247.333 62.2C247.045 61.576 246.793 60.928 246.577 60.256C246.361 59.584 246.181 58.996 246.037 58.492C245.845 57.844 245.617 57.124 245.353 56.332C245.089 55.54 244.825 54.736 244.561 53.92C244.321 53.08 244.093 52.252 243.877 51.436C243.661 50.596 243.517 49.828 243.445 49.132C243.397 48.676 243.481 48.256 243.697 47.872C243.937 47.488 244.237 47.224 244.597 47.08C244.981 46.912 245.389 46.876 245.821 46.972C246.277 47.068 246.685 47.356 247.045 47.836C247.237 48.076 247.405 48.376 247.549 48.736C247.717 49.096 247.861 49.492 247.981 49.924C248.101 50.332 248.221 50.752 248.341 51.184C248.461 51.616 248.581 52.036 248.701 52.444C248.965 53.356 249.181 54.076 249.349 54.604C249.541 55.108 249.733 55.636 249.925 56.188C250.093 55.636 250.261 55.108 250.429 54.604C250.621 54.076 250.849 53.356 251.113 52.444C251.209 52.156 251.317 51.832 251.437 51.472C251.581 51.088 251.725 50.728 251.869 50.392C252.037 50.056 252.217 49.744 252.409 49.456C252.625 49.144 252.853 48.916 253.093 48.772C253.621 48.412 254.101 48.328 254.533 48.52C254.965 48.688 255.337 48.988 255.649 49.42C255.961 49.852 256.225 50.356 256.441 50.932C256.681 51.484 256.873 51.988 257.017 52.444C257.161 52.924 257.293 53.344 257.413 53.704C257.533 54.04 257.641 54.352 257.737 54.64C257.833 54.928 257.917 55.204 257.989 55.468C258.085 55.732 258.181 56.008 258.277 56.296C258.373 56.008 258.457 55.732 258.529 55.468C258.625 55.204 258.721 54.928 258.817 54.64C258.913 54.352 259.021 54.04 259.141 53.704C259.261 53.344 259.393 52.924 259.537 52.444C259.633 52.132 259.729 51.772 259.825 51.364C259.945 50.956 260.065 50.548 260.185 50.14C260.305 49.708 260.425 49.3 260.545 48.916C260.689 48.532 260.845 48.208 261.013 47.944C261.181 47.68 261.409 47.464 261.697 47.296C261.985 47.104 262.285 46.996 262.597 46.972C262.909 46.924 263.221 46.96 263.533 47.08C263.869 47.2 264.157 47.44 264.397 47.8ZM272.205 47.728C272.997 47.344 273.825 47.068 274.689 46.9C275.553 46.732 276.405 46.696 277.245 46.792C278.109 46.888 278.937 47.116 279.729 47.476C280.545 47.836 281.289 48.34 281.961 48.988C282.513 49.54 282.993 50.212 283.401 51.004C283.809 51.772 284.109 52.528 284.301 53.272C284.709 54.592 284.769 55.924 284.481 57.268C284.193 58.612 283.701 59.86 283.005 61.012C282.669 61.54 282.249 62.02 281.745 62.452C281.265 62.86 280.749 63.196 280.197 63.46C279.477 63.796 278.697 64.024 277.857 64.144C277.017 64.288 276.201 64.324 275.409 64.252C273.969 64.18 272.697 63.82 271.593 63.172C270.513 62.524 269.637 61.696 268.965 60.688C268.317 59.68 267.885 58.54 267.669 57.268C267.477 55.972 267.561 54.652 267.921 53.308C268.305 51.868 268.857 50.704 269.577 49.816C270.321 48.904 271.197 48.208 272.205 47.728ZM273.285 52.552C272.925 52.888 272.649 53.308 272.457 53.812C272.265 54.316 272.145 54.844 272.097 55.396C272.049 55.924 272.085 56.464 272.205 57.016C272.349 57.544 272.565 58.024 272.853 58.456C273.093 58.816 273.525 59.116 274.149 59.356C274.773 59.596 275.421 59.74 276.093 59.788C276.861 59.836 277.533 59.632 278.109 59.176C278.685 58.696 279.117 58.108 279.405 57.412C279.717 56.716 279.861 55.96 279.837 55.144C279.813 54.328 279.597 53.584 279.189 52.912C278.901 52.432 278.493 52.084 277.965 51.868C277.461 51.628 276.921 51.508 276.345 51.508C275.793 51.484 275.241 51.568 274.689 51.76C274.137 51.928 273.669 52.192 273.285 52.552ZM292.174 47.728C292.966 47.344 293.794 47.068 294.658 46.9C295.522 46.732 296.374 46.696 297.214 46.792C298.078 46.888 298.906 47.116 299.698 47.476C300.514 47.836 301.258 48.34 301.93 48.988C302.482 49.54 302.962 50.212 303.37 51.004C303.778 51.772 304.078 52.528 304.27 53.272C304.678 54.592 304.738 55.924 304.45 57.268C304.162 58.612 303.67 59.86 302.974 61.012C302.638 61.54 302.218 62.02 301.714 62.452C301.234 62.86 300.718 63.196 300.166 63.46C299.446 63.796 298.666 64.024 297.826 64.144C296.986 64.288 296.17 64.324 295.378 64.252C293.938 64.18 292.666 63.82 291.562 63.172C290.482 62.524 289.606 61.696 288.934 60.688C288.286 59.68 287.854 58.54 287.638 57.268C287.446 55.972 287.53 54.652 287.89 53.308C288.274 51.868 288.826 50.704 289.546 49.816C290.29 48.904 291.166 48.208 292.174 47.728ZM293.254 52.552C292.894 52.888 292.618 53.308 292.426 53.812C292.234 54.316 292.114 54.844 292.066 55.396C292.018 55.924 292.054 56.464 292.174 57.016C292.318 57.544 292.534 58.024 292.822 58.456C293.062 58.816 293.494 59.116 294.118 59.356C294.742 59.596 295.39 59.74 296.062 59.788C296.83 59.836 297.502 59.632 298.078 59.176C298.654 58.696 299.086 58.108 299.374 57.412C299.686 56.716 299.83 55.96 299.806 55.144C299.782 54.328 299.566 53.584 299.158 52.912C298.87 52.432 298.462 52.084 297.934 51.868C297.43 51.628 296.89 51.508 296.314 51.508C295.762 51.484 295.21 51.568 294.658 51.76C294.106 51.928 293.638 52.192 293.254 52.552ZM312.143 47.728C312.935 47.344 313.763 47.068 314.627 46.9C315.491 46.732 316.343 46.696 317.183 46.792C318.047 46.888 318.875 47.116 319.667 47.476C320.483 47.836 321.227 48.34 321.899 48.988C322.451 49.54 322.931 50.212 323.339 51.004C323.747 51.772 324.047 52.528 324.239 53.272C324.647 54.592 324.707 55.924 324.419 57.268C324.131 58.612 323.639 59.86 322.943 61.012C322.607 61.54 322.187 62.02 321.683 62.452C321.203 62.86 320.687 63.196 320.135 63.46C319.415 63.796 318.635 64.024 317.795 64.144C316.955 64.288 316.139 64.324 315.347 64.252C313.907 64.18 312.635 63.82 311.531 63.172C310.451 62.524 309.575 61.696 308.903 60.688C308.255 59.68 307.823 58.54 307.607 57.268C307.415 55.972 307.499 54.652 307.859 53.308C308.243 51.868 308.795 50.704 309.515 49.816C310.259 48.904 311.135 48.208 312.143 47.728ZM313.223 52.552C312.863 52.888 312.587 53.308 312.395 53.812C312.203 54.316 312.083 54.844 312.035 55.396C311.987 55.924 312.023 56.464 312.143 57.016C312.287 57.544 312.503 58.024 312.791 58.456C313.031 58.816 313.463 59.116 314.087 59.356C314.711 59.596 315.359 59.74 316.031 59.788C316.799 59.836 317.471 59.632 318.047 59.176C318.623 58.696 319.055 58.108 319.343 57.412C319.655 56.716 319.799 55.96 319.775 55.144C319.751 54.328 319.535 53.584 319.127 52.912C318.839 52.432 318.431 52.084 317.903 51.868C317.399 51.628 316.859 51.508 316.283 51.508C315.731 51.484 315.179 51.568 314.627 51.76C314.075 51.928 313.607 52.192 313.223 52.552Z" fill="#667BCB"/>
</g>
<defs>
<clipPath id="clip0_3381_14081">
<rect width="340" height="176" fill="white"/>
</clipPath>
</defs>
</svg>
