<svg width="340" height="160" viewBox="0 0 340 160" fill="none" xmlns="http://www.w3.org/2000/svg">
<g clip-path="url(#clip0_3381_14080)">
<rect width="340" height="160" fill="#D4DDFF"/>
<path d="M200.812 17.4602C127.15 12.5218 121.777 42.863 112.026 60.1521C108.366 66.632 102.097 71.432 95.7016 74.8935C87.3475 79.4165 77.4288 82.1765 67.0871 83.1734C0.539713 89.5887 11.3931 154.536 36.416 160H301.799C367.165 70.0289 274.483 22.3986 200.812 17.4602Z" fill="#AAB8EF"/>
<path d="M73.4836 31.9253C35.1177 32.0914 24.8645 59.3127 45.676 74.6172C74.4577 95.7831 153.492 31.5745 73.4836 31.9253Z" fill="#AAB8EF"/>
<path d="M106.093 51.3118H98.5706C96.9751 51.3118 95.6758 50.0125 95.6758 48.4169V40.8949C95.6758 39.2993 96.9751 38 98.5706 38H106.093C107.688 38 108.988 39.2993 108.988 40.8949V48.4169C108.988 50.0125 107.688 51.3118 106.093 51.3118ZM98.563 39.4664C97.7804 39.4664 97.1422 40.1047 97.1422 40.8873V48.4093C97.1422 49.1919 97.7804 49.8302 98.563 49.8302H106.085C106.868 49.8302 107.506 49.1919 107.506 48.4093V40.8873C107.506 40.1047 106.868 39.4664 106.085 39.4664H98.563Z" fill="#28374B"/>
<path d="M78.7785 110.744C79.0748 113.069 81.0579 114.817 83.4057 114.817H121.252C123.599 114.817 125.582 113.077 125.879 110.744L129.853 79.7363H74.8047L78.7785 110.744Z" fill="#EB6759"/>
<path d="M130.748 76.4919H129.434L125.87 48.721C125.574 46.396 123.591 44.6484 121.243 44.6484H83.3971C81.0493 44.6484 79.0662 46.3884 78.7699 48.721L75.2064 76.4919H74.4314C73.0865 76.4919 72 77.5784 72 78.9232C72 80.2681 73.0865 81.3546 74.4314 81.3546H130.741C132.085 81.3546 133.172 80.2681 133.172 78.9232C133.172 77.5784 132.085 76.4919 130.741 76.4919H130.748Z" fill="#ED7F6E"/>
<path d="M121.722 54.9272C121.456 52.8606 119.693 51.3105 117.611 51.3105H87.5912C85.5017 51.3105 83.7466 52.8606 83.4807 54.9272L80.3047 79.6817C80.3047 79.6817 80.3047 79.7424 80.3047 79.7728L83.4807 104.527C83.7466 106.594 85.5093 108.144 87.5912 108.144H117.603C119.693 108.144 121.456 106.594 121.714 104.527L124.89 79.7728C124.89 79.7728 124.89 79.712 124.89 79.6817L121.714 54.9272H121.722Z" fill="#6585E7"/>
<path d="M122.064 57.5962L121.912 56.4413H118.014V51.7305H116.859V56.4413H110.462V51.7305H109.307V56.4413H102.909V51.7305H101.754V56.4413H95.3568V51.7305H94.2019V56.4413H87.8044V51.7305H86.6495V56.4413H83.2912L83.1468 57.5962H86.6495V63.9937H82.3262L82.1818 65.1486H86.6571V71.5462H81.3612L81.2169 72.7011H86.6571V79.0986H80.3963L80.3203 79.6837C80.3203 79.6837 80.3203 79.7445 80.3203 79.7749L80.3811 80.2535H86.6571V86.6511H81.2017L81.346 87.806H86.6495V94.2036H82.1666L82.311 95.3585H86.6495V101.756H83.1316L83.2836 102.911H86.6495V108.024C86.9534 108.1 87.2725 108.138 87.5992 108.138H87.8044V102.911H94.2019V108.138H95.3568V102.911H101.754V108.138H102.909V102.911H109.307V108.138H110.462V102.911H116.859V108.138H117.604C117.741 108.138 117.877 108.131 118.014 108.116V102.903H121.92L122.072 101.748H118.014V95.3509H122.892L123.044 94.196H118.022V87.7984H123.865L124.009 86.6435H118.014V80.2459H124.83L124.89 79.7673C124.89 79.7673 124.89 79.7065 124.89 79.6761L124.814 79.091H118.014V72.6935H123.994L123.85 71.5386H118.014V65.141H123.029L122.885 63.9861H118.022V57.5886H122.064V57.5962ZM94.1943 101.771H87.7968V95.3737H94.1943V101.771ZM94.1943 94.2187H87.7968V87.8212H94.1943V94.2187ZM94.1943 86.6587H87.7968V80.2611H94.1943V86.6587ZM94.1943 79.1062H87.7968V72.7087H94.1943V79.1062ZM94.1943 71.5462H87.7968V65.1486H94.1943V71.5462ZM94.1943 63.9937H87.7968V57.5962H94.1943V63.9937ZM101.747 101.771H95.3492V95.3737H101.747V101.771ZM101.747 94.2187H95.3492V87.8212H101.747V94.2187ZM101.747 86.6587H95.3492V80.2611H101.747V86.6587ZM101.747 79.1062H95.3492V72.7087H101.747V79.1062ZM101.747 71.5462H95.3492V65.1486H101.747V71.5462ZM101.747 63.9937H95.3492V57.5962H101.747V63.9937ZM109.307 101.771H102.909V95.3737H109.307V101.771ZM109.307 94.2187H102.909V87.8212H109.307V94.2187ZM109.307 86.6587H102.909V80.2611H109.307V86.6587ZM109.307 79.1062H102.909V72.7087H109.307V79.1062ZM109.307 71.5462H102.909V65.1486H109.307V71.5462ZM109.307 63.9937H102.909V57.5962H109.307V63.9937ZM116.859 101.771H110.462V95.3737H116.859V101.771ZM116.859 94.2187H110.462V87.8212H116.859V94.2187ZM116.859 86.6587H110.462V80.2611H116.859V86.6587ZM116.859 79.1062H110.462V72.7087H116.859V79.1062ZM116.859 71.5462H110.462V65.1486H116.859V71.5462ZM116.859 63.9937H110.462V57.5962H116.859V63.9937Z" fill="#9DB4F9"/>
<path d="M117.604 108.967H87.5838C85.0992 108.967 82.987 107.106 82.6678 104.644L79.4919 79.8895C79.4767 79.7907 79.4767 79.6919 79.4919 79.5931L82.6678 54.8311C82.987 52.3617 85.0992 50.5078 87.5838 50.5078H117.604C120.088 50.5078 122.2 52.3693 122.52 54.8311L125.696 79.5855C125.711 79.6843 125.711 79.7907 125.696 79.8895L122.52 104.644C122.2 107.113 120.088 108.967 117.604 108.967ZM81.1102 79.7375L84.2786 104.439C84.4914 106.103 85.9122 107.349 87.5914 107.349H117.611C119.283 107.349 120.711 106.095 120.924 104.439L124.092 79.7375L120.924 55.0362C120.711 53.3723 119.29 52.1262 117.611 52.1262H87.5914C85.9198 52.1262 84.4914 53.3799 84.2786 55.0362L81.1102 79.7375Z" fill="#5061B2"/>
<path d="M101.115 148.845C63.1149 148.405 32.5549 117.125 33.0049 79.1149C33.4449 41.1149 64.7249 10.5549 102.735 11.0049C140.735 11.4449 171.295 42.7249 170.845 80.7349C170.405 118.735 139.125 149.295 101.115 148.845ZM102.615 21.2549C70.2649 20.8749 43.6349 46.8849 43.2649 79.2349C42.8849 111.585 68.8949 138.215 101.245 138.585C133.595 138.965 160.225 112.955 160.595 80.6049C160.975 48.2549 134.965 21.6249 102.615 21.2549Z" fill="#E1564F"/>
<path d="M145.556 30.7872L50.4492 118.826L57.4122 126.348L152.519 38.3091L145.556 30.7872Z" fill="#E1564F"/>
<path d="M270.794 148.269C268.414 146.099 267.044 143.439 266.504 141.449C266.184 140.289 266.874 139.089 268.034 138.769C269.194 138.459 270.384 139.139 270.704 140.289C270.724 140.359 271.434 142.759 273.504 144.809C276.224 147.499 280.014 148.409 284.794 147.519C289.494 146.639 293.104 143.979 295.234 139.829C298.174 134.109 297.934 126.449 294.604 119.329C290.454 110.479 285.744 95.1091 290.694 85.7791C293.254 80.9591 297.764 77.9091 303.724 76.9691C304.914 76.7791 308.074 76.9391 309.174 79.7891C310.164 82.3691 308.194 83.6991 307.004 83.8891C302.384 84.6191 299.154 86.8691 297.144 90.4391C291.534 100.419 294.544 108.919 298.554 117.489C302.454 125.819 302.664 134.919 299.114 141.829C296.384 147.149 291.584 150.699 285.594 151.819C278.674 153.109 273.874 151.099 270.784 148.289L270.794 148.269Z" fill="#FCECCB"/>
<path d="M296.984 90.7586C297.044 90.6486 297.094 90.5386 297.164 90.4286C299.174 86.8586 302.404 84.6086 307.024 83.8786C308.214 83.6886 310.184 82.3586 309.194 79.7786C308.094 76.9386 304.934 76.7686 303.744 76.9586C297.944 77.8786 293.524 80.7886 290.934 85.3886C292.074 87.2086 293.974 89.4186 296.994 90.7486L296.984 90.7586Z" fill="#FFBF75"/>
<mask id="mask0_3381_14080" style="mask-type:luminance" maskUnits="userSpaceOnUse" x="266" y="76" width="44" height="77">
<path d="M270.794 148.269C268.414 146.099 267.044 143.439 266.504 141.449C266.184 140.289 266.874 139.089 268.034 138.769C269.194 138.459 270.384 139.139 270.704 140.289C270.724 140.359 271.434 142.759 273.504 144.809C276.224 147.499 280.014 148.409 284.794 147.519C289.494 146.639 293.104 143.979 295.234 139.829C298.174 134.109 297.934 126.449 294.604 119.329C290.454 110.479 285.744 95.1091 290.694 85.7791C293.254 80.9591 297.764 77.9091 303.724 76.9691C304.914 76.7791 308.074 76.9391 309.174 79.7891C310.164 82.3691 308.194 83.6991 307.004 83.8891C302.384 84.6191 299.154 86.8691 297.144 90.4391C291.534 100.419 294.544 108.919 298.554 117.489C302.454 125.819 302.664 134.919 299.114 141.829C296.384 147.149 291.584 150.699 285.594 151.819C278.674 153.109 273.874 151.099 270.784 148.289L270.794 148.269Z" fill="white"/>
</mask>
<g mask="url(#mask0_3381_14080)">
<path d="M293.983 99.2897C288.883 99.2897 285.293 95.0497 285.113 94.8397L286.803 93.4297C286.973 93.6397 291.143 98.5097 296.413 96.6697L297.143 98.7397C296.043 99.1297 294.983 99.2897 293.993 99.2897H293.983Z" fill="#FFBF75"/>
<path d="M290.371 107.96C289.181 107.96 287.931 107.67 286.691 106.91L287.841 105.03C291.601 107.33 295.901 103.28 295.951 103.24L297.471 104.82C297.301 104.98 294.161 107.95 290.381 107.95L290.371 107.96Z" fill="#FFBF75"/>
<path d="M292.532 119.209C292.002 119.209 291.462 119.119 290.922 118.929L291.662 116.859C294.472 117.859 298.042 113.549 299.182 111.799L301.022 112.999C300.842 113.279 296.932 119.209 292.532 119.209Z" fill="#FFBF75"/>
<path d="M298.942 126.999C295.542 126.999 292.762 125.349 292.602 125.249L293.742 123.369C293.742 123.369 298.352 126.089 302.302 123.989L303.332 125.929C301.852 126.709 300.342 126.989 298.942 126.989V126.999Z" fill="#FFBF75"/>
<path d="M301.334 136.34C296.914 136.34 293.514 133.36 293.344 133.21L294.804 131.57C294.804 131.57 298.984 135.2 303.504 133.82L304.144 135.92C303.174 136.22 302.234 136.34 301.334 136.34Z" fill="#FFBF75"/>
<path d="M299.383 148.169C293.863 145.449 291.943 139.639 291.863 139.399L293.953 138.719C293.973 138.769 295.693 143.899 300.353 146.199L299.383 148.169Z" fill="#FFBF75"/>
<path d="M290.031 153.87C286.431 150.59 287.081 144.36 287.111 144.1L289.301 144.34C289.301 144.39 288.751 149.73 291.521 152.25L290.041 153.87H290.031Z" fill="#FFBF75"/>
<path d="M278.852 154.941C277.122 150.531 279.712 145.361 279.822 145.141L281.782 146.141C281.782 146.141 279.522 150.661 280.892 154.141L278.842 154.951L278.852 154.941Z" fill="#FFBF75"/>
<path d="M276.003 143.129C276.003 143.129 271.573 146.369 270.383 150.799" stroke="#93714D" stroke-width="6" stroke-miterlimit="10"/>
</g>
<path d="M256.093 100.45L231.433 95.7695C217.903 114.53 213.393 154.71 215.523 173.6C220.193 174.52 225.023 175 229.963 175C246.423 175 261.633 169.66 273.963 160.63C281.763 123.97 256.083 100.45 256.083 100.45H256.093Z" fill="#FCECCB"/>
<path d="M250.614 143.69C250.614 143.69 262.964 165.91 269.144 168.78C275.324 171.65 280.614 171.87 282.824 170.32C285.034 168.78 285.034 161.89 284.144 157.96C283.264 154.03 267.164 125.74 263.184 119.57C259.214 113.39 251.704 101.03 241.994 107.43C232.284 113.83 244.724 131.62 250.604 143.68L250.614 143.69Z" fill="#F2AF9C"/>
<path d="M188.82 74.9994C190.26 76.1994 194.89 76.1694 199.63 74.4494C204.38 72.7294 202.28 66.5094 201.84 62.3094C201.4 58.1194 204.44 53.5894 206.06 53.6994C207.68 53.8094 227.86 36.7594 227.86 36.7594C227.86 36.7594 234.05 36.5694 236.47 31.0694C238.9 25.5694 237.9 20.1594 236.47 19.3894C235.04 18.6194 231.47 21.2694 228.07 21.7094C228.07 21.7094 231.66 19.8294 232.69 14.3194C233.71 8.79945 231.7 5.70945 229.95 4.49945C228.2 3.28945 225.54 6.37945 218.21 8.35945C210.88 10.3494 202.16 12.8794 192.34 14.2094C182.52 15.5294 172.59 20.0594 173.03 31.5294C173.47 42.9994 183.07 54.4794 185.61 62.6394C188.15 70.7994 186.71 73.2594 188.81 74.9994H188.82Z" fill="#1B2636"/>
<path d="M229.961 36.6797C229.961 36.6797 232.731 44.1197 238.911 46.8697C238.911 46.8697 235.541 51.2797 231.411 52.0597L229.961 36.6797Z" fill="#F2AF9C"/>
<path d="M218.56 17.1899C225.22 17.8399 229.32 27.9499 231.47 38.2099C233.62 48.4699 233.1 66.6699 229.97 68.1599C226.84 69.6499 217.07 68.6599 213.27 69.6499C209.46 70.6399 216.41 90.8299 216.41 90.8299L190.76 95.6299C190.76 95.6299 193.24 83.7099 189.11 67.8299C184.97 51.9399 175.31 34.8999 181.27 27.1999C187.23 19.4899 206.66 16.0299 218.57 17.1899H218.56Z" fill="#F2AF9C"/>
<path d="M226.917 28.9419C225.801 29.7274 224.588 30.3777 223.451 31.1336C222.255 31.769 221.21 32.7008 219.978 33.29C220.034 30.2591 224.087 27.4499 226.907 28.9383L226.917 28.9419Z" fill="#28374B"/>
<path d="M230.9 56.6303C225.88 56.6303 223.38 52.1703 223.35 52.1203C223.31 52.0503 223.34 51.9703 223.4 51.9303C223.47 51.8903 223.55 51.9203 223.59 51.9803C223.62 52.0303 226.64 57.3903 232.68 56.1603C232.75 56.1403 232.83 56.1903 232.84 56.2703C232.86 56.3403 232.81 56.4203 232.73 56.4303C232.09 56.5603 231.48 56.6203 230.9 56.6203V56.6303Z" fill="#1B2636"/>
<path d="M206.48 60.1096C206.48 60.1096 207.24 70.2296 212.43 75.9096C211.91 72.6196 211.94 69.9896 213.26 69.6496C217.07 68.6596 226.83 69.6496 229.96 68.1596C229.96 68.1596 215.52 67.9396 212.43 65.7296C209.34 63.5196 206.48 60.0996 206.48 60.0996V60.1096Z" fill="#28374B"/>
<path d="M229.961 4.49945C228.211 3.28945 225.551 6.37945 218.221 8.35945C210.891 10.3494 202.171 12.8794 192.351 14.2094C182.531 15.5294 172.601 20.0594 173.041 31.5294C173.481 42.9994 183.081 54.4794 185.621 62.6394C188.161 70.7994 186.721 73.2594 188.821 74.9994C190.261 76.1994 194.891 76.1694 199.631 74.4494C204.381 72.7294 202.281 66.5094 201.841 62.3094C201.441 58.5194 203.891 54.4694 205.561 53.8094L206.401 45.2994C215.591 38.9894 212.211 29.1094 212.211 29.1094C216.731 28.0094 224.321 26.1094 228.081 21.7194L228.801 21.2294C229.901 20.3694 231.961 18.2894 232.691 14.3294C233.711 8.80945 231.701 5.71945 229.951 4.50945L229.961 4.49945Z" fill="#28374B"/>
<path d="M207.933 38.4613C205.583 38.4613 202.403 38.2913 198.823 37.6213C191.953 36.3413 182.173 32.9213 174.593 23.9313C174.563 23.8913 174.563 23.8413 174.593 23.8113C174.623 23.7813 174.673 23.7713 174.713 23.8013C174.763 23.8313 179.553 27.3113 186.613 30.3213C193.123 33.1013 202.943 36.0413 212.773 34.3013C212.823 34.3013 212.873 34.3213 212.883 34.3713C212.883 34.4213 212.863 34.4713 212.813 34.4813C202.943 36.2413 193.083 33.2813 186.553 30.4913C180.903 28.0813 176.703 25.3713 175.213 24.3613C182.683 32.9113 192.163 36.2013 198.863 37.4513C206.283 38.8413 211.983 38.0913 212.043 38.0913C212.093 38.0813 212.143 38.1213 212.143 38.1713C212.143 38.2213 212.113 38.2713 212.063 38.2713C212.033 38.2713 210.473 38.4813 207.943 38.4813L207.933 38.4613Z" fill="#334761"/>
<path d="M175.682 22.3204C175.682 22.3204 175.632 22.3104 175.612 22.2904C175.582 22.2504 175.582 22.1904 175.612 22.1604C183.062 15.6104 194.512 16.7104 204.612 17.6804C209.982 18.2004 215.052 18.6804 218.692 17.8704C228.892 15.5904 231.312 6.07035 231.332 5.97035C231.342 5.92035 231.392 5.89035 231.442 5.90035C231.492 5.91035 231.522 5.96035 231.512 6.01035C231.492 6.11035 229.042 15.7404 218.732 18.0404C215.062 18.8604 209.982 18.3704 204.602 17.8504C194.542 16.8804 183.132 15.7804 175.742 22.2804C175.722 22.3004 175.702 22.3004 175.682 22.3004V22.3204Z" fill="#334761"/>
<path d="M219.823 22.3605C215.413 22.3605 209.303 21.4105 202.353 17.6405C202.313 17.6205 202.293 17.5605 202.313 17.5205C202.333 17.4805 202.393 17.4605 202.433 17.4805C210.553 21.8805 217.533 22.4205 221.943 22.1005C226.733 21.7505 229.633 20.3505 229.663 20.3305C229.713 20.3105 229.763 20.3305 229.783 20.3705C229.803 20.4205 229.783 20.4705 229.743 20.4905C229.713 20.5005 226.783 21.9205 221.973 22.2705C221.313 22.3205 220.593 22.3505 219.823 22.3505V22.3605Z" fill="#334761"/>
<path d="M209.619 57.1092L206.809 46.0092C206.809 46.0092 203.249 38.9092 198.519 42.6092C193.779 46.3092 201.179 59.6292 209.619 57.1092Z" fill="#F2AF9C"/>
<path d="M163.892 14.7C147.042 15.22 147.452 33.35 152.312 43.11C157.162 52.87 171.072 80.78 152.422 91.93C152.422 91.93 164.342 93.25 173.052 84.54C181.772 75.82 183.122 57.6 181.322 42.51C179.532 27.42 178.122 14.27 163.892 14.71V14.7Z" fill="#1B2636"/>
<path d="M152.424 92.0199C152.424 92.0199 152.344 91.9899 152.334 91.9599C152.314 91.9099 152.344 91.8599 152.394 91.8499C166.114 87.5499 172.834 70.9899 170.284 58.8099C169.264 53.9099 167.104 48.8399 165.024 43.9299C161.884 36.5199 158.914 29.5299 160.044 23.8299C161.914 14.3999 170.304 15.5999 170.384 15.6199C170.434 15.6199 170.464 15.6699 170.464 15.7199C170.464 15.7699 170.414 15.7999 170.364 15.7999C170.284 15.7899 162.064 14.6199 160.234 23.8699C159.114 29.5099 162.074 36.4799 165.204 43.8599C167.284 48.7699 169.444 53.8599 170.474 58.7699C171.764 64.9399 170.694 72.0899 167.544 78.3999C164.144 85.1999 158.784 90.0399 152.464 92.0199C152.464 92.0199 152.444 92.0199 152.434 92.0199H152.424Z" fill="#334761"/>
<path d="M162.512 90.8491C162.512 90.8491 162.452 90.8291 162.432 90.8091C162.402 90.7691 162.422 90.7091 162.462 90.6791C162.482 90.6591 164.942 89.0691 167.192 84.8291C169.262 80.9191 171.572 73.8991 170.802 62.6391C170.802 62.5891 170.832 62.5491 170.892 62.5391C170.942 62.5391 170.982 62.5691 170.992 62.6291C171.762 73.9391 169.442 80.9991 167.352 84.9291C165.082 89.1991 162.592 90.8091 162.572 90.8291C162.552 90.8291 162.542 90.8391 162.522 90.8391L162.512 90.8491Z" fill="#334761"/>
<path d="M163.683 84.2599C163.683 84.2599 163.663 84.2599 163.653 84.2599C163.603 84.2399 163.583 84.1899 163.603 84.1399C168.033 72.3799 162.863 60.7399 157.863 49.4799C155.653 44.4899 153.553 39.7899 152.343 35.1799C149.423 24.1099 154.713 17.5699 154.763 17.5099C154.793 17.4699 154.853 17.4699 154.893 17.4999C154.933 17.5299 154.933 17.5899 154.903 17.6299C154.853 17.6899 149.623 24.1599 152.513 35.1399C153.723 39.7299 155.813 44.4299 158.023 49.4099C163.043 60.6999 168.223 72.3799 163.763 84.2099C163.753 84.2499 163.713 84.2699 163.673 84.2699L163.683 84.2599Z" fill="#334761"/>
<path d="M171.72 87.7798C171.72 87.7798 171.66 87.7698 171.65 87.7398C171.62 87.6998 171.63 87.6398 171.67 87.6098C183.6 79.0898 184.31 62.0598 182.8 49.2798C181.17 35.4098 176.64 23.4098 176.6 23.2898C176.58 23.2398 176.6 23.1898 176.65 23.1698C176.7 23.1498 176.75 23.1698 176.77 23.2198C176.82 23.3398 181.34 35.3598 182.98 49.2498C183.94 57.4098 183.73 64.6098 182.36 70.6498C180.64 78.2098 177.08 83.9598 171.77 87.7498C171.75 87.7598 171.74 87.7698 171.72 87.7698V87.7798Z" fill="#334761"/>
<path d="M183.48 100.449C183.48 100.449 186.61 93.5293 189.04 90.7693C191.47 88.0093 209.44 83.6193 218.22 86.2593C226.99 88.9093 230.04 94.1993 230.04 94.1993L183.48 100.449Z" fill="#93B6F8"/>
<path d="M245.12 97.6688C232.32 91.4188 217.29 86.7989 196.11 91.9389C186 94.3889 173.8 104.579 173.04 113.179C172.47 119.669 178.02 144.069 185.69 160.429C198.07 169.589 213.39 175.009 229.98 175.009C235.99 175.009 241.84 174.289 247.44 172.949L248.33 149.529C248.33 149.529 250.62 154.889 252.17 156.219C253.71 157.539 263.64 153.569 269.16 148.279C274.68 142.979 277.54 137.689 275.78 133.279C274.01 128.869 257.93 103.939 245.14 97.6889L245.12 97.6688Z" fill="#5774CD"/>
<mask id="mask1_3381_14080" style="mask-type:luminance" maskUnits="userSpaceOnUse" x="173" y="89" width="104" height="87">
<path d="M245.12 97.6688C232.32 91.4188 217.29 86.7989 196.11 91.9389C186 94.3889 173.8 104.579 173.04 113.179C172.47 119.669 178.02 144.069 185.69 160.429C198.07 169.589 213.39 175.009 229.98 175.009C235.99 175.009 241.84 174.289 247.44 172.949L248.33 149.529C248.33 149.529 250.62 154.889 252.17 156.219C253.71 157.539 263.64 153.569 269.16 148.279C274.68 142.979 277.54 137.689 275.78 133.279C274.01 128.869 257.93 103.939 245.14 97.6889L245.12 97.6688Z" fill="white"/>
</mask>
<g mask="url(#mask1_3381_14080)">
<path d="M170.909 111.729C173.039 110.229 175.179 108.599 177.639 107.679C178.849 107.229 180.129 106.959 181.429 106.979C182.619 106.999 183.879 107.209 184.979 107.679C185.679 107.979 186.339 108.429 186.719 109.049C187.069 109.619 187.189 110.249 187.189 110.919C187.189 112.519 186.569 114.129 186.059 115.659C185.479 117.389 184.839 119.229 184.959 121.079C185.009 121.849 185.209 122.609 185.719 123.199C186.149 123.699 186.779 123.999 187.419 124.149C189.009 124.509 190.709 124.199 192.299 123.979C194.189 123.719 196.079 123.489 197.989 123.679C199.709 123.849 201.479 124.389 202.659 125.709C204.049 127.259 204.209 129.499 204.159 131.479C204.109 133.169 203.719 134.919 202.549 136.159C201.419 137.359 199.779 137.939 198.179 138.289C197.189 138.499 196.199 138.609 195.189 138.719C194.139 138.839 193.079 138.989 192.099 139.399C191.099 139.809 190.229 140.479 189.719 141.449C189.439 141.969 189.259 142.489 189.199 143.069C189.139 143.649 189.199 144.229 189.269 144.809C189.409 145.949 189.679 147.179 189.329 148.309C189.169 148.829 188.859 149.319 188.569 149.779C188.309 150.189 188.039 150.589 187.719 150.949C187.189 151.579 186.579 152.129 185.869 152.529C185.539 152.719 185.259 152.849 184.899 152.959C184.729 153.019 184.559 153.059 184.379 153.099C184.299 153.119 184.209 153.129 184.129 153.149C184.019 153.169 183.999 153.169 183.919 153.179C182.469 153.339 181.079 152.929 179.809 152.229C178.339 151.419 177.089 150.279 176.009 148.999C174.859 147.639 173.909 146.099 173.209 144.469C172.549 142.949 172.109 141.299 172.069 139.649C172.069 139.279 172.069 138.909 172.109 138.539C172.129 138.349 172.139 138.229 172.169 138.039C172.219 137.749 172.389 137.509 172.409 137.219C172.449 136.749 171.719 136.749 171.679 137.219C171.679 137.329 171.569 137.459 171.529 137.559C171.479 137.689 171.459 137.819 171.439 137.949C171.409 138.159 171.379 138.369 171.359 138.579C171.319 138.979 171.319 139.379 171.329 139.779C171.359 140.629 171.499 141.489 171.699 142.309C172.139 144.069 172.899 145.759 173.859 147.299C174.819 148.829 175.989 150.249 177.379 151.419C178.619 152.469 180.059 153.359 181.649 153.739C183.139 154.099 184.699 153.959 186.069 153.239C187.739 152.359 188.989 150.729 189.799 149.059C190.359 147.919 190.239 146.639 190.069 145.429C189.929 144.339 189.679 143.109 190.189 142.089C190.439 141.599 190.709 141.159 191.129 140.799C191.499 140.469 191.949 140.219 192.399 140.039C193.369 139.659 194.419 139.519 195.449 139.409C197.399 139.209 199.389 138.929 201.169 138.039C202.669 137.289 203.809 136.049 204.369 134.459C204.699 133.539 204.829 132.559 204.859 131.589C204.899 130.419 204.859 129.199 204.589 128.049C204.159 126.169 202.989 124.599 201.239 123.769C199.439 122.919 197.369 122.779 195.409 122.879C193.579 122.969 191.789 123.359 189.969 123.499C189.229 123.559 188.409 123.579 187.729 123.449C187.569 123.419 187.409 123.379 187.249 123.329C187.059 123.269 187.019 123.249 186.859 123.169C186.559 123.019 186.409 122.899 186.189 122.639C186.149 122.589 186.199 122.659 186.159 122.609C186.139 122.579 186.109 122.539 186.089 122.509C186.039 122.439 185.999 122.369 185.959 122.289C185.889 122.149 185.849 122.049 185.789 121.859C185.669 121.459 185.639 121.069 185.639 120.649C185.639 119.689 185.849 118.729 186.109 117.809C186.579 116.129 187.269 114.499 187.649 112.799C187.989 111.299 188.089 109.619 187.089 108.339C186.539 107.639 185.759 107.189 184.939 106.879C183.759 106.429 182.439 106.229 181.179 106.239C178.479 106.259 175.999 107.419 173.759 108.849C172.649 109.559 171.579 110.329 170.509 111.089C170.129 111.359 170.489 111.999 170.879 111.719L170.909 111.729Z" fill="white"/>
<path d="M227.879 89.6386C225.449 89.5086 223.069 90.1986 221.009 91.4686C218.949 92.7386 217.159 94.4886 215.919 96.5686C214.759 98.5186 214.199 101.079 215.209 103.209C216.009 104.889 217.719 105.839 218.749 107.339C219.219 108.019 219.479 108.749 219.459 109.559C219.449 110.279 219.219 111.009 218.899 111.679C218.139 113.279 216.989 114.659 216.009 116.129C215.029 117.609 214.129 119.239 214.039 121.049C213.939 123.059 214.829 124.959 216.449 126.139C217.269 126.739 218.229 127.129 219.209 127.379C220.239 127.639 221.389 127.689 222.389 127.299C223.279 126.949 223.999 126.319 224.719 125.719C225.659 124.939 226.659 124.169 227.759 123.609C228.649 123.159 229.619 122.919 230.619 122.999C231.509 123.069 232.359 123.399 233.169 123.749C235.179 124.609 237.229 125.689 239.479 125.539C243.709 125.269 246.299 121.339 247.579 117.699C248.429 115.289 248.949 112.779 249.639 110.329C250.479 107.349 251.429 104.329 252.939 101.609C253.599 100.429 254.339 99.3286 255.359 98.4386C255.599 98.2286 255.749 98.1086 256.029 97.9286C256.269 97.7686 256.519 97.6386 256.779 97.5186C256.859 97.4786 256.809 97.5086 256.909 97.4686C256.969 97.4486 257.039 97.4186 257.099 97.3986C257.239 97.3486 257.379 97.3086 257.519 97.2786C257.829 97.1986 257.979 97.1786 258.299 97.1686C258.439 97.1686 258.579 97.1686 258.719 97.1686C258.789 97.1686 258.859 97.1686 258.939 97.1886C258.979 97.1886 259.009 97.1886 259.049 97.1986C259.169 97.2086 258.979 97.1886 259.099 97.1986C259.409 97.2486 259.709 97.3186 259.999 97.4086C260.449 97.5486 260.639 96.8486 260.189 96.6986C259.019 96.3286 257.759 96.3086 256.619 96.7786C255.459 97.2586 254.509 98.1086 253.739 99.0786C251.849 101.439 250.739 104.379 249.809 107.229C248.939 109.879 248.299 112.589 247.559 115.279C247.189 116.639 246.759 117.989 246.149 119.259C245.319 120.989 244.179 122.669 242.559 123.739C241.779 124.259 240.909 124.609 239.989 124.749C238.889 124.919 237.829 124.749 236.779 124.419C235.779 124.099 234.829 123.669 233.869 123.249C233.029 122.879 232.169 122.509 231.249 122.349C230.279 122.169 229.299 122.239 228.369 122.559C227.189 122.969 226.139 123.689 225.159 124.439C224.389 125.029 223.679 125.719 222.849 126.239C222.029 126.759 221.139 126.909 220.179 126.809C218.289 126.609 216.319 125.579 215.389 123.879C214.529 122.289 214.629 120.409 215.339 118.789C216.059 117.139 217.189 115.719 218.209 114.249C219.119 112.919 220.049 111.469 220.179 109.819C220.249 108.989 220.069 108.139 219.669 107.419C219.209 106.599 218.549 105.919 217.879 105.269C217.259 104.679 216.609 104.089 216.139 103.359C215.579 102.469 215.399 101.459 215.439 100.419C215.489 99.2686 215.859 98.1686 216.419 97.1686C216.979 96.1786 217.689 95.2086 218.489 94.3886C220.129 92.7086 222.209 91.3486 224.479 90.7186C225.589 90.4086 226.739 90.2886 227.889 90.3586C228.359 90.3886 228.359 89.6486 227.889 89.6286L227.879 89.6386Z" fill="white"/>
<path d="M252.079 159.728C252.149 157.508 251.869 155.278 251.449 153.108C250.949 150.558 250.189 148.038 249.109 145.678C248.099 143.478 246.749 141.318 244.889 139.738C243.139 138.258 240.859 137.318 238.529 137.538C237.339 137.648 236.199 138.038 235.209 138.708C234.299 139.318 233.539 140.098 232.809 140.908C231.439 142.428 230.069 144.128 227.959 144.528C226.549 144.788 225.129 144.378 223.759 144.118C222.109 143.798 220.459 143.468 218.789 143.318C217.229 143.188 215.639 143.258 214.119 143.678C212.379 144.158 210.809 145.068 209.399 146.178C208.239 147.088 207.109 148.208 206.729 149.688C206.329 151.238 206.679 153.008 207.459 154.378C208.099 155.518 209.119 156.208 210.299 156.728C211.669 157.338 213.069 157.948 214.139 159.038C215.129 160.048 215.489 161.348 215.209 162.728C214.909 164.198 214.169 165.538 213.479 166.848C212.759 168.208 212.059 169.568 211.619 171.048C211.289 172.138 211.109 173.298 211.159 174.438C211.249 176.438 212.039 178.328 213.369 179.818C214.709 181.318 216.509 182.358 218.399 182.978C220.389 183.638 222.539 183.848 224.619 183.588C226.739 183.328 228.799 182.598 230.519 181.318C231.429 180.648 232.229 179.848 232.899 178.928C233.659 177.888 234.139 176.738 234.649 175.568C235.229 174.238 235.859 172.918 236.629 171.688C237.269 170.668 238.019 169.688 238.979 168.948C239.849 168.278 240.879 167.848 241.969 167.738C243.379 167.598 244.789 167.898 246.109 168.368C246.859 168.638 247.589 168.978 248.339 169.238C249.019 169.478 249.709 169.688 250.419 169.848C251.849 170.168 253.369 170.298 254.799 169.928C256.239 169.558 257.419 168.648 258.229 167.408C258.489 167.008 257.849 166.648 257.599 167.038C256.799 168.268 255.599 169.058 254.149 169.328C252.769 169.578 251.319 169.348 249.979 168.988C249.299 168.808 248.629 168.578 247.979 168.328C247.209 168.028 246.469 167.698 245.679 167.458C244.359 167.058 242.979 166.858 241.609 167.058C239.179 167.408 237.399 169.148 236.119 171.138C235.349 172.328 234.729 173.608 234.159 174.898C233.639 176.078 233.179 177.258 232.449 178.328C231.269 180.038 229.549 181.348 227.629 182.098C225.709 182.848 223.649 183.098 221.609 182.908C219.669 182.728 217.719 182.128 216.049 181.088C214.489 180.128 213.149 178.718 212.469 177.038C212.099 176.138 211.919 175.198 211.899 174.238C211.879 173.118 212.099 172.038 212.419 170.968C212.859 169.518 213.619 168.188 214.319 166.858C214.999 165.568 215.709 164.218 215.959 162.758C216.209 161.328 215.889 159.978 214.959 158.848C213.969 157.658 212.549 156.918 211.159 156.308C210.089 155.838 208.999 155.358 208.319 154.358C207.489 153.138 207.089 151.428 207.429 149.978C207.759 148.558 208.889 147.508 209.999 146.648C211.389 145.578 212.949 144.718 214.659 144.308C217.779 143.548 221.009 144.338 224.089 144.928C225.479 145.198 226.829 145.508 228.239 145.228C229.279 145.018 230.209 144.498 231.019 143.828C232.619 142.508 233.729 140.668 235.439 139.458C236.339 138.818 237.379 138.398 238.489 138.288C239.599 138.178 240.739 138.348 241.789 138.728C243.879 139.488 245.519 141.138 246.749 142.938C248.169 145.018 249.159 147.378 249.889 149.778C250.589 152.088 251.069 154.478 251.279 156.878C251.359 157.828 251.409 158.788 251.379 159.748C251.369 160.218 252.099 160.218 252.109 159.748L252.079 159.728Z" fill="white"/>
<path d="M270.017 118.769C269.167 118.669 268.288 118.759 267.438 118.919C266.438 119.109 265.458 119.429 264.538 119.869C263.598 120.319 262.758 120.959 262.008 121.679C261.208 122.449 260.558 123.379 260.168 124.409C259.758 125.479 259.678 126.659 259.998 127.759C260.248 128.619 260.828 129.289 261.508 129.849C262.138 130.369 262.828 130.799 263.498 131.279C264.088 131.709 264.678 132.189 265.058 132.829C265.468 133.529 265.578 134.379 265.378 135.169C265.158 136.019 264.638 136.749 264.138 137.449C263.628 138.169 263.068 138.869 262.718 139.689C262.318 140.619 262.237 141.679 262.357 142.689C262.647 144.989 263.998 147.099 265.688 148.649C267.248 150.069 269.108 151.109 271.218 151.379C273.108 151.619 275.028 151.159 276.668 150.199C277.528 149.699 278.307 149.069 278.987 148.359C279.358 147.979 279.688 147.569 280.008 147.149C280.158 146.949 280.318 146.739 280.448 146.519C280.628 146.229 280.768 145.899 280.918 145.589C281.178 145.059 281.438 144.509 281.628 143.949C281.778 143.499 281.068 143.309 280.918 143.759C280.728 144.319 280.468 144.849 280.208 145.379C280.078 145.639 279.968 145.909 279.808 146.159C279.658 146.399 279.487 146.619 279.327 146.839C278.737 147.609 278.048 148.319 277.278 148.909C275.858 149.989 274.148 150.679 272.348 150.709C270.428 150.739 268.608 150.019 267.088 148.879C265.368 147.589 263.907 145.769 263.297 143.689C263.007 142.699 262.918 141.609 263.168 140.599C263.368 139.809 263.838 139.109 264.308 138.459C264.818 137.749 265.367 137.049 265.737 136.249C266.117 135.439 266.278 134.599 266.128 133.709C265.858 132.069 264.488 131.089 263.208 130.209C262.588 129.789 261.968 129.369 261.448 128.819C261.198 128.559 260.927 128.249 260.797 127.899C260.607 127.389 260.507 126.849 260.517 126.299C260.547 124.199 262.018 122.429 263.638 121.249C265.138 120.159 267.078 119.549 268.928 119.469C269.288 119.449 269.648 119.459 270.008 119.499C270.208 119.519 270.378 119.309 270.378 119.129C270.378 118.909 270.208 118.789 270.008 118.759L270.017 118.769Z" fill="white"/>
</g>
<path d="M248.321 149.7C248.251 149.7 248.191 149.66 248.161 149.6C248.051 149.38 236.761 127.36 233.961 111.22C233.131 106.42 233.841 102.79 236.071 100.42C239.421 96.8697 245.091 97.4697 245.151 97.4797C245.251 97.4897 245.321 97.5797 245.311 97.6797C245.301 97.7797 245.211 97.8497 245.111 97.8397C245.061 97.8397 239.561 97.2497 236.341 100.67C234.191 102.95 233.511 106.48 234.331 111.15C237.131 127.23 248.391 149.2 248.501 149.43C248.551 149.52 248.511 149.63 248.421 149.68C248.391 149.69 248.361 149.7 248.341 149.7H248.321Z" fill="#93B6F8"/>
<path d="M250.61 154.31C250.52 154.31 250.45 154.25 250.43 154.16C250.41 154.06 250.47 153.96 250.57 153.94C269.44 150.16 275.52 133.36 275.58 133.19C275.61 133.09 275.72 133.04 275.81 133.08C275.91 133.11 275.96 133.22 275.92 133.31C275.86 133.48 269.72 150.48 250.63 154.3C250.62 154.3 250.61 154.3 250.59 154.3L250.61 154.31Z" fill="#93B6F8"/>
<path d="M218.082 94.859C217.602 101.129 214.822 105.309 210.712 104.599C206.602 103.899 205.242 98.079 206.302 91.879C207.362 85.679 210.172 82.999 214.282 83.709C216.332 84.059 220.322 86.909 220.822 89.219C221.322 91.529 218.632 87.669 218.082 94.859Z" fill="#FCECCB"/>
<path d="M208.69 103.84C208.69 103.84 208.59 103.81 208.57 103.77C207.1 100.95 208.26 94.6495 208.31 94.3795C208.32 94.3095 208.39 94.2495 208.47 94.2695C208.54 94.2795 208.59 94.3595 208.58 94.4295C208.57 94.4895 207.39 100.91 208.82 103.64C208.86 103.71 208.82 103.79 208.76 103.83C208.74 103.84 208.72 103.85 208.7 103.85L208.69 103.84Z" fill="#FFBF75"/>
<path d="M214.749 103.599C214.749 103.599 214.659 103.579 214.629 103.529C212.409 99.9087 212.709 95.1987 212.709 95.1487C212.709 95.0687 212.779 95.0087 212.859 95.0187C212.939 95.0187 212.989 95.0887 212.989 95.1687C212.989 95.2187 212.689 99.8487 214.869 103.389C214.909 103.449 214.889 103.539 214.819 103.579C214.799 103.589 214.769 103.599 214.749 103.599Z" fill="#FFBF75"/>
<path d="M247.571 73.3798C247.571 73.3798 247.381 66.2598 238.621 59.5898C238.621 59.5898 233.391 62.9298 230.781 74.2198L247.571 73.3698V73.3798Z" fill="#FCECCB"/>
<path d="M245.272 72.7894C245.272 72.7894 245.142 67.7894 238.992 63.1094C238.992 63.1094 235.322 65.4594 233.492 73.3794L245.282 72.7794L245.272 72.7894Z" fill="#FFBF75"/>
<path d="M258.711 78.1592C258.711 78.1592 264.001 73.3792 274.871 75.1392C274.871 75.1392 276.061 81.2392 269.681 90.9092L258.721 78.1592H258.711Z" fill="#FCECCB"/>
<path d="M260.733 79.409C260.733 79.409 264.443 76.059 272.073 77.289C272.073 77.289 272.903 81.569 268.423 88.359L260.723 79.409H260.733Z" fill="#FFBF75"/>
<path d="M271.092 107.41C272.502 102.37 267.502 96.5203 267.502 96.5203C267.502 96.5203 272.852 101.54 272.642 95.6103C272.432 89.6803 265.512 80.1503 253.472 74.9803C241.432 69.8203 229.752 71.3803 225.312 75.3203C220.872 79.2603 228.202 79.6703 228.202 79.6703C228.202 79.6703 220.522 80.0803 217.842 84.5803C215.162 89.0803 224.982 92.0503 224.982 92.0503C224.982 92.0503 225.082 94.5403 226.072 96.8903C227.062 99.2403 234.812 103.34 240.302 105.7C245.792 108.05 254.102 110.84 256.492 109.93C258.882 109.03 261.522 107.59 261.522 107.59C261.522 107.59 269.672 112.45 271.082 107.4L271.092 107.41Z" fill="#FCECCB"/>
<path d="M248.749 75.4199C250.969 76.3699 253.189 77.3299 255.419 78.2799C255.479 78.1699 255.539 78.0699 255.599 77.9599C253.469 77.0499 251.119 76.5799 248.809 76.4699C248.619 76.4699 248.569 76.7199 248.719 76.8099C250.439 77.8599 252.089 79.0199 253.789 80.1099C253.819 79.9999 253.849 79.8799 253.879 79.7699C252.269 79.6299 250.699 79.1699 249.079 79.1199C248.929 79.1199 248.819 79.3299 248.949 79.4299C249.899 80.1699 250.539 81.2399 251.669 81.7399L251.759 81.3999C250.719 81.3199 249.629 81.2999 248.649 80.8999C248.439 80.8099 248.359 81.1199 248.509 81.2299C249.289 81.8299 249.899 82.6599 250.819 83.0699C250.849 82.9599 250.879 82.8399 250.909 82.7299C250.129 82.6699 249.369 82.8199 248.599 82.8699C248.429 82.8799 248.369 83.0599 248.469 83.1799C248.909 83.7199 249.199 84.3299 249.869 84.6399C249.879 84.5299 249.899 84.4199 249.909 84.3099C249.259 84.5599 248.569 84.5099 247.879 84.5399C247.649 84.5499 247.639 84.9199 247.879 84.9099C248.599 84.8699 249.319 84.9299 249.999 84.6699C250.129 84.6199 250.199 84.4099 250.039 84.3399C249.409 84.0499 249.139 83.4499 248.719 82.9399C248.679 83.0399 248.629 83.1499 248.589 83.2499C249.359 83.1999 250.119 83.0599 250.899 83.1099C251.079 83.1199 251.159 82.8399 250.989 82.7699C250.069 82.3599 249.459 81.5399 248.679 80.9299C248.629 81.0399 248.589 81.1499 248.539 81.2599C249.549 81.6799 250.679 81.6899 251.749 81.7799C251.929 81.7899 252.009 81.5099 251.839 81.4399C250.729 80.9499 250.119 79.9099 249.189 79.1899C249.149 79.2899 249.099 79.3999 249.059 79.4999C250.669 79.5499 252.249 80.0099 253.859 80.1499C254.049 80.1699 254.089 79.8999 253.949 79.8099C252.249 78.7199 250.599 77.5599 248.879 76.5099C248.849 76.6199 248.819 76.7399 248.789 76.8499C251.029 76.9599 253.329 77.4099 255.399 78.2899C255.609 78.3799 255.799 78.0699 255.579 77.9699C253.359 77.0199 251.139 76.0599 248.909 75.1099C248.699 75.0199 248.509 75.3299 248.729 75.4299L248.749 75.4199Z" fill="#FFBF75"/>
<path d="M237.661 74.05C239.691 74.63 241.821 74.48 243.901 74.74C243.881 74.62 243.871 74.5 243.851 74.38C242.291 74.81 240.691 75.07 239.251 75.83C239.091 75.91 239.161 76.18 239.341 76.17C240.431 76.12 241.431 76.58 242.501 76.68C242.471 76.57 242.441 76.45 242.411 76.34C241.501 76.93 240.541 77.48 239.531 77.89C239.401 77.94 239.321 78.15 239.491 78.22C240.291 78.57 240.971 79.13 241.771 79.48C241.801 79.37 241.831 79.25 241.861 79.14C241.181 79.2 240.601 79.66 239.921 79.72C239.761 79.73 239.641 79.98 239.831 80.06C240.311 80.26 240.781 80.47 241.261 80.67C241.271 80.56 241.291 80.45 241.301 80.34C240.891 80.49 240.451 80.49 240.041 80.65C239.821 80.73 239.921 81.09 240.141 81C240.551 80.85 240.991 80.85 241.401 80.69C241.531 80.64 241.601 80.42 241.441 80.36C240.961 80.16 240.491 79.95 240.011 79.75C239.981 79.86 239.951 79.98 239.921 80.09C240.601 80.03 241.181 79.57 241.861 79.51C242.021 79.5 242.141 79.25 241.951 79.17C241.151 78.82 240.471 78.26 239.671 77.91C239.661 78.02 239.641 78.13 239.631 78.24C240.671 77.82 241.661 77.27 242.601 76.66C242.761 76.56 242.691 76.34 242.511 76.32C242.011 76.27 241.521 76.11 241.031 76C240.481 75.87 239.921 75.78 239.351 75.81C239.381 75.92 239.411 76.04 239.441 76.15C240.851 75.41 242.431 75.16 243.951 74.74C244.161 74.68 244.091 74.4 243.901 74.38C241.851 74.13 239.761 74.27 237.761 73.71C237.531 73.65 237.441 74 237.661 74.06V74.05Z" fill="#FFBF75"/>
<path d="M265.261 85.4806C263.471 84.4206 262.131 82.8006 260.541 81.4906C260.381 81.3606 260.151 81.5206 260.251 81.7106C261.001 83.1006 261.911 84.4206 262.341 85.9506C262.441 85.8906 262.541 85.8306 262.651 85.7706C262.281 85.3406 261.821 85.0006 261.341 84.6806C260.921 84.4006 260.471 84.1606 260.101 83.8306C259.961 83.7106 259.761 83.8306 259.791 84.0106C259.991 85.1006 260.271 86.1806 260.671 87.2106C260.751 87.1306 260.821 87.0606 260.901 86.9806C260.101 86.6406 259.221 86.5306 258.421 86.2006C258.231 86.1206 258.141 86.3806 258.241 86.5106C258.671 87.0406 258.731 87.7806 259.161 88.3106C259.231 88.2106 259.311 88.1206 259.381 88.0206C258.901 87.8206 258.431 87.6106 257.951 87.4106C257.781 87.3406 257.621 87.4906 257.701 87.6606C257.871 88.0606 258.181 88.3806 258.351 88.7806C258.441 89.0006 258.761 88.8106 258.671 88.6006C258.501 88.2006 258.191 87.8806 258.021 87.4806L257.771 87.7306C258.251 87.9306 258.721 88.1406 259.201 88.3406C259.391 88.4206 259.561 88.2206 259.421 88.0506C258.991 87.5206 258.931 86.7806 258.501 86.2506C258.441 86.3506 258.381 86.4506 258.321 86.5606C259.121 86.9006 260.001 87.0006 260.801 87.3406C260.921 87.3906 261.071 87.2406 261.031 87.1106C260.621 86.0806 260.351 85.0006 260.151 83.9106C260.051 83.9706 259.951 84.0306 259.841 84.0906C260.651 84.8006 261.671 85.2006 262.391 86.0306C262.511 86.1706 262.741 86.0306 262.701 85.8506C262.261 84.2806 261.341 82.9406 260.571 81.5206C260.471 81.5906 260.381 81.6706 260.281 81.7406C261.901 83.0706 263.261 84.7106 265.081 85.7806C265.281 85.9006 265.471 85.5806 265.261 85.4606V85.4806Z" fill="#FFBF75"/>
<path d="M259.99 99.7994C262.44 99.6194 264.9 99.6794 267.35 99.8694C269.8 100.069 272.24 100.449 274.64 100.979C277.03 101.549 279.4 102.279 281.65 103.279C282.78 103.779 283.87 104.349 284.93 104.969C285.98 105.609 286.99 106.319 287.94 107.089C285.95 105.649 283.8 104.469 281.54 103.529C279.28 102.589 276.94 101.859 274.56 101.319C273.37 101.039 272.17 100.799 270.96 100.609C269.75 100.409 268.54 100.269 267.32 100.129C266.1 99.9994 264.88 99.9094 263.66 99.8494C262.44 99.7794 261.21 99.7594 259.98 99.7794L259.99 99.7994Z" fill="white"/>
<path d="M264.422 102.699C265.512 102.979 266.582 103.319 267.652 103.669C268.712 104.039 269.772 104.419 270.822 104.829C272.922 105.649 274.982 106.559 277.002 107.549C279.012 108.559 281.002 109.609 282.922 110.789C283.402 111.089 283.882 111.369 284.362 111.679L285.772 112.609C286.242 112.919 286.702 113.249 287.152 113.579L288.522 114.569C286.632 113.359 284.742 112.139 282.782 111.039C281.812 110.479 280.822 109.939 279.842 109.409C279.352 109.139 278.842 108.899 278.352 108.639C277.852 108.379 277.352 108.129 276.842 107.889C274.842 106.879 272.782 105.969 270.722 105.099C268.652 104.229 266.552 103.419 264.422 102.709V102.699Z" fill="white"/>
<path d="M260.379 103.999C261.889 105.439 263.469 106.799 265.089 108.109C266.709 109.409 268.359 110.679 270.079 111.849C271.779 113.049 273.519 114.189 275.309 115.249C277.079 116.339 278.919 117.319 280.759 118.319L279.339 117.659C278.869 117.439 278.389 117.219 277.929 116.979C276.999 116.499 276.079 116.019 275.169 115.489C273.349 114.469 271.599 113.319 269.869 112.139C268.159 110.939 266.499 109.659 264.909 108.309C264.109 107.629 263.339 106.939 262.569 106.219C261.819 105.489 261.069 104.769 260.379 103.979V103.999Z" fill="white"/>
<path d="M232.99 88.1503C232.16 87.2403 231.3 86.3703 230.42 85.5303C229.54 84.6803 228.63 83.8503 227.7 83.0603C226.77 82.2703 225.83 81.4803 224.86 80.7403C223.89 80.0003 222.89 79.2903 221.87 78.6103C219.84 77.2403 217.71 76.0403 215.48 75.0403C213.25 74.0403 210.91 73.2803 208.5 72.8203C209.72 72.9803 210.92 73.2303 212.11 73.5503C213.29 73.9003 214.46 74.2903 215.59 74.7703C217.86 75.7203 220.02 76.9403 222.07 78.2903C224.11 79.6703 226.06 81.1803 227.88 82.8303C229.7 84.4803 231.44 86.2303 232.98 88.1403L232.99 88.1503Z" fill="white"/>
<path d="M227.842 86.9098C225.862 85.8498 223.832 84.8798 221.782 83.9698C219.732 83.0598 217.662 82.1898 215.552 81.4298C215.032 81.2298 214.502 81.0298 213.972 80.8498C213.442 80.6598 212.922 80.4698 212.382 80.2898C211.312 79.9398 210.252 79.5898 209.172 79.2698C207.032 78.5998 204.852 78.0598 202.672 77.5098L204.332 77.8198C204.882 77.9298 205.442 78.0298 205.982 78.1598L207.622 78.5498C208.172 78.6798 208.712 78.8398 209.252 78.9898C211.422 79.5798 213.562 80.2998 215.672 81.0798C217.782 81.8798 219.862 82.7398 221.892 83.7098C222.912 84.1898 223.912 84.6998 224.912 85.2198C225.902 85.7598 226.882 86.2998 227.832 86.9098H227.842Z" fill="white"/>
<path d="M229.663 90.7402C228.623 90.7702 227.573 90.7302 226.533 90.6802C225.493 90.6102 224.453 90.5302 223.413 90.4102C221.333 90.1802 219.273 89.8502 217.223 89.4302C215.183 88.9802 213.143 88.5002 211.153 87.8702C210.153 87.5702 209.163 87.2202 208.183 86.8802C207.693 86.7102 207.203 86.5102 206.723 86.3202L205.273 85.7402C207.253 86.4002 209.223 87.0602 211.243 87.6002C213.243 88.1702 215.273 88.6602 217.303 89.0702C219.333 89.5202 221.393 89.8402 223.453 90.1302C225.513 90.4102 227.583 90.6302 229.673 90.7402H229.663Z" fill="white"/>
<path d="M236.172 88.3393C235.542 89.8493 235.812 91.4093 236.782 91.8193C237.752 92.2293 239.062 91.3293 239.692 89.8193C240.322 88.3093 240.052 86.7493 239.082 86.3393C238.112 85.9293 236.802 86.8293 236.172 88.3393Z" fill="#28374B"/>
<path d="M238.53 88.699C238.33 89.169 238.37 89.639 238.61 89.739C238.85 89.839 239.21 89.539 239.41 89.069C239.61 88.599 239.57 88.129 239.33 88.029C239.09 87.929 238.73 88.229 238.53 88.699Z" fill="#EFF3FB"/>
<path d="M252.223 95.2202C251.593 96.7302 251.863 98.2902 252.833 98.7002C253.803 99.1102 255.113 98.2102 255.743 96.7002C256.373 95.1902 256.103 93.6302 255.133 93.2202C254.163 92.8102 252.853 93.7102 252.223 95.2202Z" fill="#28374B"/>
<path d="M254.581 95.5798C254.381 96.0498 254.421 96.5198 254.661 96.6198C254.901 96.7198 255.261 96.4198 255.461 95.9498C255.661 95.4798 255.621 95.0099 255.381 94.9099C255.141 94.8099 254.781 95.1098 254.581 95.5798Z" fill="#EFF3FB"/>
<path d="M245.713 93.0986C247.823 93.9886 249.233 95.3686 248.623 96.1086C248.013 96.8486 245.693 97.1686 244.083 96.9886C242.823 95.9686 241.423 94.0886 241.533 93.1386C241.633 92.1886 243.603 92.2186 245.713 93.1086V93.0986Z" fill="#28374B"/>
<path d="M246.682 100.259C246.332 100.259 245.962 100.199 245.592 100.049C244.202 99.4791 243.942 98.1591 243.902 97.4491C243.372 97.9191 242.242 98.6591 240.862 98.0691C239.262 97.3791 238.972 95.5391 238.962 95.4591C238.952 95.3591 239.012 95.2691 239.112 95.2491C239.212 95.2391 239.302 95.2991 239.322 95.3991C239.322 95.4191 239.592 97.1191 241.012 97.7191C242.692 98.4391 243.902 96.9291 243.962 96.8691C244.012 96.8091 244.102 96.7791 244.172 96.8091C244.252 96.8391 244.292 96.9191 244.282 96.9991C244.272 97.0791 244.052 98.9991 245.742 99.6991C247.162 100.279 248.572 99.2791 248.582 99.2691C248.662 99.2091 248.782 99.2291 248.842 99.3091C248.902 99.3891 248.882 99.5091 248.802 99.5691C248.752 99.6091 247.852 100.249 246.702 100.249L246.682 100.259Z" fill="#28374B"/>
<path d="M259.203 118.021C255.763 123.291 251.313 125.611 248.053 123.021C244.793 120.431 246.393 114.671 250.303 109.751C254.213 104.831 257.963 103.831 261.223 106.421C262.853 107.721 264.983 112.131 264.303 114.401C263.623 116.671 263.123 111.991 259.193 118.021H259.203Z" fill="#FCECCB"/>
<path d="M246.721 121.39C246.641 121.39 246.581 121.33 246.591 121.25C246.661 118.08 250.701 113.1 250.871 112.89C250.921 112.83 251.001 112.82 251.061 112.87C251.121 112.92 251.131 113 251.081 113.06C251.041 113.11 246.921 118.17 246.861 121.25C246.861 121.32 246.801 121.38 246.721 121.38V121.39Z" fill="#FFBF75"/>
<path d="M252.141 124.099C252.071 124.099 252.011 124.039 252.001 123.969C251.791 119.729 254.321 115.739 254.351 115.699C254.391 115.639 254.481 115.619 254.541 115.659C254.601 115.699 254.621 115.789 254.581 115.849C254.551 115.889 252.071 119.809 252.271 123.959C252.271 124.039 252.221 124.099 252.141 124.099Z" fill="#FFBF75"/>
<path d="M250.314 109.89C250.314 109.89 250.254 109.891 250.224 109.861C250.164 109.811 250.154 109.73 250.204 109.67C254.094 104.78 257.934 103.62 261.324 106.32C261.834 106.73 262.414 107.45 262.944 108.34C262.984 108.41 262.964 108.49 262.894 108.53C262.824 108.57 262.744 108.551 262.704 108.481C262.194 107.611 261.644 106.92 261.154 106.53C257.904 103.95 254.194 105.09 250.424 109.84C250.394 109.87 250.354 109.89 250.314 109.89Z" fill="#FFBF75"/>
<path d="M227.371 41.9313C227.371 41.9313 220.681 43.1193 220.344 35.8846C220.344 35.8846 228.26 33.4678 227.371 41.9313Z" fill="white"/>
<mask id="mask2_3381_14080" style="mask-type:luminance" maskUnits="userSpaceOnUse" x="220" y="35" width="8" height="8">
<path d="M227.371 41.9313C227.371 41.9313 220.681 43.1193 220.344 35.8846C220.344 35.8846 228.26 33.4678 227.371 41.9313Z" fill="white"/>
</mask>
<g mask="url(#mask2_3381_14080)">
<path d="M225.896 36.9366C224.026 36.4289 222.097 37.534 221.59 39.4048C221.082 41.2757 222.187 43.2039 224.058 43.7116C225.929 44.2193 227.857 43.1142 228.365 41.2434C228.872 39.3725 227.767 37.4443 225.896 36.9366Z" fill="black"/>
</g>
</g>
<defs>
<clipPath id="clip0_3381_14080">
<rect width="340" height="160" fill="white"/>
</clipPath>
</defs>
</svg>
