<svg width="340" height="176" viewBox="0 0 340 176" fill="none" xmlns="http://www.w3.org/2000/svg">
<rect width="340" height="176" fill="#D4DDFF"/>
<path d="M301.569 89.9144C258.679 70.9064 223.959 103.114 190.559 103.114C146.779 103.114 158.069 33.8144 92.1892 45.9144C31.5192 57.0574 7.6392 169.202 30.5892 175.714H273.989C333.159 147.114 321.429 98.7144 301.569 89.9144Z" fill="#AAB8EF"/>
<path d="M203.578 35.2009C168.398 35.3989 158.988 67.8379 178.078 86.0759C204.478 111.299 276.958 34.7829 203.578 35.2009Z" fill="#AAB8EF"/>
<g clip-path="url(#clip0_3381_14082)">
<path d="M177.848 31.2832C192.015 31.2832 203.494 38.2673 203.494 46.8835C203.494 55.4997 192.015 62.4838 177.848 62.4838C163.682 62.4838 152.203 55.4997 152.203 46.8835C152.203 38.2673 163.682 31.2832 177.848 31.2832Z" fill="#FCECCB"/>
<mask id="mask0_3381_14082" style="mask-type:luminance" maskUnits="userSpaceOnUse" x="152" y="31" width="52" height="32">
<path d="M177.848 31.2832C192.015 31.2832 203.494 38.2673 203.494 46.8835C203.494 55.4997 192.015 62.4838 177.848 62.4838C163.682 62.4838 152.203 55.4997 152.203 46.8835C152.203 38.2673 163.682 31.2832 177.848 31.2832Z" fill="white"/>
</mask>
<g mask="url(#mask0_3381_14082)">
<path d="M150.031 33.7848C150.221 25.264 161.626 18.3965 175.677 18.3965C185.321 18.3965 193.712 21.6289 198.096 26.4086C195.788 29.4714 192.426 32.619 187.63 34.6221C175.54 39.6667 169.299 31.2519 164.746 30.4676C160.762 29.7788 157.273 35.3427 150.031 33.7742V33.7848Z" fill="#CB7C2C"/>
<path d="M199.783 28.2006C195.999 34.1249 189.453 38.1521 182.454 38.6609C177.753 39.159 173.136 37.6116 169.331 34.8562C167.497 33.701 165.684 31.9205 163.513 31.6662C161.299 31.5708 159.181 32.8743 157.041 33.4572C154.817 34.1567 152.371 34.2627 150.137 33.5844L150.158 33.5102C153.763 34.2415 156.819 33.0121 160.066 31.6132C161.268 31.1574 162.67 30.6699 164.05 30.9349C166.253 31.38 167.95 33.0651 169.753 34.2733C171.618 35.6086 173.547 36.838 175.698 37.6116C181.179 39.7313 187.187 37.7812 192.015 34.9091C194.966 33.1393 197.527 30.8183 199.741 28.1582L199.804 28.2006H199.783Z" fill="#CB7C2C"/>
</g>
<path d="M264.692 137.02C279.871 136.342 292.551 144.407 293.015 155.037C293.479 165.667 284.34 175.279 269.161 175.957C253.983 176.636 238.52 168.104 238.056 157.485C237.592 146.855 249.514 137.699 264.692 137.02Z" fill="#CB7C2C"/>
<path d="M258.99 169.462L247.712 168.031C246.784 167.914 246.015 168.72 246.173 169.642L246.563 171.994C246.995 174.58 249.43 176.329 252.013 175.905L255.407 175.333L259.001 169.472L258.99 169.462Z" fill="#CB7C2C"/>
<path d="M269.16 175.958L252 175.894L252.864 168.984L264.016 168.952C264.016 168.952 256.132 145.266 279.089 150.321L269.15 175.958H269.16Z" fill="#CB7C2C"/>
<path d="M246.561 170.68C247.489 169.917 248.806 170.076 249.534 171.03V171.104C248.532 171.041 247.531 170.924 246.551 170.755V170.68H246.561Z" fill="#1E2228"/>
<path d="M246.887 172.165C247.814 171.402 249.132 171.561 249.859 172.514V172.589C248.858 172.525 247.867 172.408 246.887 172.239V172.165Z" fill="#1E2228"/>
<path d="M279.091 150.364C264.481 147.821 260.244 155.589 264.365 168.847L264.513 169.313H264.028C261.182 169.366 258.094 169.409 255.248 169.366C253.551 169.133 251.854 168.879 250.167 168.603L247.659 168.19C246.858 168.042 246.099 168.815 246.215 169.631H246.141C245.909 168.72 246.742 167.766 247.701 167.851L250.241 168.084C251.928 168.243 253.614 168.423 255.301 168.603C257.883 168.54 261.267 168.572 264.039 168.603L263.701 169.07C262.932 166.473 262.563 163.813 262.574 161.132C262.574 155.801 264.387 150.619 270.205 149.58C273.188 149.029 276.266 149.474 279.112 150.29L279.091 150.364Z" fill="#1E2228"/>
<path d="M288.271 174.93C286.848 174.93 285.373 174.58 283.907 173.87C282.189 173.033 280.408 171.803 278.521 170.489C272.176 166.102 264.27 160.633 250.641 163.028C249.503 163.23 248.428 162.467 248.227 161.322C248.027 160.177 248.786 159.096 249.924 158.895C265.229 156.214 274.284 162.467 280.882 167.034C282.716 168.306 284.297 169.398 285.731 170.097C288.334 171.369 290.738 170.722 292.329 168.338C294.69 164.809 295.165 156.828 286.817 149.304C285.963 148.53 285.889 147.205 286.658 146.347C287.428 145.489 288.746 145.414 289.599 146.188C298.833 154.518 299.708 164.819 295.787 170.68C293.932 173.457 291.212 174.93 288.271 174.93Z" fill="#CB7C2C"/>
<path d="M281.883 172.778C279.047 171.104 276.338 169.196 273.492 167.532C270.678 165.89 267.664 164.522 264.501 163.696C260.58 162.594 256.375 162.329 252.327 162.901L251.104 163.081C247.647 163.961 246.751 159.001 250.293 158.609C256.417 157.443 262.857 157.729 268.749 159.849C273.471 161.555 277.635 164.364 281.63 167.32C282.969 168.285 284.297 169.27 285.741 170.055L285.709 170.118C284.95 169.79 284.223 169.376 283.517 168.952C281.398 167.67 279.374 166.239 277.266 164.946C268.591 159.435 259.937 157.538 249.787 159.149C247.858 159.647 247.931 162.466 249.892 162.88C250.272 162.975 250.651 162.88 251.073 162.837L252.306 162.668C255.173 162.286 258.093 162.159 260.97 162.456C267.252 162.975 272.923 166.112 277.898 169.811C279.237 170.775 280.586 171.719 281.914 172.704L281.872 172.768L281.883 172.778Z" fill="#1E2228"/>
<path d="M272.702 137.496C271.026 143.569 265.228 148.041 258.345 148.041C257.913 148.041 257.492 148.02 257.07 147.988C255.636 147.872 254.245 148.561 253.455 149.78C250.83 153.807 246.16 156.488 240.837 156.488C239.889 156.488 238.961 156.403 238.055 156.234C238.518 146.144 250.103 137.666 264.68 137.02C267.452 136.903 270.14 137.062 272.691 137.486L272.702 137.496Z" fill="#ED9537"/>
<path d="M255.69 122.989L263.037 119.046C263.87 118.601 264.85 119.279 264.734 120.212C264.46 122.48 263.775 126.242 262.046 130.164L255.806 128.235L255.68 122.989H255.69Z" fill="#F1B7CE"/>
<path d="M261.14 123.529C261.614 125.395 258.209 126.825 258.209 126.825L256.312 128.383L255.806 128.224L255.68 122.978L263.027 119.036C263.459 118.803 263.922 118.877 264.26 119.121C264.26 119.121 262.215 121.346 260.528 122.713C260.813 122.862 261.034 123.116 261.129 123.519L261.14 123.529Z" fill="#CB7C2C"/>
<path d="M264.303 119.153C263.017 121.219 261.13 122.862 258.927 123.858C258.6 123.985 258.2 123.784 258.147 123.413C258.094 123.053 258.389 122.767 258.632 122.597C259.981 121.654 261.889 122.491 261.541 124.282C261.109 125.755 259.57 126.497 258.221 126.868L258.189 126.794C259.18 126.063 260.402 125.331 260.75 124.112C260.824 123.636 260.645 123.095 260.128 122.947C259.665 122.798 258.895 122.904 258.547 123.254C258.379 123.455 258.6 123.678 258.842 123.604C259.812 123.349 260.466 122.449 261.151 121.76C262.11 120.806 263.122 119.905 264.218 119.1L264.271 119.153H264.303Z" fill="#1E2228"/>
<path d="M246.668 120.519L243.422 112.814C243.053 111.945 241.872 111.85 241.366 112.645C240.165 114.584 238.352 119.088 237.234 123.232L243.295 124.536L246.668 120.53V120.519Z" fill="#F1B7CE"/>
<path d="M242.08 117.509C240.541 118.664 242.302 121.928 242.302 121.928L242.807 124.334L243.292 124.535L246.665 120.529L243.408 112.814C243.219 112.368 242.807 112.125 242.396 112.104C242.396 112.104 242.597 115.135 243.06 117.254C242.744 117.191 242.417 117.254 242.08 117.498V117.509Z" fill="#CB7C2C"/>
<path d="M242.441 112.104C242.799 113.429 243.021 114.764 243.168 116.11C243.295 117.096 243.168 118.421 243.959 119.131C244.096 119.194 244.275 119.078 244.254 118.919C244.212 118.421 243.674 117.859 243.221 117.679C242.388 117.372 241.819 118.241 241.819 119.004C241.787 119.979 242.061 120.943 242.336 121.908L242.272 121.939C241.851 121.388 241.513 120.763 241.303 120.085C241.007 119.205 240.923 118.018 241.693 117.319C242.694 116.291 244.307 117.138 244.623 118.357C244.707 118.643 244.749 119.057 244.496 119.3C244.222 119.555 243.79 119.459 243.611 119.152C242.831 117.605 242.367 115.898 242.304 114.16C242.272 113.471 242.272 112.783 242.367 112.094H242.441V112.104Z" fill="#1E2228"/>
<path d="M260.17 128.119C259.01 127.154 258.019 126.041 257.187 124.78C255.911 122.83 253.919 121.272 251.442 120.509C248.965 119.746 246.446 119.916 244.306 120.806C242.915 121.378 241.471 121.749 239.974 121.887C236.158 122.247 232.838 124.674 231.721 128.341C230.203 133.312 233.312 138.685 238.656 140.328C239.552 140.603 240.448 140.762 241.344 140.804C243.737 140.921 246.13 141.44 248.122 142.776C248.976 143.348 249.924 143.804 250.968 144.122C256.322 145.775 261.888 143.072 263.406 138.102C264.523 134.435 263.121 130.556 260.17 128.108V128.119Z" fill="#CB7C2C"/>
<path d="M253.309 132.993C252.972 134.106 251.728 134.699 250.537 134.339C249.346 133.968 248.65 132.77 248.987 131.668C249.325 130.555 250.569 129.962 251.76 130.322C252.951 130.682 253.646 131.891 253.309 132.993Z" fill="#ED9537"/>
<path d="M248.977 131.657C248.64 132.77 247.396 133.363 246.205 133.003C245.014 132.632 244.318 131.434 244.655 130.332C244.993 129.219 246.237 128.626 247.428 128.986C248.619 129.357 249.314 130.555 248.977 131.657Z" fill="#ED9537"/>
<path d="M246.665 127.482C246.824 127.959 246.16 128.256 245.78 128.107C245.379 128.012 245 127.397 245.39 127.09H245.422C245.38 127.249 245.422 127.397 245.517 127.514C245.769 127.842 246.444 127.927 246.623 127.471H246.655L246.665 127.482Z" fill="#1E2228"/>
<path d="M254.634 130.312C254.792 130.789 254.128 131.086 253.749 130.937C253.348 130.842 252.969 130.227 253.359 129.92L253.39 129.931C253.348 130.079 253.39 130.227 253.485 130.344C253.738 130.672 254.413 130.757 254.592 130.301H254.624L254.634 130.312Z" fill="#1E2228"/>
<path d="M248.491 130.227L250.188 130.747C250.304 130.778 250.325 130.948 250.22 131.001L249.092 131.637C249.018 131.679 248.934 131.647 248.902 131.573L248.323 130.408C248.27 130.302 248.375 130.174 248.491 130.206V130.227Z" fill="#1E2228"/>
<path d="M250.525 134.349C249.197 134.529 248.08 132.717 248.965 131.646H248.997C248.659 132.78 249.45 133.978 250.536 134.307V134.338H250.525V134.349Z" fill="#1E2228"/>
<path d="M248.996 131.669C249.144 133.057 247.194 133.916 246.203 133.025V132.994C247.289 133.333 248.617 132.782 248.965 131.658H248.996V131.669Z" fill="#1E2228"/>
<path d="M254.561 132.485C256.237 131.849 258.156 132.146 259.568 133.238L259.558 133.312C257.882 133.11 256.206 132.856 254.551 132.559V132.485H254.561Z" fill="#1E2228"/>
<path d="M254.14 133.895C256.027 134.085 257.724 135.219 258.651 136.883L258.609 136.947C257.081 135.993 255.573 134.997 254.098 133.958L254.14 133.895Z" fill="#1E2228"/>
<path d="M243.864 129.263C242.072 129.38 240.333 128.532 239.289 127.069L239.321 127.006C240.86 127.695 242.388 128.426 243.895 129.2L243.864 129.263Z" fill="#1E2228"/>
<path d="M243.454 130.684C241.757 131.542 239.723 131.51 238.047 130.609V130.535C239.849 130.514 241.652 130.535 243.454 130.609V130.684Z" fill="#1E2228"/>
<path d="M251.041 135.992C251.083 136.861 250.356 137.634 249.586 137.952C247.604 138.821 244.78 137.56 244.537 135.292C244.505 134.858 244.6 134.413 244.853 134.084L244.927 134.105C244.39 136.458 247.425 138.005 249.407 137.38C250.103 137.179 250.746 136.681 250.967 135.97L251.041 135.992Z" fill="#CB7C2C"/>
<path d="M245.466 140.157C250.167 145.329 259.084 145.36 262.742 139.033C262.921 138.737 263.058 138.387 263.227 138.069L263.342 137.73L263.606 137.041H263.68C262.562 143.347 255.5 146.24 249.924 143.792C248.122 143.04 246.53 141.778 245.402 140.189L245.466 140.146V140.157Z" fill="#1E2228"/>
<path d="M180.874 142.172L120.73 148.319L113.277 175.958H243.096C256.05 175.958 263.386 161.026 255.502 150.682L249.019 142.182H180.864L180.874 142.172Z" fill="#F2AF9C"/>
<path d="M170.216 145.584C170.216 143.486 166.274 143.486 166.274 141.387C166.274 139.289 170.216 139.077 170.216 136.979L162.827 137.763L139.88 140.2C129.108 141.345 120.686 137.19 112.348 144.164C105.866 149.58 88.3262 158.153 80.8108 161.714C78.5129 162.806 76.5524 164.565 75.1821 166.78C74.1175 168.497 75.298 170.765 77.2586 170.765H162.838H170.227C170.227 168.667 166.285 168.667 166.285 166.568C166.285 164.47 170.227 164.47 170.227 162.371C170.227 160.273 166.285 160.273 166.285 158.175C166.285 156.076 170.227 156.076 170.227 153.978C170.227 151.879 166.285 151.879 166.285 149.781C166.285 147.683 170.227 147.683 170.227 145.584H170.216Z" fill="#FDF9F0"/>
<path d="M106.866 147.968C114.803 148.392 124.564 148.53 131.278 143.729C132.532 142.796 133.618 141.673 134.567 140.391L134.63 140.433C133.987 141.535 133.196 142.553 132.279 143.443C127.536 147.883 120.664 148.805 114.434 148.742C111.894 148.699 109.354 148.488 106.855 148.042V147.968H106.866Z" fill="#6090C2"/>
<path d="M164.895 170.765C164.61 168.592 160.816 168.995 160.7 166.6C160.679 164.777 162.882 164.353 163.999 163.442C164.358 163.156 164.6 162.827 164.61 162.414C164.61 160.697 161.859 160.432 161.1 159.044C160.289 157.592 161.659 156.574 162.819 156.013C163.261 155.769 163.704 155.536 164.073 155.218C164.863 154.645 164.958 153.533 164.168 152.939C163.198 152.144 161.754 151.901 160.963 150.809C159.983 149.262 161.343 148.022 162.65 147.396C163.736 146.845 165.327 145.934 164.105 144.673C163.398 144.026 162.397 143.687 161.606 143.072C160.89 142.574 160.436 141.567 160.847 140.72C161.216 139.946 162.091 139.617 162.798 139.331C163.651 138.971 164.821 138.653 164.895 137.551H164.969C164.99 139.299 162.724 139.49 161.722 140.433C161.385 140.741 161.237 141.122 161.301 141.536C161.469 142.447 162.523 142.818 163.282 143.242C164.242 143.687 165.485 144.524 165.317 145.785C165.095 147.566 162.924 147.873 161.817 148.848C160.521 150.088 162.091 151.106 163.209 151.678C164.41 152.261 165.77 153.458 164.842 154.9C164.052 155.96 162.629 156.182 161.68 157.019C160.869 157.666 160.963 158.853 161.828 159.404C162.998 160.284 165.222 160.591 165.243 162.446C165.243 163.654 163.989 164.332 163.082 164.798C162.323 165.222 161.301 165.646 161.29 166.6C161.29 167.013 161.501 167.395 161.859 167.692C162.776 168.497 164.199 168.857 164.832 170.002C164.948 170.246 165 170.511 164.979 170.776H164.906L164.895 170.765Z" fill="#6090C2"/>
<path d="M243.484 136.183L220.158 93.9921L220.896 58.6052C221.012 53.0095 217.291 48.0602 211.905 46.6507L191.993 42.793L184.762 62.908L174.896 42.793L153.33 48.0496C150.706 48.6855 148.545 50.5507 147.533 53.0731L126.23 105.936C120.075 121.208 137.235 135.579 150.874 126.454C152.729 125.214 154.511 123.751 156.166 122.013C156.166 122.013 171.397 120.879 172.567 100.637L175.055 97.8285H207.983L243.484 136.183Z" fill="#EE7B71"/>
<path d="M174.895 42.793C175.675 42.793 191.991 42.793 191.991 42.793L184.191 68.2918L174.895 42.793Z" fill="#F2AF9C"/>
<path d="M207.941 97.8285C209.027 82.6309 209.649 66.045 211.536 50.9746H211.61C211.409 58.8066 210.808 66.6173 210.081 74.4175C209.512 80.1934 208.679 92.2115 207.952 97.8179L207.941 97.8285Z" fill="#1E2228"/>
<path d="M159.948 97.8281H182.537L216.256 142.17H148.101C148.101 142.17 139.215 139.712 139.215 129.548C139.215 119.385 159.959 97.8281 159.959 97.8281H159.948Z" fill="#5858CC"/>
<path d="M169.52 44.1084C174.958 53.7844 180.65 64.5202 185.847 74.3446L185.162 74.387L188.039 66.7034C190.801 59.3166 193.963 51.0607 196.894 43.748C193.489 53.7844 189.515 64.6792 185.868 74.6519L185.583 75.4468L185.193 74.6943C180.039 64.8275 174.421 54.0811 169.53 44.1084H169.52Z" fill="#1E2228"/>
<path d="M216.203 76.8239C219.482 72.3833 220.768 67.7096 220.03 62.8769C217.964 49.2902 200.403 39.7096 199.655 39.3069C198.611 38.7452 197.315 39.1479 196.767 40.1865C196.208 41.2357 196.598 42.5287 197.641 43.0904C197.81 43.1752 214.074 52.0669 215.813 63.534C216.509 68.0911 214.717 72.5953 210.501 76.9087C209.679 77.7565 209.689 79.1131 210.533 79.9397C211.376 80.7664 212.725 80.7558 213.547 79.9079C214.538 78.8905 215.423 77.8519 216.203 76.8133V76.8239Z" fill="#FCECCB"/>
<path d="M215.202 61.0229C213.611 56.3174 209.806 52.1629 206.138 49.0471C203.987 47.2137 201.879 45.7299 200.309 44.7019C201.837 44.2568 206.085 46.1963 207.982 47.309C212.81 50.1493 208.119 50.711 212.999 52.5233C216.32 53.7526 217.068 57.7481 215.202 61.0229Z" fill="#CB7C2C"/>
<path d="M218.102 73.8134C217.702 71.7574 217.48 69.0231 218.06 66.0556C218.429 64.148 219.04 62.5477 219.715 61.2441C219.852 61.7846 219.957 62.3357 220.042 62.8868C220.611 66.6385 219.968 70.2949 218.102 73.8134Z" fill="#CB7C2C"/>
<path d="M204.21 57.5039L206.739 68.653C206.95 69.5645 207.973 70.0202 208.774 69.5539L210.829 68.3775C213.106 67.0845 213.897 64.1807 212.611 61.8915L210.914 58.8816L204.199 57.5039H204.21Z" fill="white"/>
<path d="M206.106 45.5289L212.62 61.9028L205.874 63.4502L202.016 52.9263C202.016 52.9263 185.372 63.7893 188.208 41.4062L206.116 45.5289H206.106Z" fill="#FCECCB"/>
<path d="M209.618 68.833C208.585 68.2183 208.279 66.9253 208.922 65.9079L208.996 65.8867C209.27 66.8511 209.502 67.8262 209.691 68.8118L209.618 68.833Z" fill="#1E2228"/>
<path d="M210.895 68.0166C209.862 67.4019 209.556 66.1089 210.199 65.0915L210.273 65.0703C210.547 66.0347 210.779 67.0098 210.969 67.9954L210.895 68.0166Z" fill="#1E2228"/>
<path d="M207.984 97.8281L249.029 142.17H216.259L182.539 97.8281H207.984Z" fill="#5858CC"/>
<path d="M216.256 142.17C206.601 130.322 197.336 118.145 188.492 105.66C198.158 117.509 207.413 129.686 216.256 142.17Z" fill="#1E2228"/>
<path d="M166.707 55.2137L164.556 48.0283C164.293 47.1486 163.629 46.4492 162.764 46.1524L161.668 45.7709L162.248 43.1426H147.934L145.604 48.5794C144.582 50.9745 146.416 53.6134 148.998 53.4757L160.087 52.8928C160.087 54.9488 161.742 56.6233 163.797 56.6233H165.653C166.38 56.6233 166.907 55.9132 166.696 55.2137H166.707Z" fill="#FCECCB"/>
<path d="M155.84 44.7118C158.169 45.0933 160.499 45.5172 162.818 45.9411C163.914 46.2379 164.726 47.2447 164.989 48.3469L165.179 48.9404C165.811 50.9116 166.423 52.9252 166.992 54.8965C167.171 55.3098 167.16 56.0199 166.813 56.4014C166.496 56.8359 165.938 57.0055 165.432 56.9525L164.188 56.9207C161.953 57.0585 159.909 55.172 160.098 52.8934C160.225 54.9813 162.133 56.5604 164.188 56.3166L165.432 56.2848C165.6 56.2848 165.78 56.2848 165.927 56.2318C166.38 56.0305 166.496 55.5853 166.296 55.1084C165.801 53.5187 165.337 51.929 164.884 50.3287L164.22 47.9442C164.019 47.2447 163.313 46.5982 162.733 46.3651C160.436 45.8246 158.138 45.2735 155.84 44.7012V44.7118Z" fill="#CB7C2C"/>
<path d="M165.148 56.6338C164.062 56.1251 163.641 54.8639 164.178 53.7829L164.252 53.7617C164.621 54.6943 164.948 55.6482 165.222 56.6126L165.148 56.6338Z" fill="#CB7C2C"/>
<path d="M163.628 56.6338C162.543 56.1251 162.121 54.8639 162.659 53.7829L162.732 53.7617C163.101 54.6943 163.428 55.6482 163.702 56.6126L163.628 56.6338Z" fill="#CB7C2C"/>
<path d="M161.688 25.3387L166.81 19.6794C167.39 19.0435 168.444 19.319 168.634 20.1563C169.087 22.1911 169.646 25.6461 169.361 29.5567L163.395 29.8217L161.688 25.3387Z" fill="#F1B7CE"/>
<path d="M166.546 24.1297C167.526 25.5923 165.028 27.8708 165.028 27.8708L163.868 29.7997L163.383 29.8209L161.676 25.3379L166.799 19.6786C167.104 19.35 167.526 19.2652 167.884 19.3712C167.884 19.3712 166.799 21.9253 165.766 23.621C166.05 23.6634 166.324 23.8118 166.535 24.1297H166.546Z" fill="#FCECCB"/>
<path d="M167.937 19.3931C167.505 21.5869 166.345 23.5687 164.743 25.1055C164.5 25.3174 164.079 25.2644 163.921 24.9571C163.763 24.6603 163.921 24.3106 164.089 24.0775C164.975 22.8269 166.914 22.9753 167.167 24.6391C167.209 26.1441 166.145 27.1403 165.059 27.8927L165.006 27.8398C165.597 26.9389 166.461 25.8049 166.366 24.7451C166.282 24.3212 165.987 23.9291 165.512 23.9609C165.08 23.9715 164.448 24.2894 164.258 24.6921C164.174 24.8829 164.395 25.0313 164.595 24.8829C165.354 24.3742 165.639 23.378 165.997 22.5831C166.535 21.4597 167.125 20.3787 167.852 19.3613L167.926 19.3931H167.937Z" fill="#CB7C2C"/>
<path d="M152.939 25.7303L147.342 20.5478C146.709 19.965 145.687 20.3359 145.571 21.1943C145.297 23.2609 145.044 26.7583 145.676 30.616L151.642 30.351L152.949 25.7303H152.939Z" fill="#F1B7CE"/>
<path d="M147.993 24.9562C147.14 26.5035 149.838 28.5489 149.838 28.5489L151.156 30.3612L151.641 30.34L152.948 25.7192L147.34 20.5368C147.013 20.2294 146.581 20.187 146.223 20.3248C146.223 20.3248 147.53 22.773 148.71 24.3627C148.426 24.4263 148.173 24.6064 147.993 24.935V24.9562Z" fill="#FCECCB"/>
<path d="M146.255 20.3242C147.066 21.278 147.751 22.3061 148.384 23.3765C148.848 24.1501 149.227 25.2947 150.155 25.5914C150.281 25.5914 150.387 25.4537 150.313 25.3265C150.091 24.945 149.438 24.6906 149.006 24.7118C148.531 24.733 148.268 25.1463 148.226 25.5702C148.226 26.6406 149.185 27.6793 149.849 28.5271L149.807 28.5907C148.658 27.9336 147.509 27.0328 147.425 25.5384C147.53 23.8534 149.448 23.5354 150.439 24.7012C150.618 24.9132 150.819 25.2523 150.682 25.5596C150.545 25.8776 150.134 25.973 149.87 25.7822C148.647 24.7754 147.583 23.5566 146.887 22.1259C146.613 21.5642 146.36 20.9919 146.191 20.3666L146.255 20.3348V20.3242Z" fill="#CB7C2C"/>
<path d="M165.029 27.881C163.258 25.719 160.412 24.3837 157.271 24.5214C154.119 24.6592 151.411 26.2489 149.829 28.5593C145.571 29.5025 142.483 33.1376 142.672 37.3451C142.883 42.093 147.194 45.7599 152.306 45.5373C154.541 45.442 156.554 44.6153 158.093 43.3224C159.748 44.4775 161.825 45.1134 164.059 45.018C169.171 44.7955 173.145 40.7576 172.934 36.0097C172.745 31.8023 169.351 28.4533 165.029 27.9022V27.881Z" fill="#FCECCB"/>
<path d="M161.954 36.7101C161.996 37.7699 161.11 38.6707 159.972 38.7237C158.834 38.7767 157.864 37.9606 157.822 36.9008C157.78 35.841 158.665 34.9402 159.803 34.8872C160.942 34.8342 161.912 35.6503 161.954 36.7101Z" fill="#FDF9F0"/>
<path d="M157.821 36.8898C157.863 37.9496 156.978 38.8504 155.839 38.9034C154.701 38.9564 153.731 38.1403 153.689 37.0805C153.647 36.0207 154.532 35.1199 155.671 35.0669C156.809 35.0139 157.779 35.83 157.821 36.8898Z" fill="#FDF9F0"/>
<path d="M159.884 33.5834C159.178 32.7356 160.317 31.591 161.223 31.6228C162.119 31.5168 163.352 32.5448 162.73 33.4563H162.646C162.625 33.1383 162.425 32.8628 162.161 32.7038C161.413 32.2269 160.011 32.5448 159.979 33.5728H159.895L159.884 33.5834Z" fill="#1E2228"/>
<path d="M152.381 34.3881C151.674 33.5403 152.813 32.3957 153.719 32.4275C154.615 32.3215 155.848 33.3495 155.227 34.2609H155.142C155.121 33.943 154.921 33.6675 154.657 33.5085C153.909 33.0316 152.507 33.3495 152.475 34.3775H152.391L152.381 34.3881Z" fill="#1E2228"/>
<path d="M156.954 35.8203L158.577 35.7461C158.693 35.7461 158.756 35.8733 158.682 35.9581L157.913 36.8483C157.86 36.9013 157.776 36.9119 157.723 36.8483L156.87 36.0216C156.785 35.9475 156.838 35.8097 156.954 35.7991V35.8203Z" fill="#1E2228"/>
<path d="M159.969 38.7444C158.883 39.3485 157.313 38.098 157.798 36.9004H157.84C157.892 37.9708 158.936 38.755 159.969 38.7127V38.755V38.7444Z" fill="#1E2228"/>
<path d="M157.831 36.8906C158.421 38.0458 156.967 39.4236 155.828 38.9254V38.8831C156.861 38.8407 157.831 37.961 157.789 36.8906H157.831Z" fill="#1E2228"/>
<path d="M162.867 35.8837C164.09 34.7497 165.861 34.4105 167.41 34.9934L167.421 35.0676C165.913 35.4067 164.396 35.7141 162.878 35.9578V35.8837H162.867Z" fill="#1E2228"/>
<path d="M162.943 37.2295C164.629 36.742 166.464 37.1977 167.739 38.4059L167.718 38.4801C166.105 38.1303 164.503 37.7382 162.922 37.3037L162.943 37.2295Z" fill="#1E2228"/>
<path d="M152.684 36.4133C151.188 37.1339 149.396 36.9432 148.078 35.9257V35.8516C149.617 35.9681 151.156 36.1271 152.684 36.3391V36.4133Z" fill="#1E2228"/>
<path d="M152.76 37.7597C151.6 39.0845 149.808 39.6886 148.08 39.36L148.059 39.2858C149.598 38.703 151.158 38.1731 152.739 37.6855L152.76 37.7597Z" fill="#1E2228"/>
<path d="M160.917 39.9852C161.244 40.7165 160.854 41.6385 160.285 42.1578C158.841 43.5567 155.963 43.3236 155.078 41.3947C154.92 41.0132 154.877 40.5999 155.004 40.2396H155.078C155.341 42.4228 158.419 42.8149 159.926 41.6703C160.464 41.2888 160.864 40.6529 160.843 39.9746H160.917V39.9852Z" fill="#CB7C2C"/>
<path d="M166.251 28.1152C165.587 28.6663 164.743 28.9949 163.816 28.9949C163.7 28.9949 163.584 28.9949 163.468 28.9843C162.846 28.9207 162.235 29.1114 161.781 29.5566C160.748 30.574 159.336 31.2099 157.776 31.2099C156.216 31.2099 154.719 30.5422 153.686 29.4718C153.222 28.9949 152.558 28.7617 151.905 28.9101C151.631 28.9737 151.346 29.0055 151.062 29.0055C150.492 29.0055 149.955 28.8783 149.48 28.6557C149.596 28.6239 149.723 28.5921 149.839 28.5709C151.409 26.2606 154.129 24.6709 157.281 24.5331C160.432 24.3953 163.268 25.7413 165.049 27.9033C165.46 27.9563 165.871 28.0305 166.261 28.1364L166.251 28.1152Z" fill="#CB7C2C"/>
<path d="M147.089 44.2556C150.536 45.8559 154.847 45.3684 157.714 42.8355L158.051 42.5387L158.452 42.8037C163.395 46.1739 171.048 43.7257 172.429 37.6954C172.819 35.8726 172.629 33.9861 171.807 32.2904L171.87 32.248C172.387 33.1277 172.734 34.1027 172.892 35.1095C173.989 43.164 164.291 47.806 158.062 43.3654H158.136C155.089 45.9301 150.483 46.3116 147.047 44.3298L147.089 44.2662V44.2556Z" fill="#CB7C2C"/>
<path d="M188.199 48.824C188.199 49.8838 179.598 48.1776 179.598 48.1776L182.834 31.2207L189.253 35.0466C189.253 35.0466 188.199 44.5848 188.199 48.824Z" fill="#F2AF9C"/>
<path d="M177.645 14.5703H195.817C195.817 14.5703 199.79 28.6869 196.628 35.0457C193.192 41.9556 177.645 38.596 177.645 29.2592V14.5703Z" fill="#F2AF9C"/>
<path d="M183.148 25.1578C183.886 23.4516 186.89 23.1654 187.66 24.9883C186.216 24.1828 184.582 24.4478 183.148 25.1578Z" fill="#1E2228"/>
<path d="M192.637 24.0993C193.375 22.393 196.379 22.1068 197.148 23.9297C195.704 23.1242 194.07 23.3892 192.637 24.0993Z" fill="#1E2228"/>
<path d="M198.654 22.5194C198.538 22.159 198.443 21.8305 198.338 21.4914C198.854 22.5936 199.381 23.6958 199.95 24.7874C201.669 28.0727 203.914 30.9978 207.982 30.7011V30.6269C207.54 30.5633 207.107 30.5103 206.686 30.4149C202.712 29.5671 201.152 25.3279 199.402 22.0955C198.749 20.8237 198.074 19.5413 197.357 18.2908C195.566 12.43 194.385 10.0667 186.732 8.56177C173.578 5.97585 169.151 16.4043 167.58 21.5338C166.02 26.6632 165.746 33.4565 165.746 33.4565C165.746 33.4565 176.803 39.8048 181.799 36.6571L181.778 36.636C180.282 35.4278 179.048 33.9864 178.332 32.3649L177.646 22.5512L180.946 22.2014C180.946 22.2014 180.556 16.913 181.536 15.1114C181.536 15.1114 181.146 20.6647 182.095 22.2756L188.567 21.7457C188.567 21.7457 187.259 17.3687 187.934 14.9948C187.913 15.5247 187.934 16.044 187.976 16.5633C188.124 18.2802 188.704 20.05 190 21.2264L190.053 21.1734C189.41 19.7427 189.083 18.3437 188.682 16.913C189.283 18.3014 190.327 20.05 191.992 21.0251L195.829 20.4952C195.829 20.4952 199.803 29.7578 194.533 37.1765C196.641 38.2363 202.965 39.2961 207.287 32.153C207.287 32.153 201.531 31.5807 198.664 22.53L198.654 22.5194Z" fill="#1E2228"/>
<path d="M176.601 24.4485C176.601 24.4485 174.335 9.62187 189.482 9.22974C189.482 9.22974 185.603 7.3327 181.039 8.25472C174.24 9.62187 171.036 19.7536 172.385 25.5083L176.601 24.4485Z" fill="#EE7B71"/>
<path d="M179.9 27.7548C179.9 28.9524 181.84 32.259 176.833 30.0652C175.758 29.5988 173.766 28.5178 173.766 26.9811C173.766 25.2537 176.475 25.0629 177.602 25.4338C179.9 26.2075 179.9 26.5572 179.9 27.7442V27.7548Z" fill="#F2AF9C"/>
<path d="M177.066 28.6875C175.148 28.6875 173.314 36.0531 177.066 36.0531C180.819 36.0531 179.333 28.6875 177.066 28.6875Z" fill="#6090C2"/>
<path d="M177.099 28.7293C176.035 28.8565 176.003 32.0253 177.12 31.8981C178.238 31.9087 178.269 28.8141 177.099 28.7293ZM177.099 28.6445C178.554 28.8353 178.986 32.6718 177.141 32.6506C175.56 32.6506 175.75 30.5416 176.224 29.5242C176.403 29.1532 176.635 28.6869 177.099 28.6445Z" fill="#FDF9F0"/>
<path d="M190.305 25.7196C192.033 26.1011 193.509 28.0617 193.467 29.7362C193.467 31.0292 191.78 31.3895 190.6 30.5523L190.579 30.4251C194.521 29.7362 190.305 25.709 190.305 25.709V25.7196Z" fill="#1E2228"/>
<path d="M181.02 72.3307L189.073 67.4238L193.194 70.2853L185.763 75.3724L181.02 72.3307Z" fill="#F2AF9C"/>
<path d="M206.063 52.3859C204.345 50.0967 201.499 48.5918 198.274 48.5918C195.048 48.5918 192.192 50.0967 190.484 52.3859C186.089 53.1596 182.758 56.7417 182.758 61.0445C182.758 65.9196 187.006 69.862 192.244 69.862C194.532 69.862 196.629 69.1096 198.274 67.859C199.918 69.1096 202.016 69.862 204.303 69.862C209.542 69.862 213.789 65.909 213.789 61.0445C213.789 56.7311 210.459 53.149 206.063 52.3859Z" fill="#FDF9F0"/>
<path d="M198.274 112.327C206.843 112.327 213.789 101.642 213.789 88.4605C213.789 75.2793 206.843 64.5938 198.274 64.5938C189.704 64.5938 182.758 75.2793 182.758 88.4605C182.758 101.642 189.704 112.327 198.274 112.327Z" fill="#FDF9F0"/>
<path d="M193.784 49.63L188.282 44.066C187.66 43.4407 186.596 43.7692 186.438 44.6383C186.069 46.7473 185.647 50.3082 186.121 54.2931H192.235L193.774 49.63H193.784Z" fill="#FDF9F0"/>
<path d="M187.186 43.8016C187.966 44.819 188.63 45.9 189.22 47.0234C189.663 47.8395 190 49.0264 190.938 49.3656C191.075 49.3656 191.181 49.2172 191.107 49.09C190.896 48.6873 190.243 48.3906 189.789 48.3906C189.305 48.3906 189.009 48.8039 188.946 49.249C188.936 50.436 189.821 51.4216 190.485 52.3542L190.432 52.4072C189.294 51.676 188.166 50.7009 188.145 49.1748C188.366 47.1506 190.97 47.2778 191.508 48.9946C191.592 49.3444 191.255 49.7259 190.896 49.6411C190.464 49.5246 190.19 49.1218 189.916 48.8357C189.494 48.3482 189.052 47.8713 188.672 47.3414C187.955 46.271 187.428 45.084 187.102 43.8228L187.165 43.791L187.186 43.8016Z" fill="#1E2228"/>
<path d="M202.754 49.63L208.256 44.066C208.878 43.4407 209.943 43.7692 210.101 44.6383C210.47 46.7473 210.891 50.3082 210.417 54.2931H204.303L202.764 49.63H202.754Z" fill="#FDF9F0"/>
<path d="M202.499 61.2779C202.499 62.3695 201.55 63.2491 200.38 63.2491C199.21 63.2491 198.262 62.3695 198.262 61.2779C198.262 60.1863 199.21 59.3066 200.38 59.3066C201.55 59.3066 202.499 60.1863 202.499 61.2779Z" fill="#FCECCB"/>
<path d="M198.272 61.2779C198.272 62.3695 197.324 63.2491 196.154 63.2491C194.984 63.2491 194.035 62.3695 194.035 61.2779C194.035 60.1863 194.984 59.3066 196.154 59.3066C197.324 59.3066 198.272 60.1863 198.272 61.2779Z" fill="#FCECCB"/>
<path d="M207.781 48.6226C208.719 50.1593 206.062 52.3849 206.062 52.3849L204.787 54.3031H204.292L202.742 49.64L208.244 44.076C208.571 43.7475 209.003 43.6839 209.372 43.8111C209.372 43.8111 208.15 46.3758 207.011 48.0609C207.306 48.1139 207.58 48.2834 207.77 48.6226H207.781Z" fill="#ED9537"/>
<path d="M209.414 43.8326C208.855 46.0476 207.591 48.04 205.894 49.5343C205.63 49.7463 205.208 49.6721 205.061 49.3436C204.913 49.0362 205.103 48.6865 205.272 48.4639C206.231 47.2345 208.191 47.4677 208.381 49.174C208.36 50.7107 207.222 51.6751 206.094 52.4064L206.041 52.3534C206.695 51.4526 207.633 50.3398 207.58 49.2482C207.517 48.8136 207.222 48.3897 206.737 48.3897C206.294 48.3897 205.63 48.6865 205.419 49.0892C205.324 49.2906 205.556 49.4389 205.767 49.3118C206.568 48.8242 206.895 47.828 207.317 47.0226C207.917 45.8992 208.571 44.8182 209.351 43.8008L209.414 43.8326Z" fill="#1E2228"/>
<path d="M213.768 60.5149C212.25 61.3521 210.479 61.8184 208.582 61.8184C202.89 61.8184 198.273 57.5262 198.273 52.2272C198.273 46.9282 198.547 49.7261 199.032 48.6133C201.952 48.8252 204.492 50.2666 206.063 52.3756C210.279 53.1068 213.505 56.4346 213.768 60.5043V60.5149Z" fill="#ED9537"/>
<path d="M196.818 48.6869C196.165 52.0783 197.609 54.7702 199.928 57.0806C200.718 57.8436 201.54 58.5325 202.352 59.3062L202.32 59.3697L200.897 58.5113C198.621 56.9958 196.491 54.7808 196.238 51.9193C196.133 50.8065 196.291 49.6619 196.755 48.6445L196.818 48.6763V48.6869Z" fill="#ED9537"/>
<path d="M202.047 58.9989C201.552 58.9989 201.141 58.4372 201.141 57.7377C201.141 57.0383 201.541 56.4766 202.047 56.4766C202.553 56.4766 202.954 57.0383 202.954 57.7377C202.954 58.4372 202.553 58.9989 202.047 58.9989Z" fill="#1E2228"/>
<path d="M194.649 58.2773C194.228 57.705 194.987 57.0161 195.577 57.0585C196.157 57.0161 196.926 57.7156 196.505 58.2773H196.452C196.389 57.387 194.776 57.387 194.713 58.2773H194.66H194.649Z" fill="#1E2228"/>
<path d="M197.442 60.1328H199.108C199.224 60.1328 199.287 60.2706 199.202 60.3554L198.37 61.235C198.317 61.288 198.233 61.288 198.18 61.235L197.347 60.3554C197.263 60.2706 197.326 60.1328 197.442 60.1328Z" fill="#1E2228"/>
<path d="M200.383 63.2678C199.245 63.8295 197.706 62.4836 198.243 61.2754H198.285C198.285 62.3776 199.329 63.2254 200.383 63.2254V63.2678Z" fill="#1E2228"/>
<path d="M198.284 61.2762C198.822 62.4844 197.293 63.8198 196.145 63.2581V63.2157C197.199 63.2157 198.242 62.3678 198.242 61.2656H198.284V61.2762Z" fill="#1E2228"/>
<path d="M203.492 60.4712C204.799 59.3902 206.623 59.1147 208.183 59.7612L208.193 59.8354C206.633 60.1215 205.073 60.3547 203.503 60.5454V60.4712H203.492Z" fill="#1E2228"/>
<path d="M203.502 61.8603C205.251 61.4576 207.096 62.0087 208.361 63.2804L208.34 63.3546C206.706 62.9201 205.083 62.4538 203.48 61.9345L203.502 61.8603Z" fill="#1E2228"/>
<path d="M193.034 60.5557C191.464 61.2128 189.651 60.9267 188.344 59.8457L188.354 59.7715C189.925 59.9622 191.485 60.1954 193.045 60.4816V60.5557H193.034Z" fill="#1E2228"/>
<path d="M193.056 61.9336C191.802 63.2159 189.947 63.7564 188.197 63.3537L188.176 63.2795C189.778 62.7602 191.401 62.2833 193.035 61.8594L193.056 61.9336Z" fill="#1E2228"/>
<path d="M201.3 64.584C201.595 65.347 201.153 66.2691 200.541 66.7672C199.002 68.1237 196.083 67.7634 195.261 65.7604C195.124 65.3682 195.092 64.9443 195.229 64.584H195.303C195.471 66.8414 198.602 67.3819 200.204 66.2797C200.773 65.9087 201.216 65.2835 201.216 64.584H201.29H201.3Z" fill="#ED9537"/>
<path d="M217.016 133.789C211.524 133.789 207.023 132.04 203.597 128.564C193.984 118.793 196.809 98.9004 196.936 98.0632C197.115 96.8868 198.201 96.0814 199.36 96.2615C200.53 96.4417 201.331 97.5227 201.152 98.6991C201.12 98.8792 198.517 117.32 206.633 125.554C209.859 128.829 214.517 130.069 220.473 129.243C221.632 129.084 222.718 129.9 222.876 131.076C223.034 132.252 222.223 133.333 221.053 133.492C219.651 133.683 218.291 133.789 216.995 133.789H217.016Z" fill="#FDF9F0"/>
<path d="M182.642 113.664L176.107 123.022C175.57 123.785 175.917 124.856 176.803 125.152L179.048 125.905C181.525 126.731 184.202 125.385 185.024 122.895L186.11 119.61L182.632 113.675L182.642 113.664Z" fill="#ED9537"/>
<path d="M192.762 107.062L185.036 122.884L179.376 118.878L184.562 108.948C184.562 108.948 170.205 103.766 185.384 85.7383L192.762 107.051V107.062Z" fill="#ED9537"/>
<path d="M177.898 125.289C177.666 124.102 178.414 123.01 179.595 122.809L179.658 122.851C179.131 123.709 178.562 124.536 177.961 125.331L177.898 125.289Z" fill="#1E2228"/>
<path d="M179.362 125.691C179.131 124.504 179.879 123.412 181.059 123.211L181.123 123.253C180.596 124.112 180.026 124.938 179.426 125.733L179.362 125.691Z" fill="#1E2228"/>
<path d="M213.874 113.664L220.409 123.022C220.947 123.785 220.599 124.856 219.714 125.152L217.468 125.905C214.991 126.731 212.314 125.385 211.492 122.895L210.406 119.61L213.885 113.675L213.874 113.664Z" fill="#FDF9F0"/>
<path d="M203.746 107.062L211.472 122.884L217.133 118.878L211.947 108.948C211.947 108.948 226.303 103.766 211.125 85.7383L203.746 107.051V107.062Z" fill="#FDF9F0"/>
<path d="M204.766 110.081C208.075 106.542 210.247 102.345 212.418 98.0527L212.492 98.0739C211.185 102.716 208.782 107.284 204.808 110.145L204.766 110.081Z" fill="#1E2228"/>
<path d="M218.544 125.331C217.363 125.13 216.615 124.027 216.847 122.851L216.91 122.809C217.511 123.614 218.08 124.441 218.607 125.289L218.544 125.331Z" fill="#1E2228"/>
<path d="M217.091 125.733C215.91 125.532 215.162 124.43 215.394 123.253L215.457 123.211C216.058 124.016 216.627 124.843 217.154 125.691L217.091 125.733Z" fill="#1E2228"/>
<path d="M191.696 110.133C187.248 108.056 184.433 102.853 184.012 98.0622L184.086 98.041C185.466 102.641 187.838 107.166 191.738 110.07L191.696 110.133Z" fill="#1E2228"/>
<path d="M197.189 107.526C197.189 109.137 197.084 110.705 196.894 112.232C196.883 112.232 196.862 112.232 196.852 112.232C196.746 112.232 196.641 112.2 196.536 112.179C196.42 112.157 196.293 112.136 196.177 112.115C196.061 112.094 195.935 112.062 195.819 112.03C195.703 111.998 195.587 111.977 195.471 111.935C194.891 111.776 194.312 111.553 193.753 111.299C193.532 111.193 193.31 111.076 193.089 110.96C192.983 110.896 192.867 110.843 192.762 110.769C192.657 110.705 192.541 110.642 192.435 110.578C192.33 110.515 192.214 110.441 192.109 110.377C192.003 110.303 191.898 110.229 191.792 110.154C191.592 110.017 191.402 109.868 191.202 109.72C190.643 109.275 190.106 108.787 189.589 108.247C189.431 108.088 189.273 107.908 189.126 107.738C189.031 107.632 188.936 107.526 188.851 107.42C188.672 107.208 188.493 106.986 188.314 106.763C188.23 106.646 188.145 106.53 188.05 106.424C187.966 106.307 187.882 106.191 187.797 106.074C187.544 105.724 187.302 105.353 187.06 104.972C186.912 104.749 186.775 104.516 186.648 104.283C186.311 103.7 185.995 103.085 185.7 102.45C185.605 102.248 185.51 102.036 185.415 101.824C185.373 101.74 185.341 101.665 185.31 101.581C185.088 101.072 184.878 100.553 184.688 100.012C184.561 99.6623 184.445 99.302 184.319 98.9417C184.224 98.6343 184.129 98.327 184.045 98.0196C184.045 97.9878 184.034 97.9666 184.024 97.9348C183.929 97.6169 183.855 97.299 183.771 96.981C183.697 96.6949 183.634 96.4087 183.571 96.112C183.55 96.0166 183.528 95.9318 183.518 95.8364C183.455 95.5503 183.402 95.2747 183.349 94.9886C183.349 94.9674 183.349 94.9462 183.349 94.9356C183.286 94.5965 183.233 94.2679 183.181 93.9288C183.181 93.9076 183.181 93.8758 183.17 93.844C183.117 93.5261 183.075 93.2187 183.033 92.8902C183.001 92.604 182.97 92.3179 182.938 92.0317C182.928 91.8834 182.907 91.735 182.896 91.5866C182.875 91.3323 182.854 91.0779 182.843 90.8236C182.843 90.654 182.822 90.4844 182.812 90.3043V90.2831C182.801 90.0393 182.791 89.7744 182.78 89.52V89.4882C182.78 89.1385 182.77 88.7887 182.77 88.439C182.77 88.0893 183.602 79.6109 185.046 75.9863C186.901 77.0461 188.208 79.5579 188.208 82.4723C188.208 82.7161 188.208 82.9598 188.177 83.193C188.071 84.6555 188.641 86.0651 189.716 87.0719C194.206 91.2475 197.21 98.8357 197.21 107.494L197.189 107.526Z" fill="#ED9537"/>
<path d="M186.836 75.9766C189.271 76.9092 190.81 79.5799 190.894 82.1658C190.947 82.9713 190.747 83.8191 190.979 84.6034C191.158 85.3664 191.58 86.0659 192.149 86.6488L193.055 87.5178C198.241 92.5625 200.623 100.469 198.779 107.516C198.389 109.18 197.704 110.759 196.913 112.254L196.85 112.222C197.409 110.632 197.946 109.042 198.199 107.389C199.106 102.493 198.484 97.3316 196.492 92.7744C195.48 90.4747 193.909 88.4187 191.864 86.9561C190.863 86.1189 190.125 84.7941 190.188 83.427C190.483 80.5761 189.356 77.5557 186.805 76.0401L186.836 75.9766Z" fill="#ED9537"/>
<path d="M181.031 74.4395L192.394 71.6098C192.858 71.4933 193.343 71.4827 193.817 71.5781L202.292 73.3055C202.819 73.4115 203.124 73.9626 202.945 74.4607C202.555 75.5523 201.459 76.22 200.31 76.0504L193.448 75.0224L182.95 77.7037L181.031 74.4395Z" fill="#F2AF9C"/>
<path d="M181.504 77.502L192.867 74.6723C193.33 74.5558 193.815 74.5452 194.29 74.6406L202.764 76.368C203.291 76.474 203.597 77.0251 203.418 77.5232C203.028 78.6148 201.932 79.2825 200.783 79.1129L193.921 78.0849L183.422 80.7662L181.504 77.502Z" fill="#F2AF9C"/>
<path d="M180.453 80.713L191.816 77.8833C192.28 77.7667 192.765 77.7561 193.239 77.8515L201.714 79.579C202.241 79.6849 202.546 80.236 202.367 80.7342C201.977 81.8257 200.881 82.4934 199.732 82.3239L192.87 81.2959L182.372 83.9772L180.453 80.713Z" fill="#F2AF9C"/>
<path d="M178.27 83.9044L189.632 81.0747C190.096 80.9581 190.581 80.9475 191.055 81.0429L199.53 82.7704C200.057 82.8764 200.363 83.4275 200.183 83.9256C199.793 85.0172 198.697 85.6848 197.548 85.5153L190.686 84.4873L180.188 87.1686L178.27 83.9044Z" fill="#F2AF9C"/>
<path d="M207.296 69.416L204.872 70.1473C204.008 70.444 203.344 71.1435 203.08 72.0231L200.93 79.2086C200.719 79.9081 201.246 80.6181 201.973 80.6181H203.828C205.873 80.6181 207.539 78.9542 207.539 76.8876V74.1745L207.296 69.416Z" fill="#FDF9F0"/>
<path d="M207.255 69.3105C206.56 69.6179 205.78 69.9358 205.084 70.222C204.388 70.4763 203.788 70.985 203.492 71.6527C202.734 74.1327 202.112 76.6974 201.332 79.1773C201.089 79.792 201.532 80.3113 202.164 80.2477C203.366 80.2477 204.736 80.4491 205.78 79.7072C207.74 78.4461 207.34 76.1993 207.54 74.175C207.582 74.7049 207.614 75.2243 207.635 75.7542C207.645 76.2311 207.719 76.8669 207.688 77.3545C207.582 79.3469 205.716 81.032 203.724 80.9684L202.944 80.979C202.807 80.979 202.091 80.979 201.964 80.979C200.952 81.0002 200.235 79.8874 200.615 78.9654C201.226 76.9517 201.838 74.9487 202.502 72.9563L202.744 72.2038C202.955 71.409 203.503 70.6353 204.23 70.2432C204.652 69.9888 205.284 69.8828 205.748 69.7345C206.254 69.5861 206.749 69.4483 207.266 69.3105H207.255Z" fill="#1E2228"/>
<path d="M202.426 80.597C201.889 79.516 202.321 78.2654 203.396 77.7461L203.47 77.7673C203.185 78.7317 202.869 79.6855 202.5 80.6182L202.426 80.597Z" fill="#1E2228"/>
<path d="M203.934 80.597C203.397 79.516 203.829 78.2654 204.904 77.7461L204.978 77.7673C204.693 78.7317 204.377 79.6855 204.008 80.6182L203.934 80.597Z" fill="#1E2228"/>
<path d="M189.238 69.3211L191.589 70.1372C192.453 70.4339 193.117 71.1334 193.381 72.013L195.531 79.1985C195.742 79.898 195.215 80.6081 194.487 80.6081H192.632C190.587 80.6081 188.922 78.9442 188.922 76.8775V71.3878L189.238 69.3105V69.3211Z" fill="#FDF9F0"/>
<path d="M189.239 69.3223C191.179 69.7992 193.181 69.9264 193.761 72.2261C194.478 74.4729 195.184 76.7303 195.848 78.9877C196.238 80.0263 195.384 81.1073 194.278 80.9695C193.529 80.9377 192.623 81.0013 191.874 80.8635C189.914 80.4926 188.522 78.4896 188.786 76.5395L188.828 75.7553C188.849 75.236 188.881 74.7061 188.923 74.1868C189.018 75.2148 189.007 76.3064 189.123 77.3132C189.281 78.3094 189.872 79.189 190.673 79.7189C191.716 80.4714 193.076 80.27 194.288 80.27C194.91 80.3336 195.384 79.8567 195.142 79.2208C194.457 76.9634 193.803 74.6955 193.181 72.4275C193.023 71.6962 192.665 71.0815 192.043 70.6576C191.158 70.1489 190.156 69.831 189.25 69.3541L189.239 69.3223Z" fill="#1E2228"/>
<path d="M193.96 80.6299C192.875 80.1212 192.453 78.86 192.991 77.779L193.065 77.7578C193.433 78.6904 193.76 79.6443 194.034 80.6087L193.96 80.6299Z" fill="#1E2228"/>
<path d="M192.453 80.6299C191.367 80.1212 190.945 78.86 191.483 77.779L191.557 77.7578C191.926 78.6904 192.252 79.6443 192.526 80.6087L192.453 80.6299Z" fill="#1E2228"/>
<path d="M221.075 133.503C219.662 133.694 218.313 133.789 217.017 133.789C215.267 133.789 213.612 133.609 212.062 133.248C212.431 132.528 212.927 131.881 213.507 131.32C214.097 130.747 214.582 130.09 214.94 129.37C216.648 129.56 218.492 129.518 220.495 129.242C221.654 129.083 222.74 129.9 222.898 131.076C223.056 132.252 222.245 133.333 221.075 133.492V133.503Z" fill="#ED9537"/>
<path d="M207.456 44.8828C206.117 46.7799 204.505 48.4438 202.829 50.0547C201.574 49.5459 200.33 49.0054 199.023 48.6239C199.677 48.5603 200.341 48.6663 200.984 48.7935C201.627 48.9207 202.249 49.1008 202.881 49.3128L202.502 49.3976C204.041 47.7761 205.643 46.2076 207.456 44.8934V44.8828Z" fill="#1E2228"/>
<path d="M148.101 142.172L87.9561 148.319L80.5039 175.958H210.322C223.277 175.958 230.613 161.026 222.728 150.682L216.246 142.182H148.09L148.101 142.172Z" fill="#F2AF9C"/>
<path d="M137.446 150.777C137.446 148.679 133.503 148.679 133.503 146.581C133.503 144.482 137.446 144.27 137.446 142.172L130.057 142.956L107.11 145.394C96.3372 146.538 87.9152 142.384 79.5776 149.357C73.0951 154.773 55.5555 163.347 48.0401 166.908C45.7422 167.999 43.7817 169.759 42.4114 171.974H42.4008C41.3362 173.69 42.5168 175.958 44.4773 175.958H130.057H137.446C137.446 173.86 133.503 173.86 133.503 171.762C133.503 169.663 137.446 169.663 137.446 167.565C137.446 165.466 133.503 165.466 133.503 163.368C133.503 161.27 137.446 161.27 137.446 159.171C137.446 157.073 133.503 157.073 133.503 154.974C133.503 152.876 137.446 152.876 137.446 150.777Z" fill="#FDF9F0"/>
<path d="M74.0965 153.15C82.0336 153.574 91.7942 153.712 98.5086 148.911C99.7629 147.978 100.849 146.855 101.797 145.572L101.86 145.615C101.217 146.717 100.427 147.734 99.5099 148.625C94.7666 153.065 87.8941 153.987 81.6646 153.924C79.1244 153.881 76.5841 153.669 74.0859 153.224V153.15H74.0965Z" fill="#6090C2"/>
<path d="M132.122 175.958C131.837 173.786 128.042 174.189 127.926 171.793C127.905 169.97 130.108 169.547 131.226 168.635C131.584 168.349 131.827 168.02 131.837 167.607C131.837 165.89 129.086 165.625 128.327 164.237C127.515 162.785 128.886 161.768 130.045 161.206C130.488 160.962 130.931 160.729 131.299 160.411C132.09 159.839 132.185 158.726 131.394 158.132C130.425 157.338 128.981 157.094 128.19 156.002C127.21 154.455 128.569 153.215 129.877 152.59C130.962 152.039 132.554 151.127 131.331 149.866C130.625 149.22 129.624 148.88 128.833 148.266C128.116 147.768 127.663 146.761 128.074 145.913C128.443 145.139 129.318 144.811 130.024 144.525C130.878 144.164 132.048 143.846 132.122 142.744H132.195C132.217 144.493 129.95 144.684 128.949 145.627C128.612 145.934 128.464 146.316 128.527 146.729C128.696 147.64 129.75 148.011 130.509 148.435C131.468 148.88 132.712 149.718 132.543 150.979C132.322 152.759 130.151 153.067 129.044 154.042C127.747 155.282 129.318 156.299 130.435 156.871C131.637 157.454 132.997 158.652 132.069 160.093C131.278 161.153 129.855 161.375 128.907 162.213C128.095 162.859 128.19 164.046 129.054 164.597C130.224 165.477 132.448 165.784 132.469 167.639C132.469 168.847 131.215 169.525 130.309 169.992C129.55 170.416 128.527 170.84 128.517 171.804C128.517 172.217 128.728 172.599 129.086 172.896C130.003 173.701 131.426 174.061 132.058 175.206C132.174 175.45 132.227 175.715 132.206 175.98H132.132L132.122 175.958Z" fill="#6090C2"/>
<path d="M210.324 175.916C223.099 175.11 229.793 160.58 221.919 150.406C220.022 147.767 218.008 144.906 216.227 142.193L216.29 142.15C217.46 143.677 220.359 147.471 221.487 148.944C221.972 149.601 222.752 150.555 223.194 151.222C230.562 161.566 222.783 176.297 210.324 175.916Z" fill="#1E2228"/>
<path d="M253.276 147.746L148.102 142.172H249.028L253.276 147.746Z" fill="#3E3E84"/>
<path d="M137.455 142.256C135.294 142.605 133.123 142.902 130.962 143.178C124.448 143.972 117.934 144.651 111.367 144.937C120 143.517 128.707 142.595 137.434 142.086H137.529C137.529 142.637 137.244 143.125 136.823 143.453" fill="#6090C2"/>
<path d="M172.568 100.637L164.609 88.4598L170.217 84.0723L178.449 93.992L172.568 100.637Z" fill="#FDF9F0"/>
<path d="M164.608 88.4609C157.556 93.4844 150.209 98.0734 142.609 102.207C149.661 97.1831 157.008 92.5942 164.608 88.4609Z" fill="#1E2228"/>
<path d="M159.065 91.4272C157.336 79.0593 154.912 65.674 153.984 53.2637H154.058C154.691 56.4113 155.175 59.5907 155.66 62.7595C156.135 65.9283 156.472 69.1289 156.851 72.3083C157.442 77.0669 158.58 86.6687 159.128 91.4272H159.054H159.065Z" fill="#1E2228"/>
<path d="M170.215 84.0727L181.019 72.3301C181.019 72.3301 189.03 74.0258 188.608 85.0477L185.499 89.1068C184.065 90.972 182.178 92.4239 180.018 93.3248L178.447 93.9819L170.215 84.0621V84.0727Z" fill="#F2AF9C"/>
<path d="M181.504 92.6037C181.03 92.8792 180.534 93.123 180.018 93.3349L178.447 93.992L170.215 84.0723L181.504 92.6037Z" fill="#C45C57"/>
<path d="M150.822 76.0296C149.451 75.3514 148.64 73.8782 148.777 72.3521L148.84 72.3203C149.557 73.5179 150.242 74.7473 150.885 75.9978L150.822 76.0296Z" fill="#FDF9F0"/>
<path d="M148.935 77.2269C147.565 76.5486 146.753 75.0755 146.89 73.5494L146.953 73.5176C147.67 74.7152 148.355 75.9445 148.998 77.1951L148.935 77.2269Z" fill="#FDF9F0"/>
<path d="M161.498 82.197C161.35 80.6709 162.172 79.1978 163.542 78.5195L163.606 78.5513C162.963 79.8019 162.288 81.0207 161.561 82.2288L161.498 82.197Z" fill="#FDF9F0"/>
<path d="M163.396 83.3943C163.248 81.8682 164.071 80.3951 165.441 79.7168L165.504 79.7486C164.861 80.9992 164.186 82.2179 163.459 83.4261L163.396 83.3943Z" fill="#FDF9F0"/>
<path d="M143.118 92.6781C141.748 91.9998 140.937 90.5267 141.074 89.0005L141.137 88.9688C141.854 90.1663 142.539 91.3957 143.182 92.6463L143.118 92.6781Z" fill="#FDF9F0"/>
<path d="M141.22 93.8753C139.85 93.1971 139.038 91.7239 139.175 90.1978L139.238 90.166C139.955 91.3636 140.64 92.593 141.283 93.8435L141.22 93.8753Z" fill="#FDF9F0"/>
<path d="M161.931 43.9053L159.886 63.3421L158.484 68.0264C158.274 68.7259 158.801 69.436 159.528 69.436H161.383C163.428 69.436 165.093 67.7721 165.093 65.7054V63.3421L171.154 39.168L161.931 43.9053Z" fill="#FCECCB"/>
<path d="M159.981 69.4153C159.443 68.3343 159.876 67.0838 160.951 66.5645L161.025 66.5856C160.74 67.5501 160.424 68.5039 160.055 69.4365L159.981 69.4153Z" fill="#CB7C2C"/>
<path d="M161.489 69.4153C160.951 68.3343 161.383 67.0838 162.459 66.5645L162.532 66.5856C162.248 67.5501 161.932 68.5039 161.563 69.4365L161.489 69.4153Z" fill="#CB7C2C"/>
<path d="M152.794 107.961C151.424 107.283 150.612 105.81 150.749 104.284L150.813 104.252C151.529 105.45 152.215 106.679 152.857 107.929L152.794 107.961Z" fill="#FDF9F0"/>
<path d="M150.896 109.159C149.526 108.48 148.714 107.007 148.851 105.481L148.914 105.449C149.631 106.647 150.316 107.876 150.959 109.127L150.896 109.159Z" fill="#FDF9F0"/>
<path d="M135.244 119.195C135.096 117.669 135.918 116.196 137.288 115.518L137.352 115.549C136.709 116.8 136.034 118.019 135.307 119.227L135.244 119.195Z" fill="#FDF9F0"/>
<path d="M137.142 120.404C136.994 118.878 137.817 117.405 139.187 116.727L139.25 116.758C138.607 118.009 137.933 119.228 137.205 120.436L137.142 120.404Z" fill="#FDF9F0"/>
<path d="M218.822 83.4691C217.451 82.7908 216.64 81.3177 216.777 79.7916L216.84 79.7598C217.557 80.9573 218.242 82.1867 218.885 83.4373L218.822 83.4691Z" fill="#FDF9F0"/>
<path d="M216.923 84.6663C215.553 83.9881 214.741 82.5149 214.878 80.9888L214.942 80.957C215.658 82.1546 216.343 83.384 216.986 84.6345L216.923 84.6663Z" fill="#FDF9F0"/>
<path d="M219.083 106.89C218.936 105.364 219.758 103.891 221.128 103.213L221.192 103.245C220.549 104.495 219.874 105.714 219.147 106.922L219.083 106.89Z" fill="#FDF9F0"/>
<path d="M220.982 108.088C220.834 106.562 221.656 105.088 223.027 104.41L223.09 104.442C222.447 105.693 221.772 106.911 221.045 108.119L220.982 108.088Z" fill="#FDF9F0"/>
<path d="M192.508 25.3278C193.246 23.6215 196.25 23.3353 197.019 25.1582C195.575 24.3528 193.941 24.6177 192.508 25.3278Z" fill="#1E2228"/>
<path d="M193.278 32.4763C193.008 34.3153 190.18 35.3689 188.965 33.8072C190.568 34.2116 192.078 33.533 193.278 32.4763Z" fill="#1E2228"/>
<path d="M183.023 26.3883C183.761 24.682 186.765 24.3959 187.535 26.2187C186.091 25.4133 184.457 25.6782 183.023 26.3883Z" fill="#1E2228"/>
</g>
<defs>
<clipPath id="clip0_3381_14082">
<rect width="256" height="168" fill="white" transform="translate(42 8)"/>
</clipPath>
</defs>
</svg>
