<svg width="24" height="24" viewBox="0 0 24 24" fill="none" xmlns="http://www.w3.org/2000/svg">
<path d="M6.0345 9.87835C6.00616 9.79372 5.9951 9.70426 6.00198 9.61528C6.00886 9.52629 6.03354 9.4396 6.07455 9.36033C6.11556 9.28106 6.17207 9.21083 6.24073 9.15381C6.30939 9.09679 6.38879 9.05413 6.47424 9.02837C6.5597 9.00261 6.64945 8.99427 6.73818 9.00385C6.82692 9.01342 6.91282 9.04071 6.99081 9.08411C7.0688 9.1275 7.13728 9.18612 7.1922 9.25647C7.24711 9.32682 7.28734 9.40749 7.3105 9.49368C8.70117 14.151 15.2985 14.1517 16.6905 9.49635C16.7155 9.41239 16.7567 9.33417 16.8119 9.26615C16.8671 9.19813 16.9351 9.14164 17.0121 9.09992C17.0891 9.0582 17.1736 9.03205 17.2607 9.02297C17.3478 9.01389 17.4359 9.02206 17.5198 9.04701C17.6038 9.07196 17.682 9.11321 17.75 9.16839C17.8181 9.22357 17.8745 9.29161 17.9163 9.36862C17.958 9.44563 17.9841 9.53011 17.9932 9.61722C18.0023 9.70434 17.9941 9.79239 17.9692 9.87635C17.7268 10.7105 17.3154 11.4859 16.7605 12.1543L17.6105 13.005C17.7319 13.1307 17.7991 13.2992 17.7976 13.4739C17.7961 13.6487 17.726 13.816 17.6024 13.9396C17.4788 14.0632 17.3116 14.1333 17.1368 14.1348C16.962 14.1363 16.7936 14.0691 16.6678 13.9477L15.7938 13.0737C15.3222 13.4295 14.8012 13.7145 14.2472 13.9197L14.4852 14.8097C14.5106 14.895 14.5186 14.9846 14.5088 15.0732C14.499 15.1617 14.4715 15.2473 14.4281 15.3251C14.3846 15.4028 14.326 15.471 14.2557 15.5258C14.1854 15.5805 14.1049 15.6206 14.0189 15.6436C13.9329 15.6667 13.8431 15.6723 13.7549 15.6601C13.6667 15.6479 13.5818 15.6182 13.5052 15.5726C13.4287 15.5271 13.3621 15.4667 13.3093 15.3949C13.2565 15.3232 13.2186 15.2416 13.1978 15.155L12.9552 14.2503C12.3238 14.3437 11.6785 14.3437 11.0472 14.2503L10.8045 15.155C10.7838 15.2416 10.7459 15.3232 10.6931 15.3949C10.6403 15.4667 10.5736 15.5271 10.4971 15.5726C10.4206 15.6182 10.3357 15.6479 10.2475 15.6601C10.1592 15.6723 10.0695 15.6667 9.98344 15.6436C9.89742 15.6206 9.81689 15.5805 9.74662 15.5258C9.67634 15.471 9.61774 15.4028 9.57428 15.3251C9.53082 15.2473 9.50337 15.1617 9.49356 15.0732C9.48375 14.9846 9.49178 14.895 9.51717 14.8097L9.75517 13.9197C9.20113 13.7143 8.68007 13.4291 8.2085 13.073L7.33517 13.9477C7.21016 14.0729 7.04055 14.1433 6.86364 14.1434C6.68673 14.1435 6.51701 14.0734 6.39183 13.9483C6.26665 13.8233 6.19625 13.6537 6.19613 13.4768C6.196 13.2999 6.26616 13.1302 6.39117 13.005L7.24117 12.155C6.7185 11.531 6.30117 10.7723 6.03317 9.87901L6.0345 9.87835Z" fill="#693413"/>
</svg>
