<svg width="24" height="24" viewBox="0 0 24 24" fill="none" xmlns="http://www.w3.org/2000/svg">
<path d="M12.6675 8.00065C12.6675 7.82384 12.5973 7.65427 12.4723 7.52925C12.3472 7.40422 12.1777 7.33398 12.0008 7.33398C11.824 7.33398 11.6545 7.40422 11.5294 7.52925C11.4044 7.65427 11.3342 7.82384 11.3342 8.00065V8.37398C10.9614 8.41951 10.5948 8.50581 10.2408 8.63132L10.0848 8.34865C9.99954 8.19376 9.85619 8.07911 9.68635 8.02991C9.5165 7.98072 9.33407 8.00101 9.17918 8.08632C9.0243 8.17163 8.90964 8.31497 8.86045 8.48482C8.81125 8.65467 8.83154 8.8371 8.91685 8.99198L9.05018 9.23332C8.73552 9.44532 8.45685 9.67998 8.21218 9.91865L8.09685 9.82265C7.96091 9.71209 7.7869 9.6595 7.61248 9.67625C7.43806 9.693 7.27724 9.77774 7.16483 9.91215C7.05241 10.0466 6.99743 10.2198 7.01178 10.3945C7.02613 10.5691 7.10866 10.7311 7.24152 10.8453L7.35552 10.9407L6.96552 11.4047C6.88693 11.3623 6.80064 11.3361 6.71175 11.3277C6.62286 11.3193 6.5332 11.3289 6.44807 11.3558C6.36294 11.3827 6.28409 11.4265 6.21619 11.4844C6.14829 11.5424 6.09273 11.6134 6.0528 11.6933C6.01288 11.7732 5.98939 11.8602 5.98375 11.9493C5.97811 12.0384 5.99043 12.1278 6.01997 12.212C6.04951 12.2963 6.09567 12.3737 6.15571 12.4398C6.21576 12.5059 6.28846 12.5592 6.36952 12.5967L7.03618 12.93C7.11867 12.9713 7.20882 12.995 7.30094 12.9996C7.39306 13.0043 7.48515 12.9897 7.57136 12.957C7.65758 12.9242 7.73606 12.8739 7.80184 12.8092C7.86762 12.7446 7.91927 12.667 7.95352 12.5813C8.44685 11.544 9.20152 10.5993 10.2455 10.076C10.7903 9.8034 11.3917 9.66337 12.0008 9.66732C12.61 9.66337 13.2114 9.8034 13.7562 10.076C14.7022 10.5493 15.4435 11.392 15.9262 12.324L15.9882 12.45C16.0895 12.6613 16.1875 12.8647 16.4308 12.9567C16.517 12.9894 16.609 13.0039 16.701 12.9993C16.793 12.9948 16.8831 12.9711 16.9655 12.93L17.6322 12.5967C17.7132 12.5592 17.7859 12.5059 17.846 12.4398C17.906 12.3737 17.9522 12.2963 17.9817 12.212C18.0113 12.1278 18.0236 12.0384 18.0179 11.9493C18.0123 11.8602 17.9888 11.7732 17.9489 11.6933C17.909 11.6134 17.8534 11.5424 17.7855 11.4844C17.7176 11.4265 17.6388 11.3827 17.5536 11.3558C17.4685 11.3289 17.3788 11.3193 17.2899 11.3277C17.2011 11.3361 17.1148 11.3623 17.0362 11.4047L16.9629 11.4413C16.8762 11.2907 16.7708 11.1213 16.6462 10.9407L16.7602 10.8453C16.89 10.7303 16.9699 10.5692 16.9829 10.3962C16.9959 10.2232 16.9409 10.0519 16.8297 9.91879C16.7184 9.78567 16.5596 9.70116 16.3871 9.68321C16.2145 9.66526 16.0418 9.71528 15.9055 9.82265L15.7895 9.91865C15.5316 9.66545 15.2514 9.43608 14.9522 9.23332L15.0855 8.99198C15.1708 8.83701 15.1911 8.65449 15.1418 8.48458C15.0926 8.31468 14.9778 8.1713 14.8228 8.08598C14.6679 8.00067 14.4854 7.98042 14.3154 8.02968C14.1455 8.07894 14.0022 8.19368 13.9168 8.34865L13.7615 8.63132C13.4073 8.50599 13.0405 8.41992 12.6675 8.37465V8.00065Z" fill="#693413"/>
<path d="M11.9993 16.3327C12.6182 16.3327 13.2117 16.0869 13.6493 15.6493C14.0868 15.2117 14.3327 14.6182 14.3327 13.9993C14.3327 13.3805 14.0868 12.787 13.6493 12.3494C13.2117 11.9118 12.6182 11.666 11.9993 11.666C11.3805 11.666 10.787 11.9118 10.3494 12.3494C9.91185 12.787 9.66602 13.3805 9.66602 13.9993C9.66602 14.6182 9.91185 15.2117 10.3494 15.6493C10.787 16.0869 11.3805 16.3327 11.9993 16.3327Z" fill="#693413"/>
</svg>
