<svg width="32" height="32" viewBox="0 0 32 32" fill="none" xmlns="http://www.w3.org/2000/svg">
<g clip-path="url(#clip0_2423_34882)">
<path d="M26.4129 11.1431L26.402 10.6641V1.60656L24.0154 4.11069C22.0623 1.60223 19.0908 0 15.7625 0C12.2988 0 9.22164 1.73456 7.27539 4.41967L11.1873 8.56708C11.5719 7.82426 12.1164 7.18688 12.7731 6.70164C13.4561 6.14243 14.4238 5.68525 15.7624 5.68525C15.9241 5.68525 16.0489 5.70492 16.1406 5.74243C17.7991 5.87974 19.2369 6.84013 20.0831 8.23397L17.3129 11.1405L26.4114 11.1423" fill="#1C3AA9"/>
<path d="M15.701 0L15.2443 0.0127213H6.61158L8.9982 2.51672C6.6072 4.56354 5.08008 7.68223 5.08008 11.1743C5.08008 14.8071 6.73333 18.0367 9.29258 20.0776L13.2456 15.9734C12.538 15.5715 11.9293 15.0023 11.4677 14.3108C10.9348 13.5942 10.499 12.579 10.499 11.1746C10.499 11.0049 10.5177 10.874 10.5535 10.7777C10.6843 9.03764 11.5997 7.52918 12.9282 6.64132L15.6972 9.5465L15.699 0.00052459" fill="#4285F4"/>
<path d="M5.08008 11.1738L5.09095 11.6528V20.7101L7.47758 18.2061C9.43083 20.7145 12.4023 22.3168 15.7306 22.3168C19.1931 22.3168 22.2713 20.5822 24.2166 17.8971L20.3047 13.7497C19.9217 14.4921 19.3791 15.1307 18.7201 15.615C18.0371 16.1742 17.0695 16.6314 15.7308 16.6314C15.5691 16.6314 15.4443 16.6117 15.3526 16.5742C13.6941 16.4369 12.2563 15.4765 11.4101 14.0827L14.1791 11.1775C10.6716 11.1906 6.70958 11.2005 5.08058 11.1757" fill="#ABABAB"/>
<path d="M6.87663 26.6444C6.61725 26.6444 6.38462 26.6961 6.17887 26.7992C5.97467 26.8988 5.79546 27.047 5.6555 27.2321C5.51463 27.4196 5.40613 27.6474 5.33012 27.9148C5.25513 28.18 5.21938 28.4768 5.21938 28.8066V29.7535C5.21938 30.0844 5.25625 30.3824 5.33012 30.6476C5.40613 30.9127 5.5135 31.1391 5.65212 31.3269C5.79075 31.5147 5.95837 31.659 6.15538 31.7597C6.35238 31.8604 6.57363 31.911 6.81962 31.911C7.07237 31.911 7.29375 31.8723 7.48387 31.7948C7.67637 31.7161 7.83725 31.606 7.967 31.4604C8.09675 31.3126 8.19625 31.1342 8.267 30.9253C8.33862 30.7165 8.381 30.4794 8.3945 30.2145H7.7725C7.75688 30.4187 7.73 30.5948 7.692 30.7391C7.654 30.8834 7.59825 31.0007 7.52425 31.0932C7.45262 31.1847 7.35875 31.2528 7.2425 31.2974C7.1285 31.3396 6.9875 31.3607 6.82 31.3607C6.64125 31.3607 6.489 31.3197 6.36375 31.2375C6.2385 31.153 6.13675 31.0381 6.0585 30.8925C5.9825 30.7483 5.9265 30.577 5.89075 30.3811C5.85725 30.1863 5.84037 29.9763 5.84037 29.751V28.7972C5.84037 28.5555 5.86037 28.3361 5.90075 28.1388C5.94325 27.9417 6.007 27.774 6.092 27.6355C6.177 27.497 6.2845 27.3902 6.414 27.3152C6.54375 27.2365 6.698 27.199 6.877 27.199C7.027 27.199 7.15538 27.2226 7.26275 27.2695C7.37025 27.3141 7.4595 27.3845 7.53113 27.4793C7.60275 27.5732 7.65613 27.6928 7.6955 27.8382C7.73487 27.9837 7.758 28.1573 7.77262 28.3592H8.39325C8.38075 28.0838 8.34075 27.8372 8.26912 27.6247C8.1975 27.4123 8.09787 27.2317 7.96912 27.0862C7.84037 26.9408 7.68625 26.8305 7.50287 26.7554C7.32162 26.6802 7.11262 26.6426 6.87537 26.6426L6.87663 26.6444ZM22.0266 26.6444C21.7673 26.6444 21.5346 26.6961 21.3289 26.7992C21.1247 26.8988 20.9455 27.047 20.8055 27.2321C20.6646 27.4196 20.5561 27.6474 20.4801 27.9148C20.4051 28.18 20.3694 28.4768 20.3694 28.8066V29.7535C20.3694 30.0844 20.4062 30.3824 20.4801 30.6476C20.5561 30.9127 20.6635 31.1391 20.8021 31.3269C20.9408 31.5147 21.1084 31.659 21.3054 31.7597C21.5024 31.8604 21.7236 31.911 21.9696 31.911C22.2224 31.911 22.4438 31.8723 22.6339 31.7948C22.8264 31.7161 22.9873 31.606 23.117 31.4604C23.2467 31.3126 23.3463 31.1342 23.417 30.9253C23.4886 30.7165 23.531 30.4794 23.5445 30.2145H22.9239C22.9083 30.4187 22.8814 30.5948 22.8434 30.7391C22.8054 30.8834 22.7496 31.0007 22.6756 31.0932C22.604 31.1847 22.5101 31.2528 22.3939 31.2974C22.2799 31.3396 22.1389 31.3607 21.9714 31.3607C21.7926 31.3607 21.6404 31.3197 21.5151 31.2375C21.3899 31.153 21.2881 31.0381 21.2099 30.8925C21.1339 30.7483 21.0779 30.577 21.0421 30.3811C21.0086 30.1863 20.9918 29.9763 20.9918 29.751V28.7972C20.9918 28.5555 21.0118 28.3361 21.0521 28.1388C21.0946 27.9417 21.1584 27.774 21.2434 27.6355C21.3284 27.497 21.4359 27.3902 21.5654 27.3152C21.6951 27.2365 21.8494 27.199 22.0284 27.199C22.1784 27.199 22.3068 27.2226 22.4141 27.2695C22.5216 27.3141 22.6109 27.3845 22.6825 27.4793C22.7541 27.5732 22.8075 27.6928 22.8469 27.8382C22.8862 27.9837 22.9094 28.1573 22.924 28.3592H23.5446C23.5321 28.0838 23.4921 27.8372 23.4205 27.6247C23.3489 27.4123 23.2493 27.2317 23.1205 27.0862C22.9918 26.9408 22.8376 26.8305 22.6542 26.7554C22.473 26.6802 22.264 26.6426 22.0268 26.6426L22.0266 26.6444ZM10.4141 26.7148L8.83937 31.8394H9.47L9.84912 30.502H11.4996L11.8854 31.8394H12.516L10.9392 26.7148H10.4141ZM13.1816 26.7148V31.8394H13.7941V29.8333H14.7366C14.9716 29.8333 15.1795 29.7992 15.3606 29.7312C15.5419 29.6608 15.6939 29.56 15.8169 29.4285C15.9421 29.2971 16.036 29.1353 16.0986 28.9428C16.1636 28.748 16.1959 28.5274 16.1959 28.2811C16.1959 28.0535 16.1634 27.8447 16.0986 27.6546C16.0361 27.4622 15.9432 27.2969 15.8202 27.1584C15.6972 27.0177 15.5452 26.9085 15.3606 26.831C15.1794 26.7523 14.9715 26.7148 14.7366 26.7148H13.1816ZM16.6671 26.7148V27.2709H17.9486V31.8394H18.5611V27.2709H19.8461V26.7148H16.6671ZM24.3729 26.7148V31.8394H24.9854V29.4706H26.95V31.8394H27.5672V26.7148H26.95V28.9181H24.9841V26.7148H24.3729ZM29.8979 26.7148L28.3245 31.8394H28.9551L29.3342 30.502H30.9848L31.3705 31.8394H32L30.4233 26.7148H29.8979ZM13.7954 27.2709H14.7379C14.8879 27.2709 15.0151 27.2991 15.1204 27.3554C15.2233 27.4078 15.3129 27.485 15.382 27.5807C15.4514 27.6746 15.5016 27.7837 15.533 27.908C15.5665 28.03 15.5834 28.1568 15.5834 28.2883C15.5834 28.4326 15.5666 28.5677 15.533 28.6897C15.5017 28.8093 15.4514 28.9126 15.382 29.0044C15.3149 29.0912 15.2276 29.1592 15.1204 29.2086C15.0154 29.2579 14.8879 29.2826 14.7379 29.2826H13.7954V27.2709ZM10.6756 27.6158L11.3431 29.9458H10.01L10.6756 27.6158ZM30.1594 27.6158L30.8269 29.9458H29.4937L30.1594 27.6158ZM1.2625 27.9607C1.10813 27.9607 0.975 28.0018 0.86325 28.084C0.753625 28.1661 0.66325 28.2776 0.58825 28.4184L0.57825 28.0313H0V31.8396H0.59375V29.1152C0.649625 28.9533 0.729 28.8267 0.831875 28.7316C0.936875 28.6377 1.07 28.5909 1.23112 28.5909L1.36863 28.598C1.41257 28.6009 1.45628 28.6067 1.4995 28.6156L1.49612 28.0102C1.48713 28.0055 1.47263 28.0007 1.45238 27.9962C1.43274 27.9886 1.41255 27.9827 1.392 27.9786C1.3695 27.9739 1.34612 27.9703 1.3215 27.9681C1.299 27.9634 1.279 27.961 1.26112 27.961L1.2625 27.9607ZM3.2585 27.9607C3.08773 27.9605 2.91833 27.9927 2.7585 28.0558C2.596 28.1192 2.45438 28.2237 2.32912 28.3706C2.20613 28.5148 2.10663 28.7015 2.02912 28.9337C1.95312 29.1636 1.91513 29.4452 1.91513 29.782V30.2114C1.91513 30.5022 1.94763 30.7546 2.01238 30.9681C2.07713 31.1816 2.16988 31.3589 2.29075 31.4996C2.41375 31.6381 2.5625 31.7413 2.737 31.8094C2.9115 31.8775 3.107 31.9114 3.32413 31.9114C3.48063 31.9114 3.62037 31.895 3.7435 31.8621C3.86875 31.8293 3.9795 31.787 4.07562 31.7354C4.17188 31.6814 4.25437 31.6204 4.32387 31.5523C4.39337 31.4843 4.45263 31.4139 4.50163 31.3425L4.19287 30.9483C4.14362 31.0116 4.09113 31.0702 4.03538 31.1243C3.9795 31.176 3.91787 31.2217 3.85087 31.2616C3.7806 31.2997 3.70636 31.3292 3.62963 31.3495C3.54925 31.3718 3.45838 31.3812 3.35788 31.3812C3.08288 31.3812 2.87038 31.2885 2.72388 31.1032C2.5785 30.9179 2.50588 30.6209 2.50588 30.2114V30.1235H4.53088V29.761C4.53088 29.4701 4.50737 29.2131 4.46037 28.9901C4.41337 28.7672 4.3385 28.5796 4.23562 28.427C4.13553 28.2768 3.9988 28.1577 3.83975 28.0821C3.67875 28.0023 3.48413 27.9624 3.256 27.9624L3.2585 27.9607ZM3.2585 28.4958C3.38825 28.4958 3.49562 28.5205 3.5805 28.5698C3.66458 28.6181 3.73424 28.69 3.78175 28.7774C3.83325 28.8666 3.87012 28.9733 3.8925 29.0977C3.91712 29.2196 3.93275 29.3547 3.9395 29.5024V29.5868H2.50925C2.51825 29.3733 2.54275 29.196 2.58425 29.0553C2.62575 28.9146 2.67712 28.8031 2.74175 28.7209C2.80888 28.6364 2.886 28.5766 2.97325 28.5449C3.0605 28.5131 3.1555 28.4956 3.25825 28.4956L3.2585 28.4958Z" fill="#A6A6A6"/>
</g>
<defs>
<clipPath id="clip0_2423_34882">
<rect width="32" height="32" fill="white"/>
</clipPath>
</defs>
</svg>
