<svg width="288" height="160" viewBox="0 0 288 160" fill="none" xmlns="http://www.w3.org/2000/svg">
<rect width="288" height="160" fill="#FCF2F4"/>
<g clip-path="url(#clip0_2938_12469)">
<path d="M119.008 123.18L114.668 106.03L115.128 49.79L119.238 36.3L121.748 29.67L88.3683 32.18L47.9083 29L49.7383 37L54.0783 52.54L53.6183 105.35C53.8483 106.04 50.1883 122.95 50.1883 122.95H50.7483L46.9883 130.88L77.6183 129.28L119.908 130.19L118.708 123.16H118.998L119.008 123.18Z" fill="#FFB6C8"/>
<path d="M234.54 103.38C232.9 102.22 230.04 101.48 227.99 101.19C227.38 101.1 225.78 101.28 225.57 101.11C225.5 101.05 225.19 100.04 224.8 99.57C223.28 97.69 220.46 96.4 217.84 96.7C217.26 93.83 211.75 92.9 210.49 96.11C209.38 96.03 209.34 94.97 208.46 94.5C206.16 93.26 203.23 94.54 202.47 96.71C201.3 93.69 196.38 92.92 195.12 96.12C194.16 96.08 194.14 95.18 193.23 94.68C190.71 93.3 188.1 94.41 187.1 96.71C185.97 93.63 180.98 93 179.75 96.12C178.72 96.08 178.68 94.97 177.72 94.51C175.41 93.41 172.49 94.51 171.74 96.71C170.85 93.64 165.6 93.04 164.39 96.12C163.5 96.12 163.47 95.31 162.68 94.82C160.14 93.21 157.44 94.33 156.37 96.72C153.04 96.53 149.87 98.43 148.69 101.17C145.89 101.1 142.68 101.65 140.36 103.12C139.15 103.89 135.74 107.63 135.08 108.82C133.78 111.18 132.93 114.68 137.34 113.35C137.29 113.86 136.91 114.36 137 114.96C137.2 116.36 139.39 116.31 140.35 115.42C140.35 115.46 140.64 115.66 140.65 115.9C140.87 119.22 141.36 120.75 145.02 118.1C145.55 119.82 147.11 120.26 148.37 118.85C149.06 118.08 150.3 114.17 150.97 112.85C151.25 112.3 152.76 109.47 153.03 109.32C153.28 109.18 157.57 110.39 158.71 109.19C158.79 109.25 160.46 109.99 160.61 110.02C163.01 110.52 163.96 109.42 165.38 108C166.81 110.99 171.54 110.71 172.73 107.7C173.68 107.65 173.54 108.53 174.28 109.14C176.49 110.96 179.24 109.99 180.74 107.99C182.25 111.16 187.18 110.54 188.42 107.4C190.16 110.69 193.81 111.13 196.1 107.99C197.45 110.81 202.2 110.82 203.45 107.69C204.47 107.6 204.23 108.63 204.95 109.18C207.23 110.96 210 110.07 211.47 107.99C212.62 110.4 214.99 109.93 217.15 109.77C217.87 109.72 221.09 109.61 221.49 109.47C222.21 110.91 223.19 112.27 223.89 113.72C224.77 115.55 225.51 120.04 228.33 119.57C229.47 119.38 228.97 118.85 229.17 118.37C230.17 117.62 229.74 118.94 230.74 119.2C234.84 120.28 232.72 117.15 234.18 115.4C234.74 116.15 235.89 116.15 236.7 115.71C237.9 115.07 237.32 114.27 237.18 113.32C244.75 114.56 236.65 104.87 234.52 103.36L234.54 103.38Z" fill="#FFB6C8"/>
<path d="M238.311 64.7303C238.311 64.7303 237.671 64.6403 236.451 64.4803L230.171 44.8403C229.261 32.1703 148.741 31.8203 148.911 41.9803L140.711 63.7103C139.831 63.7903 138.951 63.8803 138.061 63.9703L134.371 69.8803C134.371 69.8803 142.461 83.8303 188.931 83.8303C235.401 83.8303 240.091 71.0603 240.091 71.0603L238.321 64.7303H238.311Z" fill="#FFB6C8"/>
</g>
<defs>
<clipPath id="clip0_2938_12469">
<rect width="193.37" height="101.88" fill="white" transform="translate(47 29)"/>
</clipPath>
</defs>
</svg>
