<svg width="288" height="160" viewBox="0 0 288 160" fill="none" xmlns="http://www.w3.org/2000/svg">
<rect width="288" height="160" fill="#FCF2F4"/>
<g clip-path="url(#clip0_2938_12484)">
<path d="M262.119 104.14H214.319C210.674 104.14 207.719 107.095 207.719 110.74V137.54C207.719 141.185 210.674 144.14 214.319 144.14H262.119C265.764 144.14 268.719 141.185 268.719 137.54V110.74C268.719 107.095 265.764 104.14 262.119 104.14Z" fill="#FFB6C8"/>
<path d="M216.219 114.649H224.579V118.449H221.159V122.049H224.209V125.659H221.159V133.629H216.229V114.659L216.219 114.649Z" fill="#FAF2F4"/>
<path d="M226.77 114.649H230.26C232.59 114.649 234.16 114.739 234.99 114.919C235.82 115.099 236.49 115.559 237.01 116.299C237.53 117.039 237.79 118.219 237.79 119.829C237.79 121.309 237.61 122.299 237.24 122.809C236.87 123.319 236.15 123.619 235.07 123.719C236.05 123.959 236.7 124.289 237.04 124.689C237.38 125.089 237.58 125.469 237.67 125.809C237.76 126.149 237.79 127.089 237.79 128.619V133.619H233.21V127.319C233.21 126.299 233.13 125.679 232.97 125.429C232.81 125.179 232.39 125.069 231.71 125.069V133.619H226.78V114.649H226.77ZM231.7 117.899V122.119C232.25 122.119 232.64 122.039 232.87 121.889C233.1 121.739 233.2 121.239 233.2 120.409V119.369C233.2 118.769 233.09 118.369 232.88 118.189C232.67 118.009 232.27 117.909 231.7 117.909V117.899Z" fill="#FAF2F4"/>
<path d="M240.688 114.649H248.917V118.449H245.628V122.049H248.708V125.659H245.628V129.829H249.247V133.629H240.697V114.659L240.688 114.649Z" fill="#FAF2F4"/>
<path d="M251.668 114.649H259.898V118.449H256.608V122.049H259.688V125.659H256.608V129.829H260.228V133.629H251.678V114.659L251.668 114.649Z" fill="#FAF2F4"/>
<path d="M270.452 16.99V13L268.142 15.14L265.832 13L263.532 15.14L261.222 13L258.912 15.14L256.612 13L254.302 15.14L252.002 13L249.692 15.14L247.382 13L245.082 15.14L242.772 13L240.472 15.14L238.162 13L235.852 15.14L233.552 13L231.242 15.14L228.942 13L226.632 15.14L224.332 13L222.022 15.14L219.722 13L217.422 15.14L215.112 13L212.802 15.14L210.502 13L208.202 15.14L205.892 13V16.99H205.852L209.132 23.61V80.57L205.852 87.19H205.892V91.18L208.202 89.04L210.512 91.18L212.812 89.04L215.122 91.18L217.432 89.04L219.732 91.18L222.042 89.04L224.352 91.18L226.652 89.04L228.962 91.18L231.262 89.04L233.572 91.18L235.882 89.04L238.182 91.18L240.492 89.04L242.792 91.18L245.102 89.04L247.402 91.18L249.712 89.04L252.012 91.18L254.322 89.04L256.622 91.18L258.932 89.04L261.232 91.18L263.542 89.04L265.842 91.18L268.142 89.04L270.452 91.18V87.19L267.172 80.57V23.61L270.452 16.99Z" fill="#FFB6C8"/>
<path d="M188.649 15.45V13H132.309V15.45L135.159 21.1V69.67L132.309 75.31V77.77H188.649V75.31L185.789 69.67V21.1L188.649 15.45Z" fill="#FFB6C8"/>
<path d="M135.272 133.92C135.272 131.08 132.972 128.78 130.132 128.78C127.292 128.78 124.992 131.08 124.992 133.92C124.992 135.74 125.942 137.34 127.372 138.25C127.372 138.25 127.372 138.26 127.372 138.27C127.372 138.28 127.372 138.28 127.372 138.29C125.942 139.2 124.992 140.8 124.992 142.62C124.992 145.46 127.292 147.76 130.132 147.76C132.972 147.76 135.272 145.46 135.272 142.62C135.272 142.56 135.272 142.51 135.272 142.45C137.392 142.81 139.822 143.02 142.402 143.02C144.982 143.02 147.412 142.81 149.532 142.45C149.532 142.51 149.532 142.56 149.532 142.62C149.532 145.46 151.832 147.76 154.672 147.76C157.512 147.76 159.812 145.46 159.812 142.62C159.812 140.8 158.862 139.2 157.432 138.29C157.432 138.29 157.432 138.28 157.432 138.27C157.432 138.26 157.432 138.26 157.432 138.25C158.862 137.34 159.812 135.74 159.812 133.92C159.812 131.08 157.512 128.78 154.672 128.78C151.832 128.78 149.532 131.08 149.532 133.92C149.532 133.98 149.532 134.03 149.532 134.09C147.412 133.73 144.982 133.52 142.402 133.52C139.822 133.52 137.392 133.73 135.272 134.09C135.272 134.03 135.272 133.98 135.272 133.92Z" fill="#FFB6C8"/>
<path d="M143.581 122.12H192.651V100.42H92.1406V122.12H141.211V133.53H143.581V122.12ZM183.811 108.1C185.561 108.1 186.981 109.52 186.981 111.27C186.981 113.02 185.561 114.44 183.811 114.44C182.061 114.44 180.641 113.02 180.641 111.27C180.641 109.52 182.061 108.1 183.811 108.1ZM171.151 108.1C172.901 108.1 174.321 109.52 174.321 111.27C174.321 113.02 172.901 114.44 171.151 114.44C169.401 114.44 167.981 113.02 167.981 111.27C167.981 109.52 169.401 108.1 171.151 108.1ZM158.491 108.1C160.241 108.1 161.661 109.52 161.661 111.27C161.661 113.02 160.241 114.44 158.491 114.44C156.741 114.44 155.321 113.02 155.321 111.27C155.321 109.52 156.741 108.1 158.491 108.1ZM102.291 114.43C100.541 114.43 99.1206 113.01 99.1206 111.26C99.1206 109.51 100.541 108.09 102.291 108.09C104.041 108.09 105.461 109.51 105.461 111.26C105.461 113.01 104.041 114.43 102.291 114.43ZM114.961 114.43C113.211 114.43 111.791 113.01 111.791 111.26C111.791 109.51 113.211 108.09 114.961 108.09C116.711 108.09 118.131 109.51 118.131 111.26C118.131 113.01 116.711 114.43 114.961 114.43ZM127.621 114.43C125.871 114.43 124.451 113.01 124.451 111.26C124.451 109.51 125.871 108.09 127.621 108.09C129.371 108.09 130.791 109.51 130.791 111.26C130.791 113.01 129.371 114.43 127.621 114.43Z" fill="#FFB6C8"/>
<path d="M74.3583 102.46C73.3783 100.84 69.1483 97.0398 68.9583 95.5698C68.9083 95.1698 69.9683 94.4998 70.1583 93.5698C70.2983 92.8698 70.0883 90.9098 69.7083 90.3998C72.2183 86.1298 75.6183 79.9998 75.3583 74.8898C74.8383 64.5698 60.8683 73.3598 55.6883 74.6598C45.0983 77.3098 35.6783 73.1898 40.9483 61.0798C43.9883 54.0998 50.4883 50.2198 52.2583 42.3498C54.4983 32.3898 48.6083 22.4298 37.5683 26.6698C36.0583 27.2498 34.7583 28.4798 33.4583 29.0398C26.2283 32.1598 23.0983 28.7998 21.6683 22.4298C21.5983 21.9898 21.5083 21.5398 21.3983 21.0898C20.7483 17.4698 22.3683 15.3898 16.9883 16.8498L18.0283 146.72C19.0283 146.74 21.3383 147.17 21.9483 146.41L21.2083 29.8998C22.0483 28.8498 21.6983 29.5598 22.2183 29.9898C23.2183 30.8298 24.0383 31.7698 25.2883 32.2698C32.5183 35.1998 37.4383 27.3298 43.6683 28.4298C49.4883 29.4498 50.8783 35.9798 49.8983 41.0598C48.1083 50.2998 37.1683 55.9398 36.9083 65.9498C36.5683 79.1898 49.8283 79.6298 59.3783 76.3398C61.9083 75.4698 71.6183 69.9598 72.8383 74.1098C73.7383 77.1998 69.0883 86.2598 67.3283 89.1198C64.8083 88.4798 64.0383 90.5198 63.0583 92.1798C62.7983 92.6098 62.8083 93.5198 62.6983 93.6698C62.1583 94.3998 58.1683 96.8098 56.7783 98.2798C52.8083 102.44 50.5283 109.43 52.7683 115C52.9383 115.43 53.2383 116.05 53.8783 115.77C54.3483 115.56 57.5183 112.68 57.8283 112.22L60.0783 117.13C60.6183 117.44 62.8983 115.08 63.0083 114.26C63.1983 112.92 62.0783 112.32 61.8983 111.23C61.7683 110.44 63.0183 107.88 64.2383 108.33C64.6683 109.66 67.9983 114.08 69.3283 113.97C70.5183 113.88 70.4483 110.15 70.4883 109.27C72.1283 109.44 73.5883 111.18 75.1883 111.64C75.8783 111.84 76.4683 112 77.1683 111.67C76.5383 108.5 76.0583 105.28 74.3483 102.46H74.3583Z" fill="#FFB6C8"/>
<path d="M113.701 43.3404C113.401 42.3304 109.501 43.1504 109.881 41.5804C110.241 40.1304 113.411 40.7304 113.111 38.7904C112.831 38.5204 107.141 39.6104 109.581 37.1604C110.281 36.4604 111.891 36.2504 111.941 34.9804C111.041 34.4604 108.301 35.8404 107.871 35.5404C107.691 35.4104 107.501 34.4504 107.671 34.1104C108.031 33.4304 110.281 32.7604 109.881 31.1804C108.701 30.8004 106.641 32.8504 105.761 32.2204C104.421 31.2604 108.081 28.8004 107.241 27.9504C106.371 27.0804 104.261 30.3804 103.121 29.5804C101.931 28.7404 105.001 25.6904 103.571 25.3104C102.461 25.0204 101.601 27.2004 101.081 27.5004C98.9915 28.7404 100.311 25.2804 100.231 24.2804C100.011 21.4004 97.9014 25.8404 97.5614 26.0404C95.7314 27.1204 96.5415 24.2904 96.4015 23.1004C96.0115 19.6704 94.2114 24.9904 94.0614 25.1804C92.4214 27.2504 92.4015 22.5204 92.0115 21.9604C90.8615 20.2904 90.5714 25.0404 90.3914 25.3104C89.1214 27.1404 88.5214 23.3104 88.0214 22.6804C86.0914 20.2804 86.9115 25.9904 86.7215 26.1804C84.1515 26.6904 85.2215 23.4904 82.9115 23.5404L83.2014 27.6404C81.8914 28.2804 80.3015 25.1304 79.5415 25.3004C78.1715 25.6004 80.3815 28.3204 80.2015 29.2204C79.9815 30.3204 78.8515 29.8404 78.2215 29.4004C77.8415 29.1304 76.9614 27.8104 76.3214 27.9304C74.6414 28.2404 76.9614 30.1604 77.0514 30.2804C77.3314 30.6704 77.9114 31.8904 77.3514 32.2004L75.2915 32.0404C75.0715 31.9404 74.8815 31.8204 74.7015 31.7504C70.8815 30.1104 75.3514 34.1704 75.4414 34.4004C76.5114 36.9504 71.4515 34.1304 71.1815 35.4204C70.9715 36.4004 74.1014 37.0904 74.1214 38.3404C74.1414 39.9804 71.1514 38.2004 70.2814 39.2104C69.4214 40.2104 71.3614 40.6604 72.0514 40.5404C72.6214 41.1104 74.0015 41.3004 73.3815 42.3104C72.8815 43.1304 69.4314 42.7404 69.7114 43.9104C69.9614 44.9704 73.0115 44.2304 73.4715 45.4204C73.5515 45.6204 73.5814 46.2804 73.5014 46.3804C73.3014 46.6204 70.4215 47.1704 70.3115 47.3004C70.2715 47.3404 70.2515 48.4104 70.2915 48.4504C70.5015 48.6804 75.9214 47.6704 73.6714 50.2204C72.8714 51.1304 71.0515 50.8504 71.4715 52.5504C73.0715 52.8304 74.7614 51.0004 75.8514 52.7304L73.2314 55.6204C74.4714 57.0904 76.3615 54.4604 77.6315 55.3204C78.6815 56.0304 75.7914 58.0604 76.1614 59.2804C77.3114 59.6104 79.0914 57.2104 79.9614 57.6504C81.5914 58.4704 78.7515 61.2904 79.3815 61.9204C80.3715 62.9004 81.8814 59.4604 82.7114 59.5904C84.5514 59.8904 82.1714 63.6304 83.3414 63.9704C85.0814 63.9704 85.1014 60.1904 87.0014 61.3304C87.0014 61.3904 87.0014 61.4404 87.0214 61.5004C87.0714 62.4504 86.7014 65.2704 87.4514 65.4304C88.6814 65.6904 88.4615 61.3904 90.3715 61.9004C90.8615 62.0304 90.6714 65.9704 91.8414 65.7204C93.2314 65.4204 91.8615 60.7604 94.0415 62.0604C94.8414 62.5404 94.8915 65.5504 96.2315 65.1404C97.3515 64.8004 96.0514 62.1704 96.6714 61.4804C97.6714 60.3504 98.7414 62.8104 99.2414 63.5904C99.4514 63.9204 99.3615 64.2404 100.041 63.9704C101.191 63.5004 99.2514 60.7404 100.321 59.8504C101.531 58.8404 102.931 63.1704 104.291 61.4704C104.351 60.9804 103.881 60.7504 103.701 60.4504C103.571 60.2404 103.501 60.0104 103.411 59.8604C102.141 54.6204 106.451 60.0804 107.221 59.2704C107.941 58.0104 104.721 55.9004 106.051 55.0104C106.861 54.4604 109.831 57.0904 110.161 55.6104C110.321 54.8904 107.521 53.4104 107.821 52.4004C108.211 51.1104 111.381 52.9304 111.791 52.2604C111.951 52.0004 112.041 51.2804 111.891 51.1004C111.691 50.8704 109.011 50.0704 109.041 49.2204C109.101 47.6204 111.891 48.9304 112.811 48.2904C113.951 47.5004 112.581 47.3004 112.511 47.2604C112.401 47.1804 112.331 46.9004 112.011 46.7404C111.391 46.4304 109.511 46.2704 109.881 45.0804C110.271 43.8404 114.191 45.0104 113.681 43.3004L113.701 43.3404Z" fill="#FFB6C8"/>
</g>
<defs>
<clipPath id="clip0_2938_12484">
<rect width="253.45" height="134.77" fill="white" transform="translate(17 13)"/>
</clipPath>
</defs>
</svg>
