<svg width="288" height="160" viewBox="0 0 288 160" fill="none" xmlns="http://www.w3.org/2000/svg">
<rect width="288" height="160" fill="#FCF2F4"/>
<g clip-path="url(#clip0_2938_12489)">
<path d="M213.87 80.8997C210.1 79.5597 206.41 79.5297 202.47 79.4897C202.07 79.4897 201.43 79.6397 201.18 79.2497C205.57 75.8197 204.09 70.8297 201.04 67.0497C200.57 66.4597 200.12 65.6797 199.77 66.6797C198.49 70.3897 197.89 71.1297 196 74.3097C195.56 73.0597 195.86 71.8097 195.5 70.4597C194.53 66.8197 190.76 65.1097 187.3 64.6797C189.34 69.2297 191.43 74.1897 188.76 78.9397C187.67 80.8897 186.05 81.9197 183.78 81.8297C183.72 81.5097 183.86 80.2597 183.78 80.1797C183.65 80.0497 180.58 80.2797 180.02 80.1797C179.74 78.5797 176.93 76.4597 175.55 75.7097C171.87 73.7297 167.74 73.7997 164.03 75.7097C156.4 79.6497 156.64 89.3597 164.27 93.0997C167.86 94.8597 171.48 94.7497 175.08 93.0997C176.88 92.2697 177.3 92.0597 178.61 90.5097C178.89 90.1797 180 88.6197 180.02 88.3897C180.58 88.2897 183.65 88.5297 183.78 88.3897C183.92 88.2497 183.45 87.0197 184.12 87.2197C186.58 87.9497 189.16 90.8497 191.37 92.1997C194.64 94.1897 198.79 95.0797 202.58 95.2097C202.58 94.2297 201.86 93.6397 201.46 92.9197C201.33 92.6897 201.46 92.2897 201.41 92.1597C204.6 92.6397 207.65 92.3297 210.81 91.9197C210.53 89.2897 207.61 86.9897 205.4 85.8097C205.29 85.2297 205.66 85.2897 206.05 85.1797C208.1 84.5797 209.74 84.0897 211.58 82.9397C211.92 82.7297 214.22 81.2597 213.86 80.8697L213.87 80.8997Z" fill="#FFB6C8"/>
<path d="M77.2887 96.4697H50.5687C46.9237 96.4697 43.9688 99.4246 43.9688 103.07V116.05C43.9688 119.695 46.9237 122.65 50.5687 122.65H77.2887C80.9338 122.65 83.8887 119.695 83.8887 116.05V103.07C83.8887 99.4246 80.9338 96.4697 77.2887 96.4697Z" fill="#FFB6C8"/>
<path d="M49.5273 103.35H54.9973V105.83H52.7573V108.18H54.7473V110.54H52.7573V115.75H49.5273V103.33V103.35Z" fill="#FAF2F4"/>
<path d="M56.4258 103.35H58.7158C60.2358 103.35 61.2658 103.41 61.8058 103.53C62.3458 103.65 62.7858 103.95 63.1258 104.43C63.4658 104.91 63.6358 105.68 63.6358 106.74C63.6358 107.71 63.5158 108.36 63.2758 108.69C63.0358 109.02 62.5658 109.22 61.8558 109.29C62.4958 109.45 62.9258 109.66 63.1458 109.93C63.3658 110.2 63.5058 110.44 63.5558 110.66C63.6058 110.88 63.6358 111.49 63.6358 112.5V115.77H60.6358V111.64C60.6358 110.98 60.5858 110.56 60.4758 110.41C60.3658 110.26 60.0958 110.17 59.6558 110.17V115.77H56.4258V103.35ZM59.6558 105.47V108.23C60.0158 108.23 60.2758 108.18 60.4158 108.08C60.5558 107.98 60.6358 107.66 60.6358 107.11V106.43C60.6358 106.04 60.5658 105.78 60.4258 105.66C60.2858 105.54 60.0258 105.48 59.6558 105.48V105.47Z" fill="#FAF2F4"/>
<path d="M65.5391 103.35H70.9191V105.83H68.7691V108.18H70.7891V110.54H68.7691V113.27H71.1391V115.75H65.5391V103.33V103.35Z" fill="#FAF2F4"/>
<path d="M72.7188 103.35H78.0987V105.83H75.9487V108.18H77.9688V110.54H75.9487V113.27H78.3187V115.75H72.7188V103.33V103.35Z" fill="#FAF2F4"/>
<path d="M85.4389 131.73L86.7189 129.67H83.2689V129.65L79.4389 131.51H48.4089L44.5789 129.65V129.67H41.1289L42.4089 130.73L41.1289 132.79L42.4089 133.85L41.1289 134.91L42.4089 135.97L41.1289 137.04L42.4089 138.1L41.1289 139.16L42.4089 140.22L41.1289 141.28L42.4089 142.34L41.1289 143.4L42.4089 144.46L41.1289 145.52L42.4089 146.59L41.1289 148.65H44.5789L48.4089 146.78H79.4389L83.2689 148.65H86.7189L85.4389 146.58L86.7189 145.52L85.4389 144.46L86.7189 143.4L85.4389 142.34L86.7189 141.28L85.4389 140.22L86.7189 139.15L85.4389 138.09L86.7189 137.03L85.4389 135.97L86.7189 134.91L85.4389 133.85L86.7189 132.79L85.4389 131.73Z" fill="#FFB6C8"/>
<path d="M77.5806 81.2296L73.7706 68.7296L73.3506 30.6196L76.8306 16.8696C76.8806 16.8696 76.9306 16.8596 76.9506 16.8496L77.1906 15.4696L77.3806 14.7296H77.3206L78.2306 9.42957L39.0406 10.2796L10.6406 8.80957L13.6506 15.1696C14.0506 17.0296 16.9806 30.6696 16.7806 31.2596L17.2006 66.1896L13.1806 80.5896L11.4906 87.9996L48.9806 85.0296L79.9106 87.3596L77.5806 81.2196V81.2296Z" fill="#FFB6C8"/>
<path d="M215.578 88.0998H275.908L266.458 147.04C266.458 147.04 241.748 154.53 224.298 146.06C224.658 145.73 215.578 88.0898 215.578 88.0898V88.0998Z" fill="#FFB6C8"/>
<path d="M139.659 110.08C139.659 112.91 141.959 115.21 144.789 115.21C147.619 115.21 149.919 112.91 149.919 110.08C149.919 107.25 147.829 105.18 145.189 104.97V85.2898L145.869 85.7598C146.399 86.1298 147.119 85.9998 147.489 85.4698L147.969 84.7898C148.339 84.2598 148.209 83.5398 147.679 83.1698L134.159 73.7298V69.7898C134.159 68.2998 132.949 67.0898 131.459 67.0898H112.409C110.919 67.0898 109.709 68.2998 109.709 69.7898V73.7298L96.1892 83.1698C95.6592 83.5398 95.5392 84.2598 95.8992 84.7898L96.3792 85.4698C96.7492 85.9998 97.4692 86.1198 97.9992 85.7598L98.6792 85.2898V104.97C96.0292 105.17 93.9492 107.38 93.9492 110.08C93.9492 112.91 96.2492 115.21 99.0792 115.21C101.909 115.21 104.209 112.91 104.209 110.08C104.209 107.25 102.119 105.18 99.4792 104.97V84.7398L109.729 77.5798V80.1698C109.729 81.6598 110.939 82.8698 112.429 82.8698H112.489V129.72H112.429C110.939 129.72 109.729 130.93 109.729 132.42V142.8C109.729 143.2 109.819 143.58 109.979 143.92H99.8692C98.5592 143.92 97.4992 144.98 97.4992 146.29C97.4992 147.6 98.5592 148.66 99.8692 148.66H144.039C145.349 148.66 146.409 147.6 146.409 146.29C146.409 144.98 145.349 143.92 144.039 143.92H133.929C134.089 143.58 134.179 143.2 134.179 142.8V132.42C134.179 130.93 132.969 129.72 131.479 129.72H131.419V82.8698H131.479C132.969 82.8698 134.179 81.6598 134.179 80.1698V77.5798L144.429 84.7398V104.97C141.779 105.17 139.699 107.38 139.699 110.08H139.659Z" fill="#FFB6C8"/>
<path d="M23.3088 95.0199C23.2388 95.0199 23.1588 95.0099 23.0888 95.0199C20.6288 90.2799 11.8188 91.6299 10.1588 96.3399C9.65877 97.7499 9.70877 98.6899 9.96877 100.11C9.99877 100.29 10.0288 100.47 10.0788 100.65C7.14877 102.96 7.60877 106.51 9.64877 109.27C11.1588 111.32 13.3788 112.52 15.9388 111.93C16.0288 111.91 16.1888 111.96 16.2688 111.93C16.4488 112.04 16.4688 112.22 16.4888 112.42C17.0188 118.04 16.7888 124.03 17.5688 129.61C17.5988 129.81 17.5488 130.05 17.5688 130.26C14.8488 130.1 11.8988 131.05 10.0888 133.14C7.43877 136.18 7.77877 141.62 11.2888 143.86C11.8888 144.24 12.5988 144.36 13.0188 144.9C12.9988 144.98 13.0388 145.12 13.0188 145.23C12.6188 147.85 14.7888 151.28 17.5488 151.71C18.1788 151.81 18.9688 151.63 19.5288 151.74C19.5488 151.74 19.9488 151.94 19.9588 151.96C19.9788 151.97 19.9688 152.14 20.0688 152.22C22.1988 153.88 24.4488 153.9 26.7388 152.5C26.9388 152.38 27.9288 151.79 27.9788 151.74C28.0888 151.79 28.3288 151.8 28.4088 151.85C28.4088 151.85 28.3588 152.04 28.4788 152.07C29.7488 152.4 32.2688 151.44 33.1888 150.5C34.1388 149.53 34.8788 147.39 34.7088 146.05C34.6788 145.83 34.5488 145.87 34.4888 145.78C34.4888 145.71 34.4888 145.63 34.4888 145.56L34.5988 145.34C34.6388 145.27 34.6688 145.17 34.7088 145.12C36.5188 143.01 36.7888 140.96 35.9288 138.2C34.9288 134.99 31.8488 131.54 28.3188 131.33C28.0988 130.65 28.2488 129.92 28.2088 129.22C27.8888 123.66 27.4888 118.1 27.2288 112.53C27.2788 112.24 28.0088 111.98 28.3088 111.76C29.8088 110.61 30.6288 108.27 29.7788 106.51C29.7488 106.45 29.6888 106.41 29.6188 106.4C29.5488 106.31 29.7788 105.91 29.8388 105.86C29.8588 105.84 30.0288 105.84 30.1088 105.75C33.2288 102.54 31.2588 96.5799 27.3088 94.9899C25.8488 94.3999 25.2588 94.74 23.8688 95.01C23.7688 95.03 23.6388 94.99 23.5388 95.01C23.4688 95.02 23.3888 95.01 23.3188 95.01L23.3088 95.0199Z" fill="#FFB6C8"/>
<path d="M277.79 44.8798C278.98 42.6698 280.1 38.4098 277.7 31.3998C277.04 29.2498 276.14 27.1898 275.01 25.2698C274.98 25.2198 274.96 25.1698 274.94 25.1298C274.94 25.1298 271.1 15.6198 256.86 11.4798V10.5298C256.86 8.57977 255.28 7.00977 253.34 7.00977C251.62 7.00977 250.2 8.23977 249.89 9.85977C244.89 8.97977 241.24 8.93977 241.24 8.93977C234.84 8.93977 229.13 11.8698 225.36 16.4598L225.41 16.3898C207.07 23.0398 204.9 36.4598 206.23 46.3798C207.85 58.4998 218.66 67.2798 230.85 66.3798C234.46 66.1098 237.01 65.4598 237.01 65.4598C239.9 64.4998 242.44 63.9298 244.68 63.6298C247.71 63.2598 250.14 63.3398 252.03 63.6598C252.08 63.6598 252.13 63.6798 252.18 63.6898C252.44 63.7398 252.7 63.7898 252.94 63.8398C253.05 63.8698 253.16 63.8898 253.27 63.9198C253.47 63.9698 253.66 64.0198 253.85 64.0698C253.9 64.0898 253.95 64.0998 254.01 64.1198C255.59 64.6098 256.66 65.2398 257.33 65.7698C258.02 66.3098 258.56 67.0398 258.82 67.8798C259.79 70.9498 256.95 73.0398 255.47 73.8898C255.23 73.5298 254.76 73.3698 254.33 73.5398L250.68 74.9798C250.2 75.1698 249.97 75.6898 250.17 76.1398L250.54 76.9898H250.5C250.2 77.0998 250 77.3398 249.92 77.6298L247.94 78.1298C247.55 78.2298 247.27 78.5798 247.28 78.9798C247.28 79.8898 247.1 81.4798 245.9 82.2098C245.27 82.5898 244.42 82.5498 243.94 81.9798C243.53 81.4998 243.32 80.6098 244.12 79.0098C244.22 78.7998 244.13 78.5498 243.92 78.4598C243.72 78.3698 243.49 78.4598 243.39 78.6498C242.99 79.4698 242.17 81.5898 243.6 82.8898C244.42 83.6298 245.65 83.7098 246.58 83.1298C247.43 82.5998 248.31 81.5498 248.2 79.4398C248.19 79.1998 248.35 78.9898 248.58 78.9298L250.18 78.4898C250.4 78.6798 250.7 78.7698 251.01 78.6798L251.25 78.6098L251.66 79.5498C251.86 79.9998 252.41 80.2198 252.89 80.0298L256.54 78.5898C257.02 78.3998 257.25 77.8798 257.05 77.4298L257.03 77.3898C256.96 77.4398 256.88 77.4898 256.79 77.5298L253.41 78.8598C252.93 79.0498 252.38 78.8298 252.18 78.3798L252.09 78.1798C252.27 77.9598 252.35 77.6698 252.26 77.3798C252.15 77.0198 251.83 76.7898 251.47 76.7698L251.39 76.5998C251.19 76.1498 251.42 75.6298 251.9 75.4398L254.67 74.3498C253.98 74.8398 253.69 75.7598 254.02 76.5698C254.39 77.4898 255.41 77.9698 256.35 77.6498C256.73 77.5198 257.1 77.3798 257.45 77.2398C264.56 74.3098 265.15 64.5598 258.4 60.8698C249.7 56.1098 236.19 61.0698 236.19 61.0698C232.61 62.3798 229.4 62.6698 226.61 62.3798C221.54 61.8398 217.07 59.1398 214.09 55.1798C212.4 52.7498 210.57 48.8198 209.86 42.7598C209.81 42.0498 209.78 41.3398 209.79 40.6598C209.79 40.5698 209.79 40.4798 209.8 40.3898C209.8 40.2798 209.81 40.1698 209.82 40.0698C210.06 36.0398 211.67 28.0198 219.97 21.0898C222.26 19.2098 224.03 18.2698 224.06 18.2498C222.79 20.1898 221.83 22.3498 221.27 24.6698C221.32 24.0598 221.37 23.6398 221.39 23.4698C221.28 24.1098 221.19 24.7298 221.11 25.3398C220.77 26.9698 220.63 28.6698 220.7 30.4098C220.75 31.4898 220.9 32.5498 221.11 33.5798C222.47 42.4798 228.4 46.5798 233.34 48.4498C235.25 49.2498 237.29 49.7798 239.44 49.9698C239.58 49.9798 239.71 49.9698 239.85 49.9898C240.24 50.0298 240.46 50.0298 240.46 50.0298C240.56 50.0298 240.65 50.0298 240.75 50.0298C243.47 50.0898 246.07 49.6198 248.46 48.7198C250.81 47.8798 252.06 46.9398 252.06 46.9398C252.07 46.9398 252.08 46.9298 252.09 46.9198C252.94 46.4398 253.98 46.4198 254.86 46.8498C255.25 47.0398 255.67 47.2198 256.12 47.3798C258.3 48.2598 260.63 48.7398 262.85 48.9698C263.36 49.0198 263.87 49.0698 264.37 49.0998C267.59 49.3298 269.97 49.1698 271.7 48.8698C272.56 48.7598 273.06 48.6698 273.06 48.6698C273.87 48.4498 274.56 48.1398 275.18 47.7598C275.67 47.4898 275.88 47.2898 275.88 47.2898C275.88 47.2898 275.86 47.2898 275.85 47.2898C276.68 46.6398 277.32 45.8298 277.78 44.9098L277.79 44.8798ZM258.3 22.1798C258.3 22.1798 258.3 22.2198 258.3 22.2498C258.3 22.2298 258.3 22.2098 258.3 22.1798ZM258.08 41.0898C257.44 40.6498 257.29 39.7698 257.74 39.1298C259.09 37.1998 261.24 32.4398 258.47 23.8098C258.47 23.8098 258.27 23.2498 258.28 22.5198C258.58 20.8798 259.49 20.0898 260.37 19.7198C260.76 19.5798 261.22 19.4598 261.77 19.3998C261.77 19.3998 262.66 19.3998 263.78 19.6798C264.01 19.7398 264.24 19.7998 264.44 19.8698C264.45 19.8698 264.46 19.8698 264.47 19.8698C267.79 21.0798 268.15 23.9098 268.14 25.1398C268.13 25.3398 268.14 25.5198 268.11 25.7298C268.11 25.7298 268.09 26.2898 268.13 27.1598V27.1998C268.15 27.6998 268.19 28.3098 268.26 28.9698V29.0298C268.31 29.4698 268.37 29.9298 268.45 30.3998L268.47 30.5298C268.55 31.0298 268.66 31.5298 268.78 32.0398V32.0598C269.04 33.0698 269.39 34.0698 269.86 34.9498H269.85L269.93 35.0798C270.1 35.3798 270.27 35.6598 270.47 35.9198L270.54 36.0298C270.75 36.2998 270.97 36.5498 271.22 36.7798C271.74 37.2498 272.17 37.7998 272.53 38.3998C272.85 39.0498 273.09 39.8998 273.23 40.5298C273.47 41.5698 273.08 42.6798 272.19 43.2798C271.49 43.7498 270.68 43.9398 270.29 44.0098C270.24 44.0098 270.19 44.0298 270.14 44.0398C270.14 44.0398 270.14 44.0398 270.13 44.0398C267.63 44.3898 262.88 44.4298 258.04 41.0798L258.08 41.0898Z" fill="#FFB6C8"/>
<path d="M221.398 23.4296C221.398 23.4296 221.398 23.3796 221.408 23.3496C221.408 23.3496 221.408 23.3796 221.398 23.4296Z" fill="#FFB6C8"/>
<path d="M191.07 9.2604L155.52 14.1104C154.51 14.2504 153.5 14.3604 152.49 14.4504C145.8 15.0704 139.05 14.7104 132.45 13.3904L119.43 10.7904C112.03 9.3104 104.55 12.8704 101.02 19.5404L96.5398 28.0304H88.6698V26.2904H82.5898V41.9404H88.6698V40.2004H96.5398L101.02 48.6904C104.54 55.3604 112.03 58.9204 119.43 57.4404L132.45 54.8404C139.05 53.5204 145.8 53.1704 152.49 53.7804C153.5 53.8704 154.51 53.9904 155.52 54.1204L191.07 58.9704C194.79 59.4804 198.1 56.5804 198.1 52.8304V15.4104C198.1 11.6504 194.79 8.7604 191.07 9.2704V9.2604Z" fill="#FFB6C8"/>
<path d="M209.28 112.56H195.19C197.14 111.57 198.64 109.8 198.78 107.54C198.85 106.35 198.44 105.14 197.63 104.26C196.71 103.27 195.36 102.9 194.06 102.79C190.32 102.48 186.64 104.81 184.91 108.08C183.67 106.3 182.29 104.62 180.75 103.1C178.62 100.99 175.85 99.1998 172.73 99.7298C171.48 99.9398 170.2 100.61 169.36 101.56C168.3 102.77 167.92 104.28 168.28 105.85C168.63 107.39 169.66 108.79 170.74 109.9C171.76 110.94 172.97 111.81 174.26 112.47C174.31 112.5 174.36 112.52 174.41 112.55H159.63C158.97 112.55 158.43 113.09 158.43 113.75V128.4C158.43 129.06 158.97 129.6 159.63 129.6H162.5V148.34C162.5 149 163.04 149.54 163.7 149.54H205.2C205.86 149.54 206.4 149 206.4 148.34V129.6H209.27C209.93 129.6 210.47 129.06 210.47 128.4V113.75C210.47 113.09 209.93 112.55 209.27 112.55L209.28 112.56ZM186.73 111.24C186.75 111.13 186.77 111.02 186.8 110.91C186.86 110.65 186.94 110.4 187.02 110.15C187.06 110.04 187.1 109.94 187.14 109.83C187.05 110.06 187.14 109.86 187.18 109.75C187.28 109.53 187.4 109.31 187.52 109.1C187.64 108.89 187.77 108.68 187.92 108.48C187.95 108.43 188.01 108.35 188.03 108.33C188.09 108.25 188.16 108.17 188.22 108.1C188.54 107.73 188.89 107.38 189.27 107.07C189.3 107.04 189.34 107.02 189.37 106.99C189.45 106.93 189.54 106.87 189.62 106.81C189.82 106.67 190.03 106.54 190.24 106.42C190.45 106.3 190.67 106.19 190.89 106.08C190.93 106.06 190.96 106.05 191 106.03C191.12 105.99 191.23 105.94 191.35 105.9C191.78 105.75 192.23 105.65 192.68 105.57C192.72 105.57 192.8 105.55 192.86 105.55C192.97 105.55 193.09 105.53 193.2 105.53C193.45 105.52 193.69 105.53 193.94 105.53C193.98 105.53 194.11 105.54 194.18 105.55C194.23 105.55 194.32 105.57 194.34 105.57C194.4 105.58 194.47 105.59 194.53 105.61C194.66 105.64 194.78 105.67 194.91 105.71C194.97 105.73 195.03 105.75 195.09 105.77C195.09 105.77 195.09 105.77 195.1 105.77C195.1 105.77 195.1 105.77 195.12 105.77C195.23 105.83 195.34 105.89 195.46 105.96C195.48 105.96 195.49 105.98 195.5 105.98C195.53 106.01 195.56 106.03 195.59 106.06C195.61 106.08 195.71 106.18 195.75 106.22C195.75 106.22 195.76 106.24 195.77 106.24C195.82 106.32 195.87 106.39 195.91 106.47C195.93 106.5 195.94 106.53 195.96 106.56C195.99 106.66 196.02 106.75 196.05 106.85C196.05 106.88 196.08 107.01 196.1 107.07V107.09C196.1 107.16 196.1 107.24 196.11 107.31C196.11 107.42 196.11 107.53 196.11 107.64C196.11 107.66 196.11 107.7 196.11 107.73C196.11 107.75 196.11 107.77 196.11 107.78C196.07 107.99 196.01 108.19 195.94 108.39C195.94 108.41 195.89 108.51 195.86 108.57C195.81 108.67 195.75 108.76 195.69 108.86C195.67 108.9 195.58 109.01 195.56 109.04C195.47 109.15 195.37 109.26 195.27 109.36C195.18 109.45 195.09 109.53 195 109.61C194.96 109.64 194.95 109.66 194.94 109.67C194.93 109.67 194.91 109.69 194.88 109.71C194.66 109.87 194.43 110.01 194.19 110.14C194.08 110.2 193.97 110.26 193.85 110.31C193.81 110.33 193.61 110.42 193.58 110.43C193.35 110.53 193.11 110.61 192.87 110.69C192.28 110.88 191.68 111.02 191.07 111.12C191 111.13 190.92 111.14 190.85 111.16C190.88 111.16 190.98 111.14 190.83 111.16C190.68 111.18 190.53 111.19 190.39 111.21C190.07 111.24 189.75 111.26 189.42 111.26C188.71 111.27 187.99 111.15 187.3 111.26C187.12 111.29 186.93 111.32 186.76 111.37C186.76 111.33 186.78 111.27 186.79 111.21L186.73 111.24ZM173.68 108.82C173.62 108.77 173.56 108.73 173.5 108.68C173.39 108.59 173.27 108.49 173.16 108.39C172.92 108.18 172.69 107.96 172.48 107.72C172.29 107.52 172.11 107.31 171.94 107.1C171.92 107.07 171.76 106.85 171.73 106.82C171.62 106.67 171.52 106.51 171.43 106.35C171.35 106.21 171.27 106.07 171.19 105.92C171.17 105.87 171.15 105.83 171.12 105.78C171.11 105.75 171.08 105.69 171.07 105.67C171.02 105.52 170.97 105.36 170.93 105.21C170.91 105.14 170.9 105.08 170.88 105.01C170.88 104.98 170.87 104.95 170.86 104.93C170.86 104.93 170.86 104.91 170.86 104.9C170.86 104.75 170.86 104.59 170.86 104.44C170.86 104.45 170.86 104.46 170.85 104.48C170.85 104.46 170.85 104.45 170.86 104.43C170.86 104.38 170.88 104.32 170.89 104.32C170.92 104.21 170.95 104.1 170.98 104C171 103.96 171.02 103.91 171.05 103.87C171.11 103.75 171.19 103.64 171.26 103.53C171.26 103.53 171.26 103.52 171.27 103.51C171.28 103.5 171.3 103.48 171.33 103.45C171.41 103.36 171.49 103.28 171.58 103.2C171.64 103.14 171.82 103.02 171.8 103.03C171.97 102.92 172.15 102.8 172.33 102.71C172.38 102.68 172.43 102.66 172.48 102.64C172.6 102.6 172.72 102.55 172.85 102.51C172.97 102.47 173.09 102.44 173.21 102.42C173.27 102.41 173.57 102.37 173.5 102.37C173.72 102.35 173.95 102.34 174.17 102.35C174.23 102.35 174.37 102.37 174.4 102.37C174.52 102.39 174.64 102.41 174.76 102.44C175.06 102.51 175.35 102.6 175.63 102.71C175.66 102.72 175.86 102.81 175.9 102.83C176.04 102.9 176.17 102.97 176.3 103.04C176.6 103.21 176.9 103.4 177.18 103.61C177.23 103.65 177.29 103.69 177.34 103.73C177.36 103.74 177.36 103.75 177.37 103.75C177.37 103.75 177.37 103.75 177.38 103.75C177.5 103.85 177.62 103.94 177.74 104.05C177.99 104.27 178.24 104.49 178.48 104.72C179.03 105.25 179.54 105.8 180.05 106.37C180.54 106.92 181.12 107.62 181.5 108.12C181.88 108.62 182.41 109.35 182.82 109.97C183.26 110.63 183.68 111.31 184.07 111.99C183.69 111.93 183.3 111.89 182.91 111.86C182.56 111.83 182.2 111.8 181.85 111.76C181.4 111.71 181.3 111.7 180.94 111.64C179.51 111.42 178.08 111.08 176.73 110.56C176.65 110.53 176.57 110.5 176.49 110.47C176.49 110.47 176.45 110.45 176.42 110.44C176.39 110.43 176.36 110.41 176.35 110.41C176.27 110.37 176.19 110.34 176.12 110.3C175.83 110.17 175.54 110.02 175.26 109.87C174.7 109.56 174.17 109.21 173.65 108.84L173.68 108.82Z" fill="#FFB6C8"/>
<path d="M170.899 104.3C170.899 104.3 170.899 104.3 170.899 104.31C170.899 104.34 170.889 104.38 170.879 104.41C170.879 104.41 170.879 104.41 170.879 104.42C170.909 104.32 170.909 104.29 170.899 104.29V104.3Z" fill="#FFB6C8"/>
<path d="M181.969 136.88C181.809 136.5 181.729 136.1 181.729 135.54C181.729 130.75 186.539 130.32 186.539 124.87C186.539 123.31 185.739 122.71 184.329 122.71C182.919 122.71 182.119 123.3 182.119 124.87V127.25H177.949V125.09C177.949 121.59 180.159 119.58 184.449 119.58C188.739 119.58 190.949 121.58 190.949 125.09C190.949 130.78 185.739 131.66 185.739 135.66C185.739 136.07 185.779 136.47 185.899 136.88H181.969ZM186.019 138.41V141.73H181.769V138.41H186.019Z" fill="#FAF2F4"/>
</g>
<defs>
<clipPath id="clip0_2938_12489">
<rect width="271.12" height="146.5" fill="white" transform="translate(8 7)"/>
</clipPath>
</defs>
</svg>
