<svg width="264" height="208" viewBox="0 0 264 208" fill="none" xmlns="http://www.w3.org/2000/svg">
<g clip-path="url(#clip0_2959_16124)">
<rect width="264" height="208" fill="#F2C3CB"/>
<mask id="mask0_2959_16124" style="mask-type:luminance" maskUnits="userSpaceOnUse" x="0" y="0" width="264" height="208">
<path d="M264 0H0V208H264V0Z" fill="white"/>
</mask>
<g mask="url(#mask0_2959_16124)">
<path d="M129.468 164.44L63.6085 173.11C61.6485 173.32 59.7185 171.74 59.1685 169.48L40.4985 62.6504C39.8885 60.1304 41.2385 57.7704 43.4285 57.5304L114.188 49.8704C116.338 49.6404 118.408 51.5404 118.728 54.0504L132.488 159.87C132.788 162.21 131.458 164.22 129.458 164.43L129.468 164.44Z" fill="#7299B3"/>
<path d="M74.7912 40.3099L50.4712 43.0599C50.4712 43.0599 37.8512 31.0499 51.6912 26.1699C65.5312 21.2799 73.1612 33.9999 73.1612 33.9999C73.1612 33.9999 53.1612 7.6399 69.7012 4.6899C90.2512 1.0199 79.9812 30.8399 79.9812 30.8399C79.9812 30.8399 85.0712 20.6599 94.4312 20.0499C103.791 19.4399 115.801 32.2599 98.3012 36.9399C80.8012 41.6199 74.7912 40.2999 74.7912 40.2999V40.3099Z" fill="#6863AB"/>
<mask id="mask1_2959_16124" style="mask-type:luminance" maskUnits="userSpaceOnUse" x="39" y="49" width="94" height="125">
<path d="M132.999 164L59.8494 173.47L39.8594 57.4802L117.619 49.6602L132.999 164Z" fill="white"/>
</mask>
<g mask="url(#mask1_2959_16124)">
<path d="M148.511 158.531L145.261 163.721L34.3008 66.1607L37.5608 60.9707L148.511 158.531Z" fill="#7ABBBC"/>
<path d="M156.647 145.56L153.387 150.75L42.4375 53.19L45.6975 48L156.647 145.56Z" fill="#7ABBBC"/>
<path d="M165.331 131.73L162.081 136.92L51.1211 39.3599L54.3811 34.1699L165.331 131.73Z" fill="#7ABBBC"/>
<path d="M172.421 116.16L169.171 121.34L58.2109 23.7798L61.4709 18.5898L172.421 116.16Z" fill="#7ABBBC"/>
<path d="M124.101 197.429L120.841 202.609L9.89062 105.049L13.1406 99.8691L124.101 197.429Z" fill="#7ABBBC"/>
<path d="M118.159 214.019L114.899 219.209L3.94922 121.649L7.19922 116.459L118.159 214.019Z" fill="#7ABBBC"/>
<path d="M132.23 184.46L128.98 189.65L18.0195 92.0904L21.2795 86.9004L132.23 184.46Z" fill="#7ABBBC"/>
<path d="M140.919 170.63L137.659 175.82L26.6992 78.2603L29.9592 73.0703L140.919 170.63Z" fill="#7ABBBC"/>
</g>
<path d="M122.959 52.8091L36.7394 65.1291C35.5594 65.2991 34.4494 64.5091 34.2294 63.3391L31.2594 47.9091C31.0194 46.6591 31.8694 45.4591 33.1194 45.2791L121.479 31.9791C122.789 31.7791 123.979 32.7591 124.049 34.0791L124.869 50.4791C124.929 51.6291 124.099 52.6391 122.949 52.8091H122.959Z" fill="#F9D76A"/>
<path d="M58.8291 81.7088L65.6991 80.6188L67.2691 90.5188C68.0591 95.5088 66.0091 98.7588 61.1991 99.5188C56.3791 100.279 53.4391 97.8188 52.6491 92.8288L50.0791 76.5988C49.2891 71.6088 51.3391 68.3588 56.1491 67.5888C60.9691 66.8288 63.9091 69.2888 64.6991 74.2788L65.1791 77.3088L60.5391 78.0388L60.0091 74.6988C59.6591 72.4688 58.5391 71.7788 56.9791 72.0288C55.4191 72.2788 54.5691 73.2788 54.9191 75.5088L57.5891 92.3688C57.9391 94.5988 59.0491 95.2488 60.6091 94.9988C62.1691 94.7488 63.0191 93.7888 62.6691 91.5588L61.7591 85.8088L59.5291 86.1588L58.8191 81.6988L58.8291 81.7088Z" fill="white"/>
<path d="M67.4709 73.8598C66.6809 68.8698 68.8609 65.5898 73.6809 64.8298C78.5009 64.0698 81.5809 66.5098 82.3709 71.4998L84.9409 87.7298C85.7309 92.7198 83.5509 95.9998 78.7409 96.7598C73.9209 97.5198 70.8409 95.0798 70.0509 90.0898L67.4809 73.8598H67.4709ZM74.9909 89.6198C75.3409 91.8498 76.4609 92.5398 78.0209 92.2898C79.5809 92.0398 80.4309 91.0398 80.0809 88.8098L77.4109 71.9498C77.0609 69.7198 75.9409 69.0298 74.3809 69.2698C72.8209 69.5198 71.9709 70.5198 72.3309 72.7498L75.0009 89.6098L74.9909 89.6198Z" fill="white"/>
<path d="M84.3398 63.5085L89.2498 62.7285L93.4799 89.4885L101.55 88.2185L102.26 92.6785L89.2798 94.7285L84.3398 63.5185V63.5085Z" fill="white"/>
<path d="M99.4609 61.1193L107.221 59.8893C112.121 59.1093 114.961 61.4493 115.751 66.4493L118.251 82.2393C119.041 87.2293 117.061 90.3393 112.161 91.1094L104.401 92.3393L99.4609 61.1294V61.1193ZM105.071 64.7994L108.601 87.0993L111.361 86.6594C112.921 86.4094 113.731 85.4594 113.381 83.2294L110.811 66.9993C110.461 64.7693 109.401 64.1093 107.831 64.3593L105.071 64.7994Z" fill="white"/>
<path d="M102.28 167.9L93.94 169.67L73 37.8598L81.34 36.0898L102.28 167.9Z" fill="#6863AB"/>
<path d="M202.171 48.5703C197.891 45.8703 192.021 46.7903 189.061 50.6303C186.101 54.4703 187.181 59.7703 191.461 62.4803C195.741 65.1803 210.621 69.9403 213.571 66.1003C216.531 62.2603 206.451 51.2703 202.171 48.5703ZM209.351 63.4303C207.411 65.9503 197.661 62.8303 194.851 61.0603C192.041 59.2903 191.341 55.8103 193.281 53.2903C195.221 50.7703 199.071 50.1703 201.871 51.9403C204.681 53.7103 211.281 60.9103 209.341 63.4303H209.351Z" fill="#F96EB8"/>
<path d="M227.609 48.3593C232.019 45.8993 237.829 47.1393 240.599 51.1393C243.369 55.1393 242.039 60.3793 237.629 62.8393C233.219 65.2993 218.139 69.2293 215.369 65.2393C212.599 61.2393 223.199 50.8293 227.609 48.3593ZM219.719 62.8093C221.529 65.4293 231.419 62.8493 234.309 61.2393C237.199 59.6293 238.069 56.1893 236.259 53.5693C234.449 50.9493 230.629 50.1293 227.739 51.7493C224.849 53.3593 217.899 60.1893 219.719 62.8093Z" fill="#F96EB8"/>
<path d="M205.973 47.4999C206.013 42.8099 210.263 39.0599 215.473 39.1399C220.673 39.2199 224.863 43.0899 224.823 47.7799C224.783 52.4699 220.443 66.0899 215.243 66.0099C210.043 65.9299 205.933 52.1899 205.973 47.4999ZM215.273 61.3799C218.683 61.4299 221.523 52.4999 221.553 49.4299C221.583 46.3499 218.833 43.8199 215.423 43.7699C212.013 43.7199 209.223 46.1699 209.203 49.2499C209.173 52.3299 211.863 61.3299 215.273 61.3899V61.3799Z" fill="#F96EB8"/>
<path d="M221.962 64.5751C222.102 61.2477 219.223 58.4245 215.531 58.2691C211.84 58.1137 208.733 60.6851 208.593 64.0124C208.453 67.3398 211.332 70.1631 215.024 70.3184C218.715 70.4738 221.822 67.9024 221.962 64.5751Z" fill="#F96EB8"/>
<path d="M239.261 136.199L115.151 130.439C112.511 130.319 110.431 128.139 110.441 125.489L110.581 70.3792C110.581 67.5692 112.931 65.3392 115.731 65.4492L244.771 70.8792C247.591 70.9992 249.741 73.4492 249.481 76.2692L244.421 131.709C244.181 134.339 241.911 136.319 239.271 136.199H239.261Z" fill="#D6348D"/>
<path d="M249.99 81.4099L110.22 75.5299C109.09 75.4799 108.18 74.5799 108.13 73.4499L107.62 62.4499C107.56 61.1699 108.61 60.1099 109.9 60.1599L251.15 66.0999C252.4 66.1499 253.35 67.2399 253.24 68.4799L252.27 79.4199C252.17 80.5799 251.17 81.4599 250 81.4099H249.99Z" fill="#6863AB"/>
<path d="M133.43 91.1405L133.28 94.7206C133.1 99.1306 130.88 101.441 126.55 101.261L124.5 101.181L124.08 111.531L119.75 111.351L120.87 83.8105L127.24 84.0705C131.57 84.2505 133.59 86.7305 133.42 91.1405H133.43ZM125.05 87.9205L124.67 97.2405L126.72 97.3205C128.1 97.3805 128.87 96.7805 128.95 94.8105L129.12 90.6805C129.2 88.7105 128.48 88.0505 127.1 88.0005L125.05 87.9205Z" fill="white"/>
<path d="M135.909 84.4199L140.239 84.5999L139.279 108.21L146.399 108.5L146.239 112.43L134.789 111.96L135.909 84.4199Z" fill="white"/>
<path d="M162.128 113.08L157.758 112.9L157.218 107.87L151.908 107.65L150.958 112.61L146.988 112.45L152.518 85.0898L158.848 85.3498L162.128 113.07V113.08ZM152.608 103.94L156.778 104.11L155.258 90.0998L152.608 103.94Z" fill="white"/>
<path d="M162.512 85.5098L175.892 86.0598L175.732 89.9898L171.202 89.8098L170.242 113.42L165.912 113.24L166.872 89.6298L162.352 89.4498L162.512 85.5198V85.5098Z" fill="white"/>
<path d="M177.768 86.1309L182.098 86.3109L180.978 113.851L176.648 113.671L177.778 86.1309H177.768Z" fill="white"/>
<path d="M188.788 94.1797L187.978 114.13L184.078 113.97L185.198 86.4297L190.628 86.6497L194.398 103.32L195.068 86.8397L198.928 86.9997L197.798 114.54L193.348 114.36L188.768 94.1897L188.788 94.1797Z" fill="white"/>
<path d="M206.179 87.2911L205.309 108.531C205.229 110.501 206.069 111.241 207.439 111.301C208.819 111.361 209.709 110.681 209.789 108.721L210.659 87.4811L214.749 87.6511L213.889 108.621C213.709 113.031 211.399 115.451 207.149 115.281C202.899 115.111 200.799 112.501 200.979 108.091L201.839 87.1211L206.169 87.3011L206.179 87.2911Z" fill="white"/>
<path d="M226.071 107.691L229.821 88.2615L235.841 88.5115L234.711 116.051L230.621 115.881L231.431 96.1315L227.631 115.761L223.541 115.591L221.111 95.9815L220.311 115.461L216.531 115.311L217.651 87.7715L223.671 88.0215L226.061 107.701L226.071 107.691Z" fill="white"/>
<path d="M212.987 64.2267L208.621 64.043L205.651 134.62L210.017 134.804L212.987 64.2267Z" fill="#F96EB8"/>
<path d="M221.714 64.6037L217.348 64.4199L214.377 134.997L218.743 135.181L221.714 64.6037Z" fill="#F96EB8"/>
<path d="M28.3808 102.24C24.0608 100.07 18.8008 101.82 16.6308 106.15C14.4608 110.47 16.2108 115.73 20.5408 117.9C24.8608 120.07 39.2108 122.87 41.3808 118.55C43.5508 114.23 32.7108 104.41 28.3808 102.25V102.24ZM37.1208 116.41C35.7008 119.24 26.2908 117.41 23.4608 115.99C20.6308 114.57 19.4808 111.12 20.9008 108.29C22.3208 105.46 25.7708 104.31 28.6008 105.73C31.4308 107.15 38.5408 113.58 37.1208 116.42V116.41Z" fill="#F9D76A"/>
<path d="M51.7222 98.5212C55.4222 95.4012 60.9422 95.8712 64.0622 99.5712C67.1822 103.271 66.7122 108.791 63.0122 111.911C59.3122 115.031 46.0222 121.121 42.9022 117.421C39.7822 113.721 48.0222 101.651 51.7222 98.5312V98.5212ZM46.5522 114.341C48.5922 116.761 57.3122 112.771 59.7322 110.731C62.1522 108.691 62.4622 105.071 60.4222 102.641C58.3822 100.221 54.7622 99.9112 52.3322 101.951C49.9122 103.991 44.5122 111.911 46.5522 114.331V114.341Z" fill="#F9D76A"/>
<path d="M31.7108 100.631C31.0708 95.8406 34.4408 91.4306 39.2308 90.8006C44.0208 90.1606 48.4308 93.5306 49.0608 98.3206C49.7008 103.111 47.6708 117.591 42.8808 118.231C38.0908 118.871 32.3408 105.421 31.7008 100.631H31.7108ZM42.2608 113.501C45.4008 113.081 46.7308 103.591 46.3108 100.451C45.8908 97.3106 43.0108 95.1006 39.8608 95.5206C36.7208 95.9406 34.5108 98.8206 34.9308 101.971C35.3508 105.111 39.1108 113.931 42.2608 113.511V113.501Z" fill="#F9D76A"/>
<path d="M42.6827 122.68C46.1123 122.68 48.8927 119.899 48.8927 116.47C48.8927 113.04 46.1123 110.26 42.6827 110.26C39.253 110.26 36.4727 113.04 36.4727 116.47C36.4727 119.899 39.253 122.68 42.6827 122.68Z" fill="#F9D76A"/>
<path d="M95.0397 176.601L30.4297 182.761C29.0197 182.891 27.7397 181.931 27.4797 180.541L17.7297 128.091C17.4397 126.521 18.5497 125.031 20.1397 124.871L92.2497 117.471C93.8197 117.311 95.1897 118.501 95.2597 120.081L97.5097 173.771C97.5697 175.221 96.4797 176.471 95.0397 176.611V176.601Z" fill="#B9CDEF"/>
<path d="M96.7204 128.1L16.2704 136.35C15.5304 136.43 14.8504 135.95 14.6704 135.22L12.1704 121.47C11.9604 120.59 12.5704 119.73 13.4704 119.64L96.6604 111.29C97.6004 111.2 98.3804 111.99 98.2804 112.92L98.0304 126.76C97.9604 127.46 97.4004 128.01 96.7004 128.08L96.7204 128.1Z" fill="#E1564F"/>
<path d="M31.3423 145.68C34.8023 145.32 36.7923 147.2 37.1723 150.83L37.2423 151.54L33.8823 151.89L33.7823 150.95C33.6123 149.33 32.9023 148.79 31.7723 148.9C30.6423 149.02 30.0523 149.7 30.2223 151.32C30.7023 155.97 37.7523 156.13 38.4223 162.59C38.8023 166.21 37.2023 168.47 33.7123 168.83C30.2223 169.19 28.1923 167.31 27.8223 163.69L27.6823 162.3L31.0423 161.95L31.2123 163.57C31.3823 165.19 32.1523 165.69 33.2823 165.58C34.4123 165.46 35.0623 164.81 34.8923 163.19C34.4123 158.54 27.3623 158.38 26.6923 151.92C26.3123 148.3 27.8823 146.05 31.3423 145.69V145.68Z" fill="white"/>
<path d="M38.6719 145.181L42.2319 144.811L44.5819 167.441L41.0219 167.811L38.6719 145.181Z" fill="white"/>
<path d="M44.8125 144.542L48.3725 144.172L50.3925 163.572L56.2425 162.962L56.5825 166.192L47.1725 167.172L44.8225 144.542H44.8125Z" fill="white"/>
<path d="M61.9913 161.422L62.7913 142.682L66.0612 142.342L64.9212 165.332L59.6213 165.882L53.7812 143.612L57.3713 143.242L62.0013 161.422H61.9913Z" fill="white"/>
<path d="M72.2509 151.33L77.1309 150.82L77.4709 154.05L72.5909 154.56L73.2809 161.19L79.4209 160.55L79.7609 163.78L70.0609 164.79L67.7109 142.16L77.4109 141.15L77.7509 144.38L71.6109 145.02L72.2609 151.32L72.2509 151.33Z" fill="white"/>
<path d="M89.3916 162.781C89.1416 162.221 88.9716 161.881 88.7816 160.031L88.4116 156.471C88.1916 154.371 87.4016 153.671 85.7816 153.831L84.5516 153.961L85.5116 163.171L81.9516 163.541L79.6016 140.911L84.9716 140.351C88.6616 139.971 90.4216 141.521 90.7816 145.011L90.9616 146.791C91.2016 149.121 90.6216 150.711 89.1116 151.621C90.9716 152.181 91.7316 153.831 91.9716 156.191L92.3316 159.681C92.4416 160.781 92.5616 161.581 93.0016 162.391L89.3816 162.771L89.3916 162.781ZM83.4916 143.791L84.2116 150.741L85.6016 150.601C86.9216 150.461 87.6716 149.791 87.4816 147.991L87.2516 145.761C87.0816 144.141 86.4616 143.491 85.2016 143.621L83.4916 143.801V143.791Z" fill="white"/>
<path d="M21.6287 153.521L20.2188 146.301L40.0188 117.141L46.6288 116.461L21.6287 153.521Z" fill="#F9D76A"/>
<path d="M96.3322 140.441L97.0822 147.761L69.3122 179.651L62.7422 180.331L96.3322 140.441Z" fill="#F9D76A"/>
<path d="M204.48 233.14C200.25 250.03 198.91 274.01 198.91 307.45C197.33 309 195.24 310.36 192.77 311.51C178.83 318.04 152.92 318.08 140.27 309.49C140.27 288.96 141.04 256.55 130.4 236.34C119.75 216.12 119.59 207.02 119.13 193.59C118.67 180.17 115.67 159.04 123.18 158.7C125.13 158.61 127.11 159.32 128.99 160.73C131.9 162.91 134.56 166.79 136.4 172.03C136.4 171.6 136.4 171.16 136.4 170.73C136.4 169.93 136.41 169.12 136.42 168.3C136.43 167.03 136.44 165.73 136.46 164.42C136.49 161.07 136.52 157.59 136.55 154.09C136.55 153.48 136.56 152.86 136.57 152.25C136.58 150.88 136.6 149.5 136.61 148.13C136.61 147.5 136.62 146.87 136.63 146.24C136.65 144.6 136.67 142.97 136.69 141.37C136.71 139.91 136.73 138.47 136.75 137.05C136.82 132.15 136.89 127.54 136.97 123.5C136.97 123.23 136.97 122.97 136.98 122.7C136.98 122.33 136.99 121.96 137 121.6C137 121.2 137.02 120.8 137.03 120.41C137.03 120.08 137.04 119.77 137.05 119.46C137.05 119.06 137.07 118.66 137.08 118.27C137.09 117.55 137.12 116.87 137.13 116.22C137.14 115.84 137.15 115.47 137.17 115.11C137.18 114.73 137.19 114.35 137.21 114C137.8 96.5704 155.12 96.5704 156.31 113.17C156.98 122.57 157.88 142.85 158.56 159.76C160.44 150.64 168.37 149.16 173.43 152.99C175.63 154.66 177.29 157.34 177.67 160.84C177.71 161.26 177.76 161.68 177.8 162.09C179.93 157.18 186.86 154.76 191.11 158.31C192.59 159.52 193.75 161.47 194.27 164.28C194.65 166.35 194.97 168.51 195.22 170.65C196.9 168.11 200.03 167.4 202.71 169.4C205.19 171.26 207.28 175.45 207.43 182.66C207.52 187.17 207.66 191.67 207.72 196.16C207.91 208.48 207.58 220.76 204.48 233.14Z" fill="#F4E4DC"/>
<path d="M136.278 192.98C136.278 200.45 137.228 208.04 134.738 211.71C136.088 205.91 134.338 188.19 133.848 181.87C133.398 176.04 131.888 165.27 128.988 160.73C131.898 162.91 134.558 166.79 136.398 172.03C136.318 182.28 136.278 190.4 136.278 192.98Z" fill="#E2AAB0"/>
<path d="M173.43 152.99C165.57 152.88 163.64 156.86 162.51 161.39C161.34 166.07 160.14 177.1 158.79 178.79C158.79 178.79 158.93 170.17 158.57 159.75C160.45 150.63 168.38 149.15 173.44 152.98L173.43 152.99Z" fill="#E2AAB0"/>
<path d="M191.109 158.31C184.569 156.78 180.829 163.13 180.449 167.79C180.049 172.68 179.809 179.82 178.119 181.9C178.119 181.9 177.789 166.43 177.789 162.09C179.919 157.18 186.849 154.76 191.099 158.31H191.109Z" fill="#E2AAB0"/>
<path d="M202.709 169.4C198.579 168.74 197.379 172.91 197.519 175.41C197.689 178.13 197.519 186.66 195.439 188.9C195.439 188.9 195.679 178.05 195.219 170.65C196.899 168.11 200.029 167.4 202.709 169.4Z" fill="#E2AAB0"/>
<path d="M204.48 233.14C200.25 250.03 198.91 274.01 198.91 307.45C197.33 309 195.24 310.36 192.77 311.51C190.91 283.86 189.42 253.42 197.41 234.91C205.09 217.11 206.99 208.85 207.72 196.16C207.91 208.48 207.58 220.76 204.48 233.14Z" fill="#E2AAB0"/>
<path d="M118.539 177.001C120.409 177.721 125.929 177.581 128.479 176.141C128.399 168.751 127.469 160.731 122.509 160.791C117.539 160.841 118.239 170.911 118.549 177.011L118.539 177.001Z" fill="#FFFCFA"/>
<path d="M154.339 118.251C151.039 120.191 141.919 119.661 139.149 118.131C138.629 110.181 138.899 101.571 146.679 101.641C154.459 101.701 154.619 114.021 154.339 118.261V118.251Z" fill="#FFFCFA"/>
<path d="M234.031 177.92L249.001 189" stroke="#E2AAB0" stroke-width="1.85" stroke-miterlimit="10" stroke-linecap="round" stroke-dasharray="2.31 2.31"/>
<path d="M191 144L234 178" stroke="#E2AAB0" stroke-width="2" stroke-miterlimit="10" stroke-linecap="round"/>
<path d="M210.039 191.439L232.339 208.039" stroke="#E2AAB0" stroke-width="2" stroke-miterlimit="10" stroke-linecap="round"/>
</g>
</g>
<defs>
<clipPath id="clip0_2959_16124">
<rect width="264" height="208" fill="white"/>
</clipPath>
</defs>
</svg>
