<svg width="264" height="208" viewBox="0 0 264 208" fill="none" xmlns="http://www.w3.org/2000/svg">
<rect width="264" height="208" fill="#F2C3CB"/>
<g clip-path="url(#clip0_2959_16231)">
<path d="M241 97C241 125.714 217.938 149 189.5 149C161.062 149 138 125.725 138 97C138 68.2753 161.062 45 189.5 45C217.938 45 241 68.2753 241 97Z" fill="#FFFAFA"/>
<path d="M138.809 97.1098C138.809 68.1098 162.319 44.5898 191.319 44.5898C220.319 44.5898 243.829 68.0998 243.829 97.1098C243.829 113.03 236.749 127.29 225.559 136.93" stroke="#F56163" stroke-width="7.91" stroke-miterlimit="10"/>
<path d="M221.37 108.77L191.32 149.63L241.72 155.23L221.37 108.77Z" fill="#F56163"/>
<path d="M196.697 56.1799C196.857 57.1599 196.957 58.1199 197.047 59.0899C197.127 60.0499 197.197 61.0099 197.237 61.9699C197.327 63.8799 197.357 65.7699 197.337 67.6499C197.317 68.5899 197.317 69.5299 197.267 70.4599L197.137 73.2599C196.997 75.1199 196.877 76.9699 196.677 78.8099C195.907 86.1799 194.567 93.4199 192.797 100.56L186.777 92.9999C189.947 93.0599 193.117 93.1999 196.287 93.4499C199.457 93.6999 202.627 94.0299 205.797 94.5099C207.377 94.7499 208.967 94.9999 210.557 95.3099C211.347 95.4499 212.137 95.6099 212.937 95.7799C213.727 95.9399 214.527 96.1099 215.317 96.3099C216.907 96.6799 218.487 97.0799 220.077 97.5599C220.867 97.7899 221.667 98.0499 222.457 98.2999C223.257 98.5699 224.047 98.8499 224.837 99.1799C224.047 99.5099 223.257 99.7799 222.457 100.05C221.667 100.31 220.877 100.57 220.077 100.79C218.497 101.26 216.907 101.67 215.317 102.04C214.527 102.24 213.737 102.4 212.937 102.57C212.147 102.74 211.357 102.91 210.557 103.04C208.967 103.35 207.387 103.6 205.797 103.84C202.627 104.32 199.457 104.65 196.287 104.9C193.117 105.15 189.947 105.29 186.777 105.35L179.117 105.48L180.757 97.7799C182.297 90.5899 184.267 83.4899 186.807 76.5299C187.437 74.7899 188.137 73.0599 188.827 71.3399L189.937 68.7599C190.307 67.8999 190.717 67.0499 191.107 66.1999C191.917 64.4999 192.767 62.8099 193.687 61.1299C194.147 60.2899 194.617 59.4599 195.117 58.6299C195.627 57.7999 196.127 56.9799 196.707 56.1699L196.697 56.1799Z" fill="#B54044"/>
<path d="M194.22 101.661C194.22 106.681 190.15 110.761 185.12 110.761C180.09 110.761 176.02 106.691 176.02 101.661C176.02 96.6306 180.09 92.5605 185.12 92.5605C190.15 92.5605 194.22 96.6406 194.22 101.661Z" fill="#F8DA6D"/>
<path d="M207.45 28.51C207.45 33.76 203.19 38.02 197.94 38.02H190.49C185.24 38.02 180.98 33.76 180.98 28.51C180.98 23.26 185.24 19 190.49 19H197.94C203.19 19 207.45 23.26 207.45 28.51Z" fill="#F56163"/>
<path d="M146.33 187.999H47.1797L69.8097 124.779H170.19L146.33 187.999Z" fill="#B54044"/>
<path d="M164.038 139.149H64.668L69.808 124.779H169.458L164.038 139.149Z" fill="#87353C"/>
<path d="M176.749 130.521C176.899 130.191 177.029 129.851 177.159 129.521L180.289 121.261C184.049 111.341 178.919 103.301 168.839 103.301H87.0394C76.9594 103.301 65.9194 111.341 62.3794 121.261L59.4394 129.521C59.3194 129.861 59.2094 130.191 59.1094 130.521H176.749Z" fill="#F56163"/>
<path d="M134.141 129.811H101.441L111.131 103.221H144.001L134.141 129.811Z" fill="#F8DA6D"/>
<path d="M105.409 188.481H85.2891L107.249 129.811H127.599L105.409 188.481Z" fill="#EABA54"/>
<path d="M124.15 139.151H103.84L107.25 129.811H127.6L124.15 139.151Z" fill="#D8A74D"/>
<path d="M78.7773 73.0402C78.7773 73.0402 110.717 50.7702 119.687 101.78L78.7773 73.0402Z" fill="#F8DA6D"/>
<path d="M119.689 101.78C119.689 101.78 90.1193 53.6404 74.0593 78.0704C58.0693 102.5 119.689 101.78 119.689 101.78Z" fill="#D8A74D"/>
<path d="M194.981 73.0402C194.981 73.0402 179.401 50.7702 132.961 101.78L194.981 73.0402Z" fill="#F8DA6D"/>
<path d="M132.961 101.78C132.961 101.78 197.891 53.6404 196.011 78.0704C194.061 102.5 132.961 101.78 132.961 101.78Z" fill="#D8A74D"/>
<path d="M140.01 94.2412C138.47 98.4112 133.79 101.781 129.55 101.781H120.78C116.54 101.781 114.34 98.4012 115.86 94.2412C117.38 90.0812 122.05 86.7012 126.3 86.7012H135.09C139.34 86.7012 141.54 90.0812 139.99 94.2412H140.01Z" fill="#F8DA6D"/>
<path d="M90.2897 112.56C90.2897 113.75 89.3297 114.72 88.1397 114.72H37.8397C36.6497 114.72 35.6797 113.75 35.6797 112.56C35.6797 111.37 36.6497 110.4 37.8397 110.4H88.1397C89.3297 110.4 90.2897 111.37 90.2897 112.56Z" fill="#F56163"/>
<path d="M76.6308 122.621C76.6308 123.811 75.6708 124.781 74.4808 124.781H46.4608C45.2708 124.781 44.3008 123.811 44.3008 122.621C44.3008 121.431 45.2708 120.461 46.4608 120.461H74.4808C75.6708 120.461 76.6308 121.431 76.6308 122.621Z" fill="#F56163"/>
<path d="M89.5695 151.001C89.5695 153.181 87.7995 154.951 85.6195 154.951H48.9695C46.7895 154.951 45.0195 153.181 45.0195 151.001C45.0195 148.821 46.7895 147.051 48.9695 147.051H85.6095C87.7895 147.051 89.5595 148.821 89.5595 151.001H89.5695Z" fill="#B54044"/>
<path d="M75.92 173.281C75.92 175.071 74.47 176.511 72.68 176.511H37.48C35.7 176.511 34.25 175.061 34.25 173.281C34.25 171.501 35.7 170.051 37.48 170.051H72.69C74.48 170.051 75.93 171.501 75.93 173.281H75.92Z" fill="#B54044"/>
<path d="M74.4784 160.701C74.4784 161.891 73.5084 162.861 72.3184 162.861H21.3084C20.1084 162.861 19.1484 161.891 19.1484 160.701C19.1484 159.511 20.1084 158.541 21.3084 158.541H72.3184C73.5084 158.541 74.4784 159.511 74.4784 160.701Z" fill="#B54044"/>
<path d="M37.84 150.64C37.84 152.23 36.55 153.51 34.96 153.51H19.87C18.28 153.51 17 152.22 17 150.64C17 149.05 18.28 147.77 19.87 147.77H34.96C36.55 147.77 37.84 149.06 37.84 150.64Z" fill="#B54044"/>
<path d="M37.1195 122.621C37.1195 123.811 36.1595 124.781 34.9595 124.781H24.1795C22.9895 124.781 22.0195 123.811 22.0195 122.621C22.0195 121.431 22.9895 120.461 24.1795 120.461H34.9595C36.1495 120.461 37.1195 121.431 37.1195 122.621Z" fill="#B54044"/>
</g>
<defs>
<clipPath id="clip0_2959_16231">
<rect width="230.79" height="169.48" fill="white" transform="translate(17 19)"/>
</clipPath>
</defs>
</svg>
