<svg width="264" height="208" viewBox="0 0 264 208" fill="none" xmlns="http://www.w3.org/2000/svg">
<g clip-path="url(#clip0_2959_16338)">
<rect width="264" height="208" fill="#F2C3CB"/>
<mask id="mask0_2959_16338" style="mask-type:luminance" maskUnits="userSpaceOnUse" x="0" y="0" width="264" height="208">
<path d="M264 0H0V208H264V0Z" fill="white"/>
</mask>
<g mask="url(#mask0_2959_16338)">
<path d="M123.846 64.6C120.766 67.92 117.846 71.31 115.246 74.87C118.776 38.16 131.806 15.01 136.486 15C142.316 14.99 148.036 36.75 150.976 50.01C139.916 51.5 132.106 55.85 123.846 64.6Z" fill="#EB9C3F"/>
<path d="M123.847 64.5998C132.097 55.8498 139.917 51.4998 150.977 50.0098C152.267 55.8098 153.027 59.9898 153.027 59.9898L114.477 86.8598C114.617 82.7198 114.887 78.7198 115.257 74.8698C117.857 71.2998 120.777 67.9198 123.857 64.5998H123.847Z" fill="#E37B3A"/>
<path d="M231.456 78.0698C231.686 80.9298 231.856 83.8498 231.956 86.8598L193.406 59.9898C193.406 59.9898 194.096 56.2098 195.276 50.8398C209.996 56.3398 222.676 65.3098 231.466 78.0698H231.456Z" fill="#E37B3A"/>
<path d="M209.946 15C214.756 15.01 228.406 39.51 231.456 78.07C222.676 65.31 209.986 56.34 195.266 50.84C198.146 37.69 203.986 14.99 209.946 15Z" fill="#EB9C3F"/>
<path d="M136.485 24.9204C138.325 24.5904 146.965 58.0004 144.865 60.6504C142.765 63.3004 123.585 78.4804 122.585 76.1804C121.595 73.8804 132.835 25.5804 136.475 24.9204H136.485Z" fill="#EEB8AE"/>
<path d="M209.945 24.9204C208.105 24.5904 199.465 58.0004 201.565 60.6504C203.665 63.3004 222.845 78.4804 223.845 76.1804C224.835 73.8804 213.585 25.5804 209.955 24.9204H209.945Z" fill="#EEB8AE"/>
<path d="M121.295 293.139C112.695 219.199 65.4749 53.4492 173.215 53.4492C280.955 53.4492 227.465 270.469 225.125 293.139H121.295Z" fill="white"/>
<path d="M175.578 51.1309C276.768 58.6709 235.448 203.861 225.128 293.141H222.048C246.548 209.191 242.378 103.741 175.578 51.1309Z" fill="#FDF8EE"/>
<path d="M178.697 103.63C171.877 87.4397 176.487 58.9897 171.867 58.9897C162.107 100.08 181.908 126.44 110.938 94.9397C135.058 35.7297 210.297 35.4797 235.087 93.8497C221.517 100.37 184.247 116.82 178.688 103.62L178.697 103.63Z" fill="#EB9C3F"/>
<path d="M104.016 154.609C117.906 204.139 159.286 241.469 168.256 293.139H121.296C121.296 293.139 105.686 214.699 104.016 154.609Z" fill="#EB9C3F"/>
<path d="M223.834 197.269C231.774 183.579 238.284 169.359 242.404 154.609C240.734 214.689 225.124 293.139 225.124 293.139H178.164C185.034 257.069 205.474 228.209 223.834 197.269Z" fill="#EB9C3F"/>
<path d="M175.574 51.1289C190.424 51.6689 221.004 57.6689 235.084 93.8589C230.594 96.0189 223.524 99.2489 215.864 102.149C206.344 82.3889 193.114 64.9389 175.574 51.1289Z" fill="#EBA140"/>
<path d="M225.127 293.139H222.047C232.867 256.069 238.087 214.809 234.807 175.749C237.827 168.829 240.407 161.789 242.417 154.619C240.747 214.699 225.137 293.149 225.137 293.149L225.127 293.139Z" fill="#EBA140"/>
<path d="M155.147 110.08C154.797 127.46 189.227 127.46 188.867 110.08C189.217 92.6999 154.787 92.6999 155.147 110.08Z" fill="#553C42"/>
<path d="M172.008 118.35V131.79" stroke="#553C42" stroke-width="1.38" stroke-linecap="round" stroke-linejoin="round"/>
<path d="M149.977 123.49C157.817 134.89 185.957 135.91 193.397 123.49" stroke="#553C42" stroke-width="1.38" stroke-linecap="round" stroke-linejoin="round"/>
<path d="M174.445 99.4902C174.445 99.4902 181.345 100.4 184.985 106.36" stroke="#8B6370" stroke-width="1.38" stroke-linecap="round" stroke-linejoin="round"/>
<path d="M186.047 108.619C186.047 108.619 186.917 111.189 186.047 112.639" stroke="#8B6370" stroke-width="1.38" stroke-linecap="round" stroke-linejoin="round"/>
<path d="M131.227 176.949C132.747 183.499 141.547 202.889 155.147 196.679C157.047 200.819 167.127 202.059 169.417 197.259" stroke="#F8DEA7" stroke-width="1.38" stroke-linecap="round" stroke-linejoin="round"/>
<path d="M220.267 176.85C219.707 181.94 210.547 200.14 199.897 195.8C196.497 203.15 190.727 200 186.047 197.83" stroke="#F8DEA7" stroke-width="1.38" stroke-linecap="round" stroke-linejoin="round"/>
<path d="M161.488 143.68C161.488 143.68 170.578 148.32 186.248 143.68" stroke="#F8DEA7" stroke-width="1.38" stroke-linecap="round" stroke-linejoin="round"/>
<path d="M121.418 170.88C121.078 172.54 120.738 174.19 120.368 175.85C117.348 189.65 113.388 203.34 109.218 216.72C72.9084 223.13 50.4784 216.92 14.3984 209.35C21.7584 195.42 27.4184 181.57 31.7984 167.52C32.2384 166.1 32.6684 164.68 33.0884 163.26C40.2684 138.7 43.6884 113.45 45.5684 86.0801C50.3084 90.9101 54.0784 97.4301 56.9984 103.54C65.3084 98.6601 75.2484 96.5901 84.8184 97.7301C94.3884 98.8701 104.738 101.58 111.668 108.29C115.068 101.75 116.828 98.6801 121.278 92.3901C128.318 118.03 126.708 144.64 121.408 170.9L121.418 170.88Z" fill="#FDF0D5"/>
<path d="M80.9681 131.38C80.7081 131.18 80.4481 130.93 80.4081 130.61C80.3481 130.14 80.7681 129.75 81.1781 129.5C82.7081 128.57 84.6581 128.36 86.3581 128.95C86.8781 129.13 87.4281 129.46 87.4981 130C87.5481 130.44 87.2581 130.84 86.9281 131.14C85.3281 132.61 82.6781 132.65 80.9681 131.37V131.38Z" fill="#F5D2D4"/>
<path d="M86.7978 131.319C85.1278 132.739 82.4078 132.729 80.7578 131.279" stroke="#8B6370" stroke-linecap="round" stroke-linejoin="round"/>
<path d="M84.038 132.398L83.968 134.238C83.968 135.218 83.968 136.258 83.438 137.088C82.608 138.398 80.508 138.618 79.418 137.518" stroke="#8B6370" stroke-linecap="round" stroke-linejoin="round"/>
<path d="M83.9883 134.459C84.0583 135.639 84.4483 137.229 85.4183 137.799C86.3883 138.379 87.6983 138.309 88.5983 137.639" stroke="#8B6370" stroke-linecap="round" stroke-linejoin="round"/>
<path d="M110.98 138.501C105.72 137.121 100.32 135.431 94.9102 135.911" stroke="#8B6370" stroke-linecap="round" stroke-linejoin="round"/>
<path d="M109.85 146.021C109.85 146.021 101.99 137.651 94.75 137.941" stroke="#8B6370" stroke-linecap="round" stroke-linejoin="round"/>
<path d="M73.6703 135.611C66.8903 135.561 60.1003 136.861 53.8203 139.421" stroke="#8B6370" stroke-linecap="round" stroke-linejoin="round"/>
<path d="M74.0111 137.65C67.4111 137.74 59.9011 142.36 54.8711 146.31" stroke="#8B6370" stroke-linecap="round" stroke-linejoin="round"/>
<path d="M121.111 115.949C118.921 113.239 116.151 110.989 113.051 109.399C114.981 106.399 117.051 103.119 118.991 100.119C119.861 105.169 120.241 110.899 121.121 115.949H121.111Z" fill="#F5D2D4"/>
<path d="M46.8694 108.77C48.0194 103.38 48.2194 97.7901 47.4594 92.3301C50.0794 96.3901 52.6994 100.45 55.3194 104.51C52.5594 106.08 49.6194 107.21 46.8594 108.78L46.8694 108.77Z" fill="#F5D2D4"/>
<path d="M121.421 170.88C121.081 172.54 120.741 174.19 120.371 175.85C91.0608 186.34 58.6808 183.33 31.8008 167.51C32.2408 166.09 32.6708 164.67 33.0908 163.25C59.5908 179.3 92.2108 182.18 121.101 170.98C121.201 170.94 121.321 170.9 121.421 170.88Z" fill="#C6BEAB"/>
<path d="M121.3 168.49C92.3696 179.71 59.6996 176.8 33.1896 160.7C30.8196 159.26 28.3396 162.81 30.7196 164.26C58.6396 181.21 92.7296 184.19 123.18 172.39C125.78 171.38 123.89 167.49 121.3 168.49Z" fill="#DA342E"/>
<path d="M83.7688 176.61C78.9688 176.14 74.1688 175.67 69.3588 175.2C67.9688 175.06 67.8188 177.22 69.2088 177.36L83.6188 178.77C85.0088 178.91 85.1588 176.75 83.7688 176.61Z" fill="#F4CD78"/>
<path d="M196.687 73.4497L196.957 73.2097C199.417 71.0497 202.287 70.7297 204.737 71.5797C210.447 73.5597 211.627 81.1797 207.017 85.0897L196.687 93.8497L186.357 85.0897C181.747 81.1797 182.917 73.5497 188.637 71.5797C191.087 70.7297 193.957 71.0497 196.417 73.2097L196.687 73.4497Z" fill="#E1564F"/>
<path d="M150.659 73.4497L150.929 73.2097C153.389 71.0497 156.259 70.7297 158.709 71.5797C164.419 73.5597 165.599 81.1797 160.989 85.0897L150.659 93.8497L140.329 85.0897C135.719 81.1797 136.889 73.5497 142.609 71.5797C145.059 70.7297 147.929 71.0497 150.389 73.2097L150.659 73.4497Z" fill="#E1564F"/>
<path d="M99.729 115.58L99.909 115.42C101.529 114 103.419 113.79 105.029 114.35C108.789 115.65 109.559 120.67 106.529 123.24L99.739 129L92.949 123.24C89.919 120.67 90.689 115.65 94.449 114.35C96.059 113.79 97.949 114 99.569 115.42L99.749 115.58H99.729Z" fill="#E1564F"/>
<path d="M68.6587 114.58L68.8386 114.42C70.4586 113 72.3486 112.79 73.9586 113.35C77.7186 114.65 78.4886 119.67 75.4586 122.24L68.6686 128L61.8786 122.24C58.8486 119.67 59.6186 114.65 63.3786 113.35C64.9886 112.79 66.8786 113 68.4986 114.42L68.6786 114.58H68.6587Z" fill="#E1564F"/>
</g>
</g>
<defs>
<clipPath id="clip0_2959_16338">
<rect width="264" height="208" fill="white"/>
</clipPath>
</defs>
</svg>
