<svg width="264" height="208" viewBox="0 0 264 208" fill="none" xmlns="http://www.w3.org/2000/svg">
<rect width="264" height="208" fill="#F2C3CB"/>
<path d="M99.0119 188.26V182.81C111.462 153.96 103.542 125.93 94.6719 94.4805C164.322 154.01 99.0119 188.26 99.0119 188.26Z" fill="#DCEAE8"/>
<g style="mix-blend-mode:screen">
<path d="M99.01 186.28C108.84 156.02 106.05 131.15 95.75 98.3496C149.28 147.33 111.04 178.4 99.01 186.28Z" fill="white"/>
</g>
<g style="mix-blend-mode:multiply">
<path d="M99.0117 188.261C99.0117 188.261 103.552 185.881 108.972 181.281C107.692 177.231 105.432 173.591 103.262 169.971C102.242 174.221 100.852 178.491 99.0117 182.821V188.271V188.261Z" fill="#DCEAE8"/>
</g>
<g style="mix-blend-mode:screen">
<path d="M73.1519 56.55C72.3919 55.52 66.9719 48.1 66.0819 46.89C65.5619 47.91 71.6419 32.28 78.1519 19C78.1519 19 87.7419 40.2 73.1519 56.55Z" fill="#DCEAE8"/>
</g>
<path d="M71.902 54.8503L66.082 46.8903C66.082 46.8903 69.222 37.8903 76.802 21.8203C78.742 28.0403 81.672 42.5703 71.902 54.8403V54.8503Z" fill="#EEB8AE"/>
<g style="mix-blend-mode:screen">
<path d="M65.6527 54.0297C64.4627 53.5497 55.9627 50.0797 54.5627 49.5097C54.6527 50.6497 51.6427 34.1597 50.2227 19.4297C50.2227 19.4297 69.5027 32.4597 65.6527 54.0297Z" fill="#DCEAE8"/>
</g>
<path d="M63.7025 53.2291L54.5725 49.5091C54.5725 49.5091 52.5225 40.1991 50.5625 22.5391C55.4725 26.8191 65.5825 37.6591 63.7025 53.2291Z" fill="#EEB8AE"/>
<path d="M78.4718 161.041C68.9818 143.451 47.5218 173.341 79.9718 184.961C79.9718 184.961 61.0518 176.181 59.2618 185.841C59.0218 187.111 60.0418 188.271 61.3318 188.271C97.6218 188.231 88.1018 192.431 78.4718 161.041Z" fill="#DCEAE8"/>
<g style="mix-blend-mode:multiply">
<path d="M78.4718 161.041C68.9818 143.451 47.5218 173.341 79.9718 184.961C79.9718 184.961 61.0518 176.181 59.2618 185.841C59.0218 187.111 60.0418 188.271 61.3318 188.271C97.6218 188.231 88.1018 192.431 78.4718 161.041Z" fill="#DCEAE8"/>
</g>
<path d="M43.2525 145.85L50.4525 184.37C50.4525 184.37 43.3025 183.68 40.6725 186.35C39.9725 187.06 40.4625 188.26 41.4625 188.26H52.0725C53.2425 188.26 54.1925 187.31 54.1925 186.14V143.51L43.2425 145.84L43.2525 145.85Z" fill="#DCEAE8"/>
<g style="mix-blend-mode:multiply">
<path d="M51.08 162.84C52.1 163.59 53.15 164.31 54.2 165.03V143.51L43.25 145.84L45.48 157.78C47.08 159.73 49.05 161.35 51.08 162.83V162.84Z" fill="#DCEAE8"/>
</g>
<path d="M95.3997 188.26H77.4897C51.2297 148.71 21.3597 153.33 46.2597 102.66C44.9497 103.03 43.6697 103.49 42.4197 104.03C43.3697 101.21 44.9497 98.5995 46.9997 96.4395C45.6997 97.2295 44.4597 98.1295 43.2997 99.1195C44.7897 95.1995 46.7597 91.0395 50.1497 88.4195C48.8497 88.6395 47.5897 89.0495 46.4197 89.6495C48.0697 86.1495 51.7897 84.2595 54.5197 81.6395C40.8497 82.3795 24.0197 82.3595 20.2297 67.8695C19.5697 64.4395 21.8897 60.5595 25.2197 60.1595C31.2397 60.4795 44.4997 62.8595 46.6097 58.4195C48.6097 53.3695 52.3297 44.7695 58.7397 43.4895C65.4197 41.7095 72.8997 45.8095 74.4397 53.2595L100.97 181.41C101.7 184.94 98.9996 188.26 95.3896 188.26H95.3997Z" fill="#DCEAE8"/>
<g style="mix-blend-mode:screen">
<path d="M98.0226 181.82L71.4926 53.6803C70.1726 47.3203 64.5326 43.3903 58.7526 43.5003C52.3426 44.7903 48.6226 53.3803 46.6226 58.4303C44.4926 62.9003 31.2826 60.4803 25.2326 60.1703C21.9026 60.5703 19.5926 64.4503 20.2426 67.8703C24.0326 82.3703 40.8426 82.3703 54.5326 81.6403V81.6603C57.8626 81.3803 66.7926 74.1803 67.2926 80.6103C64.0626 86.9503 55.7026 87.9903 49.3426 89.0503C46.5326 91.8203 44.6426 95.4403 43.3126 99.1203C44.4726 98.1203 45.7126 97.2203 47.0126 96.4403C44.9526 98.6003 43.3826 101.2 42.4326 104.03C43.6826 103.49 44.9626 103.04 46.2726 102.66C21.3826 153.45 51.2226 148.63 77.5026 188.26H94.5626C97.0326 187.28 98.6026 184.62 98.0226 181.82Z" fill="white"/>
</g>
<g style="mix-blend-mode:multiply">
<path d="M100.693 184.14C94.573 175.94 89.153 167.16 83.463 158.77C80.093 156.27 74.673 158.16 72.653 161.59C70.043 166.96 72.843 173.4 76.173 177.82C76.283 177.96 76.213 178.16 76.023 178.17C74.243 178.3 72.473 178.52 70.793 179.18C73.113 182.01 75.363 185.02 77.483 188.26H95.393C97.963 188.26 100.073 186.57 100.803 184.32C100.763 184.26 100.723 184.2 100.683 184.14H100.693Z" fill="#DCEAE8"/>
</g>
<path d="M35.2405 65.4395C34.5605 65.4395 34.5605 66.4995 35.2405 66.4995C35.9205 66.4995 35.9205 65.4395 35.2405 65.4395Z" fill="#482930"/>
<path d="M36.2209 64.0391C35.5409 64.0391 35.5409 65.0991 36.2209 65.0991C36.9009 65.0991 36.9009 64.0391 36.2209 64.0391Z" fill="#482930"/>
<path d="M37.2287 65.6387C36.5487 65.6387 36.5487 66.6987 37.2287 66.6987C37.9088 66.6987 37.9088 65.6387 37.2287 65.6387Z" fill="#482930"/>
<path d="M52.3899 58.5295C51.8899 54.7695 48.4399 58.5295 49.8599 60.6495C51.1799 62.5595 52.6499 59.9695 52.3899 58.5295Z" fill="#482930"/>
<path d="M62.4017 58.5295C61.9017 54.7695 58.4517 58.5295 59.8717 60.6495C61.1917 62.5595 62.6617 59.9695 62.4017 58.5295Z" fill="#482930"/>
<g style="mix-blend-mode:screen">
<path d="M84.8826 142.551C71.0926 147.901 65.5626 171.401 59.7926 183.211C62.9026 182.891 70.3926 186.361 65.5126 188.271H56.4026C55.0226 188.271 53.9826 187.021 54.2326 185.671L65.2326 125.631C66.8726 127.041 83.8026 141.621 84.8826 142.561V142.551Z" fill="#DCEAE8"/>
</g>
<g style="mix-blend-mode:screen">
<path d="M65.2308 125.619L83.2808 141.169C70.1608 147.809 64.1908 171.059 58.3808 183.199C61.4908 182.879 68.9808 186.349 64.1008 188.259H56.3908C55.0108 188.259 53.9708 187.009 54.2208 185.659L65.2208 125.619H65.2308Z" fill="white"/>
</g>
<path d="M99.0102 188.26H75.3801C74.0901 188.26 73.0801 187.1 73.3101 185.83C75.3201 178.12 85.8801 182.03 91.0901 183.75C63.8701 172.75 81.8601 143.87 92.5201 161.03L101.24 185.08C101.8 186.62 100.65 188.26 99.0102 188.26Z" fill="#DCEAE8"/>
<g style="mix-blend-mode:screen">
<path d="M97.4898 188.259H75.3798C70.1198 186.889 75.6398 180.679 79.3098 181.319C83.5698 180.839 89.8598 183.289 91.0898 183.759C64.7398 173.499 81.2598 144.129 90.9998 161.039L99.7198 185.089C100.28 186.629 99.1298 188.269 97.4898 188.269V188.259Z" fill="white"/>
</g>
<path d="M33.1113 62.6194C31.9313 71.5394 19.9313 72.1894 19.0013 62.6194C18.8413 55.9394 33.2613 55.9394 33.1113 62.6194Z" fill="#482930"/>
<path d="M35.4297 80.7808C35.4297 80.7808 40.0897 79.9408 42.6497 77.5608C48.7397 73.0808 56.2197 81.4108 62.1597 70.0508" stroke="#553C42" stroke-width="1.38" stroke-linecap="round" stroke-linejoin="round"/>
<path d="M60.6094 69.0293C60.6094 69.0293 62.3994 69.1793 63.4494 70.7393" stroke="#553C42" stroke-width="1.38" stroke-linecap="round" stroke-linejoin="round"/>
<path d="M47.6797 102.361L49.6197 100.941C49.6197 100.941 51.0397 103.701 51.7097 103.811L54.2697 100.941C55.9297 102.351 59.2797 103.291 60.6097 100.461" stroke="#DCEAE8" stroke-width="1.38" stroke-linecap="round" stroke-linejoin="round"/>
<path d="M43.8828 113.541L46.7928 112.091C47.6528 116.211 53.4428 114.721 55.1828 113.491L57.4228 114.891L59.1428 112.991C62.1528 117.151 69.2228 112.531 70.3928 110.141" stroke="#DCEAE8" stroke-width="1.38" stroke-linecap="round" stroke-linejoin="round"/>
<path d="M58.1523 164.291C58.1523 164.291 62.1923 138.141 65.7623 131.881" stroke="#DCEAE8" stroke-width="1.38" stroke-linecap="round" stroke-linejoin="round"/>
<path d="M64.8594 171.201C64.8594 171.201 73.6294 149.161 80.2794 145.391" stroke="#DCEAE8" stroke-width="1.38" stroke-linecap="round" stroke-linejoin="round"/>
<path d="M196.35 184.965C210.349 188.132 213.571 183.052 216.369 170.642C218.148 162.775 241.882 57.7455 243.382 51.0874C244.881 44.4293 245.172 37.6593 230.815 34.4142C216.458 31.169 148.658 15.8498 143.22 14.6189C137.781 13.388 131.481 13.0747 129.288 22.7541C127.095 32.4335 104.77 131.275 101.447 145.946C99.6342 153.958 97.4521 162.619 109.112 165.248C118.803 167.442 186.245 182.683 196.339 184.954L196.35 184.965Z" fill="#667A8F"/>
<path d="M135.924 24.8145C135.924 24.8145 204.811 38.153 235.505 47.3177C235.505 47.3177 214.356 155 211.178 169.077C209.6 176.071 199.864 179.416 187.41 177.134C162.971 172.658 133.765 166.772 106.215 157.741C106.215 157.741 110.254 127.181 135.936 24.8256L135.924 24.8145Z" fill="white"/>
<path d="M211.178 169.076C207.687 176.081 201.196 171.818 201.196 171.818C198.914 178.006 187.41 177.133 187.41 177.133C199.865 179.416 209.6 176.07 211.178 169.076Z" fill="#C6D2D8"/>
<path d="M120.676 132.998C120.676 132.998 141.836 136.512 170.919 144.356" stroke="#9DAEBD" stroke-width="3" stroke-linecap="round" stroke-linejoin="round"/>
<path d="M119.336 138.93C119.336 138.93 134.745 141.929 145.23 144.782" stroke="#9DAEBD" stroke-width="3" stroke-linecap="round" stroke-linejoin="round"/>
<path d="M169.622 150.075C169.622 150.075 154.896 147.02 149.312 145.699" stroke="#9DAEBD" stroke-width="3" stroke-linecap="round" stroke-linejoin="round"/>
<path d="M117.801 145.732C117.801 145.732 149.748 154.226 168.044 157.09" stroke="#9DAEBD" stroke-width="3" stroke-linecap="round" stroke-linejoin="round"/>
<path d="M192.514 166.3C196.151 167.117 199.777 165.886 200.683 160.269C201.377 155.972 205.528 148.094 198.87 146.583C194.025 145.487 191.753 144.972 190.243 144.636C184.793 143.405 183.372 145.912 182.085 150.489C180.653 155.569 177.822 162.294 184.334 164.454C186.55 165.181 190.467 165.841 192.503 166.3H192.514Z" fill="#E1E9EC"/>
<path d="M204.645 149.427C199.24 148.252 193.511 151.195 189.807 155.268C188.722 153.489 186.685 151.531 185.499 150.758C183.552 149.505 179.557 149.337 181.213 151.945C182.019 153.209 183.171 154.507 184.615 157.014C187.2 161.523 188.811 164.142 190.646 162.508C193.108 160.315 194.149 159.442 196.264 157.584C199.363 154.865 201.702 154.295 204.567 152.817C206.973 151.575 206.592 149.852 204.645 149.427Z" fill="#E1564F"/>
<path d="M125.594 111.227C125.594 111.227 136.929 113.308 144.617 115.524" stroke="#9DAEBD" stroke-width="3" stroke-linecap="round" stroke-linejoin="round"/>
<path d="M175.88 122.371C175.88 122.371 153.635 117.402 148.051 116.082" stroke="#9DAEBD" stroke-width="3" stroke-linecap="round" stroke-linejoin="round"/>
<path d="M127.027 104.859C127.027 104.859 142.436 107.858 152.921 110.712" stroke="#9DAEBD" stroke-width="3" stroke-linecap="round" stroke-linejoin="round"/>
<path d="M177.314 116.006C177.314 116.006 162.588 112.951 157.004 111.631" stroke="#9DAEBD" stroke-width="3" stroke-linecap="round" stroke-linejoin="round"/>
<path d="M124.051 118.029C124.051 118.029 138.956 121.789 157.666 125.627" stroke="#9DAEBD" stroke-width="3" stroke-linecap="round" stroke-linejoin="round"/>
<path d="M160.363 126.322C160.363 126.322 171.911 128.773 174.877 129.69" stroke="#9DAEBD" stroke-width="3" stroke-linecap="round" stroke-linejoin="round"/>
<path d="M188.348 122.047C189.165 118.411 191.85 115.669 197.3 117.258C201.474 118.478 210.381 118.12 208.87 124.778L206.923 133.405C205.692 138.855 202.816 139.056 198.128 138.262C192.924 137.367 185.64 137.031 186.49 130.227C186.781 127.911 187.878 124.095 188.336 122.059L188.348 122.047Z" fill="#E1E9EC"/>
<path d="M210.77 122.249C205.365 121.074 199.636 124.017 195.932 128.09C194.847 126.311 192.81 124.353 191.624 123.581C189.677 122.327 185.682 122.16 187.338 124.767C188.144 126.031 189.296 127.329 190.74 129.836C193.325 134.346 194.936 136.964 196.771 135.33C199.233 133.137 200.274 132.264 202.389 130.407C205.488 127.688 207.827 127.117 210.692 125.64C213.098 124.398 212.717 122.674 210.77 122.249Z" fill="#E1564F"/>
<path d="M130.121 91.1934C130.121 91.1934 151.282 94.707 180.365 102.551" stroke="#9DAEBD" stroke-width="3" stroke-linecap="round" stroke-linejoin="round"/>
<path d="M182.023 95.2124C182.023 95.2124 178.61 94.8544 168.125 91.9785" stroke="#9DAEBD" stroke-width="3" stroke-linecap="round" stroke-linejoin="round"/>
<path d="M131.754 83.9414C131.754 83.9414 140.885 85.6982 146.469 87.0299" stroke="#9DAEBD" stroke-width="3" stroke-linecap="round" stroke-linejoin="round"/>
<path d="M183.6 88.2062C183.6 88.2062 151.786 79.2206 133.535 76.0762" stroke="#9DAEBD" stroke-width="3" stroke-linecap="round" stroke-linejoin="round"/>
<path d="M148.953 87.5781C148.953 87.5781 163.03 90.8344 165.749 91.4387" stroke="#9DAEBD" stroke-width="3" stroke-linecap="round" stroke-linejoin="round"/>
<path d="M209.569 90.8242C213.206 91.6411 215.947 94.3267 214.358 99.7763C213.139 103.95 213.497 112.857 206.839 111.347L198.211 109.4C192.762 108.169 192.56 105.293 193.355 100.604C194.25 95.4009 194.586 88.1162 201.389 88.9667C203.694 89.2576 207.521 90.3542 209.558 90.813L209.569 90.8242Z" fill="#E1E9EC"/>
<path d="M217.11 94.2472C211.705 93.0722 205.976 96.0152 202.272 100.088C201.187 98.3092 199.15 96.3509 197.964 95.5788C196.017 94.3255 192.022 94.1577 193.678 96.765C194.484 98.0294 195.636 99.3275 197.08 101.834C199.665 106.344 201.276 108.962 203.111 107.328C205.573 105.135 206.614 104.262 208.729 102.405C211.828 99.6856 214.167 99.1149 217.032 97.6378C219.438 96.3957 219.057 94.6724 217.11 94.2472Z" fill="#E1564F"/>
<path d="M188.236 67.6958C188.236 67.6958 180.1 65.1445 137.992 56.3379" stroke="#9DAEBD" stroke-width="3" stroke-linecap="round" stroke-linejoin="round"/>
<path d="M136.492 62.9863C136.492 62.9863 151.901 65.9853 162.386 68.8387" stroke="#9DAEBD" stroke-width="3" stroke-linecap="round" stroke-linejoin="round"/>
<path d="M186.779 74.1292C186.779 74.1292 172.053 71.0743 166.469 69.7539" stroke="#9DAEBD" stroke-width="3" stroke-linecap="round" stroke-linejoin="round"/>
<path d="M189.755 60.9595C189.755 60.9595 157.807 52.4662 139.512 49.6016" stroke="#9DAEBD" stroke-width="3" stroke-linecap="round" stroke-linejoin="round"/>
<path d="M220.906 71.1085C221.722 67.4718 220.492 63.8462 214.874 62.9398C210.577 62.246 202.699 58.0945 201.189 64.7526L199.242 73.3801C198.011 78.8297 200.517 80.2508 205.094 81.5377C210.174 82.97 216.9 85.8011 219.059 79.2885C219.787 77.0729 220.447 73.1563 220.906 71.1197V71.1085Z" fill="#E1E9EC"/>
<path d="M223.208 67.2589C217.803 66.084 212.074 69.0269 208.37 73.1001C207.284 71.3209 205.248 69.3626 204.061 68.5905C202.114 67.3372 198.12 67.1694 199.776 69.7767C200.581 71.0412 201.734 72.3392 203.177 74.8458C205.762 79.3554 207.374 81.9738 209.209 80.3401C211.671 78.1468 212.711 77.274 214.826 75.4165C217.926 72.6973 220.265 72.1266 223.129 70.6495C225.535 69.4074 225.155 67.6841 223.208 67.2589Z" fill="#E1564F"/>
<path d="M162.196 25.1369C156.747 23.906 156.489 25.9091 156.098 27.0057C155.706 28.1023 155.717 28.9863 155.236 30.8215C154.43 33.9211 159.947 35.1073 162.163 35.6108L174.986 38.5091C181.186 39.9078 180.324 43.7572 184.386 44.6748C188.952 45.7043 190.977 41.7878 195.621 43.1529C200.757 44.6636 206.464 45.9057 208.266 46.3085C210.067 46.7114 215.864 48.1213 216.636 44.6972C217.027 42.9851 217.386 41.6199 217.587 40.8254C218.326 37.8153 215.517 37.3005 211.544 36.4053" stroke="#C6D2D8" stroke-width="3" stroke-miterlimit="10" stroke-linecap="round"/>
<path d="M184.588 32.3204C207.46 37.009 214.533 41.5858 215.528 37.1881C216.043 34.9389 212.418 34.3682 205.636 32.8352C198.855 31.3021 188.214 28.6613 177.147 26.1659C162.353 22.82 160.44 22.1374 159.88 24.5881C159.321 27.0387 161.771 27.6542 184.577 32.3204H184.588Z" fill="#EE7B71"/>
</svg>
