<svg width="40" height="40" viewBox="0 0 40 40" fill="none" xmlns="http://www.w3.org/2000/svg">
<path d="M36 16.7466L35.6204 16.2195L21.5961 6.18997C20.9646 5.75227 20.2205 6.11312 20.0828 6.8415L20.0778 12.1198C14.9434 12.5408 10.1843 15.3934 7.40066 19.7152C5.14584 23.2152 4.16233 27.6406 4.02719 31.7812C4.0055 32.4453 3.85452 33.6231 4.59194 33.9087C5.93915 34.43 5.98921 32.5848 6.24614 31.7528C7.66426 27.1662 11.5916 23.7047 16.1922 22.5168C17.4643 22.1886 18.769 22.0416 20.077 21.9363V27.2196C20.077 27.2622 20.2196 27.537 20.2639 27.5955C20.5525 27.9806 21.1406 28.0616 21.5327 27.801L35.4953 17.835C35.7089 17.6754 35.8532 17.4624 36 17.2461V16.7457V16.7466Z" fill="#3B6683"/>
</svg>
