<svg width="233" height="250" viewBox="0 0 233 250" fill="none" xmlns="http://www.w3.org/2000/svg">
<path d="M99.044 82.5128C96.56 83.4285 96.3658 88.4137 98.8568 92.2659C101.317 96.069 106.094 99.3162 108.573 100.832C108.246 96.4685 107.686 89.8808 107.35 85.9819C104.655 83.6668 101.42 81.6368 99.044 82.5128Z" stroke="#F4911E" stroke-width="1.74" stroke-linejoin="round"/>
<path d="M220.779 174.224C220.835 173.83 232.041 177.493 232.561 176.488C233.199 175.255 220.66 172.021 220.866 171.318C221.071 170.615 229.419 173.215 229.838 172.353C230.161 171.683 223.906 169.083 218.159 167.417C218.159 167.417 218.155 167.417 218.152 167.417C215.533 166.658 213.021 166.095 211.285 165.994C204.301 164.093 203.496 162.025 203.496 162.025C203.496 162.025 186.897 172.841 195.588 173.816C201.791 174.512 204.013 176.549 204.778 177.658C204.895 177.904 205.021 178.151 205.157 178.399C206.149 180.212 207.622 182.034 209.33 183.664C212.77 186.954 209.849 190.322 211.617 189.491C213.386 188.659 213.271 182.821 213.837 181.697C215.512 178.376 230.956 183.057 231.372 181.947C231.978 180.338 219.904 177.607 220.024 176.997C220.143 176.388 232.593 180.786 232.989 179.429C233.447 177.855 220.718 174.619 220.774 174.227L220.779 174.224Z" fill="#AD6447"/>
<path d="M86.4297 219.938C86.4063 219.908 86.3829 219.878 86.3571 219.85C86.418 221.557 85.5198 225.552 78.2947 232.233C68.9738 240.851 64.2304 244.895 62.2656 243.472C62.2656 243.549 62.268 243.619 62.2726 243.685C62.4457 245.899 64.3637 246.432 65.3391 246.121C70.8801 244.355 86.1443 230.546 88.3921 223.917C88.6447 223.174 87.1781 220.861 86.4297 219.938Z" fill="#FDF9F1"/>
<path d="M78.287 207.934C75.6931 203.619 73.8733 200.199 73.8733 200.199C73.8733 200.199 47.8077 209.92 49.7608 212.195C50.7455 213.344 54.5533 218.201 58.0829 222.731C61.2522 220.836 73.2324 213.501 78.287 207.934Z" fill="#AD6447"/>
<path d="M81.2886 212.737C80.2221 211.097 79.2093 209.461 78.2901 207.934C73.2379 213.5 61.2553 220.836 58.0859 222.73C59.4051 224.424 60.6845 226.071 61.7652 227.463C65.7134 224.992 76.5803 217.976 81.2863 212.737H81.2886Z" fill="#FD8051"/>
<path d="M82.8703 215.107C82.3346 214.325 81.8037 213.531 81.2868 212.736C76.5784 217.978 65.7138 224.994 61.7656 227.463C63.5199 229.724 64.7478 231.31 64.7478 231.31C64.7478 231.31 62.2545 240.891 62.2685 243.47C64.2332 244.892 68.9767 240.849 78.2976 232.231C81.0201 229.715 82.8422 227.58 84.0561 225.802C81.0412 221.609 82.1592 217.053 82.8703 215.107Z" fill="#3B6683"/>
<path d="M82.8708 215.108C82.1598 217.056 81.0418 221.611 84.0567 225.802C86.0636 222.864 86.398 220.911 86.3606 219.845C85.2005 218.409 84.0193 216.785 82.8708 215.105V215.108Z" fill="#FDF9F1"/>
<path d="M65.6521 232.751C65.6521 232.751 65.6334 232.744 65.596 232.705C65.5585 232.667 65.4907 232.592 65.4229 232.485C65.3106 232.31 65.1586 232.051 64.9948 231.709C64.6674 231.027 64.2768 230.006 64.0125 228.703C63.7482 227.402 63.5985 225.818 63.7552 224.07C63.8394 223.197 63.9914 222.283 64.3165 221.361C64.4849 220.9 64.6908 220.433 65.0299 219.994C65.2007 219.777 65.4182 219.56 65.7199 219.405C66.0193 219.249 66.4474 219.214 66.7725 219.352C67.1046 219.475 67.3315 219.686 67.5256 219.891C67.7151 220.097 67.8648 220.328 67.9981 220.564C68.2601 221.038 68.3957 221.541 68.4753 222.024C68.5571 222.51 68.5805 222.987 68.5688 223.444C68.5641 223.905 68.5197 224.348 68.4682 224.776C68.232 226.486 67.7806 227.951 67.3596 229.147C66.4988 231.537 65.7269 232.868 65.6544 232.754C65.5656 232.637 66.1807 231.102 66.8801 228.609C67.2169 227.364 67.5864 225.872 67.7127 224.218C67.7361 223.807 67.7525 223.384 67.7244 222.963C67.7011 222.54 67.6472 222.115 67.528 221.713C67.4134 221.309 67.2403 220.928 66.9923 220.608C66.866 220.447 66.7234 220.309 66.583 220.225C66.4403 220.141 66.3281 220.125 66.2111 220.148C66.0918 220.179 65.9491 220.272 65.8182 220.41C65.6872 220.548 65.5679 220.721 65.465 220.905C65.2545 221.277 65.0978 221.692 64.9715 222.111C64.7212 222.949 64.5879 223.804 64.5154 224.617C64.375 226.25 64.4896 227.736 64.6884 228.951C64.8849 230.17 65.1773 231.123 65.3855 231.768C65.4393 231.929 65.486 232.069 65.5281 232.193C65.5679 232.317 65.6077 232.424 65.61 232.478C65.6194 232.618 65.6568 232.742 65.6498 232.751H65.6521Z" fill="#FD6C39"/>
<path d="M65.6493 232.754C65.5722 232.863 64.0425 232.842 61.652 232.497C60.4568 232.317 59.0441 232.064 57.512 231.59C56.7472 231.345 55.9472 231.058 55.166 230.569C54.7824 230.317 54.3825 230.016 54.0995 229.525C53.9591 229.28 53.8702 228.983 53.8843 228.663C53.8843 228.502 53.931 228.329 54.0012 228.173C54.0761 228.018 54.1813 227.881 54.2983 227.773C54.5345 227.553 54.7941 227.441 55.0421 227.357C55.2923 227.275 55.5356 227.231 55.7765 227.205C56.256 227.156 56.7144 227.173 57.1565 227.222C58.0406 227.322 58.8616 227.551 59.6101 227.843C61.1117 228.448 62.2625 229.301 63.163 230.048C64.0635 230.803 64.7114 231.483 65.1278 231.964C65.5418 232.448 65.7219 232.737 65.654 232.754C65.5862 232.77 65.2821 232.515 64.7559 232.078C64.2296 231.642 63.4834 231.016 62.5174 230.333C62.0356 229.99 61.4953 229.644 60.8965 229.313C60.2978 228.983 59.6475 228.679 58.9248 228.458C58.2067 228.233 57.4255 228.072 56.6279 228.042C56.2326 228.03 55.8256 228.049 55.4654 228.142C55.2853 228.189 55.1169 228.254 54.9929 228.336C54.8643 228.42 54.8035 228.511 54.7731 228.605C54.7497 228.7 54.759 228.852 54.8105 228.988C54.8643 229.126 54.9602 229.263 55.0842 229.394C55.3298 229.656 55.6642 229.878 56.0104 230.069C56.7074 230.45 57.4606 230.721 58.181 230.955C59.6288 231.413 60.9761 231.707 62.0988 231.948C64.3512 232.415 65.7336 232.637 65.654 232.756L65.6493 232.754Z" fill="#FD6C39"/>
<path d="M194.779 216.029C194.741 216.032 194.701 216.034 194.664 216.039C196.112 216.95 198.912 219.94 200.374 229.665C202.259 242.21 202.935 248.403 200.65 249.225C200.713 249.267 200.773 249.307 200.83 249.337C202.759 250.442 204.28 249.157 204.57 248.178C206.228 242.611 203.393 222.236 199.174 216.651C198.701 216.025 195.962 215.934 194.779 216.032V216.029Z" fill="#FDF9F1"/>
<path d="M180.264 215.996C175.233 215.708 171.378 215.283 171.378 215.283C171.378 215.283 158.074 241.419 163.678 241.492C166.969 241.534 175.401 241.365 181.137 241.003C181.352 237.322 182.028 223.301 180.264 215.996Z" fill="#AD6447"/>
<path d="M185.928 216.225C183.973 216.183 182.046 216.099 180.266 215.996C182.027 223.301 181.353 237.322 181.138 241.004C183.283 240.868 185.367 240.74 187.126 240.63C187.304 235.979 187.615 223.06 185.928 216.225Z" fill="#FD8051"/>
<path d="M188.783 216.255C187.834 216.255 186.879 216.248 185.93 216.227C187.616 223.064 187.305 235.983 187.127 240.632C189.985 240.456 191.99 240.335 191.99 240.335C191.99 240.335 198.513 247.787 200.656 249.226C202.941 248.406 202.263 242.213 200.38 229.666C199.83 226.003 199.089 223.296 198.303 221.294C193.136 221.422 189.995 217.937 188.786 216.252L188.783 216.255Z" fill="#3B6683"/>
<path d="M188.784 216.254C189.995 217.938 193.136 221.423 198.301 221.295C196.998 217.985 195.571 216.609 194.668 216.041C192.825 216.191 190.819 216.251 188.781 216.254H188.784Z" fill="#FDF9F1"/>
<path d="M193.69 240.397C193.69 240.397 193.673 240.409 193.619 240.418C193.566 240.428 193.47 240.442 193.339 240.437C193.131 240.432 192.831 240.411 192.457 240.353C191.708 240.239 190.644 239.986 189.416 239.47C188.191 238.956 186.794 238.187 185.438 237.076C184.762 236.515 184.09 235.875 183.51 235.085C183.225 234.688 182.954 234.256 182.781 233.726C182.696 233.462 182.64 233.16 182.682 232.824C182.722 232.487 182.933 232.116 183.23 231.924C183.52 231.719 183.821 231.651 184.1 231.607C184.378 231.567 184.652 231.574 184.921 231.595C185.461 231.646 185.952 231.817 186.397 232.025C186.846 232.231 187.253 232.48 187.625 232.747C188.003 233.008 188.343 233.296 188.67 233.581C189.954 234.739 190.908 235.936 191.664 236.956C193.156 239.012 193.825 240.4 193.69 240.395C193.545 240.402 192.618 239.031 190.951 237.052C190.111 236.073 189.082 234.929 187.786 233.894C187.458 233.641 187.119 233.392 186.754 233.177C186.392 232.957 186.008 232.763 185.608 232.635C185.211 232.501 184.797 232.429 184.392 232.455C184.189 232.469 183.994 232.508 183.845 232.576C183.695 232.646 183.618 232.728 183.573 232.84C183.531 232.955 183.529 233.125 183.569 233.312C183.609 233.497 183.686 233.693 183.779 233.884C183.969 234.268 184.224 234.63 184.497 234.971C185.049 235.651 185.683 236.242 186.315 236.758C187.587 237.793 188.881 238.533 189.999 239.054C191.119 239.577 192.071 239.874 192.724 240.066C192.887 240.112 193.03 240.152 193.156 240.187C193.28 240.225 193.39 240.253 193.439 240.281C193.561 240.353 193.685 240.39 193.687 240.4L193.69 240.397Z" fill="#FD6C39"/>
<path d="M193.691 240.4C193.737 240.524 192.86 241.776 191.228 243.556C190.407 244.441 189.401 245.465 188.147 246.464C187.513 246.957 186.826 247.457 185.981 247.826C185.556 248.002 185.083 248.163 184.517 248.118C184.236 248.095 183.939 248.002 183.682 247.812C183.549 247.719 183.432 247.586 183.343 247.439C183.259 247.289 183.203 247.126 183.179 246.969C183.13 246.651 183.184 246.373 183.254 246.121C183.329 245.869 183.427 245.642 183.542 245.43C183.769 245.007 184.042 244.638 184.332 244.299C184.915 243.626 185.565 243.077 186.227 242.624C187.572 241.725 188.926 241.255 190.051 240.933C191.181 240.613 192.109 240.463 192.741 240.388C193.375 240.318 193.716 240.332 193.691 240.398C193.667 240.463 193.284 240.571 192.626 240.76C191.969 240.947 191.031 241.213 189.922 241.624C189.368 241.827 188.776 242.08 188.166 242.388C187.555 242.696 186.938 243.063 186.348 243.535C185.759 244.002 185.184 244.556 184.711 245.198C184.477 245.518 184.267 245.864 184.14 246.217C184.077 246.392 184.038 246.567 184.035 246.717C184.033 246.871 184.073 246.971 184.133 247.051C184.199 247.126 184.33 247.203 184.47 247.235C184.615 247.268 184.784 247.266 184.961 247.24C185.317 247.184 185.689 247.032 186.04 246.855C186.746 246.492 187.396 246.025 187.993 245.563C189.186 244.626 190.189 243.68 191.019 242.888C192.673 241.29 193.637 240.276 193.691 240.407V240.4Z" fill="#FD6C39"/>
<path d="M84.7307 129.36C84.7307 129.36 47.6836 120.007 31.9399 137.074C14.332 156.165 37.4318 204.617 51.2646 214.375L76.8109 201.356C76.8109 201.356 57.3763 172.783 63.6892 163.411C70.0022 154.039 97.5764 163.995 97.5764 163.995C97.5764 163.995 88.1269 198.632 106.38 220.231C124.636 241.833 163.042 243.52 163.042 243.52L176.257 214.555C176.257 214.555 142.915 213.737 133.543 196.438C127.181 184.697 140.672 172.86 141.283 155.548C141.736 142.643 84.7284 129.36 84.7284 129.36H84.7307Z" fill="#FBEED1"/>
<path d="M141.195 140.617C141.195 140.617 142.958 146.35 141.141 157.654C141.141 157.654 138.557 157.745 131.144 154.337C123.732 150.928 109.738 141.657 95.7742 138.795C81.8128 135.931 116.231 135.566 116.231 135.566L141.193 140.617H141.195Z" fill="#FD571C"/>
<path d="M39.582 207.532C39.582 207.532 60.7264 199.996 75.4059 192.145C75.4059 192.145 77.6864 195.684 79.6441 200.589C79.6441 200.589 59.571 211.933 47.455 216.736C47.455 216.736 40.8053 209.812 39.582 207.532Z" fill="#E5C1FD"/>
<path d="M108.111 59.0399C108.111 59.0399 108.399 57.2248 106.958 56.2483C105.518 55.2718 102.856 57.1547 101.581 60.0701C100.306 62.9855 101.179 65.8963 103.848 64.2424C106.514 62.5861 108.111 59.0399 108.111 59.0399Z" fill="#AD6447"/>
<g style="mix-blend-mode:multiply" opacity="0.3">
<path d="M108.111 59.0399C108.111 59.0399 108.399 57.2248 106.958 56.2483C105.518 55.2718 102.856 57.1547 101.581 60.0701C100.306 62.9855 101.179 65.8963 103.848 64.2424C106.514 62.5861 108.111 59.0399 108.111 59.0399Z" fill="#AD6447"/>
</g>
<path d="M31.6998 41.7988C31.6998 41.7988 21.0598 46.9639 15.9023 59.8029C15.9023 59.8029 28.5866 62.7791 31.6998 41.7988Z" fill="#FD571C"/>
<path d="M17.7101 53.4639C8.81496 50.1467 0.888149 41.613 1.56178 40.7697C1.88222 40.3679 10.5949 45.8413 11.7527 46.11C11.7527 46.11 4.10893 42.0896 1.70913 37.8496C-0.669613 33.6447 8.85706 42.0919 12.0685 42.6689C6.62567 40.202 2.64239 36.4106 2.70554 35.5299C2.79442 34.2684 7.51916 37.4011 7.51916 37.4011C7.2151 36.4456 9.21727 34.8945 13.2707 37.2633C15.4202 38.5201 12.679 38.7583 12.679 38.7583C12.679 38.7583 17.1511 41.1505 18.9381 40.4053C20.7251 39.6601 11.058 35.7962 16.5757 36.4737C22.091 37.1535 23.9318 39.6063 25.5597 40.1717C27.1877 40.737 34.1134 51.8544 34.1134 51.8544C34.1134 51.8544 31.0938 66.5249 25.0943 66.4595C23.0453 66.4385 21.387 54.8328 17.7101 53.4616V53.4639Z" fill="#AD6447"/>
<path d="M7.51918 37.4013C7.5987 37.4013 7.71799 37.7587 8.08521 38.1956C8.44541 38.6371 9.06057 39.1394 9.82074 39.5785C10.5762 40.0224 11.306 40.3471 11.8276 40.5877C12.3492 40.826 12.6673 40.9755 12.6345 41.0409C12.5994 41.104 12.2112 41.0666 11.6241 40.8984C11.0393 40.7302 10.2511 40.4335 9.45585 39.9546C9.06057 39.714 8.7027 39.4477 8.41033 39.1674C8.11562 38.8894 7.89108 38.5951 7.73904 38.3264C7.43497 37.7821 7.45602 37.3873 7.51918 37.3966V37.4013Z" fill="#FD9067"/>
<path d="M9.38362 37.8625C9.49122 37.7317 10.4502 38.325 11.7366 38.4091C12.3752 38.4629 12.9529 38.3881 13.3669 38.3157C13.7809 38.2433 14.0335 38.1755 14.0569 38.2456C14.0803 38.311 13.8464 38.5119 13.4043 38.6801C12.9693 38.853 12.3167 38.9768 11.6057 38.9114C10.8946 38.8483 10.2865 38.5984 9.90755 38.3554C9.80932 38.3017 9.72511 38.2433 9.65728 38.1849C9.58711 38.1288 9.53098 38.0798 9.48654 38.0354C9.39766 37.9489 9.36257 37.8882 9.38596 37.8625H9.38362Z" fill="#FD9067"/>
<path d="M22.2465 45.5017C22.2207 45.5274 22.0757 45.483 21.8371 45.3802C21.7763 45.3522 21.7108 45.3241 21.6383 45.2914C21.5705 45.2494 21.4956 45.2073 21.4185 45.1606C21.3389 45.1116 21.2571 45.0602 21.1682 45.0041C21.0816 44.948 20.9998 44.8733 20.9086 44.8032C20.5437 44.5229 20.1601 44.1141 19.8373 43.5978C19.5145 43.0815 19.2596 42.4531 19.1192 41.7756C19.0467 41.4369 19.007 41.1052 18.9766 40.7875C18.9625 40.6333 18.9508 40.4815 18.9368 40.3343C18.9298 40.2665 18.9228 40.1918 18.9064 40.1591C18.9017 40.1194 18.8666 40.0656 18.8409 40.0166C18.7169 39.8133 18.5251 39.6288 18.3474 39.4653C18.1673 39.2994 17.9848 39.1569 17.8188 39.0261C17.1451 38.5122 16.7124 38.2201 16.7709 38.1687C16.8247 38.122 17.3603 38.3206 18.1298 38.8042C18.3216 38.9256 18.5275 39.0681 18.7356 39.241C18.8409 39.3274 18.9462 39.4256 19.0491 39.533C19.1005 39.5914 19.1496 39.6522 19.2011 39.7152C19.2479 39.7877 19.2947 39.8577 19.3344 39.9442C19.3695 40.0376 19.4023 40.1427 19.4093 40.2152C19.4233 40.2969 19.4303 40.3717 19.4397 40.4488C19.4584 40.5983 19.4748 40.7524 19.4935 40.9066C19.5309 41.2127 19.5824 41.5257 19.6572 41.8364C19.8069 42.4601 20.0361 43.0254 20.3215 43.4903C20.6092 43.9529 20.9319 44.3336 21.236 44.614C21.5401 44.8943 21.8044 45.1069 21.9938 45.2424C22.1786 45.3825 22.2698 45.476 22.2418 45.4993L22.2465 45.5017Z" fill="#FD9067"/>
<path d="M15.775 49.7395C15.761 49.7068 15.8405 49.6017 16.0019 49.4381C16.1656 49.2816 16.3902 49.041 16.7246 48.8191C17.3562 48.3378 18.3432 47.7889 19.5361 47.5389C19.6858 47.5109 19.8308 47.4805 19.9758 47.4525C20.1209 47.4268 20.2659 47.4198 20.4085 47.4034C20.6916 47.366 20.9676 47.3777 21.2272 47.373C21.7464 47.3987 22.2119 47.4548 22.5861 47.5553C23.3416 47.7398 23.7439 48.0085 23.6948 48.0599C23.6457 48.1159 23.1756 47.9734 22.4154 47.8917C21.6576 47.7959 20.6074 47.8099 19.501 48.0645C19.2297 48.1463 18.9584 48.2094 18.7081 48.3005C18.4602 48.4009 18.2122 48.4733 17.9924 48.5808C17.7702 48.6859 17.5597 48.784 17.3632 48.8775C17.1737 48.9849 16.9983 49.0831 16.8346 49.1765C16.6685 49.2606 16.5282 49.354 16.4065 49.4335C16.2826 49.5129 16.175 49.5783 16.0838 49.6274C15.9037 49.7278 15.7961 49.7675 15.782 49.7348L15.775 49.7395Z" fill="#FD9067"/>
<path d="M11.5341 47.8888C11.499 47.8794 11.4616 47.7579 11.4265 47.543C11.3984 47.3281 11.3423 47.0197 11.3446 46.639C11.3072 45.8797 11.3867 44.8262 11.665 43.7095C11.9574 42.5952 12.4159 41.6491 12.8509 41.0464C13.2789 40.4367 13.6532 40.161 13.6859 40.2288C13.7187 40.2919 13.4403 40.6703 13.1035 41.3244C12.7714 41.9808 12.3761 42.9059 12.1258 43.9805C11.6089 46.1274 11.7072 47.9285 11.5317 47.8911L11.5341 47.8888Z" fill="#FD9067"/>
<path d="M17.0503 46.699C17.0175 46.7153 16.9474 46.6709 16.8445 46.5752C16.7439 46.4794 16.6035 46.3369 16.4679 46.1407C16.1802 45.7552 15.8504 45.1688 15.6375 44.4727C15.4177 43.7789 15.3522 43.1201 15.3756 42.6529C15.3943 42.1857 15.4949 41.9077 15.5627 41.9311C15.6305 41.9521 15.6633 42.2441 15.7405 42.6973C15.813 43.1505 15.9439 43.7602 16.1521 44.4073C16.5685 45.7038 17.1953 46.6266 17.0526 46.7013L17.0503 46.699Z" fill="#FD9067"/>
<path d="M18.2915 36.7645C18.3172 36.7342 18.5487 36.7599 18.951 36.8299C19.1522 36.865 19.3955 36.9117 19.6761 36.9678C19.9545 37.0308 20.2585 37.1406 20.6 37.2458C20.7708 37.3018 20.9485 37.3579 21.1333 37.4186C21.3158 37.4864 21.4982 37.5728 21.69 37.6522C22.0713 37.8204 22.4876 37.984 22.8922 38.2222C23.0981 38.3344 23.3086 38.4488 23.5214 38.5656C23.7389 38.6801 23.9378 38.8296 24.1529 38.9651C24.3635 39.1053 24.5833 39.2431 24.7962 39.3949C25.0043 39.5538 25.2125 39.715 25.4254 39.8785C25.5306 39.9603 25.6359 40.042 25.7411 40.1238C25.8394 40.2102 25.9376 40.2967 26.0358 40.3831C26.23 40.556 26.4218 40.7242 26.6112 40.8924C26.789 41.0699 26.9644 41.2428 27.1351 41.4133C27.2194 41.4997 27.3036 41.5838 27.3878 41.6656C27.4673 41.752 27.5445 41.8385 27.6217 41.9249C27.7737 42.0954 27.9234 42.2636 28.0684 42.4248C28.2041 42.593 28.3374 42.7566 28.466 42.9154C28.7257 43.2284 28.9362 43.5415 29.1397 43.8171C29.9185 44.9478 30.2483 45.7164 30.1665 45.714C30.0823 45.714 29.6145 44.9595 28.728 43.8755C28.2953 43.3266 27.7386 42.7145 27.1047 42.0581C26.4522 41.4227 25.7271 40.7312 24.8897 40.1098C24.0687 39.465 23.2244 38.9488 22.4432 38.5096C21.6502 38.0938 20.9228 37.7457 20.2913 37.5191C19.6715 37.2504 19.1452 37.122 18.799 36.9958C18.4482 36.8767 18.2657 36.7949 18.2915 36.7645Z" fill="#FD9067"/>
<path d="M210.976 159.636C210.976 159.636 187.228 151.572 171.244 136.228C155.259 120.885 143.84 94.1183 138.152 92.9923C132.463 91.8686 97.2194 86.3648 94.8594 84.7319C92.4993 83.1013 76.7112 79.3076 62.8644 71.3486C49.0153 63.3919 38.8033 52.125 31.6998 41.7949C31.6998 41.7949 29.5994 53.8234 15.9023 59.799C15.9023 59.799 44.9712 102.815 89.3768 108.936C89.3768 108.936 82.5142 115.568 81.7353 122.541C80.9565 129.514 83.4498 139.216 98.5456 138.842C113.641 138.469 117.795 142.802 122.726 144.75C127.654 146.699 140.109 149.03 143.407 137.588C143.407 137.588 160.428 168.721 199.143 179.177C199.143 179.177 207.844 172.346 210.973 159.633L210.976 159.636Z" fill="#FD8051"/>
<path d="M133.911 80.8641C133.911 80.8641 141.145 82.5952 140.53 89.4469C139.88 96.6864 125.675 103.531 109.845 102.499C109.845 102.499 99.1979 99.4453 93.7879 91.1756C88.3778 82.9035 93.5025 72.2417 104.671 79.1284C115.837 86.0152 119.369 77.8506 119.369 77.8506L133.913 80.8665L133.911 80.8641Z" fill="#FD571C"/>
<path d="M81.6122 124.595C81.5655 124.595 81.5093 124.14 81.4883 123.306C81.5 122.474 81.5818 121.25 81.9935 119.799C82.4052 118.353 83.149 116.694 84.2436 115.048C85.3172 113.384 86.6738 111.698 88.0936 109.946C88.4468 109.506 88.8023 109.074 89.1391 108.647C89.2981 108.432 89.4549 108.217 89.6092 108.004C89.6864 107.899 89.7659 107.792 89.8431 107.687C89.911 107.574 89.9788 107.462 90.0466 107.353C90.1823 107.131 90.3156 106.911 90.4489 106.691C90.5822 106.474 90.6828 106.241 90.7998 106.019C90.9097 105.794 91.0337 105.577 91.1296 105.35C91.2255 105.124 91.3214 104.9 91.4149 104.68C92.1494 102.902 92.5634 101.202 92.8253 99.7626C93.3422 96.8752 93.3189 95.0391 93.4264 95.0391C93.4756 95.0367 93.5457 95.4946 93.5621 96.3262C93.5761 97.1579 93.5364 98.3656 93.3352 99.8444C93.1341 101.321 92.7622 103.075 92.0394 104.93C91.9459 105.161 91.8523 105.395 91.7564 105.631C91.6605 105.867 91.5366 106.093 91.4243 106.329C91.305 106.561 91.2021 106.806 91.0664 107.035C90.9308 107.264 90.7928 107.495 90.6524 107.731C90.5822 107.848 90.5121 107.965 90.4419 108.081C90.3624 108.193 90.2805 108.306 90.1986 108.418C90.0349 108.642 89.8712 108.869 89.7075 109.098C89.366 109.534 89.0151 109.964 88.6596 110.403C87.2398 112.155 85.8809 113.814 84.8026 115.417C83.7033 117.007 82.9431 118.573 82.4847 119.951C82.0239 121.329 81.8672 122.507 81.769 123.32C81.7011 124.135 81.6637 124.595 81.6076 124.595H81.6122Z" fill="white"/>
<path d="M130.34 146.35C130.338 146.327 130.506 146.285 130.829 146.252C131.151 146.221 131.626 146.205 132.234 146.17C132.84 146.135 133.579 146.077 134.419 145.915C135.256 145.754 136.192 145.479 137.142 145.002C137.614 144.759 138.089 144.469 138.557 144.126C139.017 143.776 139.467 143.371 139.899 142.921C140.748 142.003 141.518 140.893 142.147 139.624C142.227 139.466 142.304 139.307 142.386 139.146C142.458 138.982 142.531 138.816 142.605 138.65C142.76 138.321 142.881 137.973 143.022 137.629C143.155 137.284 143.249 136.929 143.368 136.576C143.452 136.211 143.539 135.845 143.609 135.469C143.864 133.959 143.878 132.352 143.745 130.717C143.609 129.079 143.331 127.491 142.994 125.972C142.655 124.452 142.255 123.001 141.829 121.63C140.973 118.889 140.047 116.467 139.219 114.456C138.393 112.442 137.666 110.835 137.163 109.725C136.66 108.615 136.379 108.001 136.424 107.975C136.468 107.952 136.833 108.522 137.418 109.599C138 110.676 138.802 112.255 139.693 114.252C140.587 116.25 141.569 118.67 142.47 121.426C142.919 122.805 143.338 124.272 143.691 125.814C144.044 127.355 144.332 128.974 144.472 130.656C144.61 132.336 144.591 134.004 144.313 135.592C144.236 135.987 144.142 136.377 144.049 136.763C143.922 137.139 143.815 137.522 143.672 137.879C143.525 138.234 143.396 138.59 143.232 138.928C143.155 139.099 143.076 139.269 142.998 139.438C142.914 139.603 142.83 139.767 142.746 139.93C142.077 141.239 141.251 142.393 140.337 143.339C139.871 143.806 139.385 144.219 138.889 144.579C138.386 144.93 137.874 145.224 137.369 145.465C136.351 145.939 135.359 146.189 134.489 146.317C133.614 146.443 132.857 146.462 132.244 146.453C131.629 146.443 131.156 146.415 130.836 146.399C130.515 146.383 130.347 146.376 130.345 146.35H130.34Z" fill="white"/>
<path d="M132.779 144.444C132.739 144.482 132.468 144.411 132.007 144.25C131.78 144.164 131.513 144.033 131.205 143.888C131.052 143.809 130.898 143.715 130.73 143.617C130.646 143.568 130.561 143.517 130.472 143.465C130.386 143.412 130.302 143.349 130.213 143.288C129.504 142.809 128.723 142.138 128.009 141.267C127.296 140.398 126.644 139.342 126.131 138.165C125.626 136.987 125.287 135.817 125.079 134.742C124.864 133.668 124.768 132.694 124.735 131.878C124.665 130.248 124.84 129.267 124.934 129.32C125.032 129.372 125.051 130.425 125.268 132.068C125.49 133.701 125.911 135.943 126.936 138.169C127.446 139.279 128.059 140.27 128.725 141.078C129.387 141.889 130.082 142.529 130.704 143.012C131.965 143.958 132.87 144.346 132.779 144.442V144.444Z" fill="white"/>
<path d="M94.2837 125.527C94.3586 125.59 94.1995 126.403 93.7598 127.637C93.5259 128.249 93.2382 128.971 92.8266 129.732C92.4219 130.494 91.9143 131.307 91.2477 132.064C90.9226 132.447 90.5507 132.779 90.1835 133.082C89.7999 133.372 89.407 133.622 89.0023 133.809C88.5977 133.991 88.1907 134.117 87.8024 134.187C87.4118 134.253 87.0446 134.26 86.7148 134.234C86.0529 134.178 85.5523 133.984 85.2436 133.813C84.9325 133.643 84.8015 133.493 84.8436 133.463C84.8857 133.43 85.0869 133.5 85.4377 133.584C85.7886 133.664 86.2938 133.76 86.9043 133.72C87.5124 133.687 88.2188 133.498 88.9088 133.101C89.6034 132.711 90.2654 132.106 90.8688 131.396C91.4676 130.676 91.9541 129.917 92.3541 129.202C92.5599 128.849 92.7353 128.499 92.9061 128.179C93.0628 127.849 93.2218 127.55 93.3528 127.27C93.4838 126.99 93.6031 126.737 93.7107 126.518C93.8136 126.296 93.9025 126.107 93.9797 125.955C94.134 125.651 94.2416 125.497 94.2837 125.53V125.527Z" fill="white"/>
<path d="M120.131 128.37C120.082 128.386 119.675 128.232 119.095 127.758C118.517 127.286 117.808 126.464 117.212 125.305C116.615 124.149 116.143 122.675 115.829 121.021C115.514 119.364 115.357 117.526 115.329 115.608C115.324 115.131 115.327 114.648 115.317 114.195C115.308 113.739 115.301 113.291 115.294 112.849C115.259 112.41 115.224 111.98 115.189 111.56C115.146 111.141 115.069 110.735 115.013 110.338C114.737 108.756 114.26 107.39 113.692 106.343C113.116 105.297 112.466 104.577 111.982 104.143C111.498 103.703 111.187 103.538 111.24 103.505C111.29 103.472 111.713 103.601 112.316 104.047C112.92 104.484 113.668 105.276 114.309 106.411C114.955 107.544 115.469 109.016 115.752 110.686C115.787 110.894 115.825 111.106 115.862 111.319C115.883 111.534 115.904 111.751 115.928 111.971C115.97 112.41 116.024 112.858 116.024 113.314C116.035 113.767 116.052 114.239 116.056 114.702C116.061 115.162 116.063 115.629 116.068 116.101C116.12 117.986 116.281 119.771 116.576 121.357C116.868 122.943 117.317 124.319 117.843 125.394C118.365 126.471 118.966 127.23 119.434 127.686C119.553 127.798 119.658 127.896 119.75 127.98C119.838 128.069 119.925 128.127 119.986 128.185C120.11 128.295 120.164 128.361 120.138 128.372L120.131 128.37Z" fill="white"/>
<path d="M108.384 103.123C108.363 103.189 108.007 103.207 107.523 103.502C107.282 103.646 107.02 103.866 106.768 104.17C106.515 104.471 106.272 104.856 106.052 105.307C105.163 107.125 104.62 109.912 104.054 112.956C104.019 113.147 103.982 113.336 103.947 113.523C103.907 113.715 103.863 113.916 103.813 114.107C103.701 114.49 103.575 114.862 103.404 115.208C103.079 115.906 102.651 116.511 102.19 117.03C101.264 118.069 100.23 118.765 99.3436 119.258C98.4501 119.751 97.6876 120.043 97.1613 120.209C96.6327 120.373 96.338 120.408 96.352 120.352C96.3637 120.296 96.6748 120.151 97.2034 119.884C97.7297 119.618 98.4758 119.233 99.3226 118.665C100.162 118.095 101.121 117.345 101.914 116.308C102.309 115.792 102.663 115.208 102.908 114.556L102.999 114.311C103.028 114.226 103.049 114.142 103.074 114.058C103.13 113.89 103.163 113.715 103.203 113.542C103.273 113.171 103.343 112.794 103.416 112.416C103.703 110.886 104.008 109.433 104.382 108.134C104.751 106.835 105.198 105.686 105.748 104.803C106.021 104.361 106.328 103.994 106.641 103.721C106.955 103.446 107.277 103.27 107.551 103.177C107.829 103.09 108.047 103.065 108.19 103.074C108.332 103.081 108.398 103.1 108.386 103.125L108.384 103.123Z" fill="white"/>
<path d="M121.223 128.341C121.239 128.942 120.766 129.442 120.165 129.458C119.564 129.474 119.064 129.003 119.047 128.402C119.031 127.802 119.503 127.302 120.105 127.286C120.706 127.269 121.206 127.741 121.223 128.341Z" fill="#FDF9F1"/>
<path d="M97.4374 120.32C97.4538 120.92 96.9813 121.42 96.3802 121.437C95.7791 121.453 95.2785 120.981 95.2621 120.381C95.2458 119.78 95.7182 119.28 96.3194 119.264C96.9205 119.248 97.421 119.72 97.4374 120.32Z" fill="#FDF9F1"/>
<path d="M163.036 243.545C163.036 243.578 162.578 243.58 161.71 243.552C160.845 243.512 159.565 243.445 157.926 243.281C156.286 243.12 154.282 242.877 151.968 242.505C149.655 242.129 147.035 241.629 144.161 240.966C138.428 239.63 131.614 237.709 124.537 234.355C121.005 232.678 117.422 230.622 114.007 228.062C113.583 227.739 113.155 227.414 112.727 227.087C112.301 226.758 111.899 226.396 111.483 226.048C111.275 225.873 111.069 225.697 110.861 225.52C110.653 225.342 110.442 225.169 110.246 224.978C109.848 224.602 109.448 224.226 109.048 223.847C108.849 223.656 108.641 223.473 108.452 223.273L107.878 222.67C107.497 222.266 107.109 221.866 106.73 221.453C106.367 221.028 106.003 220.6 105.638 220.17C105.458 219.953 105.266 219.745 105.095 219.521L104.581 218.846C101.797 215.265 99.6803 211.324 98.16 207.336C97.9776 206.834 97.7975 206.334 97.6174 205.836C97.4419 205.339 97.2969 204.832 97.1379 204.332C97.0607 204.082 96.9812 203.832 96.904 203.584C96.8361 203.332 96.7706 203.082 96.7028 202.832C96.5718 202.33 96.4292 201.834 96.3122 201.335C95.8351 199.34 95.4936 197.361 95.2246 195.422C94.9883 193.481 94.8223 191.579 94.7451 189.731C94.6773 187.881 94.6515 186.085 94.703 184.351C94.7919 180.882 95.0515 177.665 95.3743 174.734C95.69 171.802 96.1485 169.171 96.6303 166.877C97.1145 164.586 97.6548 162.635 98.1881 161.075C98.7167 159.509 99.2242 158.33 99.6148 157.552C100.003 156.774 100.274 156.4 100.303 156.417C100.331 156.433 100.118 156.835 99.7879 157.631C99.4581 158.428 99.0091 159.617 98.5389 161.184C98.0641 162.75 97.5799 164.696 97.1472 166.983C96.7192 169.267 96.3075 171.886 96.0385 174.804C95.7625 177.717 95.5403 180.924 95.4865 184.365C95.4515 186.085 95.4936 187.862 95.5754 189.692C95.6666 191.518 95.8444 193.394 96.09 195.307C96.366 197.216 96.7122 199.162 97.1893 201.122C97.3063 201.613 97.449 202.098 97.5799 202.591C97.6454 202.837 97.7133 203.084 97.7811 203.33C97.8583 203.572 97.9355 203.818 98.0126 204.063C98.1717 204.551 98.3144 205.049 98.4898 205.537C98.6676 206.025 98.8477 206.514 99.0254 207.004C100.529 210.908 102.604 214.76 105.329 218.266L105.832 218.927C106 219.147 106.187 219.35 106.363 219.563C106.721 219.983 107.076 220.402 107.432 220.82C107.801 221.224 108.183 221.616 108.557 222.011L109.118 222.602C109.305 222.798 109.509 222.978 109.703 223.165C110.096 223.537 110.486 223.908 110.877 224.277C111.067 224.466 111.275 224.637 111.478 224.81C111.682 224.983 111.885 225.155 112.089 225.328C112.498 225.669 112.891 226.027 113.31 226.352C113.731 226.674 114.147 226.994 114.563 227.312C117.913 229.839 121.435 231.881 124.916 233.561C125.774 234.004 126.656 234.376 127.517 234.757C127.947 234.946 128.375 235.135 128.801 235.322C129.229 235.504 129.661 235.663 130.087 235.834C130.515 235.999 130.939 236.165 131.357 236.331C131.778 236.492 132.192 236.67 132.616 236.808C133.458 237.097 134.283 237.385 135.097 237.665C135.301 237.735 135.504 237.805 135.705 237.875C135.909 237.941 136.112 237.999 136.316 238.062C136.72 238.186 137.123 238.308 137.52 238.427C138.318 238.665 139.095 238.915 139.864 239.13C141.405 239.567 142.893 239.952 144.315 240.307C147.164 241.01 149.763 241.555 152.057 241.978C154.352 242.398 156.338 242.692 157.965 242.91C159.593 243.127 160.863 243.255 161.724 243.356C162.585 243.447 163.036 243.508 163.034 243.54L163.036 243.545Z" fill="#FD9067"/>
<path d="M134.23 179.505C134.223 179.538 134.127 179.547 133.944 179.536C133.762 179.529 133.5 179.484 133.163 179.41C132.831 179.321 132.422 179.204 131.973 178.998C131.521 178.802 131.021 178.529 130.515 178.16C130.01 177.793 129.498 177.33 129.014 176.774C128.532 176.218 128.085 175.571 127.685 174.854C126.883 173.42 126.296 171.705 125.91 169.881C125.524 168.052 125.363 166.283 125.306 164.678C125.253 163.073 125.306 161.63 125.402 160.422C125.594 158.006 125.94 156.542 126.067 156.563C126.198 156.581 126.092 158.062 126.071 160.452C126.062 161.646 126.078 163.066 126.179 164.636C126.282 166.204 126.467 167.923 126.839 169.684C127.21 171.444 127.746 173.076 128.457 174.441C128.81 175.123 129.203 175.737 129.622 176.272C130.043 176.805 130.487 177.258 130.929 177.629C131.369 178.003 131.809 178.295 132.211 178.524C132.611 178.76 132.978 178.921 133.28 179.059C133.891 179.314 134.246 179.433 134.23 179.505Z" fill="#FD9067"/>
<path d="M101.223 155.177C101.209 155.252 100.965 155.28 100.54 155.233C100.114 155.182 99.5035 155.065 98.7761 154.768C98.4136 154.614 98.0183 154.42 97.63 154.112C97.4359 153.955 97.2417 153.773 97.0733 153.539C96.9073 153.306 96.7669 153.021 96.7038 152.701C96.6383 152.383 96.657 152.037 96.7365 151.731C96.8231 151.458 96.9073 151.168 97.0265 150.918C97.0827 150.79 97.1388 150.654 97.1996 150.528C97.2628 150.402 97.3283 150.276 97.3914 150.15C97.5177 149.893 97.6651 149.647 97.8078 149.395C98.3902 148.395 99.0053 147.498 99.5831 146.697C100.163 145.896 100.713 145.197 101.192 144.625C102.149 143.478 102.825 142.835 102.944 142.929C103.063 143.022 102.61 143.828 101.819 145.08C101.419 145.704 100.944 146.445 100.418 147.265C99.8941 148.085 99.3141 148.986 98.7551 149.944C98.6194 150.185 98.4767 150.421 98.3574 150.657C98.2943 150.773 98.2335 150.89 98.1726 151.007C98.1142 151.121 98.0651 151.238 98.0113 151.35C97.892 151.579 97.8288 151.794 97.7469 152.007C97.6908 152.194 97.6768 152.362 97.6978 152.528C97.7353 152.855 97.9504 153.168 98.2241 153.427C98.4978 153.689 98.8159 153.899 99.1176 154.077C99.7281 154.427 100.278 154.654 100.652 154.826C101.029 154.997 101.237 155.107 101.223 155.182V155.177Z" fill="#FD9067"/>
<path d="M131.653 87.5076C128.355 83.9615 120.44 86.9773 120.44 86.9773C119.795 90.103 118.925 94.1491 117.874 98.6086C117.776 99.0221 117.671 99.4122 117.559 99.7883C128.264 96.1838 134.374 90.43 131.653 87.5076Z" fill="#E5C1FD"/>
<path d="M99.044 82.5128C96.56 83.4285 96.3658 88.4137 98.8568 92.2659C101.317 96.069 106.094 99.3162 108.573 100.832C108.246 96.4685 107.686 89.8808 107.35 85.9819C104.655 83.6668 101.42 81.6368 99.044 82.5128Z" fill="#E5C1FD"/>
<path d="M107.074 82.7676C107.074 82.7676 107.187 84.0455 107.353 85.9821C107.689 89.881 108.248 96.471 108.576 100.832C109.537 101.421 110.152 101.751 110.152 101.751C112.805 101.227 115.284 100.554 117.562 99.7883C117.672 99.4098 117.78 99.022 117.878 98.6085C118.928 94.149 119.798 90.1029 120.444 86.9772C121.256 83.0386 121.712 80.56 121.712 80.56C121.712 80.56 107.046 77.3059 107.074 82.7653V82.7676Z" fill="#AD6447"/>
<mask id="mask0_2969_62" style="mask-type:luminance" maskUnits="userSpaceOnUse" x="107" y="79" width="15" height="23">
<path d="M107.07 82.7657C107.07 82.7657 107.183 84.0435 107.349 85.9801C107.686 89.879 108.245 96.4691 108.572 100.831C109.533 101.419 110.148 101.749 110.148 101.749C112.801 101.225 115.28 100.553 117.558 99.7863C117.668 99.4079 117.776 99.0201 117.874 98.6066C118.924 94.147 119.794 90.1009 120.44 86.9753C121.252 83.0367 121.708 80.5581 121.708 80.5581C121.708 80.5581 107.042 77.3039 107.07 82.7633V82.7657Z" fill="white"/>
</mask>
<g mask="url(#mask0_2969_62)">
<g style="mix-blend-mode:multiply" opacity="0.3">
<path d="M105.332 87.8498C105.332 87.8498 115.42 91.7417 123.962 81.4933C132.504 71.245 105.409 79.5661 105.409 79.5661L105.332 87.8474V87.8498Z" fill="#AD6447"/>
</g>
</g>
<path d="M138.344 67.1734C139.734 66.3511 140.646 64.8233 140.597 63.097C140.527 60.5647 138.412 58.5673 135.874 58.6374C135.437 58.6491 135.016 58.7262 134.618 58.8523C135.781 57.682 136.485 56.0584 136.436 54.2783C136.34 50.8279 133.461 48.1111 130.006 48.2069C129.372 48.2256 128.764 48.3377 128.191 48.5292C127.618 46.1675 125.457 44.4435 122.926 44.5159C120.662 44.5789 118.776 46.0624 118.089 48.0877C117.261 47.4056 116.197 47.0061 115.041 47.0388C112.506 47.1089 110.506 49.2207 110.576 51.7554C110.613 53.1243 111.254 54.3344 112.23 55.1497L125.01 75.7094L132.782 77.069C132.782 77.069 136.738 76.0295 137.659 75.609C139.54 74.9923 140.878 73.2005 140.819 71.1214C140.77 69.395 139.774 67.921 138.34 67.1781L138.344 67.1734Z" fill="#693413"/>
<path d="M127.78 75.9627C127.78 75.9627 130.57 74.9068 133.183 76.2337C136.221 77.7778 133.96 84.8398 127.113 83.6507C122.499 82.8494 119.813 77.6587 127.782 75.9627H127.78Z" fill="#AD6447"/>
<path d="M130.232 72.2513C129.853 74.1575 124.766 79.5398 120.968 82.2637C117.164 84.9922 107.813 84.4106 104.903 81.3386C101.994 78.2667 98.0128 70.3988 104.216 62.7762C110.639 54.8803 119.84 48.3182 125.898 54.0393C132.302 60.0874 131.322 66.7452 130.23 72.2513H130.232Z" fill="#AD6447"/>
<path d="M119.928 54.2891C120.115 53.2659 120.241 51.4601 119.937 50.6378C114.326 49.9556 112.184 53.5088 112.184 53.5088C112.184 53.5088 117.481 52.8617 119.93 54.2867L119.928 54.2891Z" fill="#693413"/>
<path d="M125.422 59.3815C126.575 58.8488 128.668 58.127 129.733 58.1784C132.221 63.8667 128.664 67.2867 128.664 67.2867C128.664 67.2867 127.84 61.4933 125.422 59.3815Z" fill="#693413"/>
<path d="M126.749 70.8888C126.77 70.9612 126.618 71.078 126.319 71.2298C126.169 71.3023 125.984 71.3957 125.762 71.4775C125.54 71.5592 125.285 71.6457 124.999 71.7368C124.422 71.8909 123.725 72.0661 122.915 72.1175C122.111 72.1713 121.185 72.1479 120.242 71.8162C119.772 71.6503 119.337 71.4027 118.96 71.1013C118.581 70.8023 118.289 70.4286 118.067 70.0571C117.844 69.681 117.695 69.2979 117.606 68.9358C117.515 68.5737 117.466 68.2303 117.454 67.922C117.407 66.6792 117.725 65.9667 117.863 65.997C118.02 66.0204 117.992 66.7469 118.221 67.8238C118.34 68.3541 118.534 68.9732 118.92 69.5222C119.292 70.0782 119.875 70.5267 120.611 70.7907C121.351 71.0523 122.148 71.113 122.876 71.113C123.608 71.12 124.277 71.0313 124.845 70.9822C125.128 70.9425 125.385 70.9098 125.615 70.8888C125.844 70.8654 126.04 70.835 126.204 70.8257C126.531 70.8023 126.726 70.821 126.749 70.8934V70.8888Z" fill="#202020"/>
<path d="M113.796 63.1595C113.812 63.2343 113.7 63.3277 113.473 63.4375C113.361 63.4936 113.221 63.5543 113.052 63.6011C112.884 63.6501 112.69 63.7109 112.468 63.7412C112.028 63.8253 111.474 63.8534 110.849 63.7319C110.692 63.7109 110.536 63.6478 110.372 63.6034C110.213 63.5427 110.049 63.4726 109.89 63.3861C109.57 63.2133 109.275 62.9633 109.025 62.6713C108.529 62.0709 108.314 61.3701 108.234 60.7674C108.152 60.1577 108.19 59.6204 108.26 59.1812C108.407 58.3028 108.685 57.8123 108.828 57.8496C108.978 57.8847 108.978 58.4126 109.034 59.2209C109.064 59.6227 109.109 60.097 109.228 60.5852C109.343 61.0734 109.539 61.5757 109.869 61.9705C110.522 62.7741 111.635 62.9236 112.423 62.968C113.225 63.0124 113.763 63.0007 113.796 63.1595Z" fill="#202020"/>
<path d="M114.525 73.3964C114.564 73.4525 114.337 73.8356 113.832 74.3168C113.577 74.5551 113.254 74.8214 112.838 75.0433C112.632 75.1578 112.396 75.2489 112.136 75.3143C112.008 75.3493 111.867 75.3564 111.729 75.3727C111.657 75.3704 111.587 75.3657 111.514 75.3634C111.442 75.3634 111.369 75.354 111.297 75.333C111.014 75.291 110.707 75.1321 110.523 74.9055C110.331 74.6836 110.235 74.4289 110.174 74.1953C110.064 73.7258 110.087 73.3123 110.125 72.9782C110.211 72.3078 110.382 71.934 110.443 71.9691C110.511 72.0018 110.464 72.4316 110.48 73.0904C110.494 73.4151 110.523 73.8075 110.658 74.1766C110.728 74.3589 110.827 74.5294 110.967 74.6462C111.037 74.7023 111.114 74.7537 111.205 74.784C111.301 74.8074 111.404 74.8401 111.51 74.8518C111.938 74.8938 112.37 74.749 112.735 74.5691C113.105 74.3846 113.418 74.1673 113.675 73.9804C114.19 73.5996 114.485 73.3357 114.527 73.3964H114.525Z" fill="#FD9067"/>
<path d="M114.458 64.2459C114.481 64.3136 114.013 64.8649 113.108 65.8274L113.068 65.8694L112.996 65.8835C112.151 66.0353 111.038 66.1544 109.726 66.0119C109.073 65.9395 108.369 65.8064 107.649 65.5541C106.931 65.3064 106.189 64.9467 105.504 64.4211C104.819 63.9001 104.199 63.2063 103.754 62.3677C103.537 61.9472 103.361 61.4963 103.23 61.0268C103.107 60.5549 103.034 60.0643 102.999 59.5691C102.952 58.5716 103.06 57.5624 103.319 56.5602C103.572 55.5557 104 54.5605 104.634 53.6635C105.078 53.0538 105.602 52.5024 106.222 52.0819C106.835 51.6544 107.534 51.3554 108.259 51.2246C108.622 51.1592 108.991 51.1452 109.354 51.1639C109.716 51.1919 110.072 51.2573 110.409 51.3648C111.085 51.582 111.681 51.9511 112.175 52.388C112.666 52.8272 113.059 53.3574 113.351 53.8877C113.648 54.4204 113.863 54.9647 114.034 55.4926C114.369 56.5555 114.537 57.5647 114.64 58.4804C114.837 60.3166 114.783 61.7907 114.71 62.7858C114.633 63.781 114.518 64.2996 114.458 64.2412C114.394 64.1851 114.39 63.5614 114.345 62.4868C114.294 61.4146 114.228 59.8798 113.899 58.0529C113.73 57.1442 113.492 56.1561 113.08 55.1819C112.874 54.696 112.619 54.2171 112.294 53.7826C111.974 53.3528 111.564 52.9673 111.094 52.6636C110.624 52.3623 110.084 52.1614 109.515 52.096C109.232 52.0586 108.94 52.0703 108.65 52.1006C108.36 52.1357 108.072 52.2128 107.787 52.3109C106.652 52.729 105.672 53.6588 105.024 54.8105C104.561 55.6211 104.262 56.5088 104.087 57.4012C103.904 58.2982 103.857 59.1859 103.951 60.0269C104 60.4474 104.096 60.8516 104.218 61.237C104.346 61.6225 104.517 61.9822 104.713 62.3209C104.912 62.6573 105.151 62.961 105.406 63.239C105.663 63.517 105.946 63.7576 106.236 63.9772C107.424 64.8392 108.765 65.2294 109.932 65.4046C111.108 65.5798 112.135 65.5424 112.935 65.4746L112.813 65.533C113.817 64.657 114.427 64.1758 114.453 64.2505L114.458 64.2459Z" fill="#FD6C39"/>
<path d="M115.608 67.1728C115.601 67.1424 115.723 67.0232 115.973 66.8107C116.099 66.7055 116.261 66.5677 116.45 66.4299C116.64 66.2991 116.857 66.1519 117.1 65.9837C118.085 65.353 119.596 64.5166 121.668 64.1289C122.697 63.9466 123.867 63.8766 125.093 64.0938C126.314 64.3017 127.588 64.7783 128.734 65.5842C129.878 66.3832 130.912 67.4928 131.553 68.8991C131.866 69.6023 132.089 70.3778 132.1 71.2048C132.107 72.0341 131.878 72.8751 131.452 73.5946C131.034 74.3211 130.454 74.9168 129.817 75.3911C129.176 75.8606 128.477 76.2157 127.757 76.4563C126.318 76.9469 124.824 77.0029 123.472 76.774C122.113 76.5451 120.908 76.0288 119.877 75.3887C118.859 74.7253 118.064 73.9053 117.472 73.0854C116.883 72.2607 116.469 71.4431 116.202 70.7002C115.931 69.9597 115.762 69.3056 115.674 68.773C115.489 67.703 115.543 67.1237 115.608 67.1774C115.681 67.2288 115.769 67.8923 116.109 68.9902C116.286 69.5345 116.509 70.1956 116.871 70.9035C117.229 71.6113 117.704 72.3799 118.354 73.1134C118.995 73.8516 119.844 74.522 120.861 75.029C121.867 75.5616 123.06 75.9073 124.318 75.9984C125.577 76.0779 126.924 75.884 128.147 75.3023C128.454 75.1598 128.751 74.9939 129.029 74.8C129.312 74.6108 129.579 74.3936 129.822 74.1553C130.313 73.6834 130.708 73.104 130.94 72.4686C131.417 71.1931 131.043 69.7658 130.365 68.6235C129.682 67.4694 128.702 66.5444 127.637 65.9089C127.102 65.5912 126.547 65.3413 125.991 65.1474C125.427 64.9722 124.87 64.8343 124.318 64.7713C123.217 64.6241 122.167 64.7152 121.236 64.8904C121.004 64.9418 120.775 64.9792 120.555 65.0399C120.337 65.1007 120.125 65.1591 119.916 65.2175C119.512 65.36 119.124 65.4768 118.777 65.6333C118.602 65.7057 118.434 65.7758 118.27 65.8435C118.111 65.9206 117.959 65.993 117.814 66.0631C117.669 66.1332 117.526 66.1963 117.395 66.264C117.266 66.3341 117.142 66.3995 117.025 66.4626C116.544 66.7126 116.235 66.8994 115.994 67.0209C115.755 67.1424 115.622 67.2008 115.615 67.1704L115.608 67.1728Z" fill="#FD6C39"/>
<path d="M114.676 68.0209C114.676 68.0933 113.998 68.5418 112.808 69.0324C112.508 69.1515 112.174 69.2707 111.795 69.3595C111.605 69.4015 111.404 69.4389 111.177 69.4389C111.063 69.4342 110.943 69.4295 110.812 69.3828C110.686 69.3478 110.534 69.2497 110.448 69.1048C110.398 69.0324 110.382 68.9576 110.361 68.8806C110.356 68.8035 110.349 68.7054 110.366 68.6399C110.391 68.4974 110.441 68.3853 110.492 68.2732C110.6 68.0583 110.726 67.8644 110.862 67.6728C111.133 67.2944 111.439 66.9346 111.762 66.5795C113.063 65.1662 114.349 64.0355 115.285 63.2413C116.225 62.4517 116.828 62.0195 116.847 62.0943C116.868 62.1714 116.3 62.7414 115.395 63.6267C114.494 64.5168 113.231 65.7082 111.973 67.1075C111.664 67.4579 111.367 67.8083 111.128 68.161C111.011 68.3339 110.906 68.5161 110.855 68.6703C110.812 68.8175 110.838 68.8735 110.922 68.9296C111.025 68.9833 111.212 68.995 111.383 68.9833C111.559 68.9717 111.734 68.9413 111.905 68.9039C112.246 68.8268 112.562 68.731 112.847 68.6353C113.993 68.2451 114.672 67.9391 114.674 68.0232L114.676 68.0209Z" fill="#FD9067"/>
<path d="M112.156 94.7789C112.142 94.8093 112.046 94.821 111.88 94.7929C111.718 94.7579 111.487 94.6738 111.255 94.4869C111.024 94.3 110.806 94.0127 110.649 93.6646C110.49 93.3189 110.399 92.9171 110.348 92.5013C110.254 91.6649 110.345 90.9244 110.45 90.4081C110.558 89.8895 110.691 89.5929 110.757 89.6232C110.822 89.6513 110.815 89.9947 110.801 90.5249C110.792 91.0552 110.766 91.7794 110.869 92.5456C110.965 93.3119 111.222 93.9426 111.554 94.2743C111.88 94.6131 112.193 94.7065 112.156 94.7836V94.7789Z" fill="#FD9067"/>
<path d="M124.916 78.9428C124.912 78.9078 124.982 78.8494 125.115 78.777C125.249 78.7092 125.44 78.6018 125.693 78.527C126.189 78.3471 126.916 78.207 127.718 78.2444C128.523 78.2911 129.227 78.5177 129.674 78.7793C130.128 79.0316 130.331 79.2886 130.275 79.333C130.221 79.3774 129.936 79.2348 129.461 79.0807C128.991 78.9265 128.329 78.7746 127.592 78.7536C126.112 78.7092 124.94 79.1134 124.914 78.9452L124.916 78.9428Z" fill="#FD9067"/>
<path d="M125.156 79.4778C125.156 79.4427 125.259 79.3843 125.444 79.3703C125.629 79.354 125.888 79.3633 126.199 79.4287C126.356 79.4614 126.524 79.5058 126.702 79.5759C126.88 79.646 127.069 79.7324 127.254 79.8866C127.345 79.9637 127.439 80.0595 127.504 80.1973C127.572 80.3304 127.598 80.5103 127.561 80.6668C127.526 80.8257 127.446 80.9518 127.359 81.057C127.273 81.1644 127.177 81.2485 127.079 81.3279C126.88 81.4845 126.646 81.6199 126.377 81.6643C126.11 81.7134 125.839 81.6573 125.631 81.5475C125.215 81.3209 124.999 80.9939 124.843 80.7322C124.543 80.1926 124.499 79.8212 124.567 79.8165C124.642 79.8025 124.822 80.1506 125.187 80.5967C125.369 80.8117 125.617 81.0616 125.914 81.1574C126.204 81.2602 126.536 81.1364 126.84 80.8631C126.988 80.7346 127.081 80.5897 127.079 80.4986C127.083 80.4122 126.999 80.2837 126.868 80.1833C126.606 79.9777 126.281 79.8515 126.022 79.7581C125.757 79.6647 125.535 79.6086 125.388 79.5712C125.238 79.5315 125.161 79.5198 125.158 79.4848L125.156 79.4778Z" fill="#FD9067"/>
<path d="M149.789 243.699C149.789 243.699 161.788 224.747 168.501 209.527C168.501 209.527 172.482 210.91 177.05 213.566C177.05 213.566 168.246 234.857 161.669 246.099C161.669 246.099 152.158 244.741 149.789 243.699Z" fill="#E5C1FD"/>
<path fill-rule="evenodd" clip-rule="evenodd" d="M161.588 247.778C161.882 248.14 161.391 248.605 161.56 248.986C161.751 248.995 161.833 249.163 162.114 249.383C162.35 249.343 163.19 249.107 162.729 248.694C162.961 248.371 163.157 248.056 163.316 247.741C163.471 247.423 163.599 247.11 163.714 246.802C163.943 246.18 164.118 245.57 164.35 244.954C164.116 244.736 163.936 244.755 163.73 244.652C163.337 244.902 162.893 245.484 162.505 246.105C162.308 246.416 162.133 246.736 161.974 247.028C161.812 247.318 161.679 247.579 161.59 247.78L161.588 247.778Z" fill="#FD8051"/>
<path fill-rule="evenodd" clip-rule="evenodd" d="M165.52 240.591C165.639 240.902 165.875 241.192 166.109 241.484C166.411 241.369 166.666 241.189 166.897 240.961C167.122 240.729 167.321 240.447 167.517 240.131C167.908 239.503 168.28 238.741 168.806 237.97C168.612 237.697 168.242 237.183 167.929 237.15C166.895 237.587 166.235 239.865 165.52 240.591Z" fill="#FD8051"/>
<path fill-rule="evenodd" clip-rule="evenodd" d="M170.993 229.534C170.948 229.939 170.817 230.354 170.649 230.775C170.476 231.193 170.263 231.609 170.071 232.018C169.685 232.835 169.376 233.618 169.557 234.288C169.877 234.55 170.045 234.361 170.326 234.51C170.401 234.391 170.462 234.232 170.623 234.37C170.682 233.924 170.93 233.739 171.22 233.473C171.262 232.711 171.676 232.116 172.064 231.515C172.443 230.91 172.803 230.303 172.745 229.539C171.963 229.02 171.442 229.186 170.99 229.534H170.993Z" fill="#FD8051"/>
<path fill-rule="evenodd" clip-rule="evenodd" d="M178.333 214.198C177.657 215.123 176.649 217.064 176.623 217.852C176.525 217.952 176.403 218.001 176.305 218.102C176.639 218.265 176.599 218.515 176.363 218.704C176.78 218.945 176.777 218.901 177.259 219.092C177.802 218.609 178.138 217.98 178.419 217.361C178.695 216.73 178.917 216.121 179.231 215.635C179.406 215.364 179.572 215.125 179.666 214.859C179.762 214.588 179.773 214.341 179.67 213.974C179.455 213.813 179.142 213.848 178.871 213.936C178.604 214.009 178.382 214.128 178.33 214.198H178.333Z" fill="#FD8051"/>
<path fill-rule="evenodd" clip-rule="evenodd" d="M173.344 225.286C173.645 225.575 173.767 225.494 174.095 225.746C174.895 225.695 174.845 224.828 175.4 223.91C175.832 223.202 176.307 222.709 176.221 222.134C175.624 221.987 175.554 221.842 174.887 221.529C174.455 223.034 173.365 223.685 173.344 225.286Z" fill="#FD8051"/>
<path fill-rule="evenodd" clip-rule="evenodd" d="M171.169 223.946C170.816 223.561 170.456 223.194 169.939 223.355C169.59 224.028 169.305 225.285 168.779 226.154C168.43 226.717 168.213 227.203 168.669 227.651C169.434 227.876 169.967 226.752 170.666 225.64C171.001 225.112 170.781 224.409 171.169 223.949V223.946Z" fill="#FD8051"/>
<path fill-rule="evenodd" clip-rule="evenodd" d="M156.708 247.875C157.25 247.576 157.746 246.67 158.483 245.911C158.387 245.616 158.399 245.31 158.022 245.049C157.396 245.154 156.939 246.105 156.694 246.56C156.444 246.733 155.859 246.822 156.055 247.28C156.596 246.943 156.458 247.962 156.708 247.873V247.875Z" fill="#FD8051"/>
<path fill-rule="evenodd" clip-rule="evenodd" d="M173.912 214.724C174.076 215.063 174.259 214.682 174.577 214.902C174.418 215.189 174.453 215.404 174.738 215.535C175.533 214.855 175.423 213.519 175.636 212.776C174.282 211.865 174.591 214.019 173.91 214.724H173.912Z" fill="#FD8051"/>
<path fill-rule="evenodd" clip-rule="evenodd" d="M166.461 230.995C165.502 230.771 165.455 231.748 165.032 232.577C164.574 233.493 163.895 234.152 163.5 234.682C163.673 235.049 163.713 235.252 164.16 235.668C164.85 235.612 165.13 234.6 165.75 233.876C166.12 233.439 166.55 232.899 166.754 232.376C166.955 231.85 166.943 231.348 166.459 230.993L166.461 230.995Z" fill="#FD8051"/>
<path fill-rule="evenodd" clip-rule="evenodd" d="M159.598 242.753C159.884 242.903 160.099 242.781 160.361 242.842C161.091 241.641 162.209 240.242 162.683 239.244C162.555 239.027 162.29 238.831 162.159 238.611C161.961 238.63 161.764 238.658 161.561 238.649C160.609 240.132 160.281 241.127 159.145 242.029C159.612 242.3 159.818 242.314 159.598 242.751V242.753Z" fill="#FD8051"/>
<path fill-rule="evenodd" clip-rule="evenodd" d="M173.188 216.201C172.173 216.418 172.187 218.395 171.195 218.811C171.607 219.203 171.221 219.537 171.71 219.799C172.316 220.123 172.877 219.481 173.205 218.855C173.635 218.051 174.028 216.967 173.906 216.507L173.188 216.204V216.201Z" fill="#FD8051"/>
<path fill-rule="evenodd" clip-rule="evenodd" d="M153.459 244.204C154.032 244.924 154.989 244.337 155.05 243.999C155.148 243.414 155.452 242.571 155.768 241.758C156.093 240.952 156.479 240.212 156.825 239.88C156.629 239.602 156.549 239.055 155.988 239.027C155.915 239.312 155.431 239.347 155.15 239.572C155.008 239.714 155.546 239.78 155.253 239.943C154.741 240.828 154.46 241.854 153.976 242.819C153.761 243.263 153.298 243.625 153.459 244.202V244.204Z" fill="#FD8051"/>
<path fill-rule="evenodd" clip-rule="evenodd" d="M168.508 214.49C168.37 214.707 168.129 214.819 168.066 215.027C167.855 215.695 168.239 216.307 168.891 216.303C169.336 215.952 169.6 215.273 170.019 214.675C170.281 214.305 170.66 214.037 170.779 213.621C170.842 213.406 170.749 213.116 170.765 212.885C170.786 212.605 170.964 212.359 170.865 212.112C170.611 211.909 170.328 211.715 169.93 211.561C169.378 211.701 169.153 213.488 168.508 214.488V214.49Z" fill="#FD8051"/>
<path fill-rule="evenodd" clip-rule="evenodd" d="M162.693 228.946C163.048 228.925 163.322 228.685 163.654 228.601C163.595 227.29 165.368 225.884 164.089 224.83C163.867 224.851 163.659 224.902 163.462 224.98C163.355 225.223 163.49 225.409 163.329 225.664C162.905 225.779 162.798 226.148 162.704 226.538C162.608 226.926 162.515 227.325 162.141 227.5C162.417 227.958 162.063 228.558 162.693 228.942V228.946Z" fill="#FD8051"/>
<path fill-rule="evenodd" clip-rule="evenodd" d="M167.703 219.189C167.558 218.941 167.3 218.728 166.922 218.551C166.449 218.677 166.594 219.193 166.374 219.499C166.306 219.595 165.988 219.628 165.93 219.754C165.93 219.754 165.958 219.798 165.986 219.852C166.014 219.906 166.037 219.964 166.035 219.987C165.965 220.522 165.492 220.721 165.144 220.957C165.188 221.457 164.821 221.924 164.943 222.256C165.659 222.919 166.243 222.333 166.683 221.483C167.125 220.63 167.457 219.537 167.7 219.191L167.703 219.189Z" fill="#FD8051"/>
<path fill-rule="evenodd" clip-rule="evenodd" d="M157.819 235.439C157.975 235.584 158.099 235.736 158.273 235.815C158.817 236.067 159.274 235.348 159.657 234.516C160.041 233.682 160.354 232.741 160.588 232.5C160.366 232.199 160.282 231.972 159.826 231.867C159.229 231.972 159.248 232.601 159.023 233.045C158.64 233.811 157.821 234.558 157.816 235.439H157.819Z" fill="#FD8051"/>
<path fill-rule="evenodd" clip-rule="evenodd" d="M164.043 215.697C164.931 214.991 164.655 214.307 165.64 213.267C165.563 212.524 165.802 211.929 166.157 211.277C166.061 210.929 165.516 210.515 165.044 210.649C164.684 210.962 164.896 211.235 164.857 211.613C164.494 212.396 164.108 213.087 163.685 213.819C163.477 214.185 163.261 214.562 163.046 214.968C162.826 215.372 162.6 215.807 162.375 216.286C162.6 216.505 162.639 216.776 163.161 216.916C163.612 216.587 164.071 216.356 164.04 215.697H164.043Z" fill="#FD8051"/>
<path fill-rule="evenodd" clip-rule="evenodd" d="M159.352 226.298C159.156 226.041 159.1 225.754 158.648 225.551C158.157 225.824 157.603 226.322 157.186 226.913C156.768 227.504 156.464 228.174 156.503 228.833C156.882 229.015 157.193 229.013 157.514 229.029C158.225 227.915 158.478 227.186 159.355 226.298H159.352Z" fill="#FD8051"/>
<path fill-rule="evenodd" clip-rule="evenodd" d="M160.982 222.331C161.122 222.394 161.279 222.492 161.316 222.314C161.134 221.616 162.549 220.686 161.248 219.812C160.773 219.901 160.577 220.291 160.392 220.665C160.104 221.242 159.871 221.403 159.852 221.761C159.821 222.237 159.272 222.511 159.592 222.908C159.955 223.141 159.866 223.076 160.163 223.291C160.299 223.24 160.42 223.144 160.572 223.132C160.818 222.793 160.769 222.49 160.984 222.328L160.982 222.331Z" fill="#FD8051"/>
<path fill-rule="evenodd" clip-rule="evenodd" d="M155.62 232.272C155.606 231.849 155.054 231.707 154.659 231.602C154.371 232.214 153.988 232.639 153.607 233.055C153.223 233.468 152.858 233.886 152.629 234.517C152.818 235.012 153.211 235.024 153.782 235.248C154.107 234.825 154.442 234.377 154.762 233.889C155.085 233.4 155.368 232.856 155.62 232.272Z" fill="#FD8051"/>
<path fill-rule="evenodd" clip-rule="evenodd" d="M149.522 241.331C150.151 240.733 150.731 239.625 151.283 239.032C151.166 238.64 150.806 238.401 150.329 238.182C150.139 238.546 149.903 238.901 149.704 239.249C149.508 239.6 149.351 239.948 149.311 240.291C148.815 240.592 148.418 241.057 148.537 241.702C149 241.933 149.257 241.581 149.522 241.333V241.331Z" fill="#FD8051"/>
<path fill-rule="evenodd" clip-rule="evenodd" d="M47.8079 217.565C47.829 218.029 47.1858 218.095 47.1016 218.497C47.2442 218.62 47.2115 218.803 47.3027 219.148C47.5062 219.261 48.2874 219.588 48.1658 218.983C48.5283 218.87 48.8558 218.74 49.1599 218.592C49.4639 218.445 49.7376 218.275 50.0042 218.102C50.5352 217.756 51.0194 217.385 51.5503 217.044C51.4942 216.728 51.3468 216.635 51.2462 216.427C50.3527 216.336 48.5471 217.167 47.8079 217.565Z" fill="#FD8051"/>
<path fill-rule="evenodd" clip-rule="evenodd" d="M54.9719 214.364C54.8854 214.679 54.8994 215.053 54.9111 215.424C55.5052 215.611 56.1203 215.504 56.7823 215.247C57.4465 214.997 58.174 214.635 59.0254 214.359C59.0324 214.023 59.0511 213.401 58.8265 213.179C58.3003 213.03 57.5799 213.296 56.8711 213.616C56.518 213.78 56.1601 213.943 55.8397 214.093C55.5122 214.231 55.2152 214.333 54.9719 214.364Z" fill="#FD8051"/>
<path fill-rule="evenodd" clip-rule="evenodd" d="M65.6397 209.18C65.1041 209.759 64.248 210.13 63.4738 210.53C62.6996 210.929 62.0026 211.343 61.75 211.967C61.8436 212.368 62.0845 212.326 62.2155 212.616C62.3441 212.572 62.4844 212.49 62.5289 212.695C62.8376 212.394 63.1347 212.399 63.5136 212.373C64.4632 211.245 66.1894 211.544 66.9917 210.273C66.6923 209.385 66.1917 209.189 65.6397 209.18Z" fill="#FD8051"/>
<path fill-rule="evenodd" clip-rule="evenodd" d="M80.3243 201.863C79.2507 202.169 77.3281 203.043 76.8462 203.639C76.7106 203.655 76.5889 203.618 76.4533 203.636C76.617 203.973 76.4392 204.139 76.1445 204.139C76.327 204.582 76.3527 204.547 76.6123 204.994C78.0298 204.921 79.1267 203.893 80.1816 203.536C80.4787 203.433 80.75 203.349 80.9792 203.202C81.0938 203.127 81.1967 203.041 81.2809 202.931C81.3254 202.875 81.3581 202.819 81.3979 202.749C81.44 202.676 81.4774 202.597 81.5102 202.513C81.4376 202.253 81.1687 202.09 80.8997 201.994C80.6518 201.884 80.4038 201.842 80.322 201.866L80.3243 201.863Z" fill="#FD8051"/>
<path fill-rule="evenodd" clip-rule="evenodd" d="M69.9414 207.349C70.0046 207.761 70.1472 207.775 70.2525 208.174C70.9027 208.639 71.3729 207.936 72.3412 207.567C73.0897 207.284 73.7516 207.209 74.0206 206.705C73.6464 206.221 73.6744 206.065 73.3423 205.408C72.7342 205.857 72.1213 206.034 71.5436 206.256C70.9635 206.476 70.4256 206.751 69.9414 207.352V207.349Z" fill="#FD8051"/>
<path fill-rule="evenodd" clip-rule="evenodd" d="M69.0474 204.968C69.0006 204.454 68.9398 203.947 68.4416 203.746C67.775 204.04 66.8254 204.851 65.9062 205.187C65.305 205.402 64.856 205.65 64.9448 206.278C65.1741 206.601 65.5553 206.626 66.0301 206.521C66.2664 206.468 66.5283 206.384 66.8043 206.285C67.078 206.183 67.368 206.07 67.6674 205.963C68.2334 205.762 68.472 205.075 69.0474 204.968Z" fill="#FD8051"/>
<path fill-rule="evenodd" clip-rule="evenodd" d="M43.977 214.668C44.5688 214.762 45.4693 214.351 46.4727 214.201C46.5663 213.912 46.751 213.678 46.6084 213.241C46.0634 212.942 45.1652 213.414 44.7138 213.624C44.4191 213.608 43.9162 213.323 43.8086 213.802C44.4191 213.867 43.7314 214.584 43.977 214.668Z" fill="#FD8051"/>
<path fill-rule="evenodd" clip-rule="evenodd" d="M76.5714 199.54C76.5013 199.905 76.8638 199.722 76.9854 200.089C76.6931 200.213 76.5948 200.402 76.7422 200.68C77.7596 200.645 78.4543 199.545 79.0578 199.099C78.5315 197.557 77.514 199.416 76.5738 199.54H76.5714Z" fill="#FD8051"/>
<path fill-rule="evenodd" clip-rule="evenodd" d="M61.284 207.494C60.9799 207.111 60.6782 207.101 60.346 207.232C60.0139 207.361 59.6584 207.634 59.2537 207.83C58.3649 208.255 57.4644 208.363 56.8422 208.512C56.7604 208.905 56.6738 209.089 56.7791 209.69C57.0597 209.879 57.4036 209.825 57.7919 209.704C58.1778 209.578 58.6035 209.379 59.0526 209.288C60.1332 209.071 61.6231 208.655 61.284 207.494Z" fill="#FD8051"/>
<path fill-rule="evenodd" clip-rule="evenodd" d="M49.1484 212.404C49.2818 212.696 49.518 212.731 49.6864 212.942C50.3086 212.678 51.05 212.481 51.74 212.25C52.4324 212.026 53.0896 211.809 53.5574 211.561C53.5831 211.311 53.4943 210.996 53.52 210.743C53.3563 210.636 53.1902 210.535 53.0358 210.402C52.2382 210.692 51.6324 210.977 51.0524 211.194C50.47 211.409 49.9063 211.542 49.2116 211.556C49.4151 212.056 49.5671 212.194 49.1484 212.402V212.404Z" fill="#FD8051"/>
<path fill-rule="evenodd" clip-rule="evenodd" d="M75.1409 200.236C74.6801 200.004 74.1679 200.275 73.6416 200.563C73.1153 200.852 72.575 201.168 72.0698 201.013C72.161 201.572 71.6652 201.59 71.8921 202.097C72.1727 202.726 72.9797 202.574 73.6042 202.296C74.4065 201.936 75.3467 201.35 75.5222 200.915L75.1432 200.233L75.1409 200.236Z" fill="#FD8051"/>
<path fill-rule="evenodd" clip-rule="evenodd" d="M43.5547 209.8C43.5874 210.715 44.668 210.835 44.909 210.606C45.3206 210.206 46.041 209.72 46.7591 209.281C47.4772 208.847 48.2046 208.501 48.6654 208.452C48.6747 208.115 48.9297 207.634 48.511 207.27C48.2911 207.45 47.8935 207.181 47.545 207.186C47.3509 207.211 47.7298 207.592 47.4093 207.541C46.9532 207.732 46.5229 207.985 46.0901 208.251C45.6574 208.515 45.2154 208.779 44.7522 209.022C44.3289 209.241 43.7605 209.246 43.5547 209.802V209.8Z" fill="#FD8051"/>
<path fill-rule="evenodd" clip-rule="evenodd" d="M72.5099 196.009C72.276 196.09 72.0257 196.03 71.8526 196.146C71.303 196.532 71.2422 197.242 71.7497 197.644C72.297 197.644 72.9005 197.291 73.5718 197.088C73.9881 196.964 74.4395 196.994 74.7764 196.747C74.9494 196.621 75.0453 196.338 75.1927 196.17C75.3728 195.967 75.6558 195.887 75.7213 195.637C75.6394 195.322 75.5319 194.997 75.312 194.633C74.8068 194.399 73.5905 195.635 72.5099 196.009Z" fill="#FD8051"/>
<path fill-rule="evenodd" clip-rule="evenodd" d="M59.567 203.564C59.8547 203.769 60.2055 203.751 60.5096 203.893C60.8675 203.356 61.5996 203.111 62.1913 202.781C62.7808 202.449 63.2392 202.05 63.0497 201.244C62.8673 201.123 62.6755 201.034 62.479 200.971C62.2521 201.092 62.2498 201.321 61.9761 201.419C61.1949 201.076 60.7692 202.291 59.9833 202.099C59.9295 202.627 59.3074 202.875 59.567 203.564Z" fill="#FD8051"/>
<path fill-rule="evenodd" clip-rule="evenodd" d="M69.1475 199.134C69.1779 198.854 69.103 198.529 68.9159 198.155C68.4785 197.961 68.2844 198.44 67.9382 198.545C67.8306 198.578 67.564 198.405 67.447 198.466C67.447 198.466 67.4423 198.52 67.433 198.576C67.4236 198.634 67.4073 198.695 67.3909 198.711C67.0237 199.083 66.5442 198.942 66.1372 198.905C65.8752 199.309 65.3209 199.452 65.2227 199.781C65.3911 200.743 66.177 200.641 67.0213 200.269C67.861 199.886 68.7522 199.237 69.1475 199.132V199.134Z" fill="#FD8051"/>
<path fill-rule="evenodd" clip-rule="evenodd" d="M52.0156 205.583C52.053 205.793 52.0601 205.989 52.1466 206.157C52.2823 206.421 52.5442 206.489 52.8717 206.442C53.1968 206.389 53.5851 206.216 53.9757 206.008C54.7569 205.594 55.5475 205.045 55.8726 205.017C55.8773 204.648 55.9451 204.419 55.6551 204.055C55.1311 203.758 54.778 204.256 54.3452 204.468C53.6015 204.826 52.5372 204.919 52.0156 205.585V205.583Z" fill="#FD8051"/>
<path fill-rule="evenodd" clip-rule="evenodd" d="M68.349 194.161C69.453 194.178 69.6261 193.47 70.9967 193.285C71.3663 192.664 71.8996 192.355 72.5475 192.075C72.6738 191.748 72.4914 191.092 72.047 190.902C71.5862 190.919 71.5955 191.262 71.3476 191.528C69.8834 192.285 68.5338 192.671 66.7188 193.586C66.7632 193.895 66.6392 194.131 66.9597 194.561C67.5 194.589 67.9888 194.691 68.3467 194.163L68.349 194.161Z" fill="#FD8051"/>
<path fill-rule="evenodd" clip-rule="evenodd" d="M58.5409 199.436C58.5409 199.113 58.6649 198.856 58.4357 198.417C57.8954 198.324 57.182 198.373 56.5107 198.564C55.8371 198.751 55.2149 199.097 54.8594 199.632C55.0465 200.008 55.2874 200.199 55.5236 200.41C56.1224 200.192 56.5785 199.985 57.0346 199.819C57.4907 199.65 57.9422 199.506 58.5409 199.436Z" fill="#FD8051"/>
<path fill-rule="evenodd" clip-rule="evenodd" d="M62.12 197.378C62.1925 197.514 62.2557 197.689 62.389 197.577C62.6603 196.93 64.2906 197.084 63.7947 195.6C63.3761 195.374 62.9971 195.554 62.6369 195.729C62.0803 195.998 61.8043 195.977 61.5774 196.236C61.2757 196.584 60.6932 196.458 60.7073 196.962C60.85 197.367 60.8196 197.264 60.9225 197.614C61.0581 197.659 61.2055 197.659 61.3318 197.745C61.7201 197.635 61.8581 197.367 62.12 197.381V197.378Z" fill="#FD8051"/>
<path fill-rule="evenodd" clip-rule="evenodd" d="M52.163 201.765C52.3992 201.424 52.0554 200.974 51.8121 200.646C50.6543 201.268 49.6252 200.957 48.5329 201.672C48.3902 202.177 48.6873 202.427 48.9983 202.955C49.9924 202.686 51.0941 202.385 52.163 201.765Z" fill="#FD8051"/>
<path fill-rule="evenodd" clip-rule="evenodd" d="M42.1394 205.136C42.9791 205.05 44.0761 204.512 44.8526 204.393C44.9906 204.015 44.8479 203.606 44.6047 203.139C43.8819 203.466 43.0399 203.688 42.5791 204.183C42.0154 204.12 41.433 204.248 41.1523 204.83C41.3816 205.295 41.7885 205.171 42.1394 205.136Z" fill="#FD8051"/>
<path d="M154.582 133.192C155.709 133.192 155.711 131.439 154.582 131.439C153.452 131.439 153.452 133.192 154.582 133.192Z" fill="#FD8051"/>
<path d="M46.0337 79.3903C47.0137 79.3903 47.016 77.8672 46.0337 77.8672C45.0513 77.8672 45.0513 79.3903 46.0337 79.3903Z" fill="#E5C1FD"/>
<path d="M160.431 143.798C160.44 143.852 160.447 143.908 160.456 143.962C160.475 144.076 160.494 144.188 160.512 144.303C160.557 144.41 160.606 144.518 160.66 144.623C160.84 144.985 161.31 145.188 161.694 145.177C162.08 145.165 162.536 144.936 162.695 144.564C162.741 144.457 162.784 144.347 162.823 144.237C162.835 144.123 162.847 144.008 162.858 143.894C162.863 143.838 162.87 143.784 162.875 143.728C162.905 143.441 162.692 143.062 162.491 142.873C162.274 142.668 161.921 142.518 161.616 142.539C161.301 142.562 160.976 142.675 160.76 142.922C160.564 143.149 160.377 143.485 160.426 143.796L160.431 143.798Z" fill="#693413"/>
<path d="M180.423 155.25C180.776 155.241 180.762 154.69 180.406 154.701C180.053 154.711 180.067 155.262 180.423 155.25Z" fill="#693413"/>
<path d="M194.771 160.027C195.636 160.004 195.601 158.658 194.733 158.684C193.868 158.707 193.903 160.053 194.771 160.027Z" fill="#693413"/>
<path d="M157.874 127.851C160.473 127.779 160.363 123.745 157.762 123.819C155.163 123.892 155.273 127.926 157.874 127.851Z" fill="#693413"/>
<path d="M151.252 145.082C151.765 145.068 151.744 144.273 151.229 144.287C150.717 144.301 150.738 145.096 151.252 145.082Z" fill="#693413"/>
<path d="M146.065 114.396C147.995 114.342 147.913 111.347 145.981 111.401C144.051 111.455 144.133 114.45 146.065 114.396Z" fill="#693413"/>
<path d="M132.14 124.51C133.281 124.477 133.234 122.706 132.091 122.737C130.949 122.769 130.996 124.54 132.14 124.51Z" fill="#693413"/>
<path d="M136.216 137.532C138.382 137.472 138.29 134.11 136.122 134.171C133.956 134.231 134.048 137.593 136.216 137.532Z" fill="#693413"/>
<path d="M113.313 136.023C114.101 136.002 114.068 134.778 113.278 134.801C112.49 134.822 112.522 136.046 113.313 136.023Z" fill="#693413"/>
<path d="M106.714 121.021C108.604 120.967 108.524 118.035 106.632 118.087C104.742 118.14 104.822 121.072 106.714 121.021Z" fill="#693413"/>
<path d="M124.733 108.242C125.914 108.21 125.865 106.376 124.682 106.409C123.501 106.441 123.55 108.275 124.733 108.242Z" fill="#693413"/>
<path d="M100.235 104.913C101.81 104.868 101.744 102.425 100.168 102.469C98.5935 102.514 98.659 104.957 100.235 104.913Z" fill="#693413"/>
<path d="M170.03 160.049C171.408 160.009 171.349 157.871 169.969 157.909C168.591 157.948 168.65 160.086 170.03 160.049Z" fill="#693413"/>
<path d="M173.294 141.78C174.868 141.736 174.803 139.292 173.226 139.337C171.652 139.381 171.718 141.824 173.294 141.78Z" fill="#693413"/>
<path d="M22.1786 65.1301C24.0685 65.0764 23.989 62.1446 22.0968 62.196C20.2069 62.2497 20.2864 65.1815 22.1786 65.1301Z" fill="#693413"/>
<path d="M51.9265 67.429C52.9884 67.3986 52.944 65.7493 51.8797 65.7797C50.8178 65.8101 50.8623 67.4593 51.9265 67.429Z" fill="#693413"/>
<path d="M35.8003 60.1607C37.3346 60.1187 37.2715 57.7336 35.7324 57.778C34.1981 57.82 34.2612 60.2051 35.8003 60.1607Z" fill="#693413"/>
<path d="M71.0932 86.8647C73.928 86.7853 73.8088 82.3865 70.9692 82.4659C68.1344 82.5453 68.2537 86.9442 71.0932 86.8647Z" fill="#693413"/>
<path d="M58.2755 91.7176C59.2603 91.6896 59.2182 90.1618 58.2334 90.1898C57.2487 90.2179 57.2908 91.7457 58.2755 91.7176Z" fill="#693413"/>
<path d="M81.2022 100.9C82.3436 100.868 82.2968 99.097 81.1531 99.1273C80.0116 99.16 80.0584 100.931 81.2022 100.9Z" fill="#693413"/>
<path d="M89.7254 87.337C91.0633 87.2997 91.0072 85.2229 89.6669 85.2603C88.329 85.2976 88.3852 87.3744 89.7254 87.337Z" fill="#693413"/>
<path d="M87.2402 123.883C90.4282 123.794 90.2949 118.844 87.1022 118.933C83.9142 119.022 84.0475 123.972 87.2402 123.883Z" fill="#693413"/>
<path d="M139.674 97.737C140.935 97.702 140.881 95.7467 139.618 95.7817C138.357 95.8168 138.411 97.772 139.674 97.737Z" fill="#693413"/>
<path d="M191.154 172.382C193.556 172.314 193.455 168.588 191.048 168.653C188.646 168.721 188.747 172.447 191.154 172.382Z" fill="#693413"/>
<path d="M206.593 164.696C208.68 164.637 208.593 161.399 206.502 161.458C204.416 161.516 204.502 164.754 206.593 164.696Z" fill="#693413"/>
<path d="M46.7602 80.1579C48.7296 80.1018 48.6454 77.0463 46.6736 77.1023C44.7042 77.1584 44.7884 80.214 46.7602 80.1579Z" fill="#693413"/>
<path d="M16.0841 39.6246L14.8398 25.6829C25.2225 23.3819 18.9002 1 18.9002 1L9.96298 2.30353L1 3.39214C1 3.39214 1.25729 26.8323 11.8786 26.3277L14.3088 39.9353L8.5783 43.7338L22.2052 41.914L16.0841 39.6293V39.6246Z" stroke="#FD8051" stroke-linejoin="round"/>
<path d="M18.9748 13.0684C18.9748 13.0684 19.9268 23.5036 12.9238 24.4404C6.27645 25.3281 4.30469 16.3552 4.30469 16.3552C4.30469 16.3552 6.40509 13.6127 9.98608 14.9068C13.5671 16.201 17.424 15.2596 18.9771 13.0684H18.9748Z" fill="#3B6683"/>
<path d="M12.8011 22.4104C12.8034 22.4525 12.5111 22.5366 11.9614 22.5342C11.4188 22.5249 10.5931 22.4057 9.71597 21.9105C9.27858 21.6675 8.83651 21.3358 8.42017 20.9247C8.00618 20.5112 7.62024 20.0206 7.26706 19.474C6.5677 18.376 6.01804 17.0561 5.6017 15.6428C4.77838 12.8021 4.54916 10.1414 4.46963 8.23045C4.4018 6.31487 4.51641 5.13048 4.61699 5.13282C4.71991 5.13282 4.78774 6.3102 4.98421 8.19541C5.19238 10.0759 5.50346 12.6853 6.30106 15.4372C6.7057 16.8085 7.21326 18.0747 7.83777 19.1235C8.15119 19.6468 8.49268 20.1117 8.85523 20.5088C9.21777 20.9036 9.60136 21.226 9.98028 21.4736C10.7404 21.9759 11.4772 22.1628 11.9848 22.2562C12.497 22.3427 12.7964 22.359 12.7987 22.4151L12.8011 22.4104Z" fill="white"/>
</svg>
