<svg width="512" height="304" viewBox="0 0 512 304" fill="none" xmlns="http://www.w3.org/2000/svg">
<g clip-path="url(#clip0_2872_25589)">
<path d="M479.472 160.811C486.872 156.843 482.205 150.87 482.205 150.87C482.205 150.87 489.972 146.557 485.727 142.536C481.481 138.514 474.924 146.902 474.924 146.902L451.052 141.026C451.052 141.026 450.361 131.355 443.609 134.277C435.724 137.684 441.946 143.247 441.946 143.247C436.826 145.479 435.951 151.506 440.25 152.671C445.651 154.126 448.567 148.444 448.567 148.444L471.144 154.288C471.144 154.288 472.084 164.779 479.472 160.811Z" fill="#FAFBFA"/>
<path d="M175.155 287.152C133.869 284.985 99.2053 264.025 87.9928 234.892C74.0365 198.632 76.4885 158.944 96.0187 124.043C122.225 77.206 178.655 39.9758 245.044 25.7221C300.372 13.8404 368.911 20.7732 401.598 55.5126C422.922 78.1763 424.736 107.428 424.909 134.933C425.071 161.251 424.326 187.969 413.978 213.177C403.629 238.385 382.414 262.257 350.537 274.451C321.858 285.427 288.101 285.934 255.727 286.193C227.383 286.419 200.583 288.489 175.155 287.152Z" fill="#D0BEEA"/>
<path d="M129.409 71.6001C143.883 55.5781 158.758 47.2113 181.291 37.2811C190.581 33.184 201.793 28.0194 201.275 20.1162C200.832 13.2912 191.272 8.6011 182.101 7.14553C161.491 3.85703 139.552 11.4907 126.416 23.491C113.281 35.4913 107.858 51.1575 106.703 66.5002C106.389 70.7267 107.113 75.9021 112.374 77.7135C118.585 79.8483 125.131 75.5032 129.409 71.5893" fill="#D0BEEA"/>
<path d="M409.764 238.483C410.423 237.653 410.974 236.78 411.471 235.885C414.366 230.623 417.25 229.157 420.156 223.13C420.609 222.203 421.063 221.254 421.873 220.456C424.714 217.653 431.012 217.706 435.073 219.626C442.916 223.324 443.477 232.003 437.828 237.319C431.8 243.001 420.847 245.211 410.877 244.92C409.861 244.888 408.943 244.413 408.652 243.723C407.777 241.675 408.554 240.014 409.764 238.483Z" fill="#D0BEEA"/>
<path d="M80.1632 258.495C81.5027 260.576 83.231 262.484 84.9377 264.263C89.4746 269.018 94.7136 273.137 100.19 276.77C108.918 282.56 118.489 287.056 128.34 290.593C142.362 295.639 157.042 298.625 171.83 300.318C192.051 302.636 212.532 302.388 232.786 300.587C235.713 300.329 238.63 300.038 241.546 299.714C242.994 299.552 244.247 298.593 244.247 297.019C244.247 295.682 243.004 294.161 241.546 294.323C220.731 296.631 199.667 297.418 178.775 295.628C163.782 294.345 148.81 291.671 134.39 286.981C131.484 286.032 128.6 285.008 125.748 283.886C125.121 283.638 124.495 283.39 123.868 283.132C123.512 282.981 123.145 282.83 122.788 282.689C122.313 282.485 122.691 282.646 122.788 282.689C122.572 282.603 122.367 282.506 122.151 282.42C120.919 281.892 119.688 281.342 118.467 280.77C114.082 278.732 109.804 276.447 105.688 273.902C103.917 272.802 102.167 271.649 100.471 270.452C99.7149 269.913 98.9588 269.374 98.2243 268.813C97.9974 268.651 96.8632 267.767 97.5977 268.339C97.2413 268.058 96.8848 267.789 96.5391 267.508C94.2599 265.686 92.0563 263.756 89.9931 261.708C88.6104 260.338 87.2818 258.904 86.0503 257.406C85.8451 257.158 85.6615 256.91 85.4562 256.662C85.2186 256.381 85.9963 257.384 85.6074 256.856C85.5426 256.759 85.467 256.673 85.4022 256.576C85.2294 256.338 85.0565 256.09 84.8837 255.853C84.8621 255.821 84.8405 255.788 84.8189 255.767C82.9393 252.856 78.262 255.562 80.1524 258.484L80.1632 258.495Z" fill="#D0BEEA"/>
<path d="M306.508 15.2006C309.976 15.1035 313.465 15.2437 316.921 15.4162C320.724 15.6103 324.526 15.9014 328.318 16.3003C329.43 16.4189 330.543 16.5375 331.655 16.6777C332.195 16.7424 332.746 16.8071 333.286 16.8825C333.567 16.9149 333.837 16.958 334.118 16.9904C334.626 17.0551 334.118 16.9904 334.021 16.9796C334.226 17.0119 334.442 17.0335 334.648 17.0658C337.089 17.4001 339.53 17.7774 341.95 18.1979C353.011 20.1279 363.964 22.942 374.421 27.0392C375.911 27.6214 377.024 28.085 378.147 28.5702C379.476 29.1524 380.805 29.7454 382.112 30.3708C384.823 31.6646 387.491 33.0555 390.095 34.565C392.698 36.0744 395.172 37.6594 397.602 39.3737C398.218 39.805 398.833 40.2578 399.438 40.7107C400.216 41.2929 400.249 41.3145 400.897 41.832C402.085 42.77 403.241 43.7404 404.375 44.7431C406.654 46.7594 408.815 48.905 410.845 51.18C413.017 53.6167 414.486 55.4927 416.279 58.1451C419.887 63.4822 422.576 68.9702 424.51 74.8787C425.05 76.5176 425.525 78.1672 425.947 79.8384C426.8 83.2024 432.017 81.7792 431.153 78.4044C427.88 65.52 421.194 53.7676 411.807 44.3442C403.122 35.6216 392.471 29.0015 381.226 24.0849C369.981 19.1683 359.125 16.0523 347.588 13.7881C338.385 11.9768 329.041 10.7907 319.687 10.1977C315.387 9.9174 310.98 9.59394 306.659 9.82036C306.595 9.82036 306.541 9.82036 306.476 9.82036C303.008 9.9174 302.997 15.3084 306.476 15.2113L306.508 15.2006Z" fill="#D0BEEA"/>
<path d="M420.113 55.6752C417.704 71.7187 408.641 86.8782 394.944 95.741C390.861 98.3825 386.032 100.992 384.79 105.682C383.991 108.658 384.866 111.806 385.686 114.771C398.595 161.975 397.374 211.938 379.735 257.589C360.291 275.918 324.644 285.622 280.355 285.622L281.252 278.894L282.311 271.099C283.931 259.066 285.865 245.244 287.993 230.418C300.577 142.545 319.794 18.693 321.025 14.7684C324.774 2.78965 332.972 37.1841 333.296 49.7343C337.812 43.6964 344.995 39.7179 352.513 39.1033C349.629 25.7444 350.191 15.7388 354.123 3.11311C354.393 2.20742 355.689 2.06726 356.175 2.88668C363.845 16.1162 364.741 27.6852 369.311 43.5023C370.077 46.1439 369.818 49.6588 372.4 50.5861C373.977 51.1468 375.716 50.4567 377.25 49.7882C386.378 45.7666 395.506 41.7449 404.633 37.734C409.267 35.6962 413.912 33.6584 418.546 31.6098C420.89 39.4052 421.333 47.6642 420.113 55.686V55.6752Z" fill="white"/>
<path d="M290.511 245.212C290.511 245.212 276.976 145.241 234.275 111.321C233.735 110.89 235.204 111.311 235.258 111.99C236.306 127.117 241.945 242.991 281.47 279.11L290.522 245.212H290.511Z" fill="white"/>
<path d="M420.116 55.6748C412.447 51.4375 407.402 43.3726 404.637 37.712C409.271 35.6743 413.916 33.6365 418.55 31.5879C420.894 39.3832 421.337 47.6422 420.116 55.664V55.6748Z" fill="#534741"/>
<path d="M335.61 75.8154C336.528 78.1119 335.642 80.6241 333.644 81.422C331.635 82.2199 329.269 81.0123 328.351 78.7157C327.433 76.4192 328.319 73.907 330.317 73.1091C332.326 72.3112 334.692 73.5188 335.61 75.8154Z" fill="#534741"/>
<path d="M363.079 63.7177C363.997 66.0143 363.111 68.5265 361.113 69.3243C359.104 70.1222 356.738 68.9146 355.82 66.6181C354.902 64.3215 355.787 61.8093 357.786 61.0115C359.795 60.2136 362.161 61.4212 363.079 63.7177Z" fill="#534741"/>
<path d="M390.569 94.209C390.569 94.209 375.078 112.409 361.457 95.74" stroke="#534741" stroke-miterlimit="10" stroke-linecap="round"/>
<path d="M117.246 269.461C106.444 222.02 106.023 154.029 147.697 64.5391L160.076 97.0251C160.076 97.0251 168.696 93.963 179.39 97.0251L192.256 64.5391C192.256 64.5391 255.059 158.45 237.149 286.712C199.342 288.869 151.813 292.103 117.246 269.461Z" fill="white"/>
<path d="M160.658 111.536C160.658 113.606 159.092 115.278 157.169 115.278C155.246 115.278 153.68 113.596 153.68 111.536C153.68 109.477 155.246 107.795 157.169 107.795C159.092 107.795 160.658 109.477 160.658 111.536Z" fill="#534741"/>
<path d="M184.877 111.536C184.877 113.606 183.31 115.278 181.388 115.278C179.465 115.278 177.898 113.596 177.898 111.536C177.898 109.477 179.465 107.795 181.388 107.795C183.31 107.795 184.877 109.477 184.877 111.536Z" fill="#534741"/>
<path d="M193.55 213.102C212.821 217.027 233.798 212.779 249.721 201.123C257.671 195.301 264.519 187.894 268.959 179.042C273.399 170.19 275.656 160.508 275.689 150.685C275.721 140.863 273.55 131.429 269.348 122.717C267.242 118.35 264.498 114.307 261.333 110.63C257.714 106.415 253.318 102.943 248.824 99.7189C244.33 96.4951 239.567 93.5301 235.062 90.2416C234.565 89.875 234.068 89.5084 233.571 89.1418C232.75 88.5273 233.399 89.0124 233.571 89.1418C233.334 88.9478 233.085 88.7645 232.848 88.5704C231.735 87.6863 230.644 86.759 229.607 85.7994C228.711 84.9692 227.846 84.1067 227.025 83.2117C226.583 82.7373 226.15 82.2414 225.74 81.7454C225.556 81.519 225.373 81.3033 225.189 81.0769C225.049 80.9044 224.919 80.7427 224.779 80.5702C225.135 81.0338 225.2 81.1093 224.962 80.7966C223.482 78.6618 222.078 76.5377 220.987 74.1657C220.911 74.004 220.566 73.163 220.836 73.8422C221.16 74.6293 220.652 73.3463 220.641 73.3139C220.447 72.7964 220.263 72.2681 220.101 71.729C219.777 70.6615 219.205 69.2383 219.27 68.117C219.205 69.3462 219.324 68.5267 219.291 68.1278C219.27 67.8582 219.248 67.5887 219.237 67.3084C219.205 66.6938 219.194 66.0792 219.215 65.4754C219.237 64.9795 219.161 64.311 219.334 63.8474C218.967 64.8501 219.237 64.4296 219.324 64.0522C219.41 63.6425 219.486 63.2328 219.583 62.8338C219.734 62.2193 219.907 61.6155 220.112 61.0117C220.198 60.7421 220.307 60.4834 220.404 60.2246C220.674 59.4375 219.81 61.3567 220.436 60.1707C221.03 59.0602 221.603 57.9712 222.316 56.9253C222.435 56.7528 222.629 56.397 222.802 56.2461C221.97 56.99 222.64 56.4509 222.867 56.1814C223.266 55.6962 223.688 55.211 224.12 54.7474C224.995 53.8093 225.913 52.9252 226.874 52.0734C227.306 51.6961 227.738 51.3295 228.181 50.9629C228.462 50.7365 228.743 50.5101 229.024 50.2944C229.639 49.7985 228.311 50.812 228.959 50.3483C230.072 49.5613 231.163 48.7526 232.297 47.9979C236.974 44.8819 241.803 42.0462 246.221 38.5529C250.325 35.3075 254.085 31.3182 256.213 26.4986C258.47 21.388 259.475 15.6843 258.017 10.1963C257.25 7.32831 255.791 4.83768 253.869 2.60581C251.946 0.373947 248.1 0.578804 246.231 2.60581C244.125 4.89159 244.266 7.9321 246.231 10.2287C246.89 10.9942 246.177 10.0777 246.102 10.0238C246.307 10.1424 246.502 10.5952 246.62 10.8001C246.88 11.2206 247.096 11.6627 247.322 12.1047C247.668 12.7516 246.998 11.1451 247.204 11.8352C247.29 12.1263 247.409 12.4174 247.495 12.7085C247.657 13.2476 247.744 13.7867 247.873 14.3366C248.046 15.1129 247.798 12.9565 247.852 14.1964C247.852 14.4444 247.884 14.6924 247.895 14.9512C247.917 15.4579 247.917 15.9647 247.895 16.4714C247.884 16.7302 247.852 16.9782 247.841 17.2369C247.798 18.2073 247.841 17.1075 247.895 16.9458C247.69 17.528 247.668 18.2397 247.517 18.8434C247.398 19.3502 247.247 19.8462 247.085 20.3421C247.009 20.5901 246.923 20.8381 246.826 21.0861C246.804 21.1508 246.307 22.3476 246.664 21.5389C246.977 20.8273 246.275 22.3152 246.188 22.4877C245.886 23.0592 245.562 23.6306 245.216 24.1697C244.935 24.601 244.633 25.0215 244.341 25.442C243.887 26.0889 245.184 24.4932 244.255 25.539C244.06 25.7547 243.877 25.9811 243.682 26.2075C242.818 27.1887 241.878 28.1159 240.906 28.9893C240.474 29.3774 240.031 29.7548 239.577 30.1322C239.329 30.337 238.022 31.3505 238.951 30.6497C237.892 31.4476 236.812 32.2131 235.721 32.957C233.517 34.4449 231.26 35.8466 229.013 37.2914C224.606 40.1163 220.198 43.1675 216.601 46.9951C213.004 50.8227 209.828 55.8148 208.878 61.2165C207.927 66.6183 208.554 72.2357 210.66 77.3787C212.767 82.5217 216.007 87.3628 219.95 91.4923C223.893 95.6218 228.419 98.8456 232.999 102.005C235.17 103.493 237.363 104.948 239.545 106.425C240.636 107.158 241.716 107.913 242.786 108.668C243.347 109.067 243.92 109.477 244.471 109.886C244.719 110.07 244.968 110.253 245.216 110.436C245.411 110.587 246.491 111.428 245.594 110.717C247.603 112.312 249.559 113.973 251.362 115.795C252.119 116.56 252.853 117.347 253.555 118.156C253.89 118.533 254.203 118.922 254.527 119.31C254.722 119.547 254.949 119.784 255.111 120.043C254.776 119.536 254.646 119.428 255.068 120C256.375 121.757 257.552 123.612 258.621 125.531C259.108 126.404 259.572 127.299 260.004 128.194C260.253 128.701 260.49 129.218 260.717 129.725C260.793 129.898 261.128 130.663 260.814 129.941C260.479 129.164 260.911 130.178 260.976 130.34C262.618 134.448 263.698 138.707 264.401 143.073C264.563 144.044 264.379 142.901 264.368 142.761C264.39 143.008 264.433 143.267 264.465 143.515C264.53 144.076 264.595 144.647 264.638 145.208C264.735 146.34 264.811 147.483 264.843 148.615C264.908 150.825 264.865 153.047 264.681 155.257C264.606 156.249 264.584 157.305 264.368 158.276C264.725 156.68 264.303 158.578 264.249 158.912C264.141 159.537 264.033 160.163 263.904 160.777C263.472 162.944 262.91 165.09 262.229 167.203C261.916 168.163 261.581 169.122 261.214 170.06C261.03 170.524 260.879 171.02 260.652 171.473C261.333 170.136 260.436 171.926 260.274 172.26C259.334 174.265 258.276 176.217 257.098 178.082C256.515 179.009 255.899 179.926 255.251 180.81C254.949 181.22 254.668 181.673 254.322 182.061C255.132 181.166 254.625 181.673 254.452 181.888C254.203 182.19 253.966 182.492 253.717 182.794C252.27 184.53 250.725 186.179 249.094 187.732C248.295 188.487 247.485 189.22 246.653 189.932C246.264 190.266 245.864 190.6 245.465 190.924C245.259 191.085 245.065 191.247 244.86 191.409C243.823 192.239 245.799 190.729 244.719 191.506C242.937 192.8 241.133 194.04 239.243 195.172C237.233 196.368 235.17 197.447 233.053 198.428C232.686 198.6 231.908 198.773 231.627 199.064C231.703 198.988 232.783 198.59 231.843 198.978C231.605 199.075 231.357 199.172 231.119 199.269C230.028 199.7 228.937 200.11 227.825 200.476C225.664 201.21 223.472 201.824 221.246 202.342C220.166 202.59 219.086 202.805 217.995 203.01C217.487 203.107 216.969 203.183 216.45 203.269C216.234 203.301 215.91 203.387 215.672 203.387C217.033 203.431 215.942 203.355 215.554 203.387C211.028 203.927 206.447 204.002 201.911 203.592C201.392 203.549 200.874 203.495 200.355 203.431C200.117 203.398 199.826 203.387 199.577 203.334C200.82 203.625 200.171 203.42 199.858 203.366C198.702 203.183 197.547 202.989 196.402 202.751C193.636 202.191 190.439 203.549 189.758 206.514C189.143 209.199 190.568 212.541 193.528 213.145L193.55 213.102Z" fill="white"/>
<path d="M168.445 121.209V124.983C168.445 125.274 168.694 125.522 168.985 125.522C169.277 125.522 169.526 125.274 169.526 124.983V121.209C169.526 120.918 169.277 120.67 168.985 120.67C168.694 120.67 168.445 120.918 168.445 121.209Z" fill="#534741"/>
<path d="M164.86 123.44C166.005 124.982 167.777 126.06 169.754 125.747C171.611 125.456 173.07 123.958 173.869 122.34C174.182 121.726 173.243 121.176 172.94 121.801C172.281 123.127 171.19 124.367 169.678 124.68C168.166 124.993 166.675 124.087 165.789 122.901C165.379 122.351 164.439 122.89 164.86 123.44Z" fill="#534741"/>
<path d="M170.045 121.542L171.676 118.727C172.151 117.919 171.557 116.895 170.617 116.895H167.366C166.426 116.895 165.843 117.908 166.307 118.727L167.939 121.542C168.414 122.35 169.58 122.35 170.056 121.542H170.045Z" fill="#FFB9C0"/>
<g opacity="0.7">
<path d="M260.773 71.1907C255.091 69.789 250.176 65.5517 247.972 60.1392C247.259 58.3925 246.816 56.4625 247.259 54.6296C247.702 52.7966 249.225 51.147 251.105 51.0068C252.552 50.9098 253.935 51.6969 254.907 52.7751C255.879 53.8533 256.484 55.1902 257.078 56.5056C256.128 54.1228 255.156 51.5675 255.631 49.0445C256.106 46.5215 258.677 44.2142 261.129 45.0121C263.246 45.7021 264.143 48.1496 264.618 50.3168C266.152 57.3035 266.098 64.991 262.533 71.1907" fill="#FF4961"/>
</g>
<path d="M282.323 74.0159C279.514 71.0401 278.24 66.6949 278.996 62.6841C279.244 61.3902 279.719 60.0856 280.67 59.1799C281.621 58.2742 283.144 57.8753 284.3 58.5007C285.185 58.9858 285.704 59.9778 285.866 60.9805C286.028 61.9832 285.866 62.9967 285.725 63.9995C286.071 62.242 286.471 60.3767 287.713 59.0721C288.955 57.7675 291.332 57.3901 292.477 58.781C293.46 59.9778 293.06 61.7676 292.509 63.2124C290.759 67.9025 287.81 72.3986 283.36 74.6952" fill="#FFB861"/>
<path d="M274.276 94.22C271.683 95.6216 268.432 95.7079 265.774 94.4356C264.921 94.0259 264.1 93.4545 263.646 92.6243C263.193 91.794 263.193 90.6619 263.852 89.9827C264.348 89.4544 265.137 89.2818 265.861 89.3573C266.584 89.4328 267.265 89.7239 267.935 90.0042C266.768 89.4436 265.547 88.8182 264.867 87.7185C264.186 86.6187 264.359 84.8936 265.537 84.3653C266.552 83.9016 267.719 84.5162 268.637 85.1524C271.575 87.2333 274.168 90.1013 274.945 93.6162" fill="#E1E7FD"/>
<path d="M63.3191 197.275C63.3839 197.393 63.4704 197.479 63.5676 197.544C63.654 197.695 63.8592 197.825 63.9997 197.9C64.4101 198.072 64.8206 198.245 65.2635 198.288C67.4131 198.568 69.0334 197.695 70.7834 195.905C72.8358 193.501 74.7153 189.016 73.4947 185.91C72.9654 184.746 71.9608 183.862 70.9346 183.129C69.6383 182.158 68.0612 181.63 66.4409 181.641C63.3083 181.705 59.5492 183.28 58.415 186.191C57.1835 189.501 61.5476 194.946 63.3083 197.275H63.3191ZM60.0677 187.269C59.8949 184.412 64.2805 182.255 67.5103 182.762C69.4763 183.01 70.8374 184.304 71.8096 185.652C73.6999 188.326 71.6907 193.21 69.1414 194.827C67.4563 195.819 67.4347 195.895 65.9332 196.045C65.0691 196.024 65.6524 196.099 64.7882 195.884C64.7342 195.873 64.6802 195.862 64.637 195.851C64.1617 195.032 63.6 194.277 63.0383 193.523C61.4504 191.323 60.1541 188.929 60.0785 187.269H60.0677Z" fill="white"/>
<path d="M64.0117 197.91C64.1509 197.985 64.2151 198.007 64.0117 197.91V197.91Z" fill="white"/>
<path d="M63.957 197.878C63.957 197.878 63.9889 197.888 64.0101 197.899C64.0101 197.899 64.0101 197.899 64.0207 197.899C63.9995 197.899 63.9783 197.878 63.957 197.867V197.878Z" fill="white"/>
<path d="M39.4683 201.759C39.6303 202.395 40.1704 203.387 40.7969 204.25C40.8401 204.315 40.8941 204.379 40.9374 204.455C41.3694 205.695 43.2814 207.441 44.7397 208.304C48.2612 210.45 51.5018 211.517 55.5202 212.336C59.6033 213.339 63.0924 213.221 66.6679 212.239C72.6847 210.762 78.4854 207.398 81.1103 202.439C82.2229 200.185 82.7414 198.341 82.4821 195.43C82.4389 195.15 82.3957 194.87 82.3417 194.589C82.9034 194.568 83.4651 194.374 83.9836 194.201C87.127 192.907 90.0868 191.107 92.7441 188.993C94.8613 187.225 96.7949 185.144 98.0047 182.654C99.6898 179.193 100.662 175.236 100.079 171.397C99.6898 168.669 98.372 166.071 96.2656 164.26C95.8011 163.861 95.3042 163.483 94.7857 163.138C94.8505 161.532 94.6777 159.947 94.2888 158.556C93.1654 154.621 90.2812 151.44 86.9758 149.122C85.2907 147.936 83.3787 147.03 81.3047 146.868C80.7754 146.89 80.1273 146.61 79.6844 146.955C79.3279 147.289 79.598 147.957 80.0841 147.925C80.1165 147.925 80.1165 147.925 80.0841 147.925C80.0301 147.925 80.0301 147.925 80.0841 147.925C80.1273 147.925 80.1597 147.947 80.2029 147.947C81.0671 148.141 81.9312 148.41 82.7738 148.69C85.4311 149.521 90.4217 153.165 92.0312 156.863C92.7333 158.47 93.1114 160.324 93.1114 162.179C90.7673 161.111 88.1964 160.939 86.144 162.707C84.5561 163.979 82.7738 165.553 82.5145 167.688C82.3525 170.826 85.6903 172.961 88.5745 172.303C92.2256 171.516 94.0728 168.303 94.6237 164.788C96.3736 165.996 97.605 167.548 98.2423 169.316C100.316 175.149 97.9183 182.664 93.3814 186.902C91.2534 188.95 89.147 190.374 86.3277 191.958C84.8478 192.767 83.5191 193.533 82.1473 193.64C81.2831 190.082 79.4359 186.88 76.541 184.465C74.5966 182.697 71.9393 181.295 69.7465 180.443C66.1062 178.912 62.077 178.503 58.1991 179.16C57.3997 179.257 56.5896 179.398 55.7902 179.548C55.7686 179.484 55.7362 179.43 55.7254 179.365C55.2717 178.319 54.656 177.327 53.8242 176.53C51.1345 173.963 45.7443 174.427 43.1842 176.982C41.996 178.233 41.1642 179.861 41.0238 181.586C40.9698 182.805 41.3802 183.98 41.5963 185.155C41.7151 185.77 42.158 187.204 42.6981 188.142C42.0392 189.198 41.4667 190.298 40.9374 191.409C39.3603 194.568 38.5501 198.244 39.4791 201.716L39.4683 201.759ZM92.9925 163.85C92.7657 165.597 92.1716 167.289 91.1562 168.723C89.9896 170.168 88.5313 171.074 86.6301 170.934C85.3771 170.794 84.0376 169.651 83.854 168.249C83.7676 167.904 83.8648 167.386 84.0268 167.009C84.5993 165.855 85.1718 165.306 86.2196 164.303C88.218 162.265 90.9293 162.761 92.9709 163.839C92.9709 163.839 92.9817 163.839 92.9925 163.85ZM54.8072 179.775C51.2749 180.605 47.8939 182.115 45.3446 184.735C44.6425 185.446 44.0159 186.222 43.4434 187.042C42.7413 185.177 42.7089 184.174 42.5469 182.082C42.5685 181.597 42.7953 180.724 43.1302 179.829C43.2166 179.656 43.5839 178.966 43.7243 178.772C43.7567 178.707 43.8107 178.643 43.8431 178.589C45.8739 175.937 49.309 175.494 52.0527 176.54C53.4462 177.22 54.2239 178.395 54.818 179.775H54.8072ZM45.0097 187.872C47.9155 183.689 52.6144 181.187 58.4907 180.433C64.3238 179.322 71.5072 181.155 76.0333 185.457C81.4559 190.136 81.6504 196.692 79.7708 200.271C76.8218 206.428 70.427 209.522 63.222 210.87C62.1958 211.064 57.5942 211.075 56.2655 210.784C55.4986 210.557 52.7332 209.867 51.3181 209.49C48.9957 208.778 47.1161 208.228 45.4094 207.247C45.4202 207.129 45.4094 206.999 45.3338 206.881C45.2582 206.741 45.1178 206.644 44.9773 206.6C44.9341 206.6 44.9017 206.568 44.8585 206.557C44.5236 206.406 44.2212 206.18 43.9187 205.975C43.3354 205.544 42.2552 204.466 41.7907 203.603C41.3586 202.816 41.175 202.169 41.0022 201.447C39.8031 196.907 41.9852 192.282 45.0097 187.861V187.872Z" fill="white"/>
<path d="M42.3553 195.333C42.7549 194.557 43.7811 194.319 44.5805 194.514C45.2934 194.751 45.8875 195.408 45.9524 196.163C46.0496 197.856 43.5975 198.363 42.6577 197.144C42.5281 197.015 42.2797 196.659 42.258 196.163C42.1932 195.894 42.2148 195.613 42.3445 195.333H42.3553Z" fill="white"/>
<path d="M49.1059 198.567C57.4019 203.549 64.9526 209.683 72.4384 215.797C72.6869 216.002 72.3412 216.325 72.1684 216.131C66.5189 211.7 61.2475 207.279 55.3927 203.247C53.7292 202.093 52.0765 200.896 50.359 199.829C49.8837 199.484 49.1492 199.236 48.7819 198.826C48.7279 198.643 48.9439 198.459 49.1167 198.567H49.1059Z" fill="white"/>
<path d="M48.0989 200.035C52.0632 203.086 55.7467 206.483 59.6463 209.599C62.174 211.69 64.6908 213.782 67.0241 216.089C67.1429 216.208 67.3914 216.37 67.1861 216.521C67.0133 216.596 66.9161 216.402 66.7864 216.326C64.356 214.343 61.9795 212.283 59.5923 210.245C55.8763 207.183 52.3009 203.96 48.5849 200.897C48.5201 200.844 48.4445 200.79 48.3797 200.736C48.1961 200.563 47.926 200.455 47.8072 200.24C47.764 200.078 47.9476 199.927 48.0989 200.013V200.035Z" fill="white"/>
<path d="M27.6532 190.804C31.9741 191.602 36.2625 192.616 40.5077 193.769C40.6697 193.834 40.875 193.813 40.983 193.964C41.091 194.125 40.9182 194.362 40.7237 194.298C36.3381 193.112 31.8876 192.109 27.4696 191.042C27.3292 190.923 27.4804 190.718 27.6424 190.794L27.6532 190.804Z" fill="white"/>
<path d="M26.1183 194.859C26.5828 194.568 42.5915 194.546 39.7937 195.808C35.6997 195.107 30.8172 195.42 26.4207 195.29C26.0751 195.344 25.859 195.085 26.1183 194.859Z" fill="white"/>
<path d="M52.474 195.539C52.7008 194.838 53.565 194.267 54.1699 194.914C54.5156 195.356 54.4399 196.003 54.1699 196.456C54.1267 196.531 54.0619 196.606 53.9971 196.671C53.835 196.876 53.6082 197.016 53.3273 197.027C53.1977 197.027 53.0789 196.995 52.9817 196.962C52.4848 196.79 52.2795 196.261 52.4956 195.55L52.474 195.539Z" fill="white"/>
<path d="M44.4493 191.193C44.5681 190.46 45.3458 189.77 46.0372 190.32C46.4369 190.708 46.4693 191.355 46.2532 191.84C46.2208 191.926 46.1668 192.002 46.1128 192.077C45.9724 192.304 45.7779 192.476 45.4971 192.53C45.3674 192.541 45.2486 192.53 45.1406 192.519C44.6221 192.422 44.3521 191.926 44.4493 191.193Z" fill="white"/>
</g>
<defs>
<clipPath id="clip0_2872_25589">
<rect width="461" height="301" fill="white" transform="translate(26 1)"/>
</clipPath>
</defs>
</svg>
