<svg width="172" height="124" viewBox="0 0 172 124" fill="none" xmlns="http://www.w3.org/2000/svg">
<g clip-path="url(#clip0_2954_13761)">
<path d="M151.267 10.071C139.317 2.85494 124.065 0.917479 108.644 8.22523L92.9541 32.7878L105.456 54.9564L89.9394 72.0032L97.2786 91.1338L84.3749 109.754L83.0002 122.848L147.72 88.3724C178.342 72.0655 180.964 28.0032 151.268 10.0536L151.267 10.071Z" fill="#D14535"/>
<path d="M82.6576 90.5782L69.6018 73.9717L79.0349 53.7755L61.1312 36.8727L69.0767 7.87666C54.4458 -1.7945 38.7123 -1.88163 25.744 3.92107C-5.95057 18.0706 -8.80325 62.1223 19.5661 82.0745L79.1574 124L76.4272 110.356L82.6576 90.5608V90.5782Z" fill="#D14535"/>
</g>
<defs>
<clipPath id="clip0_2954_13761">
<rect width="171.616" height="124" fill="white"/>
</clipPath>
</defs>
</svg>
