<svg width="20" height="20" viewBox="0 0 20 20" fill="none" xmlns="http://www.w3.org/2000/svg">
<g clip-path="url(#clip0_3212_8209)">
<path d="M12.3971 16.2404L11.5311 16.7404C11.2857 16.882 11.0322 16.9176 10.7705 16.847C10.5088 16.7764 10.307 16.6188 10.1651 16.3744C10.0232 16.1299 9.98763 15.8764 10.0585 15.6137C10.1293 15.3511 10.2869 15.1493 10.5311 15.0083L11.3971 14.5083L10.3471 12.6897C9.09018 13.1459 7.84079 13.1406 6.59893 12.6736C5.35707 12.2067 4.39909 11.3887 3.725 10.2198C2.96667 8.90637 2.78863 7.52267 3.1909 6.06875C3.59317 4.61483 4.45058 3.50858 5.76314 2.75C7.0757 1.99142 8.46274 1.80184 9.92425 2.18125C11.3858 2.56066 12.4948 3.40685 13.2513 4.71984C13.9263 5.88897 14.1555 7.12802 13.939 8.43699C13.7225 9.74595 13.1025 10.8302 12.0792 11.6897L13.1292 13.5083L13.9952 13.0083C14.2406 12.8667 14.4944 12.831 14.7567 12.9012C15.0189 12.9715 15.2205 13.1292 15.3612 13.3744C15.502 13.6195 15.5377 13.8733 15.4683 14.1358C15.3989 14.3984 15.2412 14.5999 14.9952 14.7404L14.1292 15.2404L14.6292 16.1064C14.7708 16.3518 14.8065 16.6056 14.7363 16.8679C14.666 17.1302 14.5083 17.3317 14.2631 17.4724C14.018 17.6132 13.7645 17.6487 13.5025 17.579C13.2406 17.5093 13.0388 17.3518 12.8971 17.1064L12.3971 16.2404ZM10.2631 10.5442C11.1003 10.0609 11.6439 9.3525 11.8941 8.41905C12.1442 7.4856 12.0276 6.6003 11.5442 5.76314C11.0609 4.92598 10.3525 4.38234 9.41905 4.13223C8.4856 3.88211 7.6003 3.99872 6.76314 4.48205C5.92598 4.96538 5.38234 5.67378 5.13223 6.60723C4.88211 7.54068 4.99872 8.42598 5.48205 9.26314C5.96538 10.1003 6.67378 10.6439 7.60723 10.8941C8.54068 11.1442 9.42598 11.0276 10.2631 10.5442Z" fill="#D14535"/>
</g>
<defs>
<clipPath id="clip0_3212_8209">
<rect width="20" height="20" fill="white"/>
</clipPath>
</defs>
</svg>
