<svg width="24" height="24" viewBox="0 0 24 24" fill="none" xmlns="http://www.w3.org/2000/svg">
<g clip-path="url(#clip0_2900_6706)">
<path d="M21.1054 13.2077C21.0738 12.0292 21.0178 10.8507 20.9583 9.67215C20.9162 8.87158 21.0248 8.05383 20.1808 7.67931C19.2528 7.267 18.0306 7.22233 17.022 7.11238C15.8523 6.98525 14.6722 6.94058 13.4955 6.92684C11.0476 6.89592 8.59616 7.02305 6.14825 6.93715C5.03461 6.89935 2.88438 6.88561 2.89488 8.28747C2.82484 8.39398 2.78282 8.52455 2.78982 8.68604C2.86336 11.1152 2.9334 13.5479 2.9264 15.9771C2.9194 18.1108 2.55168 20.3957 3.06648 22.4882C3.14352 22.8009 3.46921 23.0311 3.7914 23.0311C6.35837 23.0139 8.92535 22.9967 11.4923 23.1032C14.0033 23.2063 16.4372 23.6427 18.9236 23.8729C20.7902 24.0447 20.6536 21.8354 20.8252 20.485C21.1299 18.073 21.1719 15.6369 21.1054 13.2077Z" fill="#EBBAB5"/>
<path d="M4.92936 8.73047C3.9628 8.73047 3.9593 10.2045 4.92936 10.2045C5.89941 10.2045 5.89941 8.73047 4.92936 8.73047Z" fill="#FEFFFD"/>
<path d="M7.87467 12.7061C6.90811 12.7061 6.90461 14.1801 7.87467 14.1801C8.84473 14.1801 8.84473 12.7061 7.87467 12.7061Z" fill="#FEFFFD"/>
<path d="M10.5778 17.1689C9.61124 17.1689 9.60774 18.643 10.5778 18.643C11.5479 18.643 11.5479 17.1689 10.5778 17.1689Z" fill="#FEFFFD"/>
<path d="M12.7262 20.9453C11.7597 20.9453 11.7562 22.4193 12.7262 22.4193C13.6963 22.4193 13.6963 20.9453 12.7262 20.9453Z" fill="#FEFFFD"/>
<path d="M5.92545 16.9736C4.95889 16.9736 4.95539 18.4476 5.92545 18.4476C6.89551 18.4476 6.89551 16.9736 5.92545 16.9736Z" fill="#FEFFFD"/>
<path d="M8.02701 20.8975C7.06046 20.8975 7.05695 22.3715 8.02701 22.3715C8.99707 22.3715 8.99707 20.8975 8.02701 20.8975Z" fill="#FEFFFD"/>
<path d="M10.0739 8.68262C9.10733 8.68262 9.10383 10.1566 10.0739 10.1566C11.0439 10.1566 11.0439 8.68262 10.0739 8.68262Z" fill="#FEFFFD"/>
<path d="M13.027 13.1455C12.0605 13.1455 12.057 14.6195 13.027 14.6195C13.9971 14.6195 13.9971 13.1455 13.027 13.1455Z" fill="#FEFFFD"/>
<path d="M15.1794 17.5615C14.2128 17.5615 14.2093 19.0355 15.1794 19.0355C16.1494 19.0355 16.1494 17.5615 15.1794 17.5615Z" fill="#FEFFFD"/>
<path d="M17.6754 21.4854C16.7089 21.4854 16.7054 22.9594 17.6754 22.9594C18.6455 22.9594 18.6455 21.4854 17.6754 21.4854Z" fill="#FEFFFD"/>
<path d="M15.4254 8.33887C14.4589 8.33887 14.4554 9.81288 15.4254 9.81288C16.3955 9.81288 16.3955 8.33887 15.4254 8.33887Z" fill="#FEFFFD"/>
<path d="M18.8278 14.0293C17.8612 14.0293 17.8577 15.5033 18.8278 15.5033C19.7979 15.5033 19.7979 14.0293 18.8278 14.0293Z" fill="#FEFFFD"/>
<path d="M20.277 17.4609C19.3105 17.4609 19.307 18.935 20.277 18.935C21.2471 18.935 21.2471 17.4609 20.277 17.4609Z" fill="#FEFFFD"/>
<path d="M18.9762 10.4971C18.0097 10.4971 18.0062 11.9711 18.9762 11.9711C19.9463 11.9711 19.9463 10.4971 18.9762 10.4971Z" fill="#FEFFFD"/>
<path d="M13.4425 12.2179C13.425 10.8435 13.3865 9.46915 13.2779 8.10165C13.2289 7.43508 13.1553 6.77195 13.0608 6.11225C12.9102 5.04711 12.4479 4.61074 11.702 4.45269C11.5724 4.44582 11.4393 4.44238 11.3028 4.44238C10.7705 4.44238 10.2592 4.49049 9.78989 4.57638C9.61129 4.74474 9.53424 4.99213 9.55526 5.22921C9.50973 5.32885 9.48522 5.44568 9.50273 5.58655C9.60428 6.45584 9.67432 7.31826 9.70934 8.18755C9.84592 11.4414 9.57277 14.6952 9.43269 17.9525C9.38716 19.0623 9.35564 20.1755 9.36615 21.2888C9.36965 21.9141 9.24708 22.7697 9.54125 23.34C9.86343 23.9757 10.4798 23.9585 11.1137 23.9757C11.6635 23.9894 12.4724 24.1028 12.8717 23.6321C13.2884 23.1407 13.1728 22.1065 13.2079 21.5327C13.2744 20.5019 13.3234 19.4643 13.3619 18.4301C13.439 16.3582 13.4635 14.2863 13.439 12.2179H13.4425Z" fill="#E35644"/>
<path d="M14.0069 16.7713C16.0871 16.7438 18.1708 16.6819 20.2335 16.4002C21.8934 16.1734 22.0545 15.2285 21.9915 13.6652C21.9705 13.1601 21.5327 12.9265 21.1335 12.9608C21.0319 12.9162 20.9129 12.8921 20.7658 12.9093C16.5669 13.3938 12.3679 13.0124 8.16202 12.8406C7.02737 12.7959 5.89622 12.7615 4.76157 12.7753C4.1242 12.7822 3.2522 12.6619 2.66736 12.9471C2.02299 13.2632 2.0405 13.8679 2.02299 14.4898C2.00898 15.0327 1.88992 15.8264 2.37319 16.2147C2.87398 16.6201 3.92809 16.5067 4.51292 16.5445C5.56703 16.6098 6.62114 16.6579 7.67524 16.6957C9.78696 16.7713 11.8987 16.7953 14.0104 16.7713H14.0069Z" fill="#E35644"/>
<path opacity="0.47" d="M13.2765 8.10165C12.6917 8.25283 12.0193 8.33873 11.3014 8.33873C10.7341 8.33873 10.1983 8.28376 9.70448 8.18755C9.66946 7.31826 9.60293 6.45584 9.49787 5.58655C9.48036 5.44568 9.50487 5.32542 9.5504 5.22921C9.52938 4.99213 9.60643 4.74474 9.78503 4.57638C10.2543 4.49049 10.7656 4.44238 11.2979 4.44238C11.4345 4.44238 11.5676 4.44238 11.6971 4.45269C12.4431 4.61074 12.9088 5.04711 13.0559 6.11225C13.147 6.77195 13.2205 7.43852 13.273 8.10165H13.2765Z" fill="#46352B"/>
<path d="M17.2002 4.2432C16.4543 4.23289 15.7539 4.44248 15.05 4.65208C16.0621 3.56288 16.843 2.28472 15.4107 1.70061C14.7243 1.41886 14.0204 1.97892 13.4776 2.45995C13.4916 2.36718 13.5056 2.27441 13.5161 2.18164C13.6072 1.41886 13.5161 0.728239 12.9033 0.205977C12.5706 -0.0757693 11.9402 -0.103257 11.7231 0.353722C11.4639 0.900036 11.2818 1.48414 11.1417 2.08543C11.1242 2.02702 11.1067 1.96861 11.0892 1.91364C10.8721 1.24707 10.676 0.618289 9.90903 0.453365C9.54132 0.374338 9.05804 0.559878 8.9845 0.968755C8.88995 1.49445 8.84442 2.00984 8.83742 2.52523C8.14752 1.948 7.37007 1.65594 6.61364 2.082C6.24593 2.28815 6.16188 2.73826 6.34398 3.09216C6.68368 3.74499 7.0794 4.34971 7.53817 4.90977C6.9043 4.90977 6.26694 4.97162 5.62257 5.10905C4.85212 5.27054 4.96419 6.31507 5.62257 6.53153C6.80275 6.91979 7.97242 7.01256 9.18061 6.84764C9.26816 6.882 9.36972 6.89918 9.48529 6.89574C11.3869 6.83046 13.292 6.76861 15.1936 6.70333C16.1986 6.66897 18.3034 6.99538 18.8217 5.80655C19.2944 4.71736 18.1002 4.26038 17.2072 4.24663L17.2002 4.2432Z" fill="#E35644"/>
</g>
<defs>
<clipPath id="clip0_2900_6706">
<rect width="20" height="24" fill="white" transform="translate(2)"/>
</clipPath>
</defs>
</svg>
