<svg width="24" height="24" viewBox="0 0 24 24" fill="none" xmlns="http://www.w3.org/2000/svg">
<g clip-path="url(#clip0_2393_34701)">
<path d="M12.5816 8.70772C11.6277 8.8546 11.7702 10.3117 12.6863 10.3117C13.7623 10.3117 13.6315 8.54614 12.5816 8.70772Z" fill="#456580"/>
<path d="M12.0024 4.67994C10.3361 2.70579 8.08517 1.76278 5.49984 2.08005C2.34452 2.46783 0.811933 5.44962 1.01841 8.43434C1.32667 12.8762 4.97056 17.1241 8.30909 19.724C8.87908 20.1676 11.2114 21.8832 11.7465 21.989C12.5026 22.1359 14.0119 20.9285 14.675 20.4584C18.4381 17.7792 22.62 13.311 22.9777 8.42847C23.4779 1.59239 15.8324 -0.00866507 12.0024 4.68287V4.67994ZM7.0237 7.18581H9.65555V10.5231C9.65555 10.5965 9.34438 11.2457 9.25714 11.3456C8.43705 12.2857 6.75615 11.7804 6.56421 10.5142C6.4886 10.0207 6.4159 7.18581 7.02661 7.18581H7.0237ZM18.6213 12.224C18.2316 13.5283 16.6292 14.9531 15.2537 14.9531H12.6218V19.1776C12.6218 19.2158 12.0315 19.6006 11.8919 19.5859C11.6302 19.5595 7.71292 16.66 7.04115 15.8903C6.72707 15.5319 6.48279 15.2792 6.61074 14.818C6.65146 14.6652 7.29125 13.4285 7.36104 13.3873C7.61696 13.2287 8.3498 13.355 8.74822 13.2875C9.59158 13.1464 11.1416 11.7951 11.1416 10.9343V7.18581C11.8977 7.27982 12.9214 7.05655 13.6368 7.18581C14.5819 7.3562 14.7826 8.5636 14.9396 8.66348C15.3817 8.94257 17.9379 8.35796 18.5573 8.89556C19.0692 9.3421 18.8278 11.5542 18.6242 12.2269L18.6213 12.224Z" fill="#456580"/>
</g>
<defs>
<clipPath id="clip0_2393_34701">
<rect width="22" height="20" fill="white" transform="translate(1 2)"/>
</clipPath>
</defs>
</svg>
