<svg width="16" height="16" viewBox="0 0 16 16" fill="none" xmlns="http://www.w3.org/2000/svg">
<path d="M14.3333 4.33333H12.3333V1.66667C12.3333 1.26667 12.0667 1 11.6667 1H4.33333C3.93333 1 3.66667 1.26667 3.66667 1.66667V4.33333H1.66667C1.26667 4.33333 1 4.6 1 5V14.3333C1 14.7333 1.26667 15 1.66667 15H14.3333C14.7333 15 15 14.7333 15 14.3333V5C15 4.6 14.7333 4.33333 14.3333 4.33333ZM5 12.3333H4.33333C3.93333 12.3333 3.66667 12.0667 3.66667 11.6667C3.66667 11.2667 3.93333 11 4.33333 11H5C5.4 11 5.66667 11.2667 5.66667 11.6667C5.66667 12.0667 5.4 12.3333 5 12.3333ZM5 9.66667H4.33333C3.93333 9.66667 3.66667 9.4 3.66667 9C3.66667 8.6 3.93333 8.33333 4.33333 8.33333H5C5.4 8.33333 5.66667 8.6 5.66667 9C5.66667 9.4 5.4 9.66667 5 9.66667ZM8.33333 12.3333H7.66667C7.26667 12.3333 7 12.0667 7 11.6667C7 11.2667 7.26667 11 7.66667 11H8.33333C8.73333 11 9 11.2667 9 11.6667C9 12.0667 8.73333 12.3333 8.33333 12.3333ZM8.33333 9.66667H7.66667C7.26667 9.66667 7 9.4 7 9C7 8.6 7.26667 8.33333 7.66667 8.33333H8.33333C8.73333 8.33333 9 8.6 9 9C9 9.4 8.73333 9.66667 8.33333 9.66667ZM9 6H8.66667V6.33333C8.66667 6.73333 8.4 7 8 7C7.6 7 7.33333 6.73333 7.33333 6.33333V6H7C6.6 6 6.33333 5.73333 6.33333 5.33333C6.33333 4.93333 6.6 4.66667 7 4.66667H7.33333V4.33333C7.33333 3.93333 7.6 3.66667 8 3.66667C8.4 3.66667 8.66667 3.93333 8.66667 4.33333V4.66667H9C9.4 4.66667 9.66667 4.93333 9.66667 5.33333C9.66667 5.73333 9.4 6 9 6ZM11.6667 12.3333H11C10.6 12.3333 10.3333 12.0667 10.3333 11.6667C10.3333 11.2667 10.6 11 11 11H11.6667C12.0667 11 12.3333 11.2667 12.3333 11.6667C12.3333 12.0667 12.0667 12.3333 11.6667 12.3333ZM11.6667 9.66667H11C10.6 9.66667 10.3333 9.4 10.3333 9C10.3333 8.6 10.6 8.33333 11 8.33333H11.6667C12.0667 8.33333 12.3333 8.6 12.3333 9C12.3333 9.4 12.0667 9.66667 11.6667 9.66667Z" fill="#3B6683"/>
</svg>
