<svg width="16" height="16" viewBox="0 0 16 16" fill="none" xmlns="http://www.w3.org/2000/svg">
<path d="M1.33464 12.666C1.14575 12.666 0.987524 12.602 0.859969 12.474C0.732413 12.346 0.668413 12.1878 0.667969 11.9994V3.33268C0.667969 3.1438 0.731969 2.98557 0.859969 2.85802C0.987969 2.73046 1.14619 2.66646 1.33464 2.66602C1.52308 2.66557 1.68152 2.72957 1.80997 2.85802C1.93841 2.98646 2.00219 3.14468 2.0013 3.33268V9.33268H7.33464V5.33268C7.33464 4.96602 7.4653 4.65224 7.72664 4.39135C7.98797 4.13046 8.30175 3.9998 8.66797 3.99935H12.668C13.4013 3.99935 14.0291 4.26046 14.5513 4.78268C15.0735 5.30491 15.3346 5.93268 15.3346 6.66602V11.9994C15.3346 12.1882 15.2706 12.3467 15.1426 12.4747C15.0146 12.6027 14.8564 12.6665 14.668 12.666C14.4795 12.6656 14.3213 12.6016 14.1933 12.474C14.0653 12.3465 14.0013 12.1882 14.0013 11.9994V10.666H2.0013V11.9994C2.0013 12.1882 1.9373 12.3467 1.8093 12.4747C1.6813 12.6027 1.52308 12.6665 1.33464 12.666ZM4.66797 8.66602C4.11241 8.66602 3.64019 8.47157 3.2513 8.08268C2.86241 7.6938 2.66797 7.22157 2.66797 6.66602C2.66797 6.11046 2.86241 5.63824 3.2513 5.24935C3.64019 4.86046 4.11241 4.66602 4.66797 4.66602C5.22352 4.66602 5.69575 4.86046 6.08464 5.24935C6.47352 5.63824 6.66797 6.11046 6.66797 6.66602C6.66797 7.22157 6.47352 7.6938 6.08464 8.08268C5.69575 8.47157 5.22352 8.66602 4.66797 8.66602Z" fill="#3B6683"/>
</svg>
