<svg width="22" height="22" viewBox="0 0 22 22" fill="none" xmlns="http://www.w3.org/2000/svg">
<path d="M11 4C9.54184 4.00172 8.14389 4.58174 7.11282 5.61281C6.08174 6.64389 5.50172 8.04184 5.5 9.5C5.49866 10.6915 5.88786 11.8507 6.608 12.8C6.608 12.8 6.758 12.9975 6.7825 13.026L11 18L15.2195 13.0235C15.2415 12.997 15.392 12.8 15.392 12.8L15.3925 12.7985C16.1122 11.8495 16.5012 10.691 16.5 9.5C16.4983 8.04184 15.9183 6.64389 14.8872 5.61281C13.8561 4.58174 12.4582 4.00172 11 4ZM11 11.5C10.6044 11.5 10.2178 11.3827 9.88886 11.1629C9.55996 10.9432 9.30362 10.6308 9.15224 10.2654C9.00087 9.89991 8.96126 9.49778 9.03843 9.10982C9.1156 8.72186 9.30608 8.36549 9.58579 8.08579C9.86549 7.80608 10.2219 7.6156 10.6098 7.53843C10.9978 7.46126 11.3999 7.50087 11.7654 7.65224C12.1308 7.80362 12.4432 8.05996 12.6629 8.38886C12.8827 8.71776 13 9.10444 13 9.5C12.9993 10.0302 12.7884 10.5386 12.4135 10.9135C12.0386 11.2884 11.5302 11.4993 11 11.5Z" fill="#3B6683"/>
</svg>
