<svg width="24" height="24" viewBox="0 0 24 24" fill="none" xmlns="http://www.w3.org/2000/svg">
<g clip-path="url(#clip0_2393_34620)">
<path d="M0 21.75H24V24H0V21.75Z" fill="#D0D0D0"/>
<path d="M3.75 21.75H9V22.5H3.75V21.75Z" fill="#D0D0D0"/>
<path d="M3.75 21.75H9V22.5H3.75V21.75Z" fill="#3E4347"/>
<path d="M2.625 7.5H21.375V21.75H2.625V7.5Z" fill="#FFC7CE"/>
<path d="M4.5 15.75H8.25V21.75H4.5V15.75Z" fill="#E84D88"/>
<path d="M4.5 9.75H8.25V13.5H4.5V9.75ZM15.75 9.75H19.5V13.5H15.75V9.75ZM10.125 9.75H13.875V13.5H10.125V9.75ZM15.75 15.75H19.5V19.5H15.75V15.75ZM10.125 15.75H13.875V19.5H10.125V15.75Z" fill="#D6EEF0"/>
<path d="M4.875 6H19.125V7.5H4.875V6Z" fill="#D0D0D0"/>
<path d="M7.5 19.5C7.70711 19.5 7.875 19.3321 7.875 19.125C7.875 18.9179 7.70711 18.75 7.5 18.75C7.29289 18.75 7.125 18.9179 7.125 19.125C7.125 19.3321 7.29289 19.5 7.5 19.5Z" fill="#FFDD7D"/>
<path d="M4.125 13.5H8.625V14.25H4.125V13.5ZM9.75 13.5H14.25V14.25H9.75V13.5ZM15.375 13.5H19.875V14.25H15.375V13.5ZM9.75 19.5H14.25V20.25H9.75V19.5ZM15.375 19.5H19.875V20.25H15.375V19.5Z" fill="#9450E0"/>
<path d="M4.5 9.75V12H4.875C5.5125 12 6 11.5125 6 10.875V9.75H4.5ZM8.25 9.75V12H7.875C7.2375 12 6.75 11.5125 6.75 10.875V9.75H8.25ZM4.875 12H4.5V13.5H6V13.125C6 12.4875 5.5125 12 4.875 12ZM7.875 12C7.2375 12 6.75 12.4875 6.75 13.125V13.5H8.25V12H7.875ZM10.125 9.75V12H10.5C11.1375 12 11.625 11.5125 11.625 10.875V9.75H10.125ZM13.875 9.75V12H13.5C12.8625 12 12.375 11.5125 12.375 10.875V9.75H13.875ZM10.5 12H10.125V13.5H11.625V13.125C11.625 12.4875 11.1375 12 10.5 12ZM13.5 12C12.8625 12 12.375 12.4875 12.375 13.125V13.5H13.875V12H13.5ZM15.75 9.75V12H16.125C16.7625 12 17.25 11.5125 17.25 10.875V9.75H15.75ZM19.5 9.75V12H19.125C18.4875 12 18 11.5125 18 10.875V9.75H19.5ZM16.125 12H15.75V13.5H17.25V13.125C17.25 12.4875 16.7625 12 16.125 12ZM19.125 12C18.4875 12 18 12.4875 18 13.125V13.5H19.5V12H19.125ZM10.125 15.75V18H10.5C11.1375 18 11.625 17.5125 11.625 16.875V15.75H10.125ZM13.875 15.75V18H13.5C12.8625 18 12.375 17.5125 12.375 16.875V15.75H13.875ZM10.5 18H10.125V19.5H11.625V19.125C11.625 18.4875 11.1375 18 10.5 18ZM13.5 18C12.8625 18 12.375 18.4875 12.375 19.125V19.5H13.875V18H13.5ZM15.75 15.75V18H16.125C16.7625 18 17.25 17.5125 17.25 16.875V15.75H15.75ZM19.5 15.75V18H19.125C18.4875 18 18 17.5125 18 16.875V15.75H19.5ZM16.125 18H15.75V19.5H17.25V19.125C17.25 18.4875 16.7625 18 16.125 18ZM19.125 18C18.4875 18 18 18.4875 18 19.125V19.5H19.5V18H19.125ZM13.6125 0C12.9 0 12.3 0.3375 12 0.8625C11.7 0.3375 11.1 0 10.3875 0C9.4125 0 8.625 0.675 8.625 1.5C8.625 3 12 6 12 6C12 6 15.375 3 15.375 1.5C15.375 0.675 14.5875 0 13.6125 0Z" fill="#E84D88"/>
<path d="M3.75 22.5H9V23.25H3.75V22.5Z" fill="#94989B"/>
</g>
<defs>
<clipPath id="clip0_2393_34620">
<rect width="24" height="24" fill="white"/>
</clipPath>
</defs>
</svg>
