<svg width="20" height="20" viewBox="0 0 20 20" fill="none" xmlns="http://www.w3.org/2000/svg">
<path d="M10 3C6.13438 3 3 6.13438 3 10C3 13.8656 6.13438 17 10 17C13.8656 17 17 13.8656 17 10C17 6.13438 13.8656 3 10 3ZM9.5 6.625C9.5 6.55625 9.55625 6.5 9.625 6.5H10.375C10.4437 6.5 10.5 6.55625 10.5 6.625V10.875C10.5 10.9437 10.4437 11 10.375 11H9.625C9.55625 11 9.5 10.9437 9.5 10.875V6.625ZM10 13.5C9.80374 13.496 9.61687 13.4152 9.47948 13.275C9.3421 13.1348 9.26515 12.9463 9.26515 12.75C9.26515 12.5537 9.3421 12.3652 9.47948 12.225C9.61687 12.0848 9.80374 12.004 10 12C10.1963 12.004 10.3831 12.0848 10.5205 12.225C10.6579 12.3652 10.7348 12.5537 10.7348 12.75C10.7348 12.9463 10.6579 13.1348 10.5205 13.275C10.3831 13.4152 10.1963 13.496 10 13.5Z" fill="#F1A841"/>
</svg>
