<svg width="20" height="20" viewBox="0 0 20 20" fill="none" xmlns="http://www.w3.org/2000/svg">
<path d="M10 3C6.13438 3 3 6.13438 3 10C3 13.8656 6.13438 17 10 17C13.8656 17 17 13.8656 17 10C17 6.13438 13.8656 3 10 3ZM13.0234 7.71406L9.73281 12.2766C9.68682 12.3408 9.62619 12.3931 9.55595 12.4291C9.48571 12.4652 9.40787 12.4841 9.32891 12.4841C9.24994 12.4841 9.17211 12.4652 9.10186 12.4291C9.03162 12.3931 8.97099 12.3408 8.925 12.2766L6.97656 9.57656C6.91719 9.49375 6.97656 9.37813 7.07812 9.37813H7.81094C7.97031 9.37813 8.12187 9.45469 8.21562 9.58594L9.32812 11.1297L11.7844 7.72344C11.8781 7.59375 12.0281 7.51562 12.1891 7.51562H12.9219C13.0234 7.51562 13.0828 7.63125 13.0234 7.71406Z" fill="#34A853"/>
</svg>
