<svg width="20" height="20" viewBox="0 0 20 20" fill="none" xmlns="http://www.w3.org/2000/svg">
<path d="M10 17C6.1339 17 3 13.8661 3 10C3 6.1339 6.1339 3 10 3C13.8661 3 17 6.1339 17 10C17 13.8661 13.8661 17 10 17ZM9.3 12.1V13.5H10.7V12.1H9.3ZM10.7 10.9485C11.2626 10.7789 11.7455 10.413 12.0609 9.91722C12.3763 9.42147 12.5031 8.82894 12.4183 8.24753C12.3335 7.66612 12.0427 7.13451 11.5988 6.74952C11.1549 6.36453 10.5876 6.15178 10 6.15C9.43356 6.14982 8.88456 6.34593 8.44642 6.70494C8.00829 7.06395 7.70808 7.56368 7.5969 8.1191L8.9703 8.3942C9.00928 8.1992 9.10282 8.01928 9.24006 7.87537C9.37729 7.73146 9.55257 7.62948 9.7455 7.58129C9.93843 7.53311 10.1411 7.5407 10.3299 7.60318C10.5186 7.66566 10.6858 7.78047 10.8119 7.93424C10.938 8.08801 11.0178 8.27442 11.0421 8.47179C11.0664 8.66916 11.0341 8.86936 10.949 9.04911C10.864 9.22886 10.7296 9.38075 10.5616 9.48713C10.3936 9.59351 10.1989 9.64999 10 9.65C9.81435 9.65 9.6363 9.72375 9.50503 9.85503C9.37375 9.9863 9.3 10.1643 9.3 10.35V11.4H10.7V10.9485Z" fill="#3B6683"/>
</svg>
