<svg width="16" height="16" viewBox="0 0 16 16" fill="none" xmlns="http://www.w3.org/2000/svg">
<path d="M11.3063 7.99908H11.3597C11.8997 7.99908 12.213 7.39241 11.9063 6.95241L8.51968 2.11908C8.45824 2.03106 8.37646 1.95917 8.28128 1.90954C8.18611 1.8599 8.08035 1.83398 7.97301 1.83398C7.86567 1.83398 7.75992 1.8599 7.66474 1.90954C7.56957 1.95917 7.48778 2.03106 7.42635 2.11908L4.06635 6.95241C3.75968 7.39241 4.07968 7.99908 4.61968 7.99908H4.64635L2.71301 10.9724C2.41968 11.4124 2.73968 11.9991 3.27301 11.9991H6.65968V13.3457C6.65968 14.0724 7.25301 14.6657 7.97968 14.6657C8.70635 14.6657 9.29968 14.0724 9.29968 13.3457V11.9991H12.733C13.2663 11.9991 13.5863 11.4057 13.2863 10.9657L11.3063 7.99908Z" fill="#3B6683"/>
</svg>
