<svg width="22" height="22" viewBox="0 0 22 22" fill="none" xmlns="http://www.w3.org/2000/svg">
<path fill-rule="evenodd" clip-rule="evenodd" d="M14.1133 11.7539C15.0266 12.3739 15.6666 13.2139 15.6666 14.3339V16.3339H17.6666C18.0333 16.3339 18.3333 16.0339 18.3333 15.6672V14.3339C18.3333 12.8806 15.9533 12.0206 14.1133 11.7539Z" fill="#3B6683"/>
<path d="M8.9987 10.9993C10.4715 10.9993 11.6654 9.80544 11.6654 8.33268C11.6654 6.85992 10.4715 5.66602 8.9987 5.66602C7.52594 5.66602 6.33203 6.85992 6.33203 8.33268C6.33203 9.80544 7.52594 10.9993 8.9987 10.9993Z" fill="#3B6683"/>
<path fill-rule="evenodd" clip-rule="evenodd" d="M13.0013 10.9993C14.4746 10.9993 15.668 9.80602 15.668 8.33268C15.668 6.85935 14.4746 5.66602 13.0013 5.66602C12.688 5.66602 12.3946 5.73268 12.1146 5.82602C12.6883 6.53549 13.0013 7.42028 13.0013 8.33268C13.0013 9.24508 12.6883 10.1299 12.1146 10.8393C12.3946 10.9327 12.688 10.9993 13.0013 10.9993ZM9.0013 11.666C7.2213 11.666 3.66797 12.5593 3.66797 14.3327V15.666C3.66797 16.0327 3.96797 16.3327 4.33464 16.3327H13.668C14.0346 16.3327 14.3346 16.0327 14.3346 15.666V14.3327C14.3346 12.5593 10.7813 11.666 9.0013 11.666Z" fill="#3B6683"/>
</svg>
