<svg width="16" height="16" viewBox="0 0 16 16" fill="none" xmlns="http://www.w3.org/2000/svg">
<path d="M4.66797 6.00065V2.00065C4.66797 1.81176 4.73197 1.65354 4.85997 1.52599C4.98797 1.39843 5.14619 1.33443 5.33464 1.33399C5.52308 1.33354 5.68152 1.39754 5.80997 1.52599C5.93841 1.65443 6.00219 1.81265 6.0013 2.00065V6.00065H6.66797V2.00065C6.66797 1.81176 6.73197 1.65354 6.85997 1.52599C6.98797 1.39843 7.14619 1.33443 7.33464 1.33399C7.52308 1.33354 7.68152 1.39754 7.80997 1.52599C7.93841 1.65443 8.00219 1.81265 8.0013 2.00065V6.00065C8.0013 6.62288 7.80975 7.16732 7.42664 7.63399C7.04352 8.10065 6.56841 8.41177 6.0013 8.56732V14.0007C6.0013 14.1895 5.9373 14.348 5.8093 14.476C5.6813 14.604 5.52308 14.6678 5.33464 14.6673C5.14619 14.6669 4.98797 14.6029 4.85997 14.4753C4.73197 14.3478 4.66797 14.1895 4.66797 14.0007V8.56732C4.1013 8.41177 3.62641 8.10065 3.2433 7.63399C2.86019 7.16732 2.66841 6.62288 2.66797 6.00065V2.00065C2.66797 1.81176 2.73197 1.65354 2.85997 1.52599C2.98797 1.39843 3.14619 1.33443 3.33464 1.33399C3.52308 1.33354 3.68152 1.39754 3.80997 1.52599C3.93841 1.65443 4.00219 1.81265 4.0013 2.00065V6.00065H4.66797ZM11.3346 9.33399H10.0013C9.81241 9.33399 9.65419 9.26999 9.52664 9.14199C9.39908 9.01399 9.33508 8.85576 9.33464 8.66732V4.66732C9.33464 3.88954 9.62086 3.13954 10.1933 2.41732C10.7657 1.6951 11.3573 1.33399 11.968 1.33399C12.168 1.33399 12.3346 1.41176 12.468 1.56732C12.6013 1.72288 12.668 1.90621 12.668 2.11732V14.0007C12.668 14.1895 12.604 14.348 12.476 14.476C12.348 14.604 12.1897 14.6678 12.0013 14.6673C11.8129 14.6669 11.6546 14.6029 11.5266 14.4753C11.3986 14.3478 11.3346 14.1895 11.3346 14.0007V9.33399Z" fill="#3B6683"/>
</svg>
