<svg width="22" height="22" viewBox="0 0 22 22" fill="none" xmlns="http://www.w3.org/2000/svg">
<path d="M10.9987 4.33398C14.6807 4.33398 17.6654 7.31865 17.6654 11.0007C17.6654 14.6827 14.6807 17.6673 10.9987 17.6673C7.3167 17.6673 4.33203 14.6827 4.33203 11.0007C4.33203 7.31865 7.3167 4.33398 10.9987 4.33398ZM10.9987 7.00065C10.8219 7.00065 10.6523 7.07089 10.5273 7.19591C10.4023 7.32094 10.332 7.49051 10.332 7.66732V11.0007C10.3321 11.1774 10.4023 11.347 10.5274 11.472L12.5274 13.472C12.6531 13.5934 12.8215 13.6606 12.9963 13.6591C13.1711 13.6576 13.3383 13.5875 13.4619 13.4639C13.5855 13.3403 13.6556 13.173 13.6571 12.9983C13.6587 12.8235 13.5915 12.6551 13.47 12.5293L11.6654 10.7247V7.66732C11.6654 7.49051 11.5951 7.32094 11.4701 7.19591C11.3451 7.07089 11.1755 7.00065 10.9987 7.00065Z" fill="#3B6683"/>
</svg>
