<svg width="24" height="24" viewBox="0 0 24 24" fill="none" xmlns="http://www.w3.org/2000/svg">
<path d="M11.5205 7.33734L14.2405 3.07774C14.3998 2.77236 14.3277 2.40356 14.0609 2.23096C13.7558 2.07072 13.4113 2.14562 13.2398 2.41056L10.5198 6.69582C10.3606 7.0012 10.4325 7.37014 10.6994 7.54262C11.0037 7.6893 11.3766 7.58982 11.5205 7.33734ZM0.101751 8.1328C-0.335769 8.92596 0.748712 9.57624 1.25647 9.85204C1.70122 9.81771 2.12461 9.77066 2.52665 9.7109C2.92866 9.65103 3.28363 9.59543 3.59155 9.5441C3.95079 9.47567 4.28437 9.40724 4.59229 9.3388C4.62712 9.50989 4.67416 9.68951 4.73343 9.87766C4.79363 10.0658 4.86633 10.2625 4.95153 10.4678C6.70073 10.0894 8.76075 9.06578 9.72433 7.49126L6.43983 4.1298L5.84963 2L4.59229 3.53962C3.72489 3.78346 2.52149 3.80058 2.15455 4.69432C1.83679 5.22968 1.86253 6.36504 1.51307 6.79846C1.3249 6.98662 1.11961 7.15769 0.897211 7.31166C0.563611 7.54262 0.409671 7.73936 0.101751 8.1328ZM12.4187 15.2664C13.196 15.2609 14.0073 14.9912 14.7794 14.9841C15.2241 14.9328 15.3867 15.1295 15.2669 15.5743L14.1892 20.9109C14.2037 21.6075 14.5821 22.1409 15.1386 22.2324C15.6802 22.2844 16.2248 21.7959 16.3447 21.4241L17.7303 14.9841C17.7645 14.7959 17.8714 14.7061 18.0511 14.7147C18.3205 14.7275 18.3462 14.813 18.3975 14.9841L19.6805 21.3984C19.8497 21.9065 20.2597 22.2391 20.7582 22.2452C21.4942 22.2323 22.0024 21.5486 21.8616 20.9109L20.2963 13.4958L20.168 9.62114C21.5247 9.27694 23.2392 8.34878 23.9144 7.0551C24.1049 6.63692 23.9668 6.23132 23.6065 6.0287C23.1806 5.83406 22.6988 6.02146 22.5288 6.31094C21.8644 7.35076 20.3979 8.0134 19.3982 8.03018H11.7515C12.2246 10.4033 12.4893 12.7765 12.4187 15.2664ZM10.5455 8.4664C9.25015 10.1508 7.38345 11.2064 5.38775 11.6226C5.57349 12.1786 5.82159 12.7196 5.99075 13.2264C6.06774 13.4573 6.04636 13.7952 5.92661 14.24C5.43489 16.1238 4.89421 19.135 4.41265 20.8852C4.22511 22.3512 6.26105 22.32 6.56811 21.4241L7.67149 16.2158C7.97597 15.699 8.73739 15.5784 8.90319 16.2158L9.90393 21.3984C10.4218 22.6898 12.2696 21.8216 12.0594 20.9109L11.11 16.0105C11.0928 15.8736 11.1014 15.7368 11.1356 15.6C11.1191 13.2235 11.0433 10.792 10.5455 8.4664Z" fill="#3B6683"/>
</svg>
