<svg width="64" height="65" viewBox="0 0 64 65" fill="none" xmlns="http://www.w3.org/2000/svg">
<g clip-path="url(#clip0_1127_13923)">
<g clip-path="url(#clip1_1127_13923)">
<path d="M8.7 28.9587C9.25 24.4959 6.25 20.0331 11 17.2562C13.68 15.6893 12.6 22.2149 19.4 26.0827C22.692 27.9551 27.45 27.8678 32 25.686V48H15.135C8.29 48 2.47 43.4331 0.616998 37.2199C2.466 36.9382 7.888 35.5527 8.7 28.9587Z" fill="#D14535"/>
<path d="M-4.76837e-07 15.0099C-4.76837e-07 6.75471 6.811 0 15.135 0H32V25.686C27.45 27.8678 22.692 27.955 19.4 26.0826C12.6 22.2149 13.68 15.6893 11 17.2562C6.25 20.0331 9.25 24.4959 8.7 28.9587C7.887 35.5527 2.466 36.9382 0.616998 37.2198C0.216998 35.877 -4.76837e-07 34.4579 -4.76837e-07 32.9911V15.0099Z" fill="white"/>
<path d="M55.3 28.9587C54.75 24.4959 57.75 20.0331 53 17.2562C50.32 15.6893 51.4 22.2149 44.6 26.0827C41.308 27.9551 36.55 27.8678 32 25.686V48H48.865C55.71 48 61.53 43.4331 63.383 37.2199C61.534 36.9382 56.112 35.5527 55.3 28.9587Z" fill="#D14535"/>
<path d="M64 15.0099C64 6.75471 57.189 0 48.865 0H32V25.686C36.55 27.8678 41.308 27.955 44.6 26.0826C51.4 22.2149 50.32 15.6893 53 17.2562C57.75 20.0331 54.75 24.4959 55.3 28.9587C56.113 35.5527 61.534 36.9382 63.383 37.2198C63.784 35.877 64 34.4579 64 32.9901V15.0089V15.0099Z" fill="white"/>
<path d="M21.2 11.157C19.6536 11.157 18.4 9.91375 18.4 8.38013C18.4 6.84651 19.6536 5.60327 21.2 5.60327C22.7464 5.60327 24 6.84651 24 8.38013C24 9.91375 22.7464 11.157 21.2 11.157Z" fill="#7E5539"/>
<path d="M42.6 11.157C41.0536 11.157 39.8 9.91375 39.8 8.38013C39.8 6.84651 41.0536 5.60327 42.6 5.60327C44.1464 5.60327 45.4 6.84651 45.4 8.38013C45.4 9.91375 44.1464 11.157 42.6 11.157Z" fill="#7E5539"/>
<path d="M38.357 15.6288C38.357 13.6165 35.262 13.4192 32 13.4192C28.738 13.4192 25.643 13.6165 25.643 15.6288C25.643 17.641 28.738 20.7055 32 20.7055C35.262 20.7055 38.357 17.641 38.357 15.6288Z" fill="#7E5539"/>
<path d="M34.715 42.1685C34.715 41.3097 33.393 41.2244 32 41.2244C30.607 41.2244 29.285 41.3087 29.285 42.1685C29.285 43.0283 30.607 44.3364 32 44.3364C33.393 44.3364 34.715 43.0273 34.715 42.1685Z" fill="white"/>
<path d="M21.2 40.8594C18.8804 40.8594 17 38.9945 17 36.6941C17 34.3937 18.8804 32.5288 21.2 32.5288C23.5196 32.5288 25.4 34.3937 25.4 36.6941C25.4 38.9945 23.5196 40.8594 21.2 40.8594Z" fill="white"/>
<path d="M21.2 39.1735C19.8193 39.1735 18.7 38.0635 18.7 36.6942C18.7 35.3249 19.8193 34.2148 21.2 34.2148C22.5807 34.2148 23.7 35.3249 23.7 36.6942C23.7 38.0635 22.5807 39.1735 21.2 39.1735Z" fill="#7E5539"/>
<path d="M42.6 40.8594C40.2804 40.8594 38.4 38.9945 38.4 36.6941C38.4 34.3937 40.2804 32.5288 42.6 32.5288C44.9196 32.5288 46.8 34.3937 46.8 36.6941C46.8 38.9945 44.9196 40.8594 42.6 40.8594Z" fill="white"/>
<path d="M42.6 39.1735C41.2193 39.1735 40.1 38.0635 40.1 36.6942C40.1 35.3249 41.2193 34.2148 42.6 34.2148C43.9807 34.2148 45.1 35.3249 45.1 36.6942C45.1 38.0635 43.9807 39.1735 42.6 39.1735Z" fill="#7E5539"/>
<path d="M31.645 43.3389H32.245V48H31.645V43.3389Z" fill="white"/>
</g>
</g>
<path d="M63.7297 52.144C63.8138 52.144 63.8799 52.1681 63.9279 52.2161C63.976 52.2642 64 52.3303 64 52.4144V54.7934C64 54.8775 63.976 54.9436 63.9279 54.9917C63.8799 55.0397 63.8138 55.0638 63.7297 55.0638H60.7018C60.6417 55.0638 60.6117 55.0938 60.6117 55.1539V64.4898C60.6117 64.5739 60.5877 64.64 60.5396 64.688C60.4915 64.7361 60.4255 64.7601 60.3413 64.7601H57.4937C57.4096 64.7601 57.3435 64.7361 57.2955 64.688C57.2474 64.64 57.2234 64.5739 57.2234 64.4898V55.1539C57.2234 55.0938 57.1933 55.0638 57.1333 55.0638H54.1955C54.1114 55.0638 54.0453 55.0397 53.9973 54.9917C53.9492 54.9436 53.9252 54.8775 53.9252 54.7934V52.4144C53.9252 52.3303 53.9492 52.2642 53.9973 52.2161C54.0453 52.1681 54.1114 52.144 54.1955 52.144H63.7297Z" fill="#D14535"/>
<path d="M48.1347 64.9765C47.1374 64.9765 46.2543 64.7783 45.4853 64.3818C44.7283 63.9733 44.1396 63.4085 43.7191 62.6876C43.2985 61.9547 43.0883 61.1076 43.0883 60.1464V56.7581C43.0883 55.8209 43.2985 54.9918 43.7191 54.2709C44.1396 53.55 44.7283 52.9913 45.4853 52.5948C46.2543 52.1983 47.1374 52 48.1347 52C49.144 52 50.0271 52.1983 50.7841 52.5948C51.553 52.9913 52.1478 53.55 52.5683 54.2709C52.9889 54.9918 53.1991 55.8209 53.1991 56.7581V60.1464C53.1991 61.1076 52.9889 61.9547 52.5683 62.6876C52.1478 63.4085 51.553 63.9733 50.7841 64.3818C50.0271 64.7783 49.144 64.9765 48.1347 64.9765ZM48.1347 62.0748C48.6393 62.0748 49.0418 61.9126 49.3422 61.5882C49.6546 61.2518 49.8108 60.8072 49.8108 60.2545V56.722C49.8108 56.1693 49.6546 55.7308 49.3422 55.4063C49.0418 55.0699 48.6393 54.9017 48.1347 54.9017C47.6421 54.9017 47.2395 55.0699 46.9271 55.4063C46.6268 55.7308 46.4766 56.1693 46.4766 56.722V60.2545C46.4766 60.8072 46.6268 61.2518 46.9271 61.5882C47.2395 61.9126 47.6421 62.0748 48.1347 62.0748Z" fill="#D14535"/>
<path d="M36.9408 64.9765C35.9435 64.9765 35.0604 64.7783 34.2914 64.3818C33.5344 63.9733 32.9457 63.4085 32.5252 62.6876C32.1046 61.9547 31.8943 61.1076 31.8943 60.1464V56.7581C31.8943 55.8209 32.1046 54.9918 32.5252 54.2709C32.9457 53.55 33.5344 52.9913 34.2914 52.5948C35.0604 52.1983 35.9435 52 36.9408 52C37.9501 52 38.8332 52.1983 39.5902 52.5948C40.3591 52.9913 40.9539 53.55 41.3744 54.2709C41.795 54.9918 42.0052 55.8209 42.0052 56.7581V60.1464C42.0052 61.1076 41.795 61.9547 41.3744 62.6876C40.9539 63.4085 40.3591 63.9733 39.5902 64.3818C38.8332 64.7783 37.9501 64.9765 36.9408 64.9765ZM36.9408 62.0748C37.4454 62.0748 37.8479 61.9126 38.1483 61.5882C38.4607 61.2518 38.6169 60.8072 38.6169 60.2545V56.722C38.6169 56.1693 38.4607 55.7308 38.1483 55.4063C37.8479 55.0699 37.4454 54.9017 36.9408 54.9017C36.4482 54.9017 36.0456 55.0699 35.7332 55.4063C35.4329 55.7308 35.2827 56.1693 35.2827 56.722V60.2545C35.2827 60.8072 35.4329 61.2518 35.7332 61.5882C36.0456 61.9126 36.4482 62.0748 36.9408 62.0748Z" fill="#D14535"/>
<path d="M22.1713 64.7601C22.0872 64.7601 22.0212 64.7361 21.9731 64.688C21.925 64.64 21.901 64.5739 21.901 64.4898V52.4144C21.901 52.3303 21.925 52.2642 21.9731 52.2161C22.0212 52.1681 22.0872 52.144 22.1713 52.144H25.019C25.1031 52.144 25.1692 52.1681 25.2172 52.2161C25.2653 52.2642 25.2893 52.3303 25.2893 52.4144V61.7683C25.2893 61.8284 25.3194 61.8584 25.3794 61.8584H30.9485C31.0326 61.8584 31.0987 61.8825 31.1468 61.9305C31.1948 61.9786 31.2189 62.0447 31.2189 62.1288V64.4898C31.2189 64.5739 31.1948 64.64 31.1468 64.688C31.0987 64.7361 31.0326 64.7601 30.9485 64.7601H22.1713Z" fill="#D14535"/>
<path d="M16.5912 52.144C17.4443 52.144 18.1953 52.3183 18.8441 52.6667C19.4929 53.0031 19.9916 53.4898 20.34 54.1266C20.7005 54.7514 20.8807 55.4723 20.8807 56.2893C20.8807 57.0944 20.6945 57.8033 20.322 58.416C19.9495 59.0288 19.4269 59.5034 18.754 59.8399C18.0811 60.1763 17.3061 60.3445 16.429 60.3445H14.5186C14.4585 60.3445 14.4285 60.3745 14.4285 60.4346V64.4898C14.4285 64.5739 14.4044 64.64 14.3564 64.688C14.3083 64.7361 14.2422 64.7601 14.1581 64.7601H11.3105C11.2264 64.7601 11.1603 64.7361 11.1123 64.688C11.0642 64.64 11.0402 64.5739 11.0402 64.4898V52.4144C11.0402 52.3303 11.0642 52.2642 11.1123 52.2161C11.1603 52.1681 11.2264 52.144 11.3105 52.144H16.5912ZM16.0325 57.6411C16.4771 57.6411 16.8315 57.5269 17.0959 57.2986C17.3722 57.0583 17.5104 56.7459 17.5104 56.3614C17.5104 55.9649 17.3722 55.6465 17.0959 55.4062C16.8315 55.1659 16.4771 55.0457 16.0325 55.0457H14.5186C14.4585 55.0457 14.4285 55.0758 14.4285 55.1359V57.5509C14.4285 57.611 14.4585 57.6411 14.5186 57.6411H16.0325Z" fill="#D14535"/>
<path d="M5.02841 64.9044C4.01912 64.9044 3.136 64.7422 2.37903 64.4178C1.62207 64.0814 1.03332 63.6068 0.612781 62.994C0.20426 62.3812 0 61.6723 0 60.8673V60.615C0 60.5309 0.0240306 60.4648 0.0720919 60.4167C0.120153 60.3687 0.186237 60.3446 0.270345 60.3446H3.06391C3.14801 60.3446 3.2141 60.3687 3.26216 60.4167C3.31022 60.4648 3.33425 60.5309 3.33425 60.615V60.7231C3.33425 61.0595 3.50847 61.3599 3.85692 61.6243C4.21738 61.8766 4.69198 62.0027 5.28073 62.0027C5.7253 62.0027 6.0437 61.9126 6.23595 61.7324C6.42819 61.5402 6.52432 61.3299 6.52432 61.1016C6.52432 60.8373 6.40416 60.639 6.16386 60.5068C5.92355 60.3747 5.48499 60.2125 4.84818 60.0202L4.32551 59.876C3.136 59.5156 2.13873 59.035 1.3337 58.4342C0.528674 57.8334 0.126161 56.9623 0.126161 55.8209C0.126161 55.0639 0.330421 54.3971 0.738942 53.8203C1.14746 53.2316 1.70617 52.781 2.41508 52.4686C3.136 52.1562 3.94102 52 4.83016 52C5.76735 52 6.61443 52.1742 7.3714 52.5227C8.14038 52.8711 8.74114 53.3637 9.17369 54.0005C9.61826 54.6374 9.84054 55.3643 9.84054 56.1813V56.3435C9.84054 56.4276 9.81651 56.4937 9.76845 56.5418C9.72039 56.5899 9.65431 56.6139 9.5702 56.6139H6.77664C6.69253 56.6139 6.62645 56.5899 6.57839 56.5418C6.53032 56.4937 6.50629 56.4276 6.50629 56.3435V56.3255C6.50629 55.9651 6.34409 55.6406 6.01967 55.3523C5.69526 55.0519 5.2567 54.9017 4.704 54.9017C4.31951 54.9017 4.01312 54.9798 3.78482 55.136C3.56855 55.2922 3.46041 55.5085 3.46041 55.7848C3.46041 56.0011 3.53851 56.1873 3.69471 56.3435C3.86292 56.4877 4.11525 56.6319 4.45167 56.7761C4.7881 56.9083 5.30476 57.0825 6.00165 57.2988C6.09777 57.3348 6.51831 57.467 7.26326 57.6953C8.02022 57.9115 8.65103 58.314 9.15567 58.9028C9.66031 59.4795 9.91264 60.1824 9.91264 61.0115C9.91264 61.8165 9.70837 62.5134 9.29985 63.1022C8.89133 63.6789 8.32061 64.1235 7.58767 64.4359C6.85474 64.7483 6.00165 64.9044 5.02841 64.9044Z" fill="#D14535"/>
<defs>
<clipPath id="clip0_1127_13923">
<rect width="64" height="48" fill="white"/>
</clipPath>
<clipPath id="clip1_1127_13923">
<rect width="64" height="48" fill="white" transform="matrix(-1 0 0 1 64 0)"/>
</clipPath>
</defs>
</svg>
