<svg width="180" height="48" viewBox="0 0 180 48" fill="none" xmlns="http://www.w3.org/2000/svg">
<g clip-path="url(#clip0_1123_12658)">
<g clip-path="url(#clip1_1123_12658)">
<path d="M8.7 28.9584C9.25 24.4956 6.25 20.0328 11 17.256C13.68 15.689 12.6 22.2146 19.4 26.0824C22.692 27.9548 27.45 27.8675 32 25.6857V47.9998H15.135C8.29 47.9998 2.47 43.4328 0.616998 37.2196C2.466 36.938 7.888 35.5525 8.7 28.9584Z" fill="#D14535"/>
<path d="M-4.76837e-07 15.0099C-4.76837e-07 6.75471 6.811 0 15.135 0H32V25.686C27.45 27.8678 22.692 27.955 19.4 26.0826C12.6 22.2149 13.68 15.6893 11 17.2562C6.25 20.0331 9.25 24.4959 8.7 28.9587C7.887 35.5527 2.466 36.9382 0.616998 37.2198C0.216998 35.877 -4.76837e-07 34.4579 -4.76837e-07 32.9911V15.0099Z" fill="#FFFEFA"/>
<path d="M55.2998 28.9584C54.7498 24.4956 57.7498 20.0328 52.9998 17.256C50.3198 15.689 51.3998 22.2146 44.5998 26.0824C41.3078 27.9548 36.5498 27.8675 31.9998 25.6857V47.9998H48.8648C55.7098 47.9998 61.5298 43.4328 63.3828 37.2196C61.5338 36.938 56.1118 35.5525 55.2998 28.9584Z" fill="#D14535"/>
<path d="M64 15.0099C64 6.75471 57.189 0 48.865 0H32V25.686C36.55 27.8678 41.308 27.955 44.6 26.0826C51.4 22.2149 50.32 15.6893 53 17.2562C57.75 20.0331 54.75 24.4959 55.3 28.9587C56.113 35.5527 61.534 36.9382 63.383 37.2198C63.784 35.877 64 34.4579 64 32.9901V15.0089V15.0099Z" fill="#FFFEFA"/>
<path d="M21.2 11.1572C19.6536 11.1572 18.4 9.91399 18.4 8.38038C18.4 6.84676 19.6536 5.60352 21.2 5.60352C22.7464 5.60352 24 6.84676 24 8.38038C24 9.91399 22.7464 11.1572 21.2 11.1572Z" fill="#7E5539"/>
<path d="M42.5984 11.1572C41.052 11.1572 39.7984 9.91399 39.7984 8.38038C39.7984 6.84676 41.052 5.60352 42.5984 5.60352C44.1448 5.60352 45.3984 6.84676 45.3984 8.38038C45.3984 9.91399 44.1448 11.1572 42.5984 11.1572Z" fill="#7E5539"/>
<path d="M38.3555 15.6295C38.3555 13.6173 35.2605 13.4199 31.9985 13.4199C28.7365 13.4199 25.6415 13.6173 25.6415 15.6295C25.6415 17.6417 28.7365 20.7062 31.9985 20.7062C35.2605 20.7062 38.3555 17.6417 38.3555 15.6295Z" fill="#7E5539"/>
<path d="M34.7148 42.1687C34.7148 41.3099 33.3928 41.2246 31.9998 41.2246C30.6068 41.2246 29.2848 41.3089 29.2848 42.1687C29.2848 43.0286 30.6068 44.3367 31.9998 44.3367C33.3928 44.3367 34.7148 43.0276 34.7148 42.1687Z" fill="#FFFEFA"/>
<path d="M21.1984 40.8599C18.8788 40.8599 16.9984 38.995 16.9984 36.6946C16.9984 34.3942 18.8788 32.5293 21.1984 32.5293C23.518 32.5293 25.3984 34.3942 25.3984 36.6946C25.3984 38.995 23.518 40.8599 21.1984 40.8599Z" fill="#FFFEFA"/>
<path d="M21.1992 39.1735C19.8185 39.1735 18.6992 38.0635 18.6992 36.6942C18.6992 35.3249 19.8185 34.2148 21.1992 34.2148C22.5799 34.2148 23.6992 35.3249 23.6992 36.6942C23.6992 38.0635 22.5799 39.1735 21.1992 39.1735Z" fill="#7E5539"/>
<path d="M42.6008 40.8599C40.2812 40.8599 38.4008 38.995 38.4008 36.6946C38.4008 34.3942 40.2812 32.5293 42.6008 32.5293C44.9204 32.5293 46.8008 34.3942 46.8008 36.6946C46.8008 38.995 44.9204 40.8599 42.6008 40.8599Z" fill="#FFFEFA"/>
<path d="M42.6016 39.1735C41.2208 39.1735 40.1016 38.0635 40.1016 36.6942C40.1016 35.3249 41.2208 34.2148 42.6016 34.2148C43.9823 34.2148 45.1016 35.3249 45.1016 36.6942C45.1016 38.0635 43.9823 39.1735 42.6016 39.1735Z" fill="#7E5539"/>
<path d="M31.6461 43.3379H32.2461V47.999H31.6461V43.3379Z" fill="#FFFEFA"/>
</g>
</g>
<path d="M95.646 33.692C94.302 33.692 93.126 33.476 92.118 33.044C91.11 32.596 90.326 31.964 89.766 31.148C89.222 30.332 88.95 29.388 88.95 28.316V27.98C88.95 27.868 88.982 27.78 89.046 27.716C89.11 27.652 89.198 27.62 89.31 27.62H93.03C93.142 27.62 93.23 27.652 93.294 27.716C93.358 27.78 93.39 27.868 93.39 27.98V28.124C93.39 28.572 93.622 28.972 94.086 29.324C94.566 29.66 95.198 29.828 95.982 29.828C96.574 29.828 96.998 29.708 97.254 29.468C97.51 29.212 97.638 28.932 97.638 28.628C97.638 28.276 97.478 28.012 97.158 27.836C96.838 27.66 96.254 27.444 95.406 27.188L94.71 26.996C93.126 26.516 91.798 25.876 90.726 25.076C89.654 24.276 89.118 23.116 89.118 21.596C89.118 20.588 89.39 19.7 89.934 18.932C90.478 18.148 91.222 17.548 92.166 17.132C93.126 16.716 94.198 16.508 95.382 16.508C96.63 16.508 97.758 16.74 98.766 17.204C99.79 17.668 100.59 18.324 101.166 19.172C101.758 20.02 102.054 20.988 102.054 22.076V22.292C102.054 22.404 102.022 22.492 101.958 22.556C101.894 22.62 101.806 22.652 101.694 22.652H97.974C97.862 22.652 97.774 22.62 97.71 22.556C97.646 22.492 97.614 22.404 97.614 22.292V22.268C97.614 21.788 97.398 21.356 96.966 20.972C96.534 20.572 95.95 20.372 95.214 20.372C94.702 20.372 94.294 20.476 93.99 20.684C93.702 20.892 93.558 21.18 93.558 21.548C93.558 21.836 93.662 22.084 93.87 22.292C94.094 22.484 94.43 22.676 94.878 22.868C95.326 23.044 96.014 23.276 96.942 23.564C97.07 23.612 97.63 23.788 98.622 24.092C99.63 24.38 100.47 24.916 101.142 25.7C101.814 26.468 102.15 27.404 102.15 28.508C102.15 29.58 101.878 30.508 101.334 31.292C100.79 32.06 100.03 32.652 99.054 33.068C98.078 33.484 96.942 33.692 95.646 33.692ZM111.523 16.7C112.659 16.7 113.659 16.932 114.523 17.396C115.387 17.844 116.051 18.492 116.515 19.34C116.995 20.172 117.235 21.132 117.235 22.22C117.235 23.292 116.987 24.236 116.491 25.052C115.995 25.868 115.299 26.5 114.403 26.948C113.507 27.396 112.475 27.62 111.307 27.62H108.763C108.683 27.62 108.643 27.66 108.643 27.74V33.14C108.643 33.252 108.611 33.34 108.547 33.404C108.483 33.468 108.395 33.5 108.283 33.5H104.491C104.379 33.5 104.291 33.468 104.227 33.404C104.163 33.34 104.131 33.252 104.131 33.14V17.06C104.131 16.948 104.163 16.86 104.227 16.796C104.291 16.732 104.379 16.7 104.491 16.7H111.523ZM110.779 24.02C111.371 24.02 111.843 23.868 112.195 23.564C112.563 23.244 112.747 22.828 112.747 22.316C112.747 21.788 112.563 21.364 112.195 21.044C111.843 20.724 111.371 20.564 110.779 20.564H108.763C108.683 20.564 108.643 20.604 108.643 20.684V23.9C108.643 23.98 108.683 24.02 108.763 24.02H110.779ZM119.434 33.5C119.322 33.5 119.234 33.468 119.17 33.404C119.106 33.34 119.074 33.252 119.074 33.14V17.06C119.074 16.948 119.106 16.86 119.17 16.796C119.234 16.732 119.322 16.7 119.434 16.7H123.226C123.338 16.7 123.426 16.732 123.49 16.796C123.554 16.86 123.586 16.948 123.586 17.06V29.516C123.586 29.596 123.626 29.636 123.706 29.636H131.122C131.234 29.636 131.322 29.668 131.386 29.732C131.45 29.796 131.482 29.884 131.482 29.996V33.14C131.482 33.252 131.45 33.34 131.386 33.404C131.322 33.468 131.234 33.5 131.122 33.5H119.434ZM139.582 33.788C138.254 33.788 137.078 33.524 136.054 32.996C135.046 32.452 134.262 31.7 133.702 30.74C133.142 29.764 132.862 28.636 132.862 27.356V22.844C132.862 21.596 133.142 20.492 133.702 19.532C134.262 18.572 135.046 17.828 136.054 17.3C137.078 16.772 138.254 16.508 139.582 16.508C140.926 16.508 142.102 16.772 143.11 17.3C144.134 17.828 144.926 18.572 145.486 19.532C146.046 20.492 146.326 21.596 146.326 22.844V27.356C146.326 28.636 146.046 29.764 145.486 30.74C144.926 31.7 144.134 32.452 143.11 32.996C142.102 33.524 140.926 33.788 139.582 33.788ZM139.582 29.924C140.254 29.924 140.79 29.708 141.19 29.276C141.606 28.828 141.814 28.236 141.814 27.5V22.796C141.814 22.06 141.606 21.476 141.19 21.044C140.79 20.596 140.254 20.372 139.582 20.372C138.926 20.372 138.39 20.596 137.974 21.044C137.574 21.476 137.374 22.06 137.374 22.796V27.5C137.374 28.236 137.574 28.828 137.974 29.276C138.39 29.708 138.926 29.924 139.582 29.924ZM154.968 33.788C153.64 33.788 152.464 33.524 151.44 32.996C150.432 32.452 149.648 31.7 149.088 30.74C148.528 29.764 148.248 28.636 148.248 27.356V22.844C148.248 21.596 148.528 20.492 149.088 19.532C149.648 18.572 150.432 17.828 151.44 17.3C152.464 16.772 153.64 16.508 154.968 16.508C156.312 16.508 157.488 16.772 158.496 17.3C159.52 17.828 160.312 18.572 160.872 19.532C161.432 20.492 161.712 21.596 161.712 22.844V27.356C161.712 28.636 161.432 29.764 160.872 30.74C160.312 31.7 159.52 32.452 158.496 32.996C157.488 33.524 156.312 33.788 154.968 33.788ZM154.968 29.924C155.64 29.924 156.176 29.708 156.576 29.276C156.992 28.828 157.2 28.236 157.2 27.5V22.796C157.2 22.06 156.992 21.476 156.576 21.044C156.176 20.596 155.64 20.372 154.968 20.372C154.312 20.372 153.776 20.596 153.36 21.044C152.96 21.476 152.76 22.06 152.76 22.796V27.5C152.76 28.236 152.96 28.828 153.36 29.276C153.776 29.708 154.312 29.924 154.968 29.924ZM176.215 16.7C176.327 16.7 176.415 16.732 176.479 16.796C176.543 16.86 176.575 16.948 176.575 17.06V20.228C176.575 20.34 176.543 20.428 176.479 20.492C176.415 20.556 176.327 20.588 176.215 20.588H172.183C172.103 20.588 172.063 20.628 172.063 20.708V33.14C172.063 33.252 172.031 33.34 171.967 33.404C171.903 33.468 171.815 33.5 171.703 33.5H167.911C167.799 33.5 167.711 33.468 167.647 33.404C167.583 33.34 167.551 33.252 167.551 33.14V20.708C167.551 20.628 167.511 20.588 167.431 20.588H163.519C163.407 20.588 163.319 20.556 163.255 20.492C163.191 20.428 163.159 20.34 163.159 20.228V17.06C163.159 16.948 163.191 16.86 163.255 16.796C163.319 16.732 163.407 16.7 163.519 16.7H176.215Z" fill="#D14535"/>
<defs>
<clipPath id="clip0_1123_12658">
<rect width="64" height="48" fill="white"/>
</clipPath>
<clipPath id="clip1_1123_12658">
<rect width="64" height="48" fill="white" transform="matrix(-1 0 0 1 64 0)"/>
</clipPath>
</defs>
</svg>
